<?xml version="1.0" encoding="UTF-8" standalone="no"?><svg xmlns="http://www.w3.org/2000/svg" xmlns:xlink="http://www.w3.org/1999/xlink" contentStyleType="text/css" height="1294px" preserveAspectRatio="none" style="width:727px;height:1294px;background:#FFFFFF;" version="1.1" viewBox="0 0 727 1294" width="727px" zoomAndPan="magnify"><defs/><g><!--MD5=[6d811b8a6b2f63a89036cefdc23987ec]
class WarehouseUI--><g id="elem_WarehouseUI"><rect codeLine="3" fill="#F1F1F1" height="48" id="WarehouseUI" rx="2.5" ry="2.5" style="stroke:#181818;stroke-width:0.5;" width="117" x="386.5" y="7"/><ellipse cx="401.5" cy="23" fill="#ADD1B2" rx="11" ry="11" style="stroke:#181818;stroke-width:1.0;"/><path d="M403.5,19.5 Q403.7031,19 403.9375,18.75 Q404.1719,18.5 404.4375,18.5 Q404.9063,18.5 405.2031,18.7813 Q405.5,19.0625 405.5,19.7188 L405.5,21.2813 Q405.5,21.9375 405.2188,22.2188 Q404.9375,22.5 404.5,22.5 Q404.1094,22.5 403.8594,22.3281 Q403.6094,22.1563 403.5,21.7031 Q403.4531,21.3906 403.2813,21.2188 Q402.9688,20.8906 402.4063,20.7031 Q401.8438,20.5 401.2813,20.5 Q400.5781,20.5 399.9844,20.7813 Q399.4063,21.0625 398.9531,21.6875 Q398.5,22.3125 398.5,23.1719 L398.5,24.0938 Q398.5,25.125 399.3438,25.8125 Q400.1875,26.5 401.6875,26.5 Q402.5781,26.5 403.2031,26.2969 Q403.5625,26.1875 403.9688,25.8281 Q404.2344,25.625 404.375,25.5625 Q404.5156,25.5 404.6875,25.5 Q405.0156,25.5 405.25,25.7656 Q405.5,26.0156 405.5,26.375 Q405.5,26.7188 405.1563,27.125 Q404.6563,27.7188 403.8594,28.0469 Q402.8125,28.5 401.5313,28.5 Q400.0313,28.5 398.8281,27.9063 Q397.8594,27.4375 397.1719,26.4219 Q396.5,25.4063 396.5,24.2031 L396.5,23.1094 Q396.5,21.8594 397.0938,20.7656 Q397.7031,19.6719 398.75,19.0938 Q399.8125,18.5 401,18.5 Q401.7188,18.5 402.3438,18.75 Q402.9688,19 403.5,19.5 Z " fill="#000000"/><text fill="#000000" font-family="sans-serif" font-size="14" lengthAdjust="spacing" textLength="85" x="415.5" y="28.7285">WarehouseUI</text><line style="stroke:#181818;stroke-width:0.5;" x1="387.5" x2="502.5" y1="39" y2="39"/><line style="stroke:#181818;stroke-width:0.5;" x1="387.5" x2="502.5" y1="47" y2="47"/></g><!--MD5=[c14f785e02de9107198a00677a841b02]
class WarehouseController--><g id="elem_WarehouseController"><rect codeLine="6" fill="#F1F1F1" height="153.6563" id="WarehouseController" rx="2.5" ry="2.5" style="stroke:#181818;stroke-width:0.5;" width="187" x="351.5" y="116"/><ellipse cx="375.5" cy="132" fill="#ADD1B2" rx="11" ry="11" style="stroke:#181818;stroke-width:1.0;"/><path d="M377.5,128.5 Q377.7031,128 377.9375,127.75 Q378.1719,127.5 378.4375,127.5 Q378.9063,127.5 379.2031,127.7813 Q379.5,128.0625 379.5,128.7188 L379.5,130.2813 Q379.5,130.9375 379.2188,131.2188 Q378.9375,131.5 378.5,131.5 Q378.1094,131.5 377.8594,131.3281 Q377.6094,131.1563 377.5,130.7031 Q377.4531,130.3906 377.2813,130.2188 Q376.9688,129.8906 376.4063,129.7031 Q375.8438,129.5 375.2813,129.5 Q374.5781,129.5 373.9844,129.7813 Q373.4063,130.0625 372.9531,130.6875 Q372.5,131.3125 372.5,132.1719 L372.5,133.0938 Q372.5,134.125 373.3438,134.8125 Q374.1875,135.5 375.6875,135.5 Q376.5781,135.5 377.2031,135.2969 Q377.5625,135.1875 377.9688,134.8281 Q378.2344,134.625 378.375,134.5625 Q378.5156,134.5 378.6875,134.5 Q379.0156,134.5 379.25,134.7656 Q379.5,135.0156 379.5,135.375 Q379.5,135.7188 379.1563,136.125 Q378.6563,136.7188 377.8594,137.0469 Q376.8125,137.5 375.5313,137.5 Q374.0313,137.5 372.8281,136.9063 Q371.8594,136.4375 371.1719,135.4219 Q370.5,134.4063 370.5,133.2031 L370.5,132.1094 Q370.5,130.8594 371.0938,129.7656 Q371.7031,128.6719 372.75,128.0938 Q373.8125,127.5 375,127.5 Q375.7188,127.5 376.3438,127.75 Q376.9688,128 377.5,128.5 Z " fill="#000000"/><text fill="#000000" font-family="sans-serif" font-size="14" lengthAdjust="spacing" textLength="135" x="391.5" y="137.7285">WarehouseController</text><line style="stroke:#181818;stroke-width:0.5;" x1="352.5" x2="537.5" y1="148" y2="148"/><line style="stroke:#181818;stroke-width:0.5;" x1="352.5" x2="537.5" y1="156" y2="156"/><text fill="#000000" font-family="sans-serif" font-size="14" lengthAdjust="spacing" textLength="175" x="357.5" y="174.5332">+buildWarehouse(fileName)</text><text fill="#000000" font-family="sans-serif" font-size="14" lengthAdjust="spacing" textLength="98" x="357.5" y="192.1426">+buildShelves()</text><text fill="#000000" font-family="sans-serif" font-size="14" lengthAdjust="spacing" textLength="4" x="357.5" y="209.752"> </text><text fill="#000000" font-family="sans-serif" font-size="14" lengthAdjust="spacing" textLength="92" x="357.5" y="227.3613">+repositories()</text><text fill="#000000" font-family="sans-serif" font-size="14" lengthAdjust="spacing" textLength="94" x="357.5" y="244.9707">+warehouses()</text><text fill="#000000" font-family="sans-serif" font-size="14" lengthAdjust="spacing" textLength="121" x="357.5" y="262.5801">+saveWarehouse()</text></g><!--MD5=[c5149b4909ffd2688ff51a939867f774]
class Warehouse--><g id="elem_Warehouse"><rect codeLine="18" fill="#F1F1F1" height="171.2656" id="Warehouse" rx="2.5" ry="2.5" style="stroke:#181818;stroke-width:0.5;" width="157" x="351.5" y="527"/><ellipse cx="389.9" cy="543" fill="#ADD1B2" rx="11" ry="11" style="stroke:#181818;stroke-width:1.0;"/><path d="M391.9,539.5 Q392.1031,539 392.3375,538.75 Q392.5719,538.5 392.8375,538.5 Q393.3063,538.5 393.6031,538.7813 Q393.9,539.0625 393.9,539.7188 L393.9,541.2813 Q393.9,541.9375 393.6188,542.2188 Q393.3375,542.5 392.9,542.5 Q392.5094,542.5 392.2594,542.3281 Q392.0094,542.1563 391.9,541.7031 Q391.8531,541.3906 391.6813,541.2188 Q391.3688,540.8906 390.8063,540.7031 Q390.2438,540.5 389.6813,540.5 Q388.9781,540.5 388.3844,540.7813 Q387.8063,541.0625 387.3531,541.6875 Q386.9,542.3125 386.9,543.1719 L386.9,544.0938 Q386.9,545.125 387.7438,545.8125 Q388.5875,546.5 390.0875,546.5 Q390.9781,546.5 391.6031,546.2969 Q391.9625,546.1875 392.3688,545.8281 Q392.6344,545.625 392.775,545.5625 Q392.9156,545.5 393.0875,545.5 Q393.4156,545.5 393.65,545.7656 Q393.9,546.0156 393.9,546.375 Q393.9,546.7188 393.5563,547.125 Q393.0563,547.7188 392.2594,548.0469 Q391.2125,548.5 389.9313,548.5 Q388.4313,548.5 387.2281,547.9063 Q386.2594,547.4375 385.5719,546.4219 Q384.9,545.4063 384.9,544.2031 L384.9,543.1094 Q384.9,541.8594 385.4938,540.7656 Q386.1031,539.6719 387.15,539.0938 Q388.2125,538.5 389.4,538.5 Q390.1188,538.5 390.7438,538.75 Q391.3688,539 391.9,539.5 Z " fill="#000000"/><text fill="#000000" font-family="sans-serif" font-size="14" lengthAdjust="spacing" textLength="73" x="409.1" y="548.7285">Warehouse</text><line style="stroke:#181818;stroke-width:0.5;" x1="352.5" x2="507.5" y1="559" y2="559"/><text fill="#000000" font-family="sans-serif" font-size="14" lengthAdjust="spacing" textLength="81" x="357.5" y="577.5332">-String name</text><text fill="#000000" font-family="sans-serif" font-size="14" lengthAdjust="spacing" textLength="93" x="357.5" y="595.1426">-Double length</text><text fill="#000000" font-family="sans-serif" font-size="14" lengthAdjust="spacing" textLength="85" x="357.5" y="612.752">-square width</text><text fill="#000000" font-family="sans-serif" font-size="14" lengthAdjust="spacing" textLength="69" x="357.5" y="630.3613">-String unit</text><text fill="#000000" font-family="sans-serif" font-size="14" lengthAdjust="spacing" textLength="106" x="357.5" y="647.9707">-List&lt;Aisle&gt; aisle</text><text fill="#000000" font-family="sans-serif" font-size="14" lengthAdjust="spacing" textLength="145" x="357.5" y="665.5801">-List&lt;Aisle&gt; AGVDocks</text><line style="stroke:#181818;stroke-width:0.5;" x1="352.5" x2="507.5" y1="672.6563" y2="672.6563"/><text fill="#000000" font-family="sans-serif" font-size="14" lengthAdjust="spacing" textLength="67" x="357.5" y="691.1895">+toString()</text></g><!--MD5=[0a2f0ce5c49321e9082933c32b514ce4]
class Aisle--><g id="elem_Aisle"><rect codeLine="28" fill="#F1F1F1" height="153.6563" id="Aisle" rx="2.5" ry="2.5" style="stroke:#181818;stroke-width:0.5;" width="133" x="363.5" y="776"/><ellipse cx="410.75" cy="792" fill="#ADD1B2" rx="11" ry="11" style="stroke:#181818;stroke-width:1.0;"/><path d="M412.75,788.5 Q412.9531,788 413.1875,787.75 Q413.4219,787.5 413.6875,787.5 Q414.1563,787.5 414.4531,787.7813 Q414.75,788.0625 414.75,788.7188 L414.75,790.2813 Q414.75,790.9375 414.4688,791.2188 Q414.1875,791.5 413.75,791.5 Q413.3594,791.5 413.1094,791.3281 Q412.8594,791.1563 412.75,790.7031 Q412.7031,790.3906 412.5313,790.2188 Q412.2188,789.8906 411.6563,789.7031 Q411.0938,789.5 410.5313,789.5 Q409.8281,789.5 409.2344,789.7813 Q408.6563,790.0625 408.2031,790.6875 Q407.75,791.3125 407.75,792.1719 L407.75,793.0938 Q407.75,794.125 408.5938,794.8125 Q409.4375,795.5 410.9375,795.5 Q411.8281,795.5 412.4531,795.2969 Q412.8125,795.1875 413.2188,794.8281 Q413.4844,794.625 413.625,794.5625 Q413.7656,794.5 413.9375,794.5 Q414.2656,794.5 414.5,794.7656 Q414.75,795.0156 414.75,795.375 Q414.75,795.7188 414.4063,796.125 Q413.9063,796.7188 413.1094,797.0469 Q412.0625,797.5 410.7813,797.5 Q409.2813,797.5 408.0781,796.9063 Q407.1094,796.4375 406.4219,795.4219 Q405.75,794.4063 405.75,793.2031 L405.75,792.1094 Q405.75,790.8594 406.3438,789.7656 Q406.9531,788.6719 408,788.0938 Q409.0625,787.5 410.25,787.5 Q410.9688,787.5 411.5938,787.75 Q412.2188,788 412.75,788.5 Z " fill="#000000"/><text fill="#000000" font-family="sans-serif" font-size="14" lengthAdjust="spacing" textLength="30" x="431.25" y="797.7285">Aisle</text><line style="stroke:#181818;stroke-width:0.5;" x1="364.5" x2="495.5" y1="808" y2="808"/><text fill="#000000" font-family="sans-serif" font-size="14" lengthAdjust="spacing" textLength="80" x="369.5" y="826.5332">-Begin begin</text><text fill="#000000" font-family="sans-serif" font-size="14" lengthAdjust="spacing" textLength="58" x="369.5" y="844.1426">-End end</text><text fill="#000000" font-family="sans-serif" font-size="14" lengthAdjust="spacing" textLength="83" x="369.5" y="861.752">-Depth depth</text><text fill="#000000" font-family="sans-serif" font-size="14" lengthAdjust="spacing" textLength="121" x="369.5" y="879.3613">-String accessibility</text><text fill="#000000" font-family="sans-serif" font-size="14" lengthAdjust="spacing" textLength="103" x="369.5" y="896.9707">-List&lt;Row&gt; rows</text><line style="stroke:#181818;stroke-width:0.5;" x1="364.5" x2="495.5" y1="904.0469" y2="904.0469"/><text fill="#000000" font-family="sans-serif" font-size="14" lengthAdjust="spacing" textLength="67" x="369.5" y="922.5801">+toString()</text></g><!--MD5=[05aedcff764caeeb5d443618a4d90de7]
class Row--><g id="elem_Row"><rect codeLine="37" fill="#F1F1F1" height="136.0469" id="Row" rx="2.5" ry="2.5" style="stroke:#181818;stroke-width:0.5;" width="163" x="104.5" y="785"/><ellipse cx="168.25" cy="801" fill="#ADD1B2" rx="11" ry="11" style="stroke:#181818;stroke-width:1.0;"/><path d="M170.25,797.5 Q170.4531,797 170.6875,796.75 Q170.9219,796.5 171.1875,796.5 Q171.6563,796.5 171.9531,796.7813 Q172.25,797.0625 172.25,797.7188 L172.25,799.2813 Q172.25,799.9375 171.9688,800.2188 Q171.6875,800.5 171.25,800.5 Q170.8594,800.5 170.6094,800.3281 Q170.3594,800.1563 170.25,799.7031 Q170.2031,799.3906 170.0313,799.2188 Q169.7188,798.8906 169.1563,798.7031 Q168.5938,798.5 168.0313,798.5 Q167.3281,798.5 166.7344,798.7813 Q166.1563,799.0625 165.7031,799.6875 Q165.25,800.3125 165.25,801.1719 L165.25,802.0938 Q165.25,803.125 166.0938,803.8125 Q166.9375,804.5 168.4375,804.5 Q169.3281,804.5 169.9531,804.2969 Q170.3125,804.1875 170.7188,803.8281 Q170.9844,803.625 171.125,803.5625 Q171.2656,803.5 171.4375,803.5 Q171.7656,803.5 172,803.7656 Q172.25,804.0156 172.25,804.375 Q172.25,804.7188 171.9063,805.125 Q171.4063,805.7188 170.6094,806.0469 Q169.5625,806.5 168.2813,806.5 Q166.7813,806.5 165.5781,805.9063 Q164.6094,805.4375 163.9219,804.4219 Q163.25,803.4063 163.25,802.2031 L163.25,801.1094 Q163.25,799.8594 163.8438,798.7656 Q164.4531,797.6719 165.5,797.0938 Q166.5625,796.5 167.75,796.5 Q168.4688,796.5 169.0938,796.75 Q169.7188,797 170.25,797.5 Z " fill="#000000"/><text fill="#000000" font-family="sans-serif" font-size="14" lengthAdjust="spacing" textLength="27" x="188.75" y="806.7285">Row</text><line style="stroke:#181818;stroke-width:0.5;" x1="105.5" x2="266.5" y1="817" y2="817"/><text fill="#000000" font-family="sans-serif" font-size="14" lengthAdjust="spacing" textLength="80" x="110.5" y="835.5332">-Begin begin</text><text fill="#000000" font-family="sans-serif" font-size="14" lengthAdjust="spacing" textLength="58" x="110.5" y="853.1426">-End end</text><text fill="#000000" font-family="sans-serif" font-size="14" lengthAdjust="spacing" textLength="151" x="110.5" y="870.752">-Integer numberShelves</text><text fill="#000000" font-family="sans-serif" font-size="14" lengthAdjust="spacing" textLength="138" x="110.5" y="888.3613">-List&lt;Shelve&gt; shelves</text><line style="stroke:#181818;stroke-width:0.5;" x1="105.5" x2="266.5" y1="895.4375" y2="895.4375"/><text fill="#000000" font-family="sans-serif" font-size="14" lengthAdjust="spacing" textLength="67" x="110.5" y="913.9707">+toString()</text></g><!--MD5=[06081a5d508790fd32eda4878a7f2299]
class Shelve--><g id="elem_Shelve"><rect codeLine="45" fill="#F1F1F1" height="83.2188" id="Shelve" rx="2.5" ry="2.5" style="stroke:#181818;stroke-width:0.5;" width="114" x="7" y="1017"/><ellipse cx="39.55" cy="1033" fill="#ADD1B2" rx="11" ry="11" style="stroke:#181818;stroke-width:1.0;"/><path d="M41.55,1029.5 Q41.7531,1029 41.9875,1028.75 Q42.2219,1028.5 42.4875,1028.5 Q42.9563,1028.5 43.2531,1028.7813 Q43.55,1029.0625 43.55,1029.7188 L43.55,1031.2813 Q43.55,1031.9375 43.2688,1032.2188 Q42.9875,1032.5 42.55,1032.5 Q42.1594,1032.5 41.9094,1032.3281 Q41.6594,1032.1563 41.55,1031.7031 Q41.5031,1031.3906 41.3313,1031.2188 Q41.0188,1030.8906 40.4563,1030.7031 Q39.8938,1030.5 39.3313,1030.5 Q38.6281,1030.5 38.0344,1030.7813 Q37.4563,1031.0625 37.0031,1031.6875 Q36.55,1032.3125 36.55,1033.1719 L36.55,1034.0938 Q36.55,1035.125 37.3938,1035.8125 Q38.2375,1036.5 39.7375,1036.5 Q40.6281,1036.5 41.2531,1036.2969 Q41.6125,1036.1875 42.0188,1035.8281 Q42.2844,1035.625 42.425,1035.5625 Q42.5656,1035.5 42.7375,1035.5 Q43.0656,1035.5 43.3,1035.7656 Q43.55,1036.0156 43.55,1036.375 Q43.55,1036.7188 43.2063,1037.125 Q42.7063,1037.7188 41.9094,1038.0469 Q40.8625,1038.5 39.5813,1038.5 Q38.0813,1038.5 36.8781,1037.9063 Q35.9094,1037.4375 35.2219,1036.4219 Q34.55,1035.4063 34.55,1034.2031 L34.55,1033.1094 Q34.55,1031.8594 35.1438,1030.7656 Q35.7531,1029.6719 36.8,1029.0938 Q37.8625,1028.5 39.05,1028.5 Q39.7688,1028.5 40.3938,1028.75 Q41.0188,1029 41.55,1029.5 Z " fill="#000000"/><text fill="#000000" font-family="sans-serif" font-size="14" lengthAdjust="spacing" textLength="43" x="57.45" y="1038.7285">Shelve</text><line style="stroke:#181818;stroke-width:0.5;" x1="8" x2="120" y1="1049" y2="1049"/><text fill="#000000" font-family="sans-serif" font-size="14" lengthAdjust="spacing" textLength="102" x="13" y="1067.5332">-Integer position</text><text fill="#000000" font-family="sans-serif" font-size="14" lengthAdjust="spacing" textLength="86" x="13" y="1085.1426">-List&lt;Bin&gt; bin</text><line style="stroke:#181818;stroke-width:0.5;" x1="8" x2="120" y1="1092.2188" y2="1092.2188"/></g><!--MD5=[2038ae133c03a210330ad60522e564cb]
class Bin--><g id="elem_Bin"><rect codeLine="50" fill="#F1F1F1" height="100.8281" id="Bin" rx="2.5" ry="2.5" style="stroke:#181818;stroke-width:0.5;" width="113" x="7.5" y="1187"/><ellipse cx="49.95" cy="1203" fill="#ADD1B2" rx="11" ry="11" style="stroke:#181818;stroke-width:1.0;"/><path d="M51.95,1199.5 Q52.1531,1199 52.3875,1198.75 Q52.6219,1198.5 52.8875,1198.5 Q53.3563,1198.5 53.6531,1198.7813 Q53.95,1199.0625 53.95,1199.7188 L53.95,1201.2813 Q53.95,1201.9375 53.6688,1202.2188 Q53.3875,1202.5 52.95,1202.5 Q52.5594,1202.5 52.3094,1202.3281 Q52.0594,1202.1563 51.95,1201.7031 Q51.9031,1201.3906 51.7313,1201.2188 Q51.4188,1200.8906 50.8563,1200.7031 Q50.2938,1200.5 49.7313,1200.5 Q49.0281,1200.5 48.4344,1200.7813 Q47.8563,1201.0625 47.4031,1201.6875 Q46.95,1202.3125 46.95,1203.1719 L46.95,1204.0938 Q46.95,1205.125 47.7938,1205.8125 Q48.6375,1206.5 50.1375,1206.5 Q51.0281,1206.5 51.6531,1206.2969 Q52.0125,1206.1875 52.4188,1205.8281 Q52.6844,1205.625 52.825,1205.5625 Q52.9656,1205.5 53.1375,1205.5 Q53.4656,1205.5 53.7,1205.7656 Q53.95,1206.0156 53.95,1206.375 Q53.95,1206.7188 53.6063,1207.125 Q53.1063,1207.7188 52.3094,1208.0469 Q51.2625,1208.5 49.9813,1208.5 Q48.4813,1208.5 47.2781,1207.9063 Q46.3094,1207.4375 45.6219,1206.4219 Q44.95,1205.4063 44.95,1204.2031 L44.95,1203.1094 Q44.95,1201.8594 45.5438,1200.7656 Q46.1531,1199.6719 47.2,1199.0938 Q48.2625,1198.5 49.45,1198.5 Q50.1688,1198.5 50.7938,1198.75 Q51.4188,1199 51.95,1199.5 Z " fill="#000000"/><text fill="#000000" font-family="sans-serif" font-size="14" lengthAdjust="spacing" textLength="20" x="70.05" y="1208.7285">Bin</text><line style="stroke:#181818;stroke-width:0.5;" x1="8.5" x2="119.5" y1="1219" y2="1219"/><text fill="#000000" font-family="sans-serif" font-size="14" lengthAdjust="spacing" textLength="54" x="13.5" y="1237.5332">-Product</text><line style="stroke:#181818;stroke-width:0.5;" x1="8.5" x2="119.5" y1="1244.6094" y2="1244.6094"/><text fill="#000000" font-family="sans-serif" font-size="14" lengthAdjust="spacing" textLength="101" x="13.5" y="1263.1426">+sameAs(other)</text><text fill="#000000" font-family="sans-serif" font-size="14" lengthAdjust="spacing" textLength="63" x="13.5" y="1280.752">+identity()</text></g><!--MD5=[47ef0dfe59fd373997f8a6206ed8b282]
class Begin--><g id="elem_Begin"><rect codeLine="56" fill="#F1F1F1" height="100.8281" id="Begin" rx="2.5" ry="2.5" style="stroke:#181818;stroke-width:0.5;" width="127" x="156.5" y="1008"/><ellipse cx="198.05" cy="1024" fill="#ADD1B2" rx="11" ry="11" style="stroke:#181818;stroke-width:1.0;"/><path d="M200.05,1020.5 Q200.2531,1020 200.4875,1019.75 Q200.7219,1019.5 200.9875,1019.5 Q201.4563,1019.5 201.7531,1019.7813 Q202.05,1020.0625 202.05,1020.7188 L202.05,1022.2813 Q202.05,1022.9375 201.7688,1023.2188 Q201.4875,1023.5 201.05,1023.5 Q200.6594,1023.5 200.4094,1023.3281 Q200.1594,1023.1563 200.05,1022.7031 Q200.0031,1022.3906 199.8313,1022.2188 Q199.5188,1021.8906 198.9563,1021.7031 Q198.3938,1021.5 197.8313,1021.5 Q197.1281,1021.5 196.5344,1021.7813 Q195.9563,1022.0625 195.5031,1022.6875 Q195.05,1023.3125 195.05,1024.1719 L195.05,1025.0938 Q195.05,1026.125 195.8938,1026.8125 Q196.7375,1027.5 198.2375,1027.5 Q199.1281,1027.5 199.7531,1027.2969 Q200.1125,1027.1875 200.5188,1026.8281 Q200.7844,1026.625 200.925,1026.5625 Q201.0656,1026.5 201.2375,1026.5 Q201.5656,1026.5 201.8,1026.7656 Q202.05,1027.0156 202.05,1027.375 Q202.05,1027.7188 201.7063,1028.125 Q201.2063,1028.7188 200.4094,1029.0469 Q199.3625,1029.5 198.0813,1029.5 Q196.5813,1029.5 195.3781,1028.9063 Q194.4094,1028.4375 193.7219,1027.4219 Q193.05,1026.4063 193.05,1025.2031 L193.05,1024.1094 Q193.05,1022.8594 193.6438,1021.7656 Q194.2531,1020.6719 195.3,1020.0938 Q196.3625,1019.5 197.55,1019.5 Q198.2688,1019.5 198.8938,1019.75 Q199.5188,1020 200.05,1020.5 Z " fill="#000000"/><text fill="#000000" font-family="sans-serif" font-size="14" lengthAdjust="spacing" textLength="36" x="217.95" y="1029.7285">Begin</text><line style="stroke:#181818;stroke-width:0.5;" x1="157.5" x2="282.5" y1="1040" y2="1040"/><text fill="#000000" font-family="sans-serif" font-size="14" lengthAdjust="spacing" textLength="109" x="162.5" y="1058.5332">-int lSquareBegin</text><text fill="#000000" font-family="sans-serif" font-size="14" lengthAdjust="spacing" textLength="115" x="162.5" y="1076.1426">-int wSquareBegin</text><line style="stroke:#181818;stroke-width:0.5;" x1="157.5" x2="282.5" y1="1083.2188" y2="1083.2188"/><text fill="#000000" font-family="sans-serif" font-size="14" lengthAdjust="spacing" textLength="67" x="162.5" y="1101.752">+toString()</text></g><!--MD5=[b5cffc0c85435f5848b9ffcad0969c85]
class End--><g id="elem_End"><rect codeLine="61" fill="#F1F1F1" height="100.8281" id="End" rx="2.5" ry="2.5" style="stroke:#181818;stroke-width:0.5;" width="116" x="319" y="1008"/><ellipse cx="360.55" cy="1024" fill="#ADD1B2" rx="11" ry="11" style="stroke:#181818;stroke-width:1.0;"/><path d="M362.55,1020.5 Q362.7531,1020 362.9875,1019.75 Q363.2219,1019.5 363.4875,1019.5 Q363.9563,1019.5 364.2531,1019.7813 Q364.55,1020.0625 364.55,1020.7188 L364.55,1022.2813 Q364.55,1022.9375 364.2688,1023.2188 Q363.9875,1023.5 363.55,1023.5 Q363.1594,1023.5 362.9094,1023.3281 Q362.6594,1023.1563 362.55,1022.7031 Q362.5031,1022.3906 362.3313,1022.2188 Q362.0188,1021.8906 361.4563,1021.7031 Q360.8938,1021.5 360.3313,1021.5 Q359.6281,1021.5 359.0344,1021.7813 Q358.4563,1022.0625 358.0031,1022.6875 Q357.55,1023.3125 357.55,1024.1719 L357.55,1025.0938 Q357.55,1026.125 358.3938,1026.8125 Q359.2375,1027.5 360.7375,1027.5 Q361.6281,1027.5 362.2531,1027.2969 Q362.6125,1027.1875 363.0188,1026.8281 Q363.2844,1026.625 363.425,1026.5625 Q363.5656,1026.5 363.7375,1026.5 Q364.0656,1026.5 364.3,1026.7656 Q364.55,1027.0156 364.55,1027.375 Q364.55,1027.7188 364.2063,1028.125 Q363.7063,1028.7188 362.9094,1029.0469 Q361.8625,1029.5 360.5813,1029.5 Q359.0813,1029.5 357.8781,1028.9063 Q356.9094,1028.4375 356.2219,1027.4219 Q355.55,1026.4063 355.55,1025.2031 L355.55,1024.1094 Q355.55,1022.8594 356.1438,1021.7656 Q356.7531,1020.6719 357.8,1020.0938 Q358.8625,1019.5 360.05,1019.5 Q360.7688,1019.5 361.3938,1019.75 Q362.0188,1020 362.55,1020.5 Z " fill="#000000"/><text fill="#000000" font-family="sans-serif" font-size="14" lengthAdjust="spacing" textLength="25" x="380.45" y="1029.7285">End</text><line style="stroke:#181818;stroke-width:0.5;" x1="320" x2="434" y1="1040" y2="1040"/><text fill="#000000" font-family="sans-serif" font-size="14" lengthAdjust="spacing" textLength="98" x="325" y="1058.5332">-int lSquareEnd</text><text fill="#000000" font-family="sans-serif" font-size="14" lengthAdjust="spacing" textLength="104" x="325" y="1076.1426">-int wSquareEnd</text><line style="stroke:#181818;stroke-width:0.5;" x1="320" x2="434" y1="1083.2188" y2="1083.2188"/><text fill="#000000" font-family="sans-serif" font-size="14" lengthAdjust="spacing" textLength="67" x="325" y="1101.752">+toString()</text></g><!--MD5=[cfd0138e5346ce60abb87771726e7b9e]
class Depth--><g id="elem_Depth"><rect codeLine="66" fill="#F1F1F1" height="100.8281" id="Depth" rx="2.5" ry="2.5" style="stroke:#181818;stroke-width:0.5;" width="129" x="470.5" y="1008"/><ellipse cx="512.05" cy="1024" fill="#ADD1B2" rx="11" ry="11" style="stroke:#181818;stroke-width:1.0;"/><path d="M514.05,1020.5 Q514.2531,1020 514.4875,1019.75 Q514.7219,1019.5 514.9875,1019.5 Q515.4563,1019.5 515.7531,1019.7813 Q516.05,1020.0625 516.05,1020.7188 L516.05,1022.2813 Q516.05,1022.9375 515.7688,1023.2188 Q515.4875,1023.5 515.05,1023.5 Q514.6594,1023.5 514.4094,1023.3281 Q514.1594,1023.1563 514.05,1022.7031 Q514.0031,1022.3906 513.8313,1022.2188 Q513.5188,1021.8906 512.9563,1021.7031 Q512.3938,1021.5 511.8312,1021.5 Q511.1281,1021.5 510.5344,1021.7813 Q509.9562,1022.0625 509.5031,1022.6875 Q509.05,1023.3125 509.05,1024.1719 L509.05,1025.0938 Q509.05,1026.125 509.8937,1026.8125 Q510.7375,1027.5 512.2375,1027.5 Q513.1281,1027.5 513.7531,1027.2969 Q514.1125,1027.1875 514.5188,1026.8281 Q514.7844,1026.625 514.925,1026.5625 Q515.0656,1026.5 515.2375,1026.5 Q515.5656,1026.5 515.8,1026.7656 Q516.05,1027.0156 516.05,1027.375 Q516.05,1027.7188 515.7063,1028.125 Q515.2063,1028.7188 514.4094,1029.0469 Q513.3625,1029.5 512.0813,1029.5 Q510.5812,1029.5 509.3781,1028.9063 Q508.4094,1028.4375 507.7219,1027.4219 Q507.05,1026.4063 507.05,1025.2031 L507.05,1024.1094 Q507.05,1022.8594 507.6437,1021.7656 Q508.2531,1020.6719 509.3,1020.0938 Q510.3625,1019.5 511.55,1019.5 Q512.2688,1019.5 512.8938,1019.75 Q513.5188,1020 514.05,1020.5 Z " fill="#000000"/><text fill="#000000" font-family="sans-serif" font-size="14" lengthAdjust="spacing" textLength="38" x="531.95" y="1029.7285">Depth</text><line style="stroke:#181818;stroke-width:0.5;" x1="471.5" x2="598.5" y1="1040" y2="1040"/><text fill="#000000" font-family="sans-serif" font-size="14" lengthAdjust="spacing" textLength="111" x="476.5" y="1058.5332">-int lSquareDepth</text><text fill="#000000" font-family="sans-serif" font-size="14" lengthAdjust="spacing" textLength="117" x="476.5" y="1076.1426">-int wSquareDepth</text><line style="stroke:#181818;stroke-width:0.5;" x1="471.5" x2="598.5" y1="1083.2188" y2="1083.2188"/><text fill="#000000" font-family="sans-serif" font-size="14" lengthAdjust="spacing" textLength="67" x="476.5" y="1101.752">+toString()</text></g><!--MD5=[b8012ea819b615a064f7b9f8b09f024b]
class WarehouseBuilder--><g id="elem_WarehouseBuilder"><rect codeLine="76" fill="#F1F1F1" height="65.6094" id="WarehouseBuilder" rx="2.5" ry="2.5" style="stroke:#181818;stroke-width:0.5;" width="180" x="195" y="365.5"/><ellipse cx="223.95" cy="381.5" fill="#ADD1B2" rx="11" ry="11" style="stroke:#181818;stroke-width:1.0;"/><path d="M225.95,378 Q226.1531,377.5 226.3875,377.25 Q226.6219,377 226.8875,377 Q227.3563,377 227.6531,377.2813 Q227.95,377.5625 227.95,378.2188 L227.95,379.7813 Q227.95,380.4375 227.6688,380.7188 Q227.3875,381 226.95,381 Q226.5594,381 226.3094,380.8281 Q226.0594,380.6563 225.95,380.2031 Q225.9031,379.8906 225.7313,379.7188 Q225.4188,379.3906 224.8563,379.2031 Q224.2938,379 223.7313,379 Q223.0281,379 222.4344,379.2813 Q221.8563,379.5625 221.4031,380.1875 Q220.95,380.8125 220.95,381.6719 L220.95,382.5938 Q220.95,383.625 221.7938,384.3125 Q222.6375,385 224.1375,385 Q225.0281,385 225.6531,384.7969 Q226.0125,384.6875 226.4188,384.3281 Q226.6844,384.125 226.825,384.0625 Q226.9656,384 227.1375,384 Q227.4656,384 227.7,384.2656 Q227.95,384.5156 227.95,384.875 Q227.95,385.2188 227.6063,385.625 Q227.1063,386.2188 226.3094,386.5469 Q225.2625,387 223.9813,387 Q222.4813,387 221.2781,386.4063 Q220.3094,385.9375 219.6219,384.9219 Q218.95,383.9063 218.95,382.7031 L218.95,381.6094 Q218.95,380.3594 219.5438,379.2656 Q220.1531,378.1719 221.2,377.5938 Q222.2625,377 223.45,377 Q224.1688,377 224.7938,377.25 Q225.4188,377.5 225.95,378 Z " fill="#000000"/><text fill="#000000" font-family="sans-serif" font-size="14" lengthAdjust="spacing" textLength="117" x="241.05" y="387.2285">WarehouseBuilder</text><line style="stroke:#181818;stroke-width:0.5;" x1="196" x2="374" y1="397.5" y2="397.5"/><line style="stroke:#181818;stroke-width:0.5;" x1="196" x2="374" y1="405.5" y2="405.5"/><text fill="#000000" font-family="sans-serif" font-size="14" lengthAdjust="spacing" textLength="168" x="201" y="424.0332">+readFromJson((fileName)</text></g><!--MD5=[e8c189551b7885b999ad7cefb30fc2a3]
class PersistenceContext--><g id="elem_PersistenceContext"><rect codeLine="80" fill="#F1F1F1" height="100.8281" id="PersistenceContext" rx="2.5" ry="2.5" style="stroke:#181818;stroke-width:0.5;" width="205" x="515.5" y="348"/><ellipse cx="553.45" cy="364" fill="#ADD1B2" rx="11" ry="11" style="stroke:#181818;stroke-width:1.0;"/><path d="M555.45,360.5 Q555.6531,360 555.8875,359.75 Q556.1219,359.5 556.3875,359.5 Q556.8563,359.5 557.1531,359.7813 Q557.45,360.0625 557.45,360.7188 L557.45,362.2813 Q557.45,362.9375 557.1688,363.2188 Q556.8875,363.5 556.45,363.5 Q556.0594,363.5 555.8094,363.3281 Q555.5594,363.1563 555.45,362.7031 Q555.4031,362.3906 555.2313,362.2188 Q554.9188,361.8906 554.3563,361.7031 Q553.7938,361.5 553.2313,361.5 Q552.5281,361.5 551.9344,361.7813 Q551.3563,362.0625 550.9031,362.6875 Q550.45,363.3125 550.45,364.1719 L550.45,365.0938 Q550.45,366.125 551.2938,366.8125 Q552.1375,367.5 553.6375,367.5 Q554.5281,367.5 555.1531,367.2969 Q555.5125,367.1875 555.9188,366.8281 Q556.1844,366.625 556.325,366.5625 Q556.4656,366.5 556.6375,366.5 Q556.9656,366.5 557.2,366.7656 Q557.45,367.0156 557.45,367.375 Q557.45,367.7188 557.1063,368.125 Q556.6063,368.7188 555.8094,369.0469 Q554.7625,369.5 553.4813,369.5 Q551.9813,369.5 550.7781,368.9063 Q549.8094,368.4375 549.1219,367.4219 Q548.45,366.4063 548.45,365.2031 L548.45,364.1094 Q548.45,362.8594 549.0438,361.7656 Q549.6531,360.6719 550.7,360.0938 Q551.7625,359.5 552.95,359.5 Q553.6688,359.5 554.2938,359.75 Q554.9188,360 555.45,360.5 Z " fill="#000000"/><text fill="#000000" font-family="sans-serif" font-size="14" lengthAdjust="spacing" textLength="122" x="572.55" y="369.7285">PersistenceContext</text><line style="stroke:#181818;stroke-width:0.5;" x1="516.5" x2="719.5" y1="380" y2="380"/><text fill="#000000" font-family="sans-serif" font-size="14" lengthAdjust="spacing" textLength="114" x="521.5" y="398.5332">-Logger LOGGER</text><text fill="#000000" font-family="sans-serif" font-size="14" lengthAdjust="spacing" textLength="193" x="521.5" y="416.1426">-RepositoryFactory theFactory</text><line style="stroke:#181818;stroke-width:0.5;" x1="516.5" x2="719.5" y1="423.2188" y2="423.2188"/><text fill="#000000" font-family="sans-serif" font-size="14" lengthAdjust="spacing" textLength="92" x="521.5" y="441.752">+repositories()</text></g><!--MD5=[48590afff58a68e2fcba47824d6f8a11]
class RepositoryFactory--><g id="elem_RepositoryFactory"><rect codeLine="86" fill="#F1F1F1" height="83.2188" id="RepositoryFactory" rx="2.5" ry="2.5" style="stroke:#181818;stroke-width:0.5;" width="148" x="544" y="571"/><ellipse cx="559" cy="587" fill="#ADD1B2" rx="11" ry="11" style="stroke:#181818;stroke-width:1.0;"/><path d="M561,583.5 Q561.2031,583 561.4375,582.75 Q561.6719,582.5 561.9375,582.5 Q562.4063,582.5 562.7031,582.7813 Q563,583.0625 563,583.7188 L563,585.2813 Q563,585.9375 562.7188,586.2188 Q562.4375,586.5 562,586.5 Q561.6094,586.5 561.3594,586.3281 Q561.1094,586.1563 561,585.7031 Q560.9531,585.3906 560.7813,585.2188 Q560.4688,584.8906 559.9063,584.7031 Q559.3438,584.5 558.7813,584.5 Q558.0781,584.5 557.4844,584.7813 Q556.9063,585.0625 556.4531,585.6875 Q556,586.3125 556,587.1719 L556,588.0938 Q556,589.125 556.8438,589.8125 Q557.6875,590.5 559.1875,590.5 Q560.0781,590.5 560.7031,590.2969 Q561.0625,590.1875 561.4688,589.8281 Q561.7344,589.625 561.875,589.5625 Q562.0156,589.5 562.1875,589.5 Q562.5156,589.5 562.75,589.7656 Q563,590.0156 563,590.375 Q563,590.7188 562.6563,591.125 Q562.1563,591.7188 561.3594,592.0469 Q560.3125,592.5 559.0313,592.5 Q557.5313,592.5 556.3281,591.9063 Q555.3594,591.4375 554.6719,590.4219 Q554,589.4063 554,588.2031 L554,587.1094 Q554,585.8594 554.5938,584.7656 Q555.2031,583.6719 556.25,583.0938 Q557.3125,582.5 558.5,582.5 Q559.2188,582.5 559.8438,582.75 Q560.4688,583 561,583.5 Z " fill="#000000"/><text fill="#000000" font-family="sans-serif" font-size="14" lengthAdjust="spacing" textLength="116" x="573" y="592.7285">RepositoryFactory</text><line style="stroke:#181818;stroke-width:0.5;" x1="545" x2="691" y1="603" y2="603"/><line style="stroke:#181818;stroke-width:0.5;" x1="545" x2="691" y1="611" y2="611"/><text fill="#000000" font-family="sans-serif" font-size="14" lengthAdjust="spacing" textLength="130" x="550" y="629.5332">+warehouse(autoTx)</text><text fill="#000000" font-family="sans-serif" font-size="14" lengthAdjust="spacing" textLength="87" x="550" y="647.1426">+warehouse()</text></g><!--MD5=[bf4d0c028d0f251e49ce9c9f9f101ed4]
class WarehouseRepository--><g id="elem_WarehouseRepository"><rect codeLine="91" fill="#F1F1F1" height="65.6094" id="WarehouseRepository" rx="2.5" ry="2.5" style="stroke:#181818;stroke-width:0.5;" width="173" x="531.5" y="820"/><ellipse cx="546.5" cy="836" fill="#ADD1B2" rx="11" ry="11" style="stroke:#181818;stroke-width:1.0;"/><path d="M548.5,832.5 Q548.7031,832 548.9375,831.75 Q549.1719,831.5 549.4375,831.5 Q549.9063,831.5 550.2031,831.7813 Q550.5,832.0625 550.5,832.7188 L550.5,834.2813 Q550.5,834.9375 550.2188,835.2188 Q549.9375,835.5 549.5,835.5 Q549.1094,835.5 548.8594,835.3281 Q548.6094,835.1563 548.5,834.7031 Q548.4531,834.3906 548.2813,834.2188 Q547.9688,833.8906 547.4063,833.7031 Q546.8438,833.5 546.2813,833.5 Q545.5781,833.5 544.9844,833.7813 Q544.4063,834.0625 543.9531,834.6875 Q543.5,835.3125 543.5,836.1719 L543.5,837.0938 Q543.5,838.125 544.3438,838.8125 Q545.1875,839.5 546.6875,839.5 Q547.5781,839.5 548.2031,839.2969 Q548.5625,839.1875 548.9688,838.8281 Q549.2344,838.625 549.375,838.5625 Q549.5156,838.5 549.6875,838.5 Q550.0156,838.5 550.25,838.7656 Q550.5,839.0156 550.5,839.375 Q550.5,839.7188 550.1563,840.125 Q549.6563,840.7188 548.8594,841.0469 Q547.8125,841.5 546.5313,841.5 Q545.0313,841.5 543.8281,840.9063 Q542.8594,840.4375 542.1719,839.4219 Q541.5,838.4063 541.5,837.2031 L541.5,836.1094 Q541.5,834.8594 542.0938,833.7656 Q542.7031,832.6719 543.75,832.0938 Q544.8125,831.5 546,831.5 Q546.7188,831.5 547.3438,831.75 Q547.9688,832 548.5,832.5 Z " fill="#000000"/><text fill="#000000" font-family="sans-serif" font-size="14" lengthAdjust="spacing" textLength="141" x="560.5" y="841.7285">WarehouseRepository</text><line style="stroke:#181818;stroke-width:0.5;" x1="532.5" x2="703.5" y1="852" y2="852"/><line style="stroke:#181818;stroke-width:0.5;" x1="532.5" x2="703.5" y1="860" y2="860"/><text fill="#000000" font-family="sans-serif" font-size="14" lengthAdjust="spacing" textLength="152" x="537.5" y="878.5332">+findById(Long number)</text></g><!--MD5=[0c133e85b70bbf487f5f985c457e90dc]
link WarehouseUI to WarehouseController--><g id="link_WarehouseUI_WarehouseController"><path codeLine="96" d="M445,55.27 C445,70.13 445,90.37 445,110.72 " fill="none" id="WarehouseUI-to-WarehouseController" style="stroke:#181818;stroke-width:1.0;stroke-dasharray:7.0,7.0;"/><polygon fill="#181818" points="445,115.9,449,106.9,445,110.9,441,106.9,445,115.9" style="stroke:#181818;stroke-width:1.0;"/></g><!--MD5=[000bb1f164a32717844bd644d804d513]
link WarehouseController to WarehouseBuilder--><g id="link_WarehouseController_WarehouseBuilder"><path codeLine="97" d="M385.19,270.07 C360.59,301.36 333.26,336.11 313.37,361.42 " fill="none" id="WarehouseController-to-WarehouseBuilder" style="stroke:#181818;stroke-width:1.0;stroke-dasharray:7.0,7.0;"/><polygon fill="#181818" points="310.24,365.39,318.9449,360.783,313.3285,361.4579,312.6536,355.8415,310.24,365.39" style="stroke:#181818;stroke-width:1.0;"/></g><!--MD5=[d1399a14f1b1a6c450f3980c90d66784]
link WarehouseBuilder to Warehouse--><g id="link_WarehouseBuilder_Warehouse"><path codeLine="98" d="M307.02,431.7 C323.55,455.86 347.03,490.19 369.05,522.39 " fill="none" id="WarehouseBuilder-to-Warehouse" style="stroke:#181818;stroke-width:1.0;"/><polygon fill="#181818" points="372.01,526.71,370.2231,517.0246,369.184,522.5852,363.6234,521.5462,372.01,526.71" style="stroke:#181818;stroke-width:1.0;"/><text fill="#000000" font-family="sans-serif" font-size="13" lengthAdjust="spacing" textLength="34" x="350" y="493.4951">builds</text><text fill="#000000" font-family="sans-serif" font-size="13" lengthAdjust="spacing" textLength="7" x="303.3189" y="452.6">1</text><text fill="#000000" font-family="sans-serif" font-size="13" lengthAdjust="spacing" textLength="5" x="361.8116" y="516.1487">*</text></g><!--MD5=[8e30de69f95fb92b10aa949696d889b2]
link Warehouse to Aisle--><g id="link_Warehouse_Aisle"><path codeLine="100" d="M430,698.26 C430,721.78 430,747.27 430,770.6 " fill="none" id="Warehouse-to-Aisle" style="stroke:#181818;stroke-width:1.0;"/><polygon fill="#181818" points="430,775.85,434,766.85,430,770.85,426,766.85,430,775.85" style="stroke:#181818;stroke-width:1.0;"/><text fill="#000000" font-family="sans-serif" font-size="13" lengthAdjust="spacing" textLength="49" x="431" y="742.4951">contains</text><text fill="#000000" font-family="sans-serif" font-size="13" lengthAdjust="spacing" textLength="7" x="422.6992" y="719.8163">1</text><text fill="#000000" font-family="sans-serif" font-size="13" lengthAdjust="spacing" textLength="20" x="409.0469" y="765.2624">0..*</text></g><!--MD5=[263aeadab30a0eb6f66e642329d33bf7]
reverse link Row to Aisle--><g id="link_Row_Aisle"><path codeLine="101" d="M272.74,853 C302.59,853 335.52,853 363.5,853 " fill="none" id="Row-backto-Aisle" style="stroke:#181818;stroke-width:1.0;"/><polygon fill="#181818" points="267.59,853,276.59,857,272.59,853,276.59,849,267.59,853" style="stroke:#181818;stroke-width:1.0;"/><text fill="#000000" font-family="sans-serif" font-size="13" lengthAdjust="spacing" textLength="49" x="291" y="846.4951">contains</text><text fill="#000000" font-family="sans-serif" font-size="13" lengthAdjust="spacing" textLength="20" x="275.461" y="849.8207">0..*</text><text fill="#000000" font-family="sans-serif" font-size="13" lengthAdjust="spacing" textLength="7" x="348.4063" y="849.6103">1</text></g><!--MD5=[97ee229bb5f7d7c99854ebd87dce7a31]
link Row to Shelve--><g id="link_Row_Shelve"><path codeLine="102" d="M127.96,921.15 C118.61,933.62 109.54,946.86 102,960 C92.66,976.28 84.67,995.29 78.46,1012.18 " fill="none" id="Row-to-Shelve" style="stroke:#181818;stroke-width:1.0;"/><polygon fill="#181818" points="76.76,1016.89,83.5827,1009.7872,78.4607,1012.1881,76.0597,1007.0661,76.76,1016.89" style="stroke:#181818;stroke-width:1.0;"/><text fill="#000000" font-family="sans-serif" font-size="13" lengthAdjust="spacing" textLength="49" x="103" y="974.4951">contains</text><text fill="#000000" font-family="sans-serif" font-size="13" lengthAdjust="spacing" textLength="7" x="114.6137" y="942.5138">1</text><text fill="#000000" font-family="sans-serif" font-size="13" lengthAdjust="spacing" textLength="20" x="57.2171" y="1006.1795">0..*</text></g><!--MD5=[1896105a5448dc1adff7dc703837c86b]
link Shelve to Bin--><g id="link_Shelve_Bin"><path codeLine="103" d="M64,1100.11 C64,1124.32 64,1155.37 64,1181.72 " fill="none" id="Shelve-to-Bin" style="stroke:#181818;stroke-width:1.0;"/><polygon fill="#181818" points="64,1186.93,68,1177.93,64,1181.93,60,1177.93,64,1186.93" style="stroke:#181818;stroke-width:1.0;"/><text fill="#000000" font-family="sans-serif" font-size="13" lengthAdjust="spacing" textLength="49" x="65" y="1153.4951">contains</text><text fill="#000000" font-family="sans-serif" font-size="13" lengthAdjust="spacing" textLength="7" x="56.4203" y="1121.8328">1</text><text fill="#000000" font-family="sans-serif" font-size="13" lengthAdjust="spacing" textLength="20" x="42.5938" y="1176.2255">0..*</text></g><!--MD5=[aa56d6553f01f4e0334290b5ed5c5b56]
link Aisle to Begin--><g id="link_Aisle_Begin"><path codeLine="105" d="M363.35,924.79 C346.23,942.44 327.65,961.13 310,978 C300.95,986.65 291.2,995.61 281.57,1004.26 " fill="none" id="Aisle-to-Begin" style="stroke:#181818;stroke-width:1.0;"/><polygon fill="#181818" points="277.74,1007.69,287.1177,1004.6803,281.4699,1004.3602,281.7901,998.7124,277.74,1007.69" style="stroke:#181818;stroke-width:1.0;"/><text fill="#000000" font-family="sans-serif" font-size="13" lengthAdjust="spacing" textLength="49" x="328" y="974.4951">contains</text><text fill="#000000" font-family="sans-serif" font-size="13" lengthAdjust="spacing" textLength="7" x="348.6773" y="929.3002">1</text><text fill="#000000" font-family="sans-serif" font-size="13" lengthAdjust="spacing" textLength="7" x="278.0285" y="997.3177">1</text></g><!--MD5=[cf1a9f94a03f61cb570fbaacb8fdae56]
link Aisle to End--><g id="link_Aisle_End"><path codeLine="106" d="M412.97,930.26 C409.21,946.09 405.11,962.62 401,978 C398.87,985.96 396.5,994.32 394.09,1002.52 " fill="none" id="Aisle-to-End" style="stroke:#181818;stroke-width:1.0;"/><polygon fill="#181818" points="392.59,1007.6,398.9706,1000.0975,394.0031,1002.8039,391.2968,997.8364,392.59,1007.6" style="stroke:#181818;stroke-width:1.0;"/><text fill="#000000" font-family="sans-serif" font-size="13" lengthAdjust="spacing" textLength="49" x="407" y="974.4951">contains</text><text fill="#000000" font-family="sans-serif" font-size="13" lengthAdjust="spacing" textLength="7" x="404.2057" y="951.112">1</text><text fill="#000000" font-family="sans-serif" font-size="13" lengthAdjust="spacing" textLength="7" x="387.2146" y="997.2156">1</text></g><!--MD5=[2e67177fef6f497fb9de9cdd0f28a5ed]
link Aisle to Depth--><g id="link_Aisle_Depth"><path codeLine="107" d="M469.25,930.07 C481.76,954.31 495.34,980.63 506.89,1003.02 " fill="none" id="Aisle-to-Depth" style="stroke:#181818;stroke-width:1.0;"/><polygon fill="#181818" points="509.33,1007.74,508.7446,997.9086,507.0313,1003.2997,501.6402,1001.5864,509.33,1007.74" style="stroke:#181818;stroke-width:1.0;"/><text fill="#000000" font-family="sans-serif" font-size="13" lengthAdjust="spacing" textLength="49" x="493" y="974.4951">contains</text><text fill="#000000" font-family="sans-serif" font-size="13" lengthAdjust="spacing" textLength="7" x="465.434" y="951.1726">1</text><text fill="#000000" font-family="sans-serif" font-size="13" lengthAdjust="spacing" textLength="7" x="498.228" y="997.0088">1</text></g><!--MD5=[ece62859423391626876163788d1a479]
link Row to Begin--><g id="link_Row_Begin"><path codeLine="109" d="M162.38,921.06 C158.96,939.74 158.25,959.87 164,978 C166.75,986.69 170.84,995.25 175.57,1003.35 " fill="none" id="Row-to-Begin" style="stroke:#181818;stroke-width:1.0;"/><polygon fill="#181818" points="178.26,1007.8,177.0356,998.0275,175.677,1003.5188,170.1857,1002.1603,178.26,1007.8" style="stroke:#181818;stroke-width:1.0;"/><text fill="#000000" font-family="sans-serif" font-size="13" lengthAdjust="spacing" textLength="49" x="165" y="974.4951">contains</text><text fill="#000000" font-family="sans-serif" font-size="13" lengthAdjust="spacing" textLength="7" x="152.5833" y="942.4145">1</text><text fill="#000000" font-family="sans-serif" font-size="13" lengthAdjust="spacing" textLength="7" x="164.8981" y="997.0772">1</text></g><!--MD5=[8dc90faa7b4c4ca2e65ecaba988ef0e7]
link Row to End--><g id="link_Row_End"><path codeLine="110" d="M215.64,921.06 C226.28,940.75 239.54,961.42 255,978 C255.08,978.09 284.55,997.29 314.5,1016.8 " fill="none" id="Row-to-End" style="stroke:#181818;stroke-width:1.0;"/><polygon fill="#181818" points="318.92,1019.68,313.552,1011.4226,314.7271,1016.9561,309.1937,1018.1312,318.92,1019.68" style="stroke:#181818;stroke-width:1.0;"/><text fill="#000000" font-family="sans-serif" font-size="13" lengthAdjust="spacing" textLength="49" x="256" y="974.4951">contains</text><text fill="#000000" font-family="sans-serif" font-size="13" lengthAdjust="spacing" textLength="7" x="211.3357" y="942.4145">1</text><text fill="#000000" font-family="sans-serif" font-size="13" lengthAdjust="spacing" textLength="7" x="304.0301" y="1011.2098">1</text></g><!--MD5=[dce0c02e398107f791a51e0f14f1f357]
link WarehouseController to PersistenceContext--><g id="link_WarehouseController_PersistenceContext"><path codeLine="113" d="M509.66,270.07 C530.53,294.61 553.21,321.29 572.4,343.86 " fill="none" id="WarehouseController-to-PersistenceContext" style="stroke:#181818;stroke-width:1.0;"/><polygon fill="#181818" points="575.7,347.74,572.921,338.2913,572.4626,343.9296,566.8243,343.4712,575.7,347.74" style="stroke:#181818;stroke-width:1.0;"/><text fill="#000000" font-family="sans-serif" font-size="13" lengthAdjust="spacing" textLength="43" x="547" y="314.4951">creates</text><text fill="#000000" font-family="sans-serif" font-size="13" lengthAdjust="spacing" textLength="7" x="508.1071" y="291.1726">1</text><text fill="#000000" font-family="sans-serif" font-size="13" lengthAdjust="spacing" textLength="7" x="562.2594" y="337.0088">1</text></g><!--MD5=[754b775031405e096442b27febffa290]
link PersistenceContext to RepositoryFactory--><g id="link_PersistenceContext_RepositoryFactory"><path codeLine="116" d="M618,449.2 C618,484.4 618,531.27 618,565.59 " fill="none" id="PersistenceContext-to-RepositoryFactory" style="stroke:#181818;stroke-width:1.0;"/><polygon fill="#181818" points="618,570.99,622,561.99,618,565.99,614,561.99,618,570.99" style="stroke:#181818;stroke-width:1.0;"/><text fill="#000000" font-family="sans-serif" font-size="13" lengthAdjust="spacing" textLength="43" x="619" y="493.4951">creates</text><text fill="#000000" font-family="sans-serif" font-size="13" lengthAdjust="spacing" textLength="7" x="610.5516" y="470.2496">1</text><text fill="#000000" font-family="sans-serif" font-size="13" lengthAdjust="spacing" textLength="7" x="610.4203" y="560.296">1</text></g><!--MD5=[1e897a22714a6b830b517dbc62a38d7f]
link RepositoryFactory to WarehouseRepository--><g id="link_RepositoryFactory_WarehouseRepository"><path codeLine="119" d="M618,654.23 C618,699.23 618,771.09 618,814.68 " fill="none" id="RepositoryFactory-to-WarehouseRepository" style="stroke:#181818;stroke-width:1.0;"/><polygon fill="#181818" points="618,819.85,622,810.85,618,814.85,614,810.85,618,819.85" style="stroke:#181818;stroke-width:1.0;"/><text fill="#000000" font-family="sans-serif" font-size="13" lengthAdjust="spacing" textLength="43" x="619" y="742.4951">creates</text><text fill="#000000" font-family="sans-serif" font-size="13" lengthAdjust="spacing" textLength="7" x="610.4422" y="675.6614">1</text><text fill="#000000" font-family="sans-serif" font-size="13" lengthAdjust="spacing" textLength="7" x="610.2781" y="808.9345">1</text></g><!--MD5=[cb687ce39c8d40f9490a793099138230]
link WarehouseController to Warehouse--><g id="link_WarehouseController_Warehouse"><path codeLine="121" d="M442.27,270.09 C439.72,340.95 435.92,446.63 433.23,521.61 " fill="none" id="WarehouseController-to-Warehouse" style="stroke:#181818;stroke-width:1.0;"/><polygon fill="#181818" points="433.04,526.96,437.346,518.1023,433.2113,521.9629,429.3507,517.8282,433.04,526.96" style="stroke:#181818;stroke-width:1.0;"/><text fill="#000000" font-family="sans-serif" font-size="13" lengthAdjust="spacing" textLength="33" x="441" y="403.9951">saves</text><text fill="#000000" font-family="sans-serif" font-size="13" lengthAdjust="spacing" textLength="7" x="434.7151" y="291.1944">1</text><text fill="#000000" font-family="sans-serif" font-size="13" lengthAdjust="spacing" textLength="20" x="412.4201" y="516.128">1..*</text></g><!--MD5=[9a94bafc6fa12ebd5df8586d4706d7bc]
link Warehouse to WarehouseRepository--><g id="link_Warehouse_WarehouseRepository"><path codeLine="123" d="M496.81,698.26 C528.63,738.62 564.99,784.75 589.52,815.87 " fill="none" id="Warehouse-to-WarehouseRepository" style="stroke:#181818;stroke-width:1.0;"/><polygon fill="#181818" points="592.75,819.96,590.315,810.4169,589.6527,816.0349,584.0348,815.3726,592.75,819.96" style="stroke:#181818;stroke-width:1.0;"/><text fill="#000000" font-family="sans-serif" font-size="13" lengthAdjust="spacing" textLength="10" x="530" y="742.4951">in</text><text fill="#000000" font-family="sans-serif" font-size="13" lengthAdjust="spacing" textLength="7" x="495.2507" y="719.8163">1</text><text fill="#000000" font-family="sans-serif" font-size="13" lengthAdjust="spacing" textLength="7" x="579.8203" y="809.0672">1</text></g><!--MD5=[779125757e3fa20f0f6c202c4ff2b532]
@startuml
skinparam classAttributeIconSize 0

Class "WarehouseUI"{
}

Class "WarehouseController"{
+buildWarehouse(fileName)
+buildShelves()

+repositories()
+warehouses()
+saveWarehouse()
}




class "Warehouse"{
     -String name
     -Double length
     -square width
     -String unit
     -List<Aisle> aisle
     -List<Aisle> AGVDocks
     +toString()
}

class "Aisle"{
     -Begin begin
     -End end
     -Depth depth
     -String accessibility
     -List<Row> rows
     +toString()
}

class "Row"{
     -Begin begin
     -End end
     -Integer numberShelves
     -List<Shelve> shelves
     +toString()
}

class "Shelve"{
     -Integer position
     -List<Bin> bin
}

class "Bin"{
     -Product
     +sameAs(other)
     +identity()
}

class "Begin"{
     -int lSquareBegin
     -int wSquareBegin
     +toString()
}
class "End"{
     -int lSquareEnd
     -int wSquareEnd
     +toString()
}
class "Depth"{
     -int lSquareDepth
     -int wSquareDepth
     +toString()
}





class WarehouseBuilder {
+readFromJson((fileName)
}

class PersistenceContext {
-Logger LOGGER
-RepositoryFactory theFactory
+repositories()
}

class RepositoryFactory{
+warehouse(autoTx)
+warehouse()
}

class WarehouseRepository{
+findById(Long number)
}


WarehouseUI ..> WarehouseController
WarehouseController..> WarehouseBuilder
WarehouseBuilder "1" - -> "*" Warehouse : builds

Aisle "0..*" <-u- "1" Warehouse : contains
Row "0..*" <-r- "1" Aisle : contains
Shelve "0..*" <-u- "1" Row : contains
Bin "0..*" <-u- "1" Shelve : contains

Begin "1" <-u- "1" Aisle : contains
End "1" <-u- "1" Aisle : contains
Depth "1" <-u- "1" Aisle : contains

Begin "1" <-l- "1" Row : contains
End "1" <-l- "1" Row : contains


"WarehouseController" "1" - -> "1" "PersistenceContext" :creates


"PersistenceContext" "1" - -> "1" "RepositoryFactory" :creates


"RepositoryFactory" "1" - -> "1" "WarehouseRepository"  :creates

"WarehouseController" "1" - -> "1..*" "Warehouse" :saves

"Warehouse" "1" - -> "1" "WarehouseRepository" :in

@enduml

PlantUML version 1.2022.4(Sat Apr 09 15:29:17 CEST 2022)
(GPL source distribution)
Java Runtime: OpenJDK Runtime Environment
JVM: OpenJDK 64-Bit Server VM
Default Encoding: Cp1252
Language: pt
Country: PT
--></g></svg>