<?xml version="1.0" encoding="UTF-8" standalone="no"?><svg xmlns="http://www.w3.org/2000/svg" xmlns:xlink="http://www.w3.org/1999/xlink" contentStyleType="text/css" height="682.4px" preserveAspectRatio="none" style="width:1252px;height:682px;background:#FFFFFF;" version="1.1" viewBox="0 0 1252 682" width="1252px" zoomAndPan="magnify"><defs/><g><rect fill="#FFFFFF" height="536.05" style="stroke:#181818;stroke-width:0.8000000000000002;" width="8" x="56.4" y="74.0875"/><rect fill="#FFFFFF" height="528.85" style="stroke:#181818;stroke-width:0.8000000000000002;" width="8" x="243.6" y="74.0875"/><rect fill="#FFFFFF" height="413.8438" style="stroke:#181818;stroke-width:0.8000000000000002;" width="8" x="432.4" y="164.8125"/><rect fill="#FFFFFF" height="109.3313" style="stroke:#181818;stroke-width:0.8000000000000002;" width="8" x="572.4" y="197.0938"/><rect fill="#FFFFFF" height="24.2813" style="stroke:#181818;stroke-width:0.8000000000000002;" width="8" x="692.4" y="257.8625"/><rect fill="#FFFFFF" height="24.2813" style="stroke:#181818;stroke-width:0.8000000000000002;" width="8" x="692.4" y="330.7063"/><rect fill="#FFFFFF" height="60.175" style="stroke:#181818;stroke-width:0.8000000000000002;" width="8" x="854" y="387.2688"/><rect fill="#FFFFFF" height="58.3688" style="stroke:#181818;stroke-width:0.8000000000000002;" width="8" x="1030.8" y="471.725"/><rect fill="#FFFFFF" height="24.2813" style="stroke:#181818;stroke-width:0.8000000000000002;" width="8" x="1179.6" y="554.375"/><line style="stroke:#181818;stroke-width:0.4000000000000001;stroke-dasharray:5.0,5.0;" x1="60" x2="60" y1="66.0875" y2="617.3375"/><line style="stroke:#181818;stroke-width:0.4000000000000001;stroke-dasharray:5.0,5.0;" x1="247.6" x2="247.6" y1="66.0875" y2="617.3375"/><line style="stroke:#181818;stroke-width:0.4000000000000001;stroke-dasharray:5.0,5.0;" x1="436" x2="436" y1="66.0875" y2="617.3375"/><line style="stroke:#181818;stroke-width:0.4000000000000001;stroke-dasharray:5.0,5.0;" x1="576" x2="576" y1="196.2563" y2="617.3375"/><line style="stroke:#181818;stroke-width:0.4000000000000001;stroke-dasharray:5.0,5.0;" x1="696" x2="696" y1="66.0875" y2="617.3375"/><line style="stroke:#181818;stroke-width:0.4000000000000001;stroke-dasharray:5.0,5.0;" x1="857.6" x2="857.6" y1="386.4313" y2="617.3375"/><line style="stroke:#181818;stroke-width:0.4000000000000001;stroke-dasharray:5.0,5.0;" x1="1034.4" x2="1034.4" y1="420.5188" y2="617.3375"/><line style="stroke:#181818;stroke-width:0.4000000000000001;stroke-dasharray:5.0,5.0;" x1="1183.2" x2="1183.2" y1="503.1688" y2="617.3375"/><text fill="#000000" font-family="sans-serif" font-size="11.2" lengthAdjust="spacing" textLength="108" x="4" y="63.6266">WarehouseEmployee</text><ellipse cx="60.4" cy="10.8" fill="#E2E2F0" rx="6.4" ry="6.4" style="stroke:#181818;stroke-width:0.4000000000000001;"/><path d="M60.4,17.2 L60.4,38.8 M50,23.6 L70.8,23.6 M60.4,38.8 L50,50.8 M60.4,38.8 L70.8,50.8 " fill="none" style="stroke:#181818;stroke-width:0.4000000000000001;"/><text fill="#000000" font-family="sans-serif" font-size="11.2" lengthAdjust="spacing" textLength="108" x="4" y="628.1641">WarehouseEmployee</text><ellipse cx="60.4" cy="637.425" fill="#E2E2F0" rx="6.4" ry="6.4" style="stroke:#181818;stroke-width:0.4000000000000001;"/><path d="M60.4,643.825 L60.4,665.425 M50,650.225 L70.8,650.225 M60.4,665.425 L50,677.425 M60.4,665.425 L70.8,677.425 " fill="none" style="stroke:#181818;stroke-width:0.4000000000000001;"/><rect fill="#E2E2F0" height="25.2875" rx="2" ry="2" style="stroke:#181818;stroke-width:0.4000000000000001;" width="158.4" x="168.4" y="40"/><text fill="#000000" font-family="sans-serif" font-size="11.2" lengthAdjust="spacing" textLength="147.2" x="174" y="57.2266">WarehouseUI &lt;presentation&gt;</text><rect fill="#E2E2F0" height="25.2875" rx="2" ry="2" style="stroke:#181818;stroke-width:0.4000000000000001;" width="158.4" x="168.4" y="616.5375"/><text fill="#000000" font-family="sans-serif" font-size="11.2" lengthAdjust="spacing" textLength="147.2" x="174" y="633.7641">WarehouseUI &lt;presentation&gt;</text><rect fill="#E2E2F0" height="25.2875" rx="2" ry="2" style="stroke:#181818;stroke-width:0.4000000000000001;" width="192.8" x="340" y="40"/><text fill="#000000" font-family="sans-serif" font-size="11.2" lengthAdjust="spacing" textLength="181.6" x="345.6" y="57.2266">:WarehouseController &lt;application&gt;</text><rect fill="#E2E2F0" height="25.2875" rx="2" ry="2" style="stroke:#181818;stroke-width:0.4000000000000001;" width="192.8" x="340" y="616.5375"/><text fill="#000000" font-family="sans-serif" font-size="11.2" lengthAdjust="spacing" textLength="181.6" x="345.6" y="633.7641">:WarehouseController &lt;application&gt;</text><rect fill="#E2E2F0" height="25.2875" rx="2" ry="2" style="stroke:#181818;stroke-width:0.4000000000000001;" width="71.2" x="540.8" y="616.5375"/><text fill="#000000" font-family="sans-serif" font-size="11.2" lengthAdjust="spacing" textLength="60" x="546.4" y="633.7641">:JsonParser</text><rect fill="#E2E2F0" height="25.2875" rx="2" ry="2" style="stroke:#181818;stroke-width:0.4000000000000001;" width="124" x="634.4" y="40"/><text fill="#000000" font-family="sans-serif" font-size="11.2" lengthAdjust="spacing" textLength="112.8" x="640" y="57.2266">:Warehouse&lt;Domain&gt;</text><rect fill="#E2E2F0" height="25.2875" rx="2" ry="2" style="stroke:#181818;stroke-width:0.4000000000000001;" width="124" x="634.4" y="616.5375"/><text fill="#000000" font-family="sans-serif" font-size="11.2" lengthAdjust="spacing" textLength="112.8" x="640" y="633.7641">:Warehouse&lt;Domain&gt;</text><rect fill="#E2E2F0" height="25.2875" rx="2" ry="2" style="stroke:#181818;stroke-width:0.4000000000000001;" width="183.2" x="766.4" y="616.5375"/><text fill="#000000" font-family="sans-serif" font-size="11.2" lengthAdjust="spacing" textLength="172" x="772" y="633.7641">:PersistenceContext&lt;persistence&gt;</text><rect fill="#E2E2F0" height="25.2875" rx="2" ry="2" style="stroke:#181818;stroke-width:0.4000000000000001;" width="154.4" x="957.6" y="616.5375"/><text fill="#000000" font-family="sans-serif" font-size="11.2" lengthAdjust="spacing" textLength="143.2" x="963.2" y="633.7641">:RepositoryFactory&lt;factory&gt;</text><rect fill="#E2E2F0" height="25.2875" rx="2" ry="2" style="stroke:#181818;stroke-width:0.4000000000000001;" width="127.2" x="1120" y="616.5375"/><text fill="#000000" font-family="sans-serif" font-size="11.2" lengthAdjust="spacing" textLength="116" x="1125.6" y="633.7641">:WarehouseRepository</text><rect fill="#FFFFFF" height="536.05" style="stroke:#181818;stroke-width:0.8000000000000002;" width="8" x="56.4" y="74.0875"/><rect fill="#FFFFFF" height="528.85" style="stroke:#181818;stroke-width:0.8000000000000002;" width="8" x="243.6" y="74.0875"/><rect fill="#FFFFFF" height="413.8438" style="stroke:#181818;stroke-width:0.8000000000000002;" width="8" x="432.4" y="164.8125"/><rect fill="#FFFFFF" height="109.3313" style="stroke:#181818;stroke-width:0.8000000000000002;" width="8" x="572.4" y="197.0938"/><rect fill="#FFFFFF" height="24.2813" style="stroke:#181818;stroke-width:0.8000000000000002;" width="8" x="692.4" y="257.8625"/><rect fill="#FFFFFF" height="24.2813" style="stroke:#181818;stroke-width:0.8000000000000002;" width="8" x="692.4" y="330.7063"/><rect fill="#FFFFFF" height="60.175" style="stroke:#181818;stroke-width:0.8000000000000002;" width="8" x="854" y="387.2688"/><rect fill="#FFFFFF" height="58.3688" style="stroke:#181818;stroke-width:0.8000000000000002;" width="8" x="1030.8" y="471.725"/><rect fill="#FFFFFF" height="24.2813" style="stroke:#181818;stroke-width:0.8000000000000002;" width="8" x="1179.6" y="554.375"/><polygon fill="#181818" points="234,88.7688,242,91.9688,234,95.1688,237.2,91.9688" style="stroke:#181818;stroke-width:0.8000000000000002;"/><line style="stroke:#181818;stroke-width:0.8000000000000002;" x1="64.4" x2="238.8" y1="91.9688" y2="91.9688"/><text fill="#000000" font-family="sans-serif" font-size="10.4" font-weight="bold" lengthAdjust="spacing" textLength="5.6" x="70" y="88.0836">1</text><text fill="#000000" font-family="sans-serif" font-size="10.4" lengthAdjust="spacing" textLength="147.2" x="78.8" y="88.0836">Set up Warehouse Plant Option</text><polygon fill="#181818" points="73.2,113.05,65.2,116.25,73.2,119.45,70,116.25" style="stroke:#181818;stroke-width:0.8000000000000002;"/><line style="stroke:#181818;stroke-width:0.8000000000000002;" x1="68.4" x2="242.8" y1="116.25" y2="116.25"/><text fill="#000000" font-family="sans-serif" font-size="10.4" font-weight="bold" lengthAdjust="spacing" textLength="5.6" x="78" y="112.3648">2</text><text fill="#000000" font-family="sans-serif" font-size="10.4" lengthAdjust="spacing" textLength="113.6" x="86.8" y="112.3648">asks the name of the file</text><polygon fill="#181818" points="234,137.3313,242,140.5313,234,143.7313,237.2,140.5313" style="stroke:#181818;stroke-width:0.8000000000000002;"/><line style="stroke:#181818;stroke-width:0.8000000000000002;" x1="64.4" x2="238.8" y1="140.5313" y2="140.5313"/><text fill="#000000" font-family="sans-serif" font-size="10.4" font-weight="bold" lengthAdjust="spacing" textLength="5.6" x="70" y="136.6461">3</text><text fill="#000000" font-family="sans-serif" font-size="10.4" lengthAdjust="spacing" textLength="92.8" x="78.8" y="136.6461">introduces file name</text><polygon fill="#181818" points="422.8,161.6125,430.8,164.8125,422.8,168.0125,426,164.8125" style="stroke:#181818;stroke-width:0.8000000000000002;"/><line style="stroke:#181818;stroke-width:0.8000000000000002;" x1="251.6" x2="427.6" y1="164.8125" y2="164.8125"/><text fill="#000000" font-family="sans-serif" font-size="10.4" font-weight="bold" lengthAdjust="spacing" textLength="5.6" x="257.2" y="160.9273">4</text><text fill="#000000" font-family="sans-serif" font-size="10.4" lengthAdjust="spacing" textLength="119.2" x="266" y="160.9273">buildWarehouse(filename)</text><polygon fill="#181818" points="531.2,185.8938,539.2,189.0938,531.2,192.2938,534.4,189.0938" style="stroke:#181818;stroke-width:0.8000000000000002;"/><line style="stroke:#181818;stroke-width:0.8000000000000002;" x1="440.4" x2="536" y1="189.0938" y2="189.0938"/><text fill="#000000" font-family="sans-serif" font-size="10.4" font-weight="bold" lengthAdjust="spacing" textLength="5.6" x="446" y="185.2086">5</text><text fill="#000000" font-family="sans-serif" font-size="10.4" lengthAdjust="spacing" textLength="28.8" x="454.8" y="185.2086">create</text><rect fill="#E2E2F0" height="25.2875" rx="2" ry="2" style="stroke:#181818;stroke-width:0.4000000000000001;" width="71.2" x="540.8" y="171.2125"/><text fill="#000000" font-family="sans-serif" font-size="11.2" lengthAdjust="spacing" textLength="60" x="546.4" y="188.4391">:JsonParser</text><line style="stroke:#181818;stroke-width:0.8000000000000002;" x1="580.4" x2="614" y1="223.1813" y2="223.1813"/><line style="stroke:#181818;stroke-width:0.8000000000000002;" x1="614" x2="614" y1="223.1813" y2="233.5813"/><line style="stroke:#181818;stroke-width:0.8000000000000002;" x1="581.2" x2="614" y1="233.5813" y2="233.5813"/><polygon fill="#181818" points="589.2,230.3813,581.2,233.5813,589.2,236.7813,586,233.5813" style="stroke:#181818;stroke-width:0.8000000000000002;"/><text fill="#000000" font-family="sans-serif" font-size="10.4" font-weight="bold" lengthAdjust="spacing" textLength="5.6" x="586" y="219.2961">6</text><text fill="#000000" font-family="sans-serif" font-size="10.4" lengthAdjust="spacing" textLength="88" x="594.8" y="219.2961">readJson(fileName)</text><polygon fill="#181818" points="682.8,254.6625,690.8,257.8625,682.8,261.0625,686,257.8625" style="stroke:#181818;stroke-width:0.8000000000000002;"/><line style="stroke:#181818;stroke-width:0.8000000000000002;" x1="580.4" x2="687.6" y1="257.8625" y2="257.8625"/><text fill="#000000" font-family="sans-serif" font-size="10.4" font-weight="bold" lengthAdjust="spacing" textLength="5.6" x="586" y="253.9773">7</text><text fill="#000000" font-family="sans-serif" font-size="10.4" lengthAdjust="spacing" textLength="88" x="594.8" y="253.9773">fromJson(fileName)</text><polygon fill="#181818" points="589.2,278.9438,581.2,282.1438,589.2,285.3438,586,282.1438" style="stroke:#181818;stroke-width:0.8000000000000002;"/><line style="stroke:#181818;stroke-width:0.8000000000000002;" x1="584.4" x2="695.6" y1="282.1438" y2="282.1438"/><text fill="#000000" font-family="sans-serif" font-size="10.4" font-weight="bold" lengthAdjust="spacing" textLength="5.6" x="594" y="278.2586">8</text><text fill="#000000" font-family="sans-serif" font-size="10.4" lengthAdjust="spacing" textLength="49.6" x="602.8" y="278.2586">warehouse</text><polygon fill="#181818" points="449.2,303.225,441.2,306.425,449.2,309.625,446,306.425" style="stroke:#181818;stroke-width:0.8000000000000002;"/><line style="stroke:#181818;stroke-width:0.8000000000000002;" x1="444.4" x2="575.6" y1="306.425" y2="306.425"/><text fill="#000000" font-family="sans-serif" font-size="10.4" font-weight="bold" lengthAdjust="spacing" textLength="5.6" x="454" y="302.5398">9</text><text fill="#000000" font-family="sans-serif" font-size="10.4" lengthAdjust="spacing" textLength="49.6" x="462.8" y="302.5398">warehouse</text><polygon fill="#181818" points="682.8,327.5063,690.8,330.7063,682.8,333.9063,686,330.7063" style="stroke:#181818;stroke-width:0.8000000000000002;"/><line style="stroke:#181818;stroke-width:0.8000000000000002;" x1="440.4" x2="687.6" y1="330.7063" y2="330.7063"/><text fill="#000000" font-family="sans-serif" font-size="10.4" font-weight="bold" lengthAdjust="spacing" textLength="11.2" x="446" y="326.8211">10</text><text fill="#000000" font-family="sans-serif" font-size="10.4" lengthAdjust="spacing" textLength="64" x="460.4" y="326.8211">buildShelves()</text><polygon fill="#181818" points="449.2,351.7875,441.2,354.9875,449.2,358.1875,446,354.9875" style="stroke:#181818;stroke-width:0.8000000000000002;"/><line style="stroke:#181818;stroke-width:0.8000000000000002;" x1="444.4" x2="695.6" y1="354.9875" y2="354.9875"/><text fill="#000000" font-family="sans-serif" font-size="10.4" font-weight="bold" lengthAdjust="spacing" textLength="11.2" x="454" y="351.1023">11</text><text fill="#000000" font-family="sans-serif" font-size="10.4" lengthAdjust="spacing" textLength="49.6" x="468.4" y="351.1023">warehouse</text><polygon fill="#181818" points="756.8,376.0688,764.8,379.2688,756.8,382.4688,760,379.2688" style="stroke:#181818;stroke-width:0.8000000000000002;"/><line style="stroke:#181818;stroke-width:0.8000000000000002;" x1="440.4" x2="761.6" y1="379.2688" y2="379.2688"/><text fill="#000000" font-family="sans-serif" font-size="10.4" font-weight="bold" lengthAdjust="spacing" textLength="11.2" x="446" y="375.3836">12</text><text fill="#000000" font-family="sans-serif" font-size="10.4" lengthAdjust="spacing" textLength="60" x="460.4" y="375.3836">repositories()</text><rect fill="#E2E2F0" height="25.2875" rx="2" ry="2" style="stroke:#181818;stroke-width:0.4000000000000001;" width="183.2" x="766.4" y="361.3875"/><text fill="#000000" font-family="sans-serif" font-size="11.2" lengthAdjust="spacing" textLength="172" x="772" y="378.6141">:PersistenceContext&lt;persistence&gt;</text><polygon fill="#181818" points="948,410.1563,956,413.3563,948,416.5563,951.2,413.3563" style="stroke:#181818;stroke-width:0.8000000000000002;"/><line style="stroke:#181818;stroke-width:0.8000000000000002;" x1="862" x2="952.8" y1="413.3563" y2="413.3563"/><text fill="#000000" font-family="sans-serif" font-size="10.4" font-weight="bold" lengthAdjust="spacing" textLength="11.2" x="867.6" y="409.4711">13</text><text fill="#000000" font-family="sans-serif" font-size="10.4" lengthAdjust="spacing" textLength="28.8" x="882" y="409.4711">create</text><rect fill="#E2E2F0" height="25.2875" rx="2" ry="2" style="stroke:#181818;stroke-width:0.4000000000000001;" width="154.4" x="957.6" y="395.475"/><text fill="#000000" font-family="sans-serif" font-size="11.2" lengthAdjust="spacing" textLength="143.2" x="963.2" y="412.7016">:RepositoryFactory&lt;factory&gt;</text><polygon fill="#181818" points="449.2,444.2438,441.2,447.4438,449.2,450.6438,446,447.4438" style="stroke:#181818;stroke-width:0.8000000000000002;"/><line style="stroke:#181818;stroke-width:0.8000000000000002;" x1="444.4" x2="857.2" y1="447.4438" y2="447.4438"/><text fill="#000000" font-family="sans-serif" font-size="10.4" font-weight="bold" lengthAdjust="spacing" textLength="11.2" x="454" y="443.5586">14</text><text fill="#000000" font-family="sans-serif" font-size="10.4" lengthAdjust="spacing" textLength="31.2" x="468.4" y="443.5586">factory</text><polygon fill="#181818" points="1021.2,468.525,1029.2,471.725,1021.2,474.925,1024.4,471.725" style="stroke:#181818;stroke-width:0.8000000000000002;"/><line style="stroke:#181818;stroke-width:0.8000000000000002;" x1="440.4" x2="1026" y1="471.725" y2="471.725"/><text fill="#000000" font-family="sans-serif" font-size="10.4" font-weight="bold" lengthAdjust="spacing" textLength="11.2" x="446" y="467.8398">15</text><text fill="#000000" font-family="sans-serif" font-size="10.4" lengthAdjust="spacing" textLength="61.6" x="460.4" y="467.8398">warehouses()</text><polygon fill="#181818" points="1110.4,492.8063,1118.4,496.0063,1110.4,499.2063,1113.6,496.0063" style="stroke:#181818;stroke-width:0.8000000000000002;"/><line style="stroke:#181818;stroke-width:0.8000000000000002;" x1="1038.8" x2="1115.2" y1="496.0063" y2="496.0063"/><text fill="#000000" font-family="sans-serif" font-size="10.4" font-weight="bold" lengthAdjust="spacing" textLength="11.2" x="1044.4" y="492.1211">16</text><text fill="#000000" font-family="sans-serif" font-size="10.4" lengthAdjust="spacing" textLength="28.8" x="1058.8" y="492.1211">create</text><rect fill="#E2E2F0" height="25.2875" rx="2" ry="2" style="stroke:#181818;stroke-width:0.4000000000000001;" width="127.2" x="1120" y="478.125"/><text fill="#000000" font-family="sans-serif" font-size="11.2" lengthAdjust="spacing" textLength="116" x="1125.6" y="495.3516">:WarehouseRepository</text><polygon fill="#181818" points="449.2,526.8938,441.2,530.0938,449.2,533.2938,446,530.0938" style="stroke:#181818;stroke-width:0.8000000000000002;"/><line style="stroke:#181818;stroke-width:0.8000000000000002;" x1="444.4" x2="1034" y1="530.0938" y2="530.0938"/><text fill="#000000" font-family="sans-serif" font-size="10.4" font-weight="bold" lengthAdjust="spacing" textLength="11.2" x="454" y="526.2086">17</text><text fill="#000000" font-family="sans-serif" font-size="10.4" lengthAdjust="spacing" textLength="99.2" x="468.4" y="526.2086">warehouseRepository</text><polygon fill="#181818" points="1170,551.175,1178,554.375,1170,557.575,1173.2,554.375" style="stroke:#181818;stroke-width:0.8000000000000002;"/><line style="stroke:#181818;stroke-width:0.8000000000000002;" x1="440.4" x2="1174.8" y1="554.375" y2="554.375"/><text fill="#000000" font-family="sans-serif" font-size="10.4" font-weight="bold" lengthAdjust="spacing" textLength="11.2" x="446" y="550.4898">18</text><text fill="#000000" font-family="sans-serif" font-size="10.4" lengthAdjust="spacing" textLength="76.8" x="460.4" y="550.4898">save(warehouse)</text><polygon fill="#181818" points="260.4,575.4563,252.4,578.6563,260.4,581.8563,257.2,578.6563" style="stroke:#181818;stroke-width:0.8000000000000002;"/><line style="stroke:#181818;stroke-width:0.8000000000000002;" x1="255.6" x2="435.6" y1="578.6563" y2="578.6563"/><text fill="#000000" font-family="sans-serif" font-size="10.4" font-weight="bold" lengthAdjust="spacing" textLength="11.2" x="265.2" y="574.7711">19</text><text fill="#000000" font-family="sans-serif" font-size="10.4" lengthAdjust="spacing" textLength="147.2" x="279.6" y="574.7711">confirmation is show to the user</text><polygon fill="#181818" points="73.2,599.7375,65.2,602.9375,73.2,606.1375,70,602.9375" style="stroke:#181818;stroke-width:0.8000000000000002;"/><line style="stroke:#181818;stroke-width:0.8000000000000002;" x1="68.4" x2="246.8" y1="602.9375" y2="602.9375"/><text fill="#000000" font-family="sans-serif" font-size="10.4" font-weight="bold" lengthAdjust="spacing" textLength="11.2" x="78" y="599.0523">20</text><text fill="#000000" font-family="sans-serif" font-size="10.4" lengthAdjust="spacing" textLength="145.6" x="92.4" y="599.0523">presents the user with the plant</text><!--MD5=[ea7dbb4b801cd9b9ceffb39078a43ac4]
@startuml
autonumber
actor "WarehouseEmployee" as SC

participant  "WarehouseUI <presentation>" as SYS
participant ":WarehouseController <application>" as CTRL
participant ":JsonParser" as CSB
participant ":Warehouse<Domain>" as CUS
participant ":PersistenceContext<persistence>" as PC
participant ":RepositoryFactory<factory>" as RF
participant ":WarehouseRepository" as CR




activate SC
activate SYS

SC-> SYS: Set up Warehouse Plant Option

SYS-> SC: asks the name of the file

SC-> SYS: introduces file name

SYS-> CTRL : buildWarehouse(filename)

activate CTRL
CTRL-> CSB **: create

activate CSB
CSB-> CSB: readJson(fileName)

CSB -> CUS : fromJson(fileName)
activate CUS

CUS -> CSB: warehouse
deactivate CUS

CSB -> CTRL: warehouse

deactivate CSB
deactivate CUS
CTRL->CUS: buildShelves()
activate CUS

CUS -> CTRL: warehouse
deactivate CUS


CTRL-> PC**: repositories()
activate PC
PC-> RF**: create
PC-> CTRL: factory
deactivate PC

CTRL-> RF: warehouses()
activate RF
RF->CR**: create

RF->CTRL: warehouseRepository
deactivate RF
CTRL->CR: save(warehouse)

deactivate PC
activate CR

CTRL -> SYS: confirmation is show to the user
deactivate CR
deactivate CTRL

SYS-> SC: presents the user with the plant
deactivate SYS
@enduml

PlantUML version 1.2022.4(Sat Apr 09 15:29:17 CEST 2022)
(GPL source distribution)
Java Runtime: OpenJDK Runtime Environment
JVM: OpenJDK 64-Bit Server VM
Default Encoding: Cp1252
Language: pt
Country: PT
--></g></svg>