<?xml version="1.0" encoding="UTF-8" standalone="no"?><svg xmlns="http://www.w3.org/2000/svg" xmlns:xlink="http://www.w3.org/1999/xlink" contentStyleType="text/css" height="971px" preserveAspectRatio="none" style="width:2275px;height:971px;background:#FFFFFF;" version="1.1" viewBox="0 0 2275 971" width="2275px" zoomAndPan="magnify"><defs/><g><!--MD5=[65846dca41511e59212c3eb98f775491]
class DefineSurveyUI--><g id="elem_DefineSurveyUI"><rect codeLine="3" fill="#F1F1F1" height="48" id="DefineSurveyUI" rx="2.5" ry="2.5" style="stroke:#181818;stroke-width:0.5;" width="129" x="272" y="7"/><ellipse cx="287" cy="23" fill="#ADD1B2" rx="11" ry="11" style="stroke:#181818;stroke-width:1.0;"/><path d="M289,19.5 Q289.2031,19 289.4375,18.75 Q289.6719,18.5 289.9375,18.5 Q290.4063,18.5 290.7031,18.7813 Q291,19.0625 291,19.7188 L291,21.2813 Q291,21.9375 290.7188,22.2188 Q290.4375,22.5 290,22.5 Q289.6094,22.5 289.3594,22.3281 Q289.1094,22.1563 289,21.7031 Q288.9531,21.3906 288.7813,21.2188 Q288.4688,20.8906 287.9063,20.7031 Q287.3438,20.5 286.7813,20.5 Q286.0781,20.5 285.4844,20.7813 Q284.9063,21.0625 284.4531,21.6875 Q284,22.3125 284,23.1719 L284,24.0938 Q284,25.125 284.8438,25.8125 Q285.6875,26.5 287.1875,26.5 Q288.0781,26.5 288.7031,26.2969 Q289.0625,26.1875 289.4688,25.8281 Q289.7344,25.625 289.875,25.5625 Q290.0156,25.5 290.1875,25.5 Q290.5156,25.5 290.75,25.7656 Q291,26.0156 291,26.375 Q291,26.7188 290.6563,27.125 Q290.1563,27.7188 289.3594,28.0469 Q288.3125,28.5 287.0313,28.5 Q285.5313,28.5 284.3281,27.9063 Q283.3594,27.4375 282.6719,26.4219 Q282,25.4063 282,24.2031 L282,23.1094 Q282,21.8594 282.5938,20.7656 Q283.2031,19.6719 284.25,19.0938 Q285.3125,18.5 286.5,18.5 Q287.2188,18.5 287.8438,18.75 Q288.4688,19 289,19.5 Z " fill="#000000"/><text fill="#000000" font-family="sans-serif" font-size="14" lengthAdjust="spacing" textLength="97" x="301" y="28.7285">DefineSurveyUI</text><line style="stroke:#181818;stroke-width:0.5;" x1="273" x2="400" y1="39" y2="39"/><line style="stroke:#181818;stroke-width:0.5;" x1="273" x2="400" y1="47" y2="47"/></g><!--MD5=[1392191afe825be7452c7477a8df8301]
class SurveyController--><g id="elem_SurveyController"><rect codeLine="6" fill="#F1F1F1" height="100.8281" id="SurveyController" rx="2.5" ry="2.5" style="stroke:#181818;stroke-width:0.5;" width="659" x="7" y="160"/><ellipse cx="279.25" cy="176" fill="#ADD1B2" rx="11" ry="11" style="stroke:#181818;stroke-width:1.0;"/><path d="M281.25,172.5 Q281.4531,172 281.6875,171.75 Q281.9219,171.5 282.1875,171.5 Q282.6563,171.5 282.9531,171.7813 Q283.25,172.0625 283.25,172.7188 L283.25,174.2813 Q283.25,174.9375 282.9688,175.2188 Q282.6875,175.5 282.25,175.5 Q281.8594,175.5 281.6094,175.3281 Q281.3594,175.1563 281.25,174.7031 Q281.2031,174.3906 281.0313,174.2188 Q280.7188,173.8906 280.1563,173.7031 Q279.5938,173.5 279.0313,173.5 Q278.3281,173.5 277.7344,173.7813 Q277.1563,174.0625 276.7031,174.6875 Q276.25,175.3125 276.25,176.1719 L276.25,177.0938 Q276.25,178.125 277.0938,178.8125 Q277.9375,179.5 279.4375,179.5 Q280.3281,179.5 280.9531,179.2969 Q281.3125,179.1875 281.7188,178.8281 Q281.9844,178.625 282.125,178.5625 Q282.2656,178.5 282.4375,178.5 Q282.7656,178.5 283,178.7656 Q283.25,179.0156 283.25,179.375 Q283.25,179.7188 282.9063,180.125 Q282.4063,180.7188 281.6094,181.0469 Q280.5625,181.5 279.2813,181.5 Q277.7813,181.5 276.5781,180.9063 Q275.6094,180.4375 274.9219,179.4219 Q274.25,178.4063 274.25,177.2031 L274.25,176.1094 Q274.25,174.8594 274.8438,173.7656 Q275.4531,172.6719 276.5,172.0938 Q277.5625,171.5 278.75,171.5 Q279.4688,171.5 280.0938,171.75 Q280.7188,172 281.25,172.5 Z " fill="#000000"/><text fill="#000000" font-family="sans-serif" font-size="14" lengthAdjust="spacing" textLength="106" x="299.75" y="181.7285">SurveyController</text><line style="stroke:#181818;stroke-width:0.5;" x1="8" x2="665" y1="192" y2="192"/><line style="stroke:#181818;stroke-width:0.5;" x1="8" x2="665" y1="200" y2="200"/><text fill="#000000" font-family="sans-serif" font-size="14" lengthAdjust="spacing" textLength="541" x="13" y="218.5332">+buildQuestion(questionId, questionMessage, questionType, obligatoriness, extraInfo)</text><text fill="#000000" font-family="sans-serif" font-size="14" lengthAdjust="spacing" textLength="647" x="13" y="236.1426">+buildSection(sectionId, title, description, obligatoriness, repeatability, Collection&lt;Question&gt; questions)</text><text fill="#000000" font-family="sans-serif" font-size="14" lengthAdjust="spacing" textLength="640" x="13" y="253.752">+buildQuestionnaire(questionnaireId, questionnaireTitle, welcomeMessage, sectionList, finalMessage)</text></g><!--MD5=[494e0bdb5c8bb794bcdf99253cad2029]
class AlphanumericCode--><g id="elem_AlphanumericCode"><rect codeLine="12" fill="#F1F1F1" height="188.875" id="AlphanumericCode" rx="2.5" ry="2.5" style="stroke:#181818;stroke-width:0.5;" width="222" x="701.5" y="116"/><ellipse cx="748.25" cy="132" fill="#ADD1B2" rx="11" ry="11" style="stroke:#181818;stroke-width:1.0;"/><path d="M750.25,128.5 Q750.4531,128 750.6875,127.75 Q750.9219,127.5 751.1875,127.5 Q751.6563,127.5 751.9531,127.7813 Q752.25,128.0625 752.25,128.7188 L752.25,130.2813 Q752.25,130.9375 751.9688,131.2188 Q751.6875,131.5 751.25,131.5 Q750.8594,131.5 750.6094,131.3281 Q750.3594,131.1563 750.25,130.7031 Q750.2031,130.3906 750.0313,130.2188 Q749.7188,129.8906 749.1563,129.7031 Q748.5938,129.5 748.0313,129.5 Q747.3281,129.5 746.7344,129.7813 Q746.1563,130.0625 745.7031,130.6875 Q745.25,131.3125 745.25,132.1719 L745.25,133.0938 Q745.25,134.125 746.0938,134.8125 Q746.9375,135.5 748.4375,135.5 Q749.3281,135.5 749.9531,135.2969 Q750.3125,135.1875 750.7188,134.8281 Q750.9844,134.625 751.125,134.5625 Q751.2656,134.5 751.4375,134.5 Q751.7656,134.5 752,134.7656 Q752.25,135.0156 752.25,135.375 Q752.25,135.7188 751.9063,136.125 Q751.4063,136.7188 750.6094,137.0469 Q749.5625,137.5 748.2813,137.5 Q746.7813,137.5 745.5781,136.9063 Q744.6094,136.4375 743.9219,135.4219 Q743.25,134.4063 743.25,133.2031 L743.25,132.1094 Q743.25,130.8594 743.8438,129.7656 Q744.4531,128.6719 745.5,128.0938 Q746.5625,127.5 747.75,127.5 Q748.4688,127.5 749.0938,127.75 Q749.7188,128 750.25,128.5 Z " fill="#000000"/><text fill="#000000" font-family="sans-serif" font-size="14" lengthAdjust="spacing" textLength="120" x="768.75" y="137.7285">AlphanumericCode</text><line style="stroke:#181818;stroke-width:0.5;" x1="702.5" x2="922.5" y1="148" y2="148"/><text fill="#000000" font-family="sans-serif" font-size="14" lengthAdjust="spacing" textLength="77" x="707.5" y="166.5332">-String code</text><line style="stroke:#181818;stroke-width:0.5;" x1="702.5" x2="922.5" y1="173.6094" y2="173.6094"/><text fill="#000000" font-family="sans-serif" font-size="14" lengthAdjust="spacing" textLength="210" x="707.5" y="192.1426">+AlphanumericCode(String code)</text><text fill="#000000" font-family="sans-serif" font-size="14" lengthAdjust="spacing" textLength="67" x="707.5" y="209.752">+valueOf()</text><text fill="#000000" font-family="sans-serif" font-size="14" lengthAdjust="spacing" textLength="77" x="707.5" y="227.3613">+firstName()</text><text fill="#000000" font-family="sans-serif" font-size="14" lengthAdjust="spacing" textLength="76" x="707.5" y="244.9707">+lastName()</text><text fill="#000000" font-family="sans-serif" font-size="14" lengthAdjust="spacing" textLength="113" x="707.5" y="262.5801">+equals(Object o)</text><text fill="#000000" font-family="sans-serif" font-size="14" lengthAdjust="spacing" textLength="83" x="707.5" y="280.1895">+hashCode()</text><text fill="#000000" font-family="sans-serif" font-size="14" lengthAdjust="spacing" textLength="67" x="707.5" y="297.7988">+toString()</text></g><!--MD5=[009695af4e54f3bba8a9c60dca3e1c94]
class Description--><g id="elem_Description"><rect codeLine="24" fill="#F1F1F1" height="171.2656" id="Description" rx="2.5" ry="2.5" style="stroke:#181818;stroke-width:0.5;" width="177" x="959" y="125"/><ellipse cx="1007.75" cy="141" fill="#ADD1B2" rx="11" ry="11" style="stroke:#181818;stroke-width:1.0;"/><path d="M1009.75,137.5 Q1009.9531,137 1010.1875,136.75 Q1010.4219,136.5 1010.6875,136.5 Q1011.1563,136.5 1011.4531,136.7813 Q1011.75,137.0625 1011.75,137.7188 L1011.75,139.2813 Q1011.75,139.9375 1011.4688,140.2188 Q1011.1875,140.5 1010.75,140.5 Q1010.3594,140.5 1010.1094,140.3281 Q1009.8594,140.1563 1009.75,139.7031 Q1009.7031,139.3906 1009.5313,139.2188 Q1009.2188,138.8906 1008.6563,138.7031 Q1008.0938,138.5 1007.5313,138.5 Q1006.8281,138.5 1006.2344,138.7813 Q1005.6563,139.0625 1005.2031,139.6875 Q1004.75,140.3125 1004.75,141.1719 L1004.75,142.0938 Q1004.75,143.125 1005.5938,143.8125 Q1006.4375,144.5 1007.9375,144.5 Q1008.8281,144.5 1009.4531,144.2969 Q1009.8125,144.1875 1010.2188,143.8281 Q1010.4844,143.625 1010.625,143.5625 Q1010.7656,143.5 1010.9375,143.5 Q1011.2656,143.5 1011.5,143.7656 Q1011.75,144.0156 1011.75,144.375 Q1011.75,144.7188 1011.4063,145.125 Q1010.9063,145.7188 1010.1094,146.0469 Q1009.0625,146.5 1007.7813,146.5 Q1006.2813,146.5 1005.0781,145.9063 Q1004.1094,145.4375 1003.4219,144.4219 Q1002.75,143.4063 1002.75,142.2031 L1002.75,141.1094 Q1002.75,139.8594 1003.3438,138.7656 Q1003.9531,137.6719 1005,137.0938 Q1006.0625,136.5 1007.25,136.5 Q1007.9688,136.5 1008.5938,136.75 Q1009.2188,137 1009.75,137.5 Z " fill="#000000"/><text fill="#000000" font-family="sans-serif" font-size="14" lengthAdjust="spacing" textLength="71" x="1028.25" y="146.7285">Description</text><line style="stroke:#181818;stroke-width:0.5;" x1="960" x2="1135" y1="157" y2="157"/><text fill="#000000" font-family="sans-serif" font-size="14" lengthAdjust="spacing" textLength="80" x="965" y="175.5332">-String value</text><line style="stroke:#181818;stroke-width:0.5;" x1="960" x2="1135" y1="182.6094" y2="182.6094"/><text fill="#000000" font-family="sans-serif" font-size="14" lengthAdjust="spacing" textLength="165" x="965" y="201.1426">+Description(String name)</text><text fill="#000000" font-family="sans-serif" font-size="14" lengthAdjust="spacing" textLength="67" x="965" y="218.752">+valueOf()</text><text fill="#000000" font-family="sans-serif" font-size="14" lengthAdjust="spacing" textLength="57" x="965" y="236.3613">+length()</text><text fill="#000000" font-family="sans-serif" font-size="14" lengthAdjust="spacing" textLength="113" x="965" y="253.9707">+equals(Object o)</text><text fill="#000000" font-family="sans-serif" font-size="14" lengthAdjust="spacing" textLength="83" x="965" y="271.5801">+hashCode()</text><text fill="#000000" font-family="sans-serif" font-size="14" lengthAdjust="spacing" textLength="67" x="965" y="289.1895">+toString()</text></g><!--MD5=[2555a5a46195b40631e16698a2ba5d47]
class Period--><g id="elem_Period"><rect codeLine="34" fill="#F1F1F1" height="100.8281" id="Period" rx="2.5" ry="2.5" style="stroke:#181818;stroke-width:0.5;" width="292" x="1171.5" y="160"/><ellipse cx="1292.75" cy="176" fill="#ADD1B2" rx="11" ry="11" style="stroke:#181818;stroke-width:1.0;"/><path d="M1294.75,172.5 Q1294.9531,172 1295.1875,171.75 Q1295.4219,171.5 1295.6875,171.5 Q1296.1563,171.5 1296.4531,171.7813 Q1296.75,172.0625 1296.75,172.7188 L1296.75,174.2813 Q1296.75,174.9375 1296.4688,175.2188 Q1296.1875,175.5 1295.75,175.5 Q1295.3594,175.5 1295.1094,175.3281 Q1294.8594,175.1563 1294.75,174.7031 Q1294.7031,174.3906 1294.5313,174.2188 Q1294.2188,173.8906 1293.6563,173.7031 Q1293.0938,173.5 1292.5313,173.5 Q1291.8281,173.5 1291.2344,173.7813 Q1290.6563,174.0625 1290.2031,174.6875 Q1289.75,175.3125 1289.75,176.1719 L1289.75,177.0938 Q1289.75,178.125 1290.5938,178.8125 Q1291.4375,179.5 1292.9375,179.5 Q1293.8281,179.5 1294.4531,179.2969 Q1294.8125,179.1875 1295.2188,178.8281 Q1295.4844,178.625 1295.625,178.5625 Q1295.7656,178.5 1295.9375,178.5 Q1296.2656,178.5 1296.5,178.7656 Q1296.75,179.0156 1296.75,179.375 Q1296.75,179.7188 1296.4063,180.125 Q1295.9063,180.7188 1295.1094,181.0469 Q1294.0625,181.5 1292.7813,181.5 Q1291.2813,181.5 1290.0781,180.9063 Q1289.1094,180.4375 1288.4219,179.4219 Q1287.75,178.4063 1287.75,177.2031 L1287.75,176.1094 Q1287.75,174.8594 1288.3438,173.7656 Q1288.9531,172.6719 1290,172.0938 Q1291.0625,171.5 1292.25,171.5 Q1292.9688,171.5 1293.5938,171.75 Q1294.2188,172 1294.75,172.5 Z " fill="#000000"/><text fill="#000000" font-family="sans-serif" font-size="14" lengthAdjust="spacing" textLength="41" x="1313.25" y="181.7285">Period</text><line style="stroke:#181818;stroke-width:0.5;" x1="1172.5" x2="1462.5" y1="192" y2="192"/><text fill="#000000" font-family="sans-serif" font-size="14" lengthAdjust="spacing" textLength="76" x="1177.5" y="210.5332">-String days</text><line style="stroke:#181818;stroke-width:0.5;" x1="1172.5" x2="1462.5" y1="217.6094" y2="217.6094"/><text fill="#000000" font-family="sans-serif" font-size="14" lengthAdjust="spacing" textLength="130" x="1177.5" y="236.1426">+Period(String days)</text><text fill="#000000" font-family="sans-serif" font-size="14" lengthAdjust="spacing" textLength="280" x="1177.5" y="253.752">+valueOf(String prefix, String phoneNumber)</text></g><!--MD5=[5a3b85c54cc1c79904e0b827443986bf]
class Questionnaire--><g id="elem_Questionnaire"><rect codeLine="39" fill="#F1F1F1" height="153.6563" id="Questionnaire" rx="2.5" ry="2.5" style="stroke:#181818;stroke-width:0.5;" width="430" x="1811.5" y="133.5"/><ellipse cx="1977.75" cy="149.5" fill="#ADD1B2" rx="11" ry="11" style="stroke:#181818;stroke-width:1.0;"/><path d="M1979.75,146 Q1979.9531,145.5 1980.1875,145.25 Q1980.4219,145 1980.6875,145 Q1981.1563,145 1981.4531,145.2813 Q1981.75,145.5625 1981.75,146.2188 L1981.75,147.7813 Q1981.75,148.4375 1981.4688,148.7188 Q1981.1875,149 1980.75,149 Q1980.3594,149 1980.1094,148.8281 Q1979.8594,148.6563 1979.75,148.2031 Q1979.7031,147.8906 1979.5313,147.7188 Q1979.2188,147.3906 1978.6563,147.2031 Q1978.0938,147 1977.5313,147 Q1976.8281,147 1976.2344,147.2813 Q1975.6563,147.5625 1975.2031,148.1875 Q1974.75,148.8125 1974.75,149.6719 L1974.75,150.5938 Q1974.75,151.625 1975.5938,152.3125 Q1976.4375,153 1977.9375,153 Q1978.8281,153 1979.4531,152.7969 Q1979.8125,152.6875 1980.2188,152.3281 Q1980.4844,152.125 1980.625,152.0625 Q1980.7656,152 1980.9375,152 Q1981.2656,152 1981.5,152.2656 Q1981.75,152.5156 1981.75,152.875 Q1981.75,153.2188 1981.4063,153.625 Q1980.9063,154.2188 1980.1094,154.5469 Q1979.0625,155 1977.7813,155 Q1976.2813,155 1975.0781,154.4063 Q1974.1094,153.9375 1973.4219,152.9219 Q1972.75,151.9063 1972.75,150.7031 L1972.75,149.6094 Q1972.75,148.3594 1973.3438,147.2656 Q1973.9531,146.1719 1975,145.5938 Q1976.0625,145 1977.25,145 Q1977.9688,145 1978.5938,145.25 Q1979.2188,145.5 1979.75,146 Z " fill="#000000"/><text fill="#000000" font-family="sans-serif" font-size="14" lengthAdjust="spacing" textLength="89" x="1998.25" y="155.2285">Questionnaire</text><line style="stroke:#181818;stroke-width:0.5;" x1="1812.5" x2="2240.5" y1="165.5" y2="165.5"/><text fill="#000000" font-family="sans-serif" font-size="14" lengthAdjust="spacing" textLength="61" x="1817.5" y="184.0332">-String id;</text><text fill="#000000" font-family="sans-serif" font-size="14" lengthAdjust="spacing" textLength="72" x="1817.5" y="201.6426">-String title;</text><text fill="#000000" font-family="sans-serif" font-size="14" lengthAdjust="spacing" textLength="161" x="1817.5" y="219.252">-String welcomeMessage;</text><text fill="#000000" font-family="sans-serif" font-size="14" lengthAdjust="spacing" textLength="150" x="1817.5" y="236.8613">-List&lt;Section&gt; sections;</text><text fill="#000000" font-family="sans-serif" font-size="14" lengthAdjust="spacing" textLength="133" x="1817.5" y="254.4707">-String finalMessage;</text><line style="stroke:#181818;stroke-width:0.5;" x1="1812.5" x2="2240.5" y1="261.5469" y2="261.5469"/><text fill="#000000" font-family="sans-serif" font-size="14" lengthAdjust="spacing" textLength="418" x="1817.5" y="280.0801">+Questionnaire(id, title, welcomeMessage, sections, finalMessage)</text></g><!--MD5=[09a53695e98d4f26e7a054522080af08]
class Section--><g id="elem_Section"><rect codeLine="49" fill="#F1F1F1" height="171.2656" id="Section" rx="2.5" ry="2.5" style="stroke:#181818;stroke-width:0.5;" width="431" x="1811" y="383"/><ellipse cx="1998.75" cy="399" fill="#ADD1B2" rx="11" ry="11" style="stroke:#181818;stroke-width:1.0;"/><path d="M2000.75,395.5 Q2000.9531,395 2001.1875,394.75 Q2001.4219,394.5 2001.6875,394.5 Q2002.1563,394.5 2002.4531,394.7813 Q2002.75,395.0625 2002.75,395.7188 L2002.75,397.2813 Q2002.75,397.9375 2002.4688,398.2188 Q2002.1875,398.5 2001.75,398.5 Q2001.3594,398.5 2001.1094,398.3281 Q2000.8594,398.1563 2000.75,397.7031 Q2000.7031,397.3906 2000.5313,397.2188 Q2000.2188,396.8906 1999.6563,396.7031 Q1999.0938,396.5 1998.5313,396.5 Q1997.8281,396.5 1997.2344,396.7813 Q1996.6563,397.0625 1996.2031,397.6875 Q1995.75,398.3125 1995.75,399.1719 L1995.75,400.0938 Q1995.75,401.125 1996.5938,401.8125 Q1997.4375,402.5 1998.9375,402.5 Q1999.8281,402.5 2000.4531,402.2969 Q2000.8125,402.1875 2001.2188,401.8281 Q2001.4844,401.625 2001.625,401.5625 Q2001.7656,401.5 2001.9375,401.5 Q2002.2656,401.5 2002.5,401.7656 Q2002.75,402.0156 2002.75,402.375 Q2002.75,402.7188 2002.4063,403.125 Q2001.9063,403.7188 2001.1094,404.0469 Q2000.0625,404.5 1998.7813,404.5 Q1997.2813,404.5 1996.0781,403.9063 Q1995.1094,403.4375 1994.4219,402.4219 Q1993.75,401.4063 1993.75,400.2031 L1993.75,399.1094 Q1993.75,397.8594 1994.3438,396.7656 Q1994.9531,395.6719 1996,395.0938 Q1997.0625,394.5 1998.25,394.5 Q1998.9688,394.5 1999.5938,394.75 Q2000.2188,395 2000.75,395.5 Z " fill="#000000"/><text fill="#000000" font-family="sans-serif" font-size="14" lengthAdjust="spacing" textLength="47" x="2019.25" y="404.7285">Section</text><line style="stroke:#181818;stroke-width:0.5;" x1="1812" x2="2241" y1="415" y2="415"/><text fill="#000000" font-family="sans-serif" font-size="14" lengthAdjust="spacing" textLength="61" x="1817" y="433.5332">-String id;</text><text fill="#000000" font-family="sans-serif" font-size="14" lengthAdjust="spacing" textLength="72" x="1817" y="451.1426">-String title;</text><text fill="#000000" font-family="sans-serif" font-size="14" lengthAdjust="spacing" textLength="149" x="1817" y="468.752">-Description description</text><text fill="#000000" font-family="sans-serif" font-size="14" lengthAdjust="spacing" textLength="188" x="1817" y="486.3613">-Obligatoriness obligatoriness</text><text fill="#000000" font-family="sans-serif" font-size="14" lengthAdjust="spacing" textLength="123" x="1817" y="503.9707">-String repeatability</text><text fill="#000000" font-family="sans-serif" font-size="14" lengthAdjust="spacing" textLength="155" x="1817" y="521.5801">-List&lt;Question&gt; content;</text><line style="stroke:#181818;stroke-width:0.5;" x1="1812" x2="2241" y1="528.6563" y2="528.6563"/><text fill="#000000" font-family="sans-serif" font-size="14" lengthAdjust="spacing" textLength="419" x="1817" y="547.1895">+Section(id, title, description, obligatoriness, repeatability, content)</text></g><!--MD5=[fc7123defb831ecdd44b2d9bcef6cceb]
class Question--><g id="elem_Question"><rect codeLine="60" fill="#F1F1F1" height="188.875" id="Question" rx="2.5" ry="2.5" style="stroke:#181818;stroke-width:0.5;" width="483" x="1785" y="632"/><ellipse cx="1993.75" cy="648" fill="#ADD1B2" rx="11" ry="11" style="stroke:#181818;stroke-width:1.0;"/><path d="M1995.75,644.5 Q1995.9531,644 1996.1875,643.75 Q1996.4219,643.5 1996.6875,643.5 Q1997.1563,643.5 1997.4531,643.7813 Q1997.75,644.0625 1997.75,644.7188 L1997.75,646.2813 Q1997.75,646.9375 1997.4688,647.2188 Q1997.1875,647.5 1996.75,647.5 Q1996.3594,647.5 1996.1094,647.3281 Q1995.8594,647.1563 1995.75,646.7031 Q1995.7031,646.3906 1995.5313,646.2188 Q1995.2188,645.8906 1994.6563,645.7031 Q1994.0938,645.5 1993.5313,645.5 Q1992.8281,645.5 1992.2344,645.7813 Q1991.6563,646.0625 1991.2031,646.6875 Q1990.75,647.3125 1990.75,648.1719 L1990.75,649.0938 Q1990.75,650.125 1991.5938,650.8125 Q1992.4375,651.5 1993.9375,651.5 Q1994.8281,651.5 1995.4531,651.2969 Q1995.8125,651.1875 1996.2188,650.8281 Q1996.4844,650.625 1996.625,650.5625 Q1996.7656,650.5 1996.9375,650.5 Q1997.2656,650.5 1997.5,650.7656 Q1997.75,651.0156 1997.75,651.375 Q1997.75,651.7188 1997.4063,652.125 Q1996.9063,652.7188 1996.1094,653.0469 Q1995.0625,653.5 1993.7813,653.5 Q1992.2813,653.5 1991.0781,652.9063 Q1990.1094,652.4375 1989.4219,651.4219 Q1988.75,650.4063 1988.75,649.2031 L1988.75,648.1094 Q1988.75,646.8594 1989.3438,645.7656 Q1989.9531,644.6719 1991,644.0938 Q1992.0625,643.5 1993.25,643.5 Q1993.9688,643.5 1994.5938,643.75 Q1995.2188,644 1995.75,644.5 Z " fill="#000000"/><text fill="#000000" font-family="sans-serif" font-size="14" lengthAdjust="spacing" textLength="57" x="2014.25" y="653.7285">Question</text><line style="stroke:#181818;stroke-width:0.5;" x1="1786" x2="2267" y1="664" y2="664"/><text fill="#000000" font-family="sans-serif" font-size="14" lengthAdjust="spacing" textLength="61" x="1791" y="682.5332">-String id;</text><text fill="#000000" font-family="sans-serif" font-size="14" lengthAdjust="spacing" textLength="161" x="1791" y="700.1426">-String questionMessage;</text><text fill="#000000" font-family="sans-serif" font-size="14" lengthAdjust="spacing" textLength="115" x="1791" y="717.752">-String instruction;</text><text fill="#000000" font-family="sans-serif" font-size="14" lengthAdjust="spacing" textLength="129" x="1791" y="735.3613">-QuestionType type;</text><text fill="#000000" font-family="sans-serif" font-size="14" lengthAdjust="spacing" textLength="188" x="1791" y="752.9707">-Obligatoriness obligatoriness</text><text fill="#000000" font-family="sans-serif" font-size="14" lengthAdjust="spacing" textLength="100" x="1791" y="770.5801">-String extraInfo</text><line style="stroke:#181818;stroke-width:0.5;" x1="1786" x2="2267" y1="777.6563" y2="777.6563"/><text fill="#000000" font-family="sans-serif" font-size="14" lengthAdjust="spacing" textLength="471" x="1791" y="796.1895">+Question(id, questionMessage, instruction, type, obligatoriness, extraInfo)</text><text fill="#000000" font-family="sans-serif" font-size="14" lengthAdjust="spacing" textLength="67" x="1791" y="813.7988">+toString()</text></g><!--MD5=[fd7366e9f96236d9aa60dcc04f2b83e5]
class Content--><g id="elem_Content"><rect codeLine="73" fill="#F1F1F1" height="188.875" id="Content" rx="2.5" ry="2.5" style="stroke:#181818;stroke-width:0.5;" width="277" x="1499" y="116"/><ellipse cx="1608.25" cy="132" fill="#ADD1B2" rx="11" ry="11" style="stroke:#181818;stroke-width:1.0;"/><path d="M1610.25,128.5 Q1610.4531,128 1610.6875,127.75 Q1610.9219,127.5 1611.1875,127.5 Q1611.6563,127.5 1611.9531,127.7813 Q1612.25,128.0625 1612.25,128.7188 L1612.25,130.2813 Q1612.25,130.9375 1611.9688,131.2188 Q1611.6875,131.5 1611.25,131.5 Q1610.8594,131.5 1610.6094,131.3281 Q1610.3594,131.1563 1610.25,130.7031 Q1610.2031,130.3906 1610.0313,130.2188 Q1609.7188,129.8906 1609.1563,129.7031 Q1608.5938,129.5 1608.0313,129.5 Q1607.3281,129.5 1606.7344,129.7813 Q1606.1563,130.0625 1605.7031,130.6875 Q1605.25,131.3125 1605.25,132.1719 L1605.25,133.0938 Q1605.25,134.125 1606.0938,134.8125 Q1606.9375,135.5 1608.4375,135.5 Q1609.3281,135.5 1609.9531,135.2969 Q1610.3125,135.1875 1610.7188,134.8281 Q1610.9844,134.625 1611.125,134.5625 Q1611.2656,134.5 1611.4375,134.5 Q1611.7656,134.5 1612,134.7656 Q1612.25,135.0156 1612.25,135.375 Q1612.25,135.7188 1611.9063,136.125 Q1611.4063,136.7188 1610.6094,137.0469 Q1609.5625,137.5 1608.2813,137.5 Q1606.7813,137.5 1605.5781,136.9063 Q1604.6094,136.4375 1603.9219,135.4219 Q1603.25,134.4063 1603.25,133.2031 L1603.25,132.1094 Q1603.25,130.8594 1603.8438,129.7656 Q1604.4531,128.6719 1605.5,128.0938 Q1606.5625,127.5 1607.75,127.5 Q1608.4688,127.5 1609.0938,127.75 Q1609.7188,128 1610.25,128.5 Z " fill="#000000"/><text fill="#000000" font-family="sans-serif" font-size="14" lengthAdjust="spacing" textLength="50" x="1628.75" y="137.7285">Content</text><line style="stroke:#181818;stroke-width:0.5;" x1="1500" x2="1775" y1="148" y2="148"/><text fill="#000000" font-family="sans-serif" font-size="14" lengthAdjust="spacing" textLength="157" x="1505" y="166.5332">-String fullQuestionnaire;</text><text fill="#000000" font-family="sans-serif" font-size="14" lengthAdjust="spacing" textLength="168" x="1505" y="184.1426">-StringBuilder stringbuilder</text><line style="stroke:#181818;stroke-width:0.5;" x1="1500" x2="1775" y1="191.2188" y2="191.2188"/><text fill="#000000" font-family="sans-serif" font-size="14" lengthAdjust="spacing" textLength="154" x="1505" y="209.752">+Content(questionnaire)</text><text fill="#000000" font-family="sans-serif" font-size="14" lengthAdjust="spacing" textLength="175" x="1505" y="227.3613">+Content(fullQuestionnaire)</text><text fill="#000000" font-family="sans-serif" font-size="14" lengthAdjust="spacing" textLength="265" x="1505" y="244.9707">+buildQuestionnaireSyntax(questionnaire)</text><text fill="#000000" font-family="sans-serif" font-size="14" lengthAdjust="spacing" textLength="189" x="1505" y="262.5801">+buildSectionSyntax(sections)</text><text fill="#000000" font-family="sans-serif" font-size="14" lengthAdjust="spacing" textLength="201" x="1505" y="280.1895">+buildQuestionSyntax(question)</text><text fill="#000000" font-family="sans-serif" font-size="14" lengthAdjust="spacing" textLength="67" x="1505" y="297.7988">+toString()</text></g><!--MD5=[3145b4be7c5005b24cda6f18a1d594b0]
class Survey--><g id="elem_Survey"><rect codeLine="86" fill="#F1F1F1" height="136.0469" id="Survey" rx="2.5" ry="2.5" style="stroke:#181818;stroke-width:0.5;" width="260" x="917.5" y="400.5"/><ellipse cx="1021.25" cy="416.5" fill="#ADD1B2" rx="11" ry="11" style="stroke:#181818;stroke-width:1.0;"/><path d="M1023.25,413 Q1023.4531,412.5 1023.6875,412.25 Q1023.9219,412 1024.1875,412 Q1024.6563,412 1024.9531,412.2813 Q1025.25,412.5625 1025.25,413.2188 L1025.25,414.7813 Q1025.25,415.4375 1024.9688,415.7188 Q1024.6875,416 1024.25,416 Q1023.8594,416 1023.6094,415.8281 Q1023.3594,415.6563 1023.25,415.2031 Q1023.2031,414.8906 1023.0313,414.7188 Q1022.7188,414.3906 1022.1563,414.2031 Q1021.5938,414 1021.0313,414 Q1020.3281,414 1019.7344,414.2813 Q1019.1563,414.5625 1018.7031,415.1875 Q1018.25,415.8125 1018.25,416.6719 L1018.25,417.5938 Q1018.25,418.625 1019.0938,419.3125 Q1019.9375,420 1021.4375,420 Q1022.3281,420 1022.9531,419.7969 Q1023.3125,419.6875 1023.7188,419.3281 Q1023.9844,419.125 1024.125,419.0625 Q1024.2656,419 1024.4375,419 Q1024.7656,419 1025,419.2656 Q1025.25,419.5156 1025.25,419.875 Q1025.25,420.2188 1024.9063,420.625 Q1024.4063,421.2188 1023.6094,421.5469 Q1022.5625,422 1021.2813,422 Q1019.7813,422 1018.5781,421.4063 Q1017.6094,420.9375 1016.9219,419.9219 Q1016.25,418.9063 1016.25,417.7031 L1016.25,416.6094 Q1016.25,415.3594 1016.8438,414.2656 Q1017.4531,413.1719 1018.5,412.5938 Q1019.5625,412 1020.75,412 Q1021.4688,412 1022.0938,412.25 Q1022.7188,412.5 1023.25,413 Z " fill="#000000"/><text fill="#000000" font-family="sans-serif" font-size="14" lengthAdjust="spacing" textLength="44" x="1041.75" y="422.2285">Survey</text><line style="stroke:#181818;stroke-width:0.5;" x1="918.5" x2="1176.5" y1="432.5" y2="432.5"/><text fill="#000000" font-family="sans-serif" font-size="14" lengthAdjust="spacing" textLength="248" x="923.5" y="451.0332">-AlphanumericCode alphanumericCode</text><text fill="#000000" font-family="sans-serif" font-size="14" lengthAdjust="spacing" textLength="149" x="923.5" y="468.6426">-Description description</text><text fill="#000000" font-family="sans-serif" font-size="14" lengthAdjust="spacing" textLength="90" x="923.5" y="486.252">-Period period</text><text fill="#000000" font-family="sans-serif" font-size="14" lengthAdjust="spacing" textLength="184" x="923.5" y="503.8613">-Questionnaire questionnaire</text><text fill="#000000" font-family="sans-serif" font-size="14" lengthAdjust="spacing" textLength="106" x="923.5" y="521.4707">-Content content</text><line style="stroke:#181818;stroke-width:0.5;" x1="918.5" x2="1176.5" y1="528.5469" y2="528.5469"/></g><!--MD5=[e8c189551b7885b999ad7cefb30fc2a3]
class PersistenceContext--><g id="elem_PersistenceContext"><rect codeLine="96" fill="#F1F1F1" height="100.8281" id="PersistenceContext" rx="2.5" ry="2.5" style="stroke:#181818;stroke-width:0.5;" width="205" x="500" y="418"/><ellipse cx="537.95" cy="434" fill="#ADD1B2" rx="11" ry="11" style="stroke:#181818;stroke-width:1.0;"/><path d="M539.95,430.5 Q540.1531,430 540.3875,429.75 Q540.6219,429.5 540.8875,429.5 Q541.3563,429.5 541.6531,429.7813 Q541.95,430.0625 541.95,430.7188 L541.95,432.2813 Q541.95,432.9375 541.6688,433.2188 Q541.3875,433.5 540.95,433.5 Q540.5594,433.5 540.3094,433.3281 Q540.0594,433.1563 539.95,432.7031 Q539.9031,432.3906 539.7313,432.2188 Q539.4188,431.8906 538.8563,431.7031 Q538.2938,431.5 537.7313,431.5 Q537.0281,431.5 536.4344,431.7813 Q535.8563,432.0625 535.4031,432.6875 Q534.95,433.3125 534.95,434.1719 L534.95,435.0938 Q534.95,436.125 535.7938,436.8125 Q536.6375,437.5 538.1375,437.5 Q539.0281,437.5 539.6531,437.2969 Q540.0125,437.1875 540.4188,436.8281 Q540.6844,436.625 540.825,436.5625 Q540.9656,436.5 541.1375,436.5 Q541.4656,436.5 541.7,436.7656 Q541.95,437.0156 541.95,437.375 Q541.95,437.7188 541.6063,438.125 Q541.1063,438.7188 540.3094,439.0469 Q539.2625,439.5 537.9813,439.5 Q536.4813,439.5 535.2781,438.9063 Q534.3094,438.4375 533.6219,437.4219 Q532.95,436.4063 532.95,435.2031 L532.95,434.1094 Q532.95,432.8594 533.5438,431.7656 Q534.1531,430.6719 535.2,430.0938 Q536.2625,429.5 537.45,429.5 Q538.1688,429.5 538.7938,429.75 Q539.4188,430 539.95,430.5 Z " fill="#000000"/><text fill="#000000" font-family="sans-serif" font-size="14" lengthAdjust="spacing" textLength="122" x="557.05" y="439.7285">PersistenceContext</text><line style="stroke:#181818;stroke-width:0.5;" x1="501" x2="704" y1="450" y2="450"/><text fill="#000000" font-family="sans-serif" font-size="14" lengthAdjust="spacing" textLength="114" x="506" y="468.5332">-Logger LOGGER</text><text fill="#000000" font-family="sans-serif" font-size="14" lengthAdjust="spacing" textLength="193" x="506" y="486.1426">-RepositoryFactory theFactory</text><line style="stroke:#181818;stroke-width:0.5;" x1="501" x2="704" y1="493.2188" y2="493.2188"/><text fill="#000000" font-family="sans-serif" font-size="14" lengthAdjust="spacing" textLength="92" x="506" y="511.752">+repositories()</text></g><!--MD5=[48590afff58a68e2fcba47824d6f8a11]
class RepositoryFactory--><g id="elem_RepositoryFactory"><rect codeLine="102" fill="#F1F1F1" height="65.6094" id="RepositoryFactory" rx="2.5" ry="2.5" style="stroke:#181818;stroke-width:0.5;" width="148" x="752.5" y="693.5"/><ellipse cx="767.5" cy="709.5" fill="#ADD1B2" rx="11" ry="11" style="stroke:#181818;stroke-width:1.0;"/><path d="M769.5,706 Q769.7031,705.5 769.9375,705.25 Q770.1719,705 770.4375,705 Q770.9063,705 771.2031,705.2813 Q771.5,705.5625 771.5,706.2188 L771.5,707.7813 Q771.5,708.4375 771.2188,708.7188 Q770.9375,709 770.5,709 Q770.1094,709 769.8594,708.8281 Q769.6094,708.6563 769.5,708.2031 Q769.4531,707.8906 769.2813,707.7188 Q768.9688,707.3906 768.4063,707.2031 Q767.8438,707 767.2813,707 Q766.5781,707 765.9844,707.2813 Q765.4063,707.5625 764.9531,708.1875 Q764.5,708.8125 764.5,709.6719 L764.5,710.5938 Q764.5,711.625 765.3438,712.3125 Q766.1875,713 767.6875,713 Q768.5781,713 769.2031,712.7969 Q769.5625,712.6875 769.9688,712.3281 Q770.2344,712.125 770.375,712.0625 Q770.5156,712 770.6875,712 Q771.0156,712 771.25,712.2656 Q771.5,712.5156 771.5,712.875 Q771.5,713.2188 771.1563,713.625 Q770.6563,714.2188 769.8594,714.5469 Q768.8125,715 767.5313,715 Q766.0313,715 764.8281,714.4063 Q763.8594,713.9375 763.1719,712.9219 Q762.5,711.9063 762.5,710.7031 L762.5,709.6094 Q762.5,708.3594 763.0938,707.2656 Q763.7031,706.1719 764.75,705.5938 Q765.8125,705 767,705 Q767.7188,705 768.3438,705.25 Q768.9688,705.5 769.5,706 Z " fill="#000000"/><text fill="#000000" font-family="sans-serif" font-size="14" lengthAdjust="spacing" textLength="116" x="781.5" y="715.2285">RepositoryFactory</text><line style="stroke:#181818;stroke-width:0.5;" x1="753.5" x2="899.5" y1="725.5" y2="725.5"/><line style="stroke:#181818;stroke-width:0.5;" x1="753.5" x2="899.5" y1="733.5" y2="733.5"/><text fill="#000000" font-family="sans-serif" font-size="14" lengthAdjust="spacing" textLength="83" x="758.5" y="752.0332">+customers()</text></g><!--MD5=[ca0abe252586467d5b989c6b12cf24dd]
class SurveyRepository--><g id="elem_SurveyRepository"><rect codeLine="106" fill="#F1F1F1" height="65.6094" id="SurveyRepository" rx="2.5" ry="2.5" style="stroke:#181818;stroke-width:0.5;" width="164" x="831.5" y="899"/><ellipse cx="855.5" cy="915" fill="#ADD1B2" rx="11" ry="11" style="stroke:#181818;stroke-width:1.0;"/><path d="M857.5,911.5 Q857.7031,911 857.9375,910.75 Q858.1719,910.5 858.4375,910.5 Q858.9063,910.5 859.2031,910.7813 Q859.5,911.0625 859.5,911.7188 L859.5,913.2813 Q859.5,913.9375 859.2188,914.2188 Q858.9375,914.5 858.5,914.5 Q858.1094,914.5 857.8594,914.3281 Q857.6094,914.1563 857.5,913.7031 Q857.4531,913.3906 857.2813,913.2188 Q856.9688,912.8906 856.4063,912.7031 Q855.8438,912.5 855.2813,912.5 Q854.5781,912.5 853.9844,912.7813 Q853.4063,913.0625 852.9531,913.6875 Q852.5,914.3125 852.5,915.1719 L852.5,916.0938 Q852.5,917.125 853.3438,917.8125 Q854.1875,918.5 855.6875,918.5 Q856.5781,918.5 857.2031,918.2969 Q857.5625,918.1875 857.9688,917.8281 Q858.2344,917.625 858.375,917.5625 Q858.5156,917.5 858.6875,917.5 Q859.0156,917.5 859.25,917.7656 Q859.5,918.0156 859.5,918.375 Q859.5,918.7188 859.1563,919.125 Q858.6563,919.7188 857.8594,920.0469 Q856.8125,920.5 855.5313,920.5 Q854.0313,920.5 852.8281,919.9063 Q851.8594,919.4375 851.1719,918.4219 Q850.5,917.4063 850.5,916.2031 L850.5,915.1094 Q850.5,913.8594 851.0938,912.7656 Q851.7031,911.6719 852.75,911.0938 Q853.8125,910.5 855,910.5 Q855.7188,910.5 856.3438,910.75 Q856.9688,911 857.5,911.5 Z " fill="#000000"/><text fill="#000000" font-family="sans-serif" font-size="14" lengthAdjust="spacing" textLength="112" x="871.5" y="920.7285">SurveyRepository</text><line style="stroke:#181818;stroke-width:0.5;" x1="832.5" x2="994.5" y1="931" y2="931"/><line style="stroke:#181818;stroke-width:0.5;" x1="832.5" x2="994.5" y1="939" y2="939"/><text fill="#000000" font-family="sans-serif" font-size="14" lengthAdjust="spacing" textLength="152" x="837.5" y="957.5332">+findById(Long number)</text></g><!--MD5=[fad56ded8d0094413ab95235fd391abe]
link DefineSurveyUI to SurveyController--><g id="link_DefineSurveyUI_SurveyController"><path codeLine="111" d="M336.5,55.21 C336.5,80.27 336.5,121.09 336.5,154.46 " fill="none" id="DefineSurveyUI-to-SurveyController" style="stroke:#181818;stroke-width:1.0;stroke-dasharray:7.0,7.0;"/><polygon fill="#181818" points="336.5,159.74,340.5,150.74,336.5,154.74,332.5,150.74,336.5,159.74" style="stroke:#181818;stroke-width:1.0;"/></g><!--MD5=[36fd4d61e47feda196a228a83f141d93]
link SurveyController to Survey--><g id="link_SurveyController_Survey"><path codeLine="112" d="M474.01,261.01 C600.45,306.54 786.82,373.64 912.47,418.88 " fill="none" id="SurveyController-to-Survey" style="stroke:#181818;stroke-width:1.0;stroke-dasharray:7.0,7.0;"/><polygon fill="#181818" points="917.29,420.62,910.1872,413.7973,912.5881,418.9193,907.4661,421.3203,917.29,420.62" style="stroke:#181818;stroke-width:1.0;"/></g><!--MD5=[b684604c800ac538779ad79d0c9c8d5f]
reverse link AlphanumericCode to Survey--><g id="link_AlphanumericCode_Survey"><path codeLine="114" d="M901.75,308.72 C929.79,339.27 960.11,372.3 985.8,400.29 " fill="none" id="AlphanumericCode-backto-Survey" style="stroke:#181818;stroke-width:1.0;"/><polygon fill="#181818" points="898.34,305.01,901.4827,314.344,901.7225,308.6922,907.3743,308.932,898.34,305.01" style="stroke:#181818;stroke-width:1.0;"/><text fill="#000000" font-family="sans-serif" font-size="13" lengthAdjust="spacing" textLength="49" x="938.5" y="349.4951">contains</text><text fill="#000000" font-family="sans-serif" font-size="13" lengthAdjust="spacing" textLength="7" x="897.6442" y="326.3718">1</text><text fill="#000000" font-family="sans-serif" font-size="13" lengthAdjust="spacing" textLength="7" x="971.6687" y="389.4663">1</text></g><!--MD5=[2b5e3ccd1014471c79322298286e3915]
reverse link Description to Survey--><g id="link_Description_Survey"><path codeLine="115" d="M1047.5,301.24 C1047.5,333.87 1047.5,370.15 1047.5,400.47 " fill="none" id="Description-backto-Survey" style="stroke:#181818;stroke-width:1.0;"/><polygon fill="#181818" points="1047.5,296.03,1043.5,305.03,1047.5,301.03,1051.5,305.03,1047.5,296.03" style="stroke:#181818;stroke-width:1.0;"/><text fill="#000000" font-family="sans-serif" font-size="13" lengthAdjust="spacing" textLength="49" x="1048.5" y="349.4951">contains</text><text fill="#000000" font-family="sans-serif" font-size="13" lengthAdjust="spacing" textLength="7" x="1040.1883" y="317.859">1</text><text fill="#000000" font-family="sans-serif" font-size="13" lengthAdjust="spacing" textLength="7" x="1040.1172" y="389.666">1</text></g><!--MD5=[b84a78970063b0c4aeb92dbee06b26a3]
reverse link Period to Survey--><g id="link_Period_Survey"><path codeLine="116" d="M1261.15,264.92 C1219.66,304.27 1162.94,358.04 1118.37,400.3 " fill="none" id="Period-backto-Survey" style="stroke:#181818;stroke-width:1.0;"/><polygon fill="#181818" points="1265.12,261.16,1255.838,264.453,1261.4929,264.6015,1261.3444,270.2564,1265.12,261.16" style="stroke:#181818;stroke-width:1.0;"/><text fill="#000000" font-family="sans-serif" font-size="13" lengthAdjust="spacing" textLength="49" x="1183.5" y="349.4951">contains</text><text fill="#000000" font-family="sans-serif" font-size="13" lengthAdjust="spacing" textLength="7" x="1250.9604" y="282.2045">1</text><text fill="#000000" font-family="sans-serif" font-size="13" lengthAdjust="spacing" textLength="7" x="1118.7386" y="389.4774">1</text></g><!--MD5=[4dd8438c74ca4034b0c4c45b2289213d]
reverse link Questionnaire to Survey--><g id="link_Questionnaire_Survey"><path codeLine="117" d="M1840.45,289.34 C1824.68,294.96 1808.89,300.27 1793.5,305 C1581.42,370.15 1327.77,419.57 1177.57,445.98 " fill="none" id="Questionnaire-backto-Survey" style="stroke:#181818;stroke-width:1.0;"/><polygon fill="#181818" points="1845.34,287.58,1835.518,286.8533,1840.6336,289.268,1838.2188,294.3836,1845.34,287.58" style="stroke:#181818;stroke-width:1.0;"/><text fill="#000000" font-family="sans-serif" font-size="13" lengthAdjust="spacing" textLength="49" x="1673.5" y="349.4951">contains</text><text fill="#000000" font-family="sans-serif" font-size="13" lengthAdjust="spacing" textLength="7" x="1821.8937" y="308.6835">1</text><text fill="#000000" font-family="sans-serif" font-size="13" lengthAdjust="spacing" textLength="7" x="1185.292" y="441.7195">1</text></g><!--MD5=[ed183dd0118bb2a47e9bdd9752ba9fe8]
reverse link Content to Survey--><g id="link_Content_Survey"><path codeLine="118" d="M1494.11,298.26 C1489.55,300.58 1485,302.84 1480.5,305 C1381.72,352.48 1265.17,395.53 1177.89,425.37 " fill="none" id="Content-backto-Survey" style="stroke:#181818;stroke-width:1.0;"/><polygon fill="#181818" points="1498.68,295.92,1488.8464,296.4676,1494.2309,298.2016,1492.4969,303.5861,1498.68,295.92" style="stroke:#181818;stroke-width:1.0;"/><text fill="#000000" font-family="sans-serif" font-size="13" lengthAdjust="spacing" textLength="49" x="1413.5" y="349.4951">contains</text><text fill="#000000" font-family="sans-serif" font-size="13" lengthAdjust="spacing" textLength="7" x="1483.8969" y="297.6621">1</text><text fill="#000000" font-family="sans-serif" font-size="13" lengthAdjust="spacing" textLength="7" x="1185.6305" y="419.918">1</text></g><!--MD5=[3da50156e7717b39021783dfd0973443]
link Questionnaire to Section--><g id="link_Questionnaire_Section"><path codeLine="120" d="M2026.5,287.62 C2026.5,315.9 2026.5,348.25 2026.5,377.65 " fill="none" id="Questionnaire-to-Section" style="stroke:#181818;stroke-width:1.0;"/><polygon fill="#181818" points="2026.5,382.72,2030.5,373.72,2026.5,377.72,2022.5,373.72,2026.5,382.72" style="stroke:#181818;stroke-width:1.0;"/><text fill="#000000" font-family="sans-serif" font-size="13" lengthAdjust="spacing" textLength="49" x="2027.5" y="349.4951">contains</text><text fill="#000000" font-family="sans-serif" font-size="13" lengthAdjust="spacing" textLength="7" x="2019.1883" y="308.7271">1</text><text fill="#000000" font-family="sans-serif" font-size="13" lengthAdjust="spacing" textLength="20" x="2005.6406" y="372.1596">1..*</text></g><!--MD5=[87fa8ff7d398728728a611d860795352]
link Section to Question--><g id="link_Section_Question"><path codeLine="122" d="M2026.5,554.03 C2026.5,577.28 2026.5,602.71 2026.5,626.68 " fill="none" id="Section-to-Question" style="stroke:#181818;stroke-width:1.0;"/><polygon fill="#181818" points="2026.5,631.78,2030.5,622.78,2026.5,626.78,2022.5,622.78,2026.5,631.78" style="stroke:#181818;stroke-width:1.0;"/><text fill="#000000" font-family="sans-serif" font-size="13" lengthAdjust="spacing" textLength="49" x="2027.5" y="598.4951">contains</text><text fill="#000000" font-family="sans-serif" font-size="13" lengthAdjust="spacing" textLength="7" x="2019.1883" y="575.859">1</text><text fill="#000000" font-family="sans-serif" font-size="13" lengthAdjust="spacing" textLength="20" x="2005.7031" y="621.1086">1..*</text></g><!--MD5=[a698c596cdd6655449d58b0bccd42675]
link SurveyController to PersistenceContext--><g id="link_SurveyController_PersistenceContext"><path codeLine="126" d="M388.1,261.16 C433.9,305.24 500.61,369.44 547.42,414.49 " fill="none" id="SurveyController-to-PersistenceContext" style="stroke:#181818;stroke-width:1.0;"/><polygon fill="#181818" points="551.04,417.98,547.3379,408.8534,547.4408,414.5093,541.7849,414.6122,551.04,417.98" style="stroke:#181818;stroke-width:1.0;"/><text fill="#000000" font-family="sans-serif" font-size="13" lengthAdjust="spacing" textLength="43" x="478.5" y="349.4951">creates</text><text fill="#000000" font-family="sans-serif" font-size="13" lengthAdjust="spacing" textLength="7" x="387.2628" y="282.2045">1</text><text fill="#000000" font-family="sans-serif" font-size="13" lengthAdjust="spacing" textLength="7" x="536.3113" y="407.2825">1</text></g><!--MD5=[754b775031405e096442b27febffa290]
link PersistenceContext to RepositoryFactory--><g id="link_PersistenceContext_RepositoryFactory"><path codeLine="129" d="M645.96,519.16 C689.67,569.13 756.03,644.97 794.95,689.44 " fill="none" id="PersistenceContext-to-RepositoryFactory" style="stroke:#181818;stroke-width:1.0;"/><polygon fill="#181818" points="798.4,693.38,795.4863,683.972,795.1085,689.6162,789.4643,689.2384,798.4,693.38" style="stroke:#181818;stroke-width:1.0;"/><text fill="#000000" font-family="sans-serif" font-size="13" lengthAdjust="spacing" textLength="43" x="715.5" y="598.4951">creates</text><text fill="#000000" font-family="sans-serif" font-size="13" lengthAdjust="spacing" textLength="7" x="644.0799" y="540.2045">1</text><text fill="#000000" font-family="sans-serif" font-size="13" lengthAdjust="spacing" textLength="7" x="784.8825" y="682.4707">1</text></g><!--MD5=[b2261c22df95718c10e32de77a70473c]
link RepositoryFactory to SurveyRepository--><g id="link_RepositoryFactory_SurveyRepository"><path codeLine="132" d="M840.29,759.75 C855.88,796.21 881.22,855.5 897.63,893.87 " fill="none" id="RepositoryFactory-to-SurveyRepository" style="stroke:#181818;stroke-width:1.0;"/><polygon fill="#181818" points="899.78,898.91,899.9113,889.062,897.8104,894.3143,892.5581,892.2134,899.78,898.91" style="stroke:#181818;stroke-width:1.0;"/><text fill="#000000" font-family="sans-serif" font-size="13" lengthAdjust="spacing" textLength="43" x="886.5" y="865.4951">creates</text><text fill="#000000" font-family="sans-serif" font-size="13" lengthAdjust="spacing" textLength="7" x="835.1229" y="780.6589">1</text><text fill="#000000" font-family="sans-serif" font-size="13" lengthAdjust="spacing" textLength="7" x="889.2284" y="888.0068">1</text></g><!--MD5=[27c386b89d1f950e5e021258cab32746]
link Survey to SurveyRepository--><g id="link_Survey_SurveyRepository"><path codeLine="135" d="M1031.72,536.66 C1012.36,616.63 977.28,753.85 938.5,869 C935.77,877.11 932.54,885.68 929.32,893.79 " fill="none" id="Survey-to-SurveyRepository" style="stroke:#181818;stroke-width:1.0;"/><polygon fill="#181818" points="927.33,898.77,934.3864,891.8993,929.187,894.1276,926.9586,888.9281,927.33,898.77" style="stroke:#181818;stroke-width:1.0;"/><text fill="#000000" font-family="sans-serif" font-size="13" lengthAdjust="spacing" textLength="10" x="1008.5" y="731.9951">in</text><text fill="#000000" font-family="sans-serif" font-size="13" lengthAdjust="spacing" textLength="7" x="1022.7318" y="558.0248">1</text><text fill="#000000" font-family="sans-serif" font-size="13" lengthAdjust="spacing" textLength="7" x="922.3637" y="888.221">1</text></g><!--MD5=[3582b2879f668a9d53a7b008c58d2089]
@startuml
skinparam classAttributeIconSize 0

Class "DefineSurveyUI"{
}

Class "SurveyController"{
+buildQuestion(questionId, questionMessage, questionType, obligatoriness, extraInfo)
+buildSection(sectionId, title, description, obligatoriness, repeatability, Collection<Question> questions)
+buildQuestionnaire(questionnaireId, questionnaireTitle, welcomeMessage, sectionList, finalMessage)
}

Class "AlphanumericCode"{
-String code

+AlphanumericCode(String code)
+valueOf()
+firstName()
+lastName()
+equals(Object o)
+hashCode()
+toString()
}

Class "Description"{
-String value

+Description(String name)
+valueOf()
+length()
+equals(Object o)
+hashCode()
+toString()
}
Class "Period"{
     -String days
     +Period(String days)
     +valueOf(String prefix, String phoneNumber)
}
Class "Questionnaire"{
     -String id;
     -String title;
     -String welcomeMessage;
     -List<Section> sections;
     -String finalMessage;

+Questionnaire(id, title, welcomeMessage, sections, finalMessage)
}

Class "Section"{
     -String id;
     -String title;
     -Description description
     -Obligatoriness obligatoriness
     -String repeatability
     -List<Question> content;
   
     +Section(id, title, description, obligatoriness, repeatability, content)
}

Class "Question"{
     -String id;
     -String questionMessage;
     -String instruction;
     -QuestionType type;
     -Obligatoriness obligatoriness
     -String extraInfo
   
     +Question(id, questionMessage, instruction, type, obligatoriness, extraInfo)
     +toString()
}


class Content {
-String fullQuestionnaire;
-StringBuilder stringbuilder

+Content(questionnaire)
+Content(fullQuestionnaire)
+buildQuestionnaireSyntax(questionnaire)
+buildSectionSyntax(sections)
+buildQuestionSyntax(question)
+toString()

}

class Survey{
-AlphanumericCode alphanumericCode
-Description description
-Period period
-Questionnaire questionnaire
-Content content
}



class PersistenceContext {
-Logger LOGGER
-RepositoryFactory theFactory
+repositories()
}

class RepositoryFactory{
+customers()
}

class SurveyRepository{
+findById(Long number)
}


DefineSurveyUI..> SurveyController
SurveyController..> Survey

"AlphanumericCode" "1" <- - "1" Survey : contains
"Description" "1" <- - "1" Survey : contains
"Period" "1" <- - "1" Survey : contains
"Questionnaire" "1" <- - "1" Survey : contains
"Content" "1" <- - "1" Survey : contains

"Questionnaire" "1" - -> "1..*" "Section" :contains

"Section" "1" - -> "1..*" "Question" :contains



"SurveyController" "1" - -> "1" "PersistenceContext" :creates


"PersistenceContext" "1" - -> "1" "RepositoryFactory" :creates


"RepositoryFactory" "1" - -> "1" "SurveyRepository"  :creates


"Survey" "1" - -> "1" "SurveyRepository" :in
@enduml

PlantUML version 1.2022.4(Sat Apr 09 14:29:17 BST 2022)
(GPL source distribution)
Java Runtime: OpenJDK Runtime Environment
JVM: OpenJDK 64-Bit Server VM
Default Encoding: Cp1252
Language: pt
Country: PT
--></g></svg>