<?xml version="1.0" encoding="UTF-8" standalone="no"?><svg xmlns="http://www.w3.org/2000/svg" xmlns:xlink="http://www.w3.org/1999/xlink" contentStyleType="text/css" height="1735px" preserveAspectRatio="none" style="width:1853px;height:1735px;background:#FFFFFF;" version="1.1" viewBox="0 0 1853 1735" width="1853px" zoomAndPan="magnify"><defs/><g><rect fill="#FFFFFF" height="1552.2656" style="stroke:#181818;stroke-width:1.0;" width="10" x="85.5" y="92.6094"/><rect fill="#FFFFFF" height="30.3516" style="stroke:#181818;stroke-width:1.0;" width="10" x="445.5" y="114.9609"/><rect fill="#FFFFFF" height="860.8516" style="stroke:#181818;stroke-width:1.0;" width="10" x="445.5" y="201.0156"/><rect fill="#FFFFFF" height="492.6328" style="stroke:#181818;stroke-width:1.0;" width="10" x="549.5" y="538.8828"/><rect fill="#FFFFFF" height="322.1953" style="stroke:#181818;stroke-width:1.0;" width="10" x="549.5" y="1276.3281"/><rect fill="#FFFFFF" height="75.2188" style="stroke:#181818;stroke-width:1.0;" width="10" x="1095" y="792.2813"/><rect fill="#FFFFFF" height="75.2188" style="stroke:#181818;stroke-width:1.0;" width="10" x="1095" y="1359.2891"/><rect fill="#FFFFFF" height="72.9609" style="stroke:#181818;stroke-width:1.0;" width="10" x="1316" y="897.8516"/><rect fill="#FFFFFF" height="72.9609" style="stroke:#181818;stroke-width:1.0;" width="10" x="1316" y="1464.8594"/><rect fill="#FFFFFF" height="30.3516" style="stroke:#181818;stroke-width:1.0;" width="10" x="1487.5" y="1001.1641"/><rect fill="#FFFFFF" height="30.3516" style="stroke:#181818;stroke-width:1.0;" width="10" x="1487.5" y="1568.1719"/><rect height="909.5547" style="stroke:#000000;stroke-width:1.5;fill:none;" width="1837.5" x="10" y="160.3125"/><rect height="172.1094" style="stroke:#000000;stroke-width:1.5;fill:none;" width="482.5" x="20" y="337.4219"/><rect height="79.0547" style="stroke:#000000;stroke-width:1.5;fill:none;" width="462.5" x="30" y="423.4766"/><rect height="522.6563" style="stroke:#000000;stroke-width:1.5;fill:none;" width="1537.5" x="30" y="1083.8672"/><line style="stroke:#181818;stroke-width:0.5;fill:none;stroke-dasharray:5.0,5.0;" x1="90" x2="90" y1="82.6094" y2="1653.875"/><line style="stroke:#181818;stroke-width:0.5;fill:none;stroke-dasharray:5.0,5.0;" x1="450.5" x2="450.5" y1="82.6094" y2="1653.875"/><line style="stroke:#181818;stroke-width:0.5;fill:none;stroke-dasharray:5.0,5.0;" x1="554.5" x2="554.5" y1="82.6094" y2="1653.875"/><line style="stroke:#181818;stroke-width:0.5;fill:none;stroke-dasharray:5.0,5.0;" x1="758.5" x2="758.5" y1="706.0156" y2="1653.875"/><line style="stroke:#181818;stroke-width:0.5;fill:none;stroke-dasharray:5.0,5.0;" x1="946.5" x2="946.5" y1="1315.6328" y2="1653.875"/><line style="stroke:#181818;stroke-width:0.5;fill:none;stroke-dasharray:5.0,5.0;" x1="1099.5" x2="1099.5" y1="1358.2422" y2="1653.875"/><line style="stroke:#181818;stroke-width:0.5;fill:none;stroke-dasharray:5.0,5.0;" x1="1320.5" x2="1320.5" y1="1400.8516" y2="1653.875"/><line style="stroke:#181818;stroke-width:0.5;fill:none;stroke-dasharray:5.0,5.0;" x1="1492.5" x2="1492.5" y1="1504.1641" y2="1653.875"/><line style="stroke:#181818;stroke-width:0.5;fill:none;stroke-dasharray:5.0,5.0;" x1="1609.5" x2="1609.5" y1="578.1875" y2="1653.875"/><line style="stroke:#181818;stroke-width:0.5;fill:none;stroke-dasharray:5.0,5.0;" x1="1682.5" x2="1682.5" y1="620.7969" y2="1653.875"/><line style="stroke:#181818;stroke-width:0.5;fill:none;stroke-dasharray:5.0,5.0;" x1="1775.5" x2="1775.5" y1="663.4063" y2="1653.875"/><text fill="#000000" font-family="sans-serif" font-size="14" lengthAdjust="spacing" textLength="95" x="40" y="79.5332">Sales Manager</text><ellipse cx="90.5" cy="13.5" fill="#E2E2F0" rx="8" ry="8" style="stroke:#181818;stroke-width:0.5;"/><path d="M90.5,21.5 L90.5,48.5 M77.5,29.5 L103.5,29.5 M90.5,48.5 L77.5,63.5 M90.5,48.5 L103.5,63.5 " fill="none" style="stroke:#181818;stroke-width:0.5;"/><text fill="#000000" font-family="sans-serif" font-size="14" lengthAdjust="spacing" textLength="95" x="40" y="1667.4082">Sales Manager</text><ellipse cx="90.5" cy="1678.9844" fill="#E2E2F0" rx="8" ry="8" style="stroke:#181818;stroke-width:0.5;"/><path d="M90.5,1686.9844 L90.5,1713.9844 M77.5,1694.9844 L103.5,1694.9844 M90.5,1713.9844 L77.5,1728.9844 M90.5,1713.9844 L103.5,1728.9844 " fill="none" style="stroke:#181818;stroke-width:0.5;"/><rect fill="#E2E2F0" height="31.6094" rx="2.5" ry="2.5" style="stroke:#181818;stroke-width:0.5;" width="64" x="418.5" y="50"/><text fill="#000000" font-family="sans-serif" font-size="14" lengthAdjust="spacing" textLength="50" x="425.5" y="71.5332">:System</text><rect fill="#E2E2F0" height="31.6094" rx="2.5" ry="2.5" style="stroke:#181818;stroke-width:0.5;" width="64" x="418.5" y="1652.875"/><text fill="#000000" font-family="sans-serif" font-size="14" lengthAdjust="spacing" textLength="50" x="425.5" y="1674.4082">:System</text><rect fill="#E2E2F0" height="31.6094" rx="2.5" ry="2.5" style="stroke:#181818;stroke-width:0.5;" width="124" x="492.5" y="50"/><text fill="#000000" font-family="sans-serif" font-size="14" lengthAdjust="spacing" textLength="110" x="499.5" y="71.5332">Survey Controller</text><rect fill="#E2E2F0" height="31.6094" rx="2.5" ry="2.5" style="stroke:#181818;stroke-width:0.5;" width="124" x="492.5" y="1652.875"/><text fill="#000000" font-family="sans-serif" font-size="14" lengthAdjust="spacing" textLength="110" x="499.5" y="1674.4082">Survey Controller</text><rect fill="#E2E2F0" height="31.6094" rx="2.5" ry="2.5" style="stroke:#181818;stroke-width:0.5;" width="64" x="726.5" y="1652.875"/><text fill="#000000" font-family="sans-serif" font-size="14" lengthAdjust="spacing" textLength="50" x="733.5" y="1674.4082">Content</text><rect fill="#E2E2F0" height="31.6094" rx="2.5" ry="2.5" style="stroke:#181818;stroke-width:0.5;" width="58" x="917.5" y="1652.875"/><text fill="#000000" font-family="sans-serif" font-size="14" lengthAdjust="spacing" textLength="44" x="924.5" y="1674.4082">Survey</text><rect fill="#E2E2F0" height="31.6094" rx="2.5" ry="2.5" style="stroke:#181818;stroke-width:0.5;" width="229" x="985.5" y="1652.875"/><text fill="#000000" font-family="sans-serif" font-size="14" lengthAdjust="spacing" textLength="215" x="992.5" y="1674.4082">:PersistenceContext&lt;persistence&gt;</text><rect fill="#E2E2F0" height="31.6094" rx="2.5" ry="2.5" style="stroke:#181818;stroke-width:0.5;" width="193" x="1224.5" y="1652.875"/><text fill="#000000" font-family="sans-serif" font-size="14" lengthAdjust="spacing" textLength="179" x="1231.5" y="1674.4082">:RepositoryFactory&lt;factory&gt;</text><rect fill="#E2E2F0" height="31.6094" rx="2.5" ry="2.5" style="stroke:#181818;stroke-width:0.5;" width="130" x="1427.5" y="1652.875"/><text fill="#000000" font-family="sans-serif" font-size="14" lengthAdjust="spacing" textLength="116" x="1434.5" y="1674.4082">:SurveyRepository</text><rect fill="#E2E2F0" height="31.6094" rx="2.5" ry="2.5" style="stroke:#181818;stroke-width:0.5;" width="84" x="1567.5" y="1652.875"/><text fill="#000000" font-family="sans-serif" font-size="14" lengthAdjust="spacing" textLength="70" x="1574.5" y="1674.4082">QUESTION</text><rect fill="#E2E2F0" height="31.6094" rx="2.5" ry="2.5" style="stroke:#181818;stroke-width:0.5;" width="42" x="1661.5" y="1652.875"/><text fill="#000000" font-family="sans-serif" font-size="14" lengthAdjust="spacing" textLength="28" x="1668.5" y="1674.4082">SEC</text><rect fill="#E2E2F0" height="31.6094" rx="2.5" ry="2.5" style="stroke:#181818;stroke-width:0.5;" width="124" x="1713.5" y="1652.875"/><text fill="#000000" font-family="sans-serif" font-size="14" lengthAdjust="spacing" textLength="110" x="1720.5" y="1674.4082">QUESTIONNAIRE</text><rect fill="#FFFFFF" height="1552.2656" style="stroke:#181818;stroke-width:1.0;" width="10" x="85.5" y="92.6094"/><rect fill="#FFFFFF" height="30.3516" style="stroke:#181818;stroke-width:1.0;" width="10" x="445.5" y="114.9609"/><rect fill="#FFFFFF" height="860.8516" style="stroke:#181818;stroke-width:1.0;" width="10" x="445.5" y="201.0156"/><rect fill="#FFFFFF" height="492.6328" style="stroke:#181818;stroke-width:1.0;" width="10" x="549.5" y="538.8828"/><rect fill="#FFFFFF" height="322.1953" style="stroke:#181818;stroke-width:1.0;" width="10" x="549.5" y="1276.3281"/><rect fill="#FFFFFF" height="75.2188" style="stroke:#181818;stroke-width:1.0;" width="10" x="1095" y="792.2813"/><rect fill="#FFFFFF" height="75.2188" style="stroke:#181818;stroke-width:1.0;" width="10" x="1095" y="1359.2891"/><rect fill="#FFFFFF" height="72.9609" style="stroke:#181818;stroke-width:1.0;" width="10" x="1316" y="897.8516"/><rect fill="#FFFFFF" height="72.9609" style="stroke:#181818;stroke-width:1.0;" width="10" x="1316" y="1464.8594"/><rect fill="#FFFFFF" height="30.3516" style="stroke:#181818;stroke-width:1.0;" width="10" x="1487.5" y="1001.1641"/><rect fill="#FFFFFF" height="30.3516" style="stroke:#181818;stroke-width:1.0;" width="10" x="1487.5" y="1568.1719"/><polygon fill="#181818" points="433.5,110.9609,443.5,114.9609,433.5,118.9609,437.5,114.9609" style="stroke:#181818;stroke-width:1.0;"/><line style="stroke:#181818;stroke-width:1.0;" x1="95.5" x2="439.5" y1="114.9609" y2="114.9609"/><text fill="#000000" font-family="sans-serif" font-size="13" font-weight="bold" lengthAdjust="spacing" textLength="7" x="102.5" y="110.1045">1</text><text fill="#000000" font-family="sans-serif" font-size="13" lengthAdjust="spacing" textLength="106" x="113.5" y="110.1045">Define new Survey</text><polygon fill="#181818" points="106.5,141.3125,96.5,145.3125,106.5,149.3125,102.5,145.3125" style="stroke:#181818;stroke-width:1.0;"/><line style="stroke:#181818;stroke-width:1.0;stroke-dasharray:2.0,2.0;" x1="100.5" x2="449.5" y1="145.3125" y2="145.3125"/><text fill="#000000" font-family="sans-serif" font-size="13" font-weight="bold" lengthAdjust="spacing" textLength="7" x="112.5" y="140.4561">2</text><text fill="#000000" font-family="sans-serif" font-size="13" lengthAdjust="spacing" textLength="280" x="123.5" y="140.4561">Asks to select between inputting or importing txt</text><path d="M10,160.3125 L71,160.3125 L71,168.6641 L61,178.6641 L10,178.6641 L10,160.3125 " fill="#EEEEEE" style="stroke:#000000;stroke-width:1.5;"/><rect fill="none" height="909.5547" style="stroke:#000000;stroke-width:1.5;" width="1837.5" x="10" y="160.3125"/><text fill="#000000" font-family="sans-serif" font-size="13" font-weight="bold" lengthAdjust="spacing" textLength="16" x="25" y="174.8076">alt</text><polygon fill="#181818" points="433.5,197.0156,443.5,201.0156,433.5,205.0156,437.5,201.0156" style="stroke:#181818;stroke-width:1.0;"/><line style="stroke:#181818;stroke-width:1.0;" x1="95.5" x2="439.5" y1="201.0156" y2="201.0156"/><text fill="#000000" font-family="sans-serif" font-size="13" font-weight="bold" lengthAdjust="spacing" textLength="7" x="102.5" y="196.1592">3</text><text fill="#000000" font-family="sans-serif" font-size="13" lengthAdjust="spacing" textLength="201" x="113.5" y="196.1592">selects inputting all the information</text><polygon fill="#181818" points="106.5,227.3672,96.5,231.3672,106.5,235.3672,102.5,231.3672" style="stroke:#181818;stroke-width:1.0;"/><line style="stroke:#181818;stroke-width:1.0;" x1="100.5" x2="444.5" y1="231.3672" y2="231.3672"/><text fill="#000000" font-family="sans-serif" font-size="13" font-weight="bold" lengthAdjust="spacing" textLength="7" x="112.5" y="226.5107">4</text><text fill="#000000" font-family="sans-serif" font-size="13" lengthAdjust="spacing" textLength="179" x="123.5" y="226.5107">asks survey related information</text><polygon fill="#181818" points="433.5,257.7188,443.5,261.7188,433.5,265.7188,437.5,261.7188" style="stroke:#181818;stroke-width:1.0;"/><line style="stroke:#181818;stroke-width:1.0;" x1="95.5" x2="439.5" y1="261.7188" y2="261.7188"/><text fill="#000000" font-family="sans-serif" font-size="13" font-weight="bold" lengthAdjust="spacing" textLength="7" x="102.5" y="256.8623">5</text><text fill="#000000" font-family="sans-serif" font-size="13" lengthAdjust="spacing" textLength="190" x="113.5" y="256.8623">inserts survey related information</text><polygon fill="#181818" points="106.5,288.0703,96.5,292.0703,106.5,296.0703,102.5,292.0703" style="stroke:#181818;stroke-width:1.0;"/><line style="stroke:#181818;stroke-width:1.0;" x1="100.5" x2="444.5" y1="292.0703" y2="292.0703"/><text fill="#000000" font-family="sans-serif" font-size="13" font-weight="bold" lengthAdjust="spacing" textLength="7" x="112.5" y="287.2139">6</text><text fill="#000000" font-family="sans-serif" font-size="13" lengthAdjust="spacing" textLength="219" x="123.5" y="287.2139">asks questionnaire related information</text><polygon fill="#181818" points="433.5,318.4219,443.5,322.4219,433.5,326.4219,437.5,322.4219" style="stroke:#181818;stroke-width:1.0;"/><line style="stroke:#181818;stroke-width:1.0;" x1="95.5" x2="439.5" y1="322.4219" y2="322.4219"/><text fill="#000000" font-family="sans-serif" font-size="13" font-weight="bold" lengthAdjust="spacing" textLength="7" x="102.5" y="317.5654">7</text><text fill="#000000" font-family="sans-serif" font-size="13" lengthAdjust="spacing" textLength="230" x="113.5" y="317.5654">inserts questionnaire related information</text><path d="M20,337.4219 L93,337.4219 L93,345.7734 L83,355.7734 L20,355.7734 L20,337.4219 " fill="#EEEEEE" style="stroke:#000000;stroke-width:1.5;"/><rect fill="none" height="172.1094" style="stroke:#000000;stroke-width:1.5;" width="482.5" x="20" y="337.4219"/><text fill="#000000" font-family="sans-serif" font-size="13" font-weight="bold" lengthAdjust="spacing" textLength="28" x="35" y="351.917">loop</text><text fill="#000000" font-family="sans-serif" font-size="11" font-weight="bold" lengthAdjust="spacing" textLength="249" x="108" y="350.8408">[while doesn't want to define more sections]</text><polygon fill="#181818" points="106.5,374.125,96.5,378.125,106.5,382.125,102.5,378.125" style="stroke:#181818;stroke-width:1.0;"/><line style="stroke:#181818;stroke-width:1.0;" x1="100.5" x2="444.5" y1="378.125" y2="378.125"/><text fill="#000000" font-family="sans-serif" font-size="13" font-weight="bold" lengthAdjust="spacing" textLength="7" x="112.5" y="373.2686">8</text><text fill="#000000" font-family="sans-serif" font-size="13" lengthAdjust="spacing" textLength="184" x="123.5" y="373.2686">asks section related information</text><polygon fill="#181818" points="433.5,404.4766,443.5,408.4766,433.5,412.4766,437.5,408.4766" style="stroke:#181818;stroke-width:1.0;"/><line style="stroke:#181818;stroke-width:1.0;" x1="95.5" x2="439.5" y1="408.4766" y2="408.4766"/><text fill="#000000" font-family="sans-serif" font-size="13" font-weight="bold" lengthAdjust="spacing" textLength="7" x="102.5" y="403.6201">9</text><text fill="#000000" font-family="sans-serif" font-size="13" lengthAdjust="spacing" textLength="195" x="113.5" y="403.6201">inserts section related information</text><path d="M30,423.4766 L103,423.4766 L103,431.8281 L93,441.8281 L30,441.8281 L30,423.4766 " fill="#EEEEEE" style="stroke:#000000;stroke-width:1.5;"/><rect fill="none" height="79.0547" style="stroke:#000000;stroke-width:1.5;" width="462.5" x="30" y="423.4766"/><text fill="#000000" font-family="sans-serif" font-size="13" font-weight="bold" lengthAdjust="spacing" textLength="28" x="45" y="437.9717">loop</text><text fill="#000000" font-family="sans-serif" font-size="11" font-weight="bold" lengthAdjust="spacing" textLength="257" x="118" y="436.8955">[while doesn't want to define more questions]</text><polygon fill="#181818" points="106.5,460.1797,96.5,464.1797,106.5,468.1797,102.5,464.1797" style="stroke:#181818;stroke-width:1.0;"/><line style="stroke:#181818;stroke-width:1.0;" x1="100.5" x2="444.5" y1="464.1797" y2="464.1797"/><text fill="#000000" font-family="sans-serif" font-size="13" font-weight="bold" lengthAdjust="spacing" textLength="14" x="112.5" y="459.3232">10</text><text fill="#000000" font-family="sans-serif" font-size="13" lengthAdjust="spacing" textLength="191" x="130.5" y="459.3232">asks question related information</text><polygon fill="#181818" points="433.5,490.5313,443.5,494.5313,433.5,498.5313,437.5,494.5313" style="stroke:#181818;stroke-width:1.0;"/><line style="stroke:#181818;stroke-width:1.0;" x1="95.5" x2="439.5" y1="494.5313" y2="494.5313"/><text fill="#000000" font-family="sans-serif" font-size="13" font-weight="bold" lengthAdjust="spacing" textLength="14" x="102.5" y="489.6748">11</text><text fill="#000000" font-family="sans-serif" font-size="13" lengthAdjust="spacing" textLength="202" x="120.5" y="489.6748">inserts question related information</text><polygon fill="#181818" points="537.5,534.8828,547.5,538.8828,537.5,542.8828,541.5,538.8828" style="stroke:#181818;stroke-width:1.0;"/><line style="stroke:#181818;stroke-width:1.0;" x1="455.5" x2="543.5" y1="538.8828" y2="538.8828"/><text fill="#000000" font-family="sans-serif" font-size="13" font-weight="bold" lengthAdjust="spacing" textLength="14" x="462.5" y="534.0264">12</text><text fill="#000000" font-family="sans-serif" font-size="13" lengthAdjust="spacing" textLength="35" x="480.5" y="534.0264">build()</text><polygon fill="#181818" points="1555.5,565.2344,1565.5,569.2344,1555.5,573.2344,1559.5,569.2344" style="stroke:#181818;stroke-width:1.0;"/><line style="stroke:#181818;stroke-width:1.0;" x1="559.5" x2="1561.5" y1="569.2344" y2="569.2344"/><text fill="#000000" font-family="sans-serif" font-size="13" font-weight="bold" lengthAdjust="spacing" textLength="14" x="566.5" y="564.3779">13</text><text fill="#000000" font-family="sans-serif" font-size="13" lengthAdjust="spacing" textLength="558" x="584.5" y="564.3779">questions = buildQuestion(questionId, questionMessage, questionType, obligatoriness, extraInfo)</text><rect fill="#E2E2F0" height="31.6094" rx="2.5" ry="2.5" style="stroke:#181818;stroke-width:0.5;" width="84" x="1567.5" y="546.8828"/><text fill="#000000" font-family="sans-serif" font-size="14" lengthAdjust="spacing" textLength="70" x="1574.5" y="568.416">QUESTION</text><polygon fill="#181818" points="1649.5,607.8438,1659.5,611.8438,1649.5,615.8438,1653.5,611.8438" style="stroke:#181818;stroke-width:1.0;"/><line style="stroke:#181818;stroke-width:1.0;" x1="559.5" x2="1655.5" y1="611.8438" y2="611.8438"/><text fill="#000000" font-family="sans-serif" font-size="13" font-weight="bold" lengthAdjust="spacing" textLength="14" x="566.5" y="606.9873">14</text><text fill="#000000" font-family="sans-serif" font-size="13" lengthAdjust="spacing" textLength="669" x="584.5" y="606.9873">sectionList = buildSection(sectionId, title, description, obligatoriness, repeatability, Collection&lt;Question&gt; questions)</text><rect fill="#E2E2F0" height="31.6094" rx="2.5" ry="2.5" style="stroke:#181818;stroke-width:0.5;" width="42" x="1661.5" y="589.4922"/><text fill="#000000" font-family="sans-serif" font-size="14" lengthAdjust="spacing" textLength="28" x="1668.5" y="611.0254">SEC</text><polygon fill="#181818" points="1701.5,650.4531,1711.5,654.4531,1701.5,658.4531,1705.5,654.4531" style="stroke:#181818;stroke-width:1.0;"/><line style="stroke:#181818;stroke-width:1.0;" x1="559.5" x2="1707.5" y1="654.4531" y2="654.4531"/><text fill="#000000" font-family="sans-serif" font-size="13" font-weight="bold" lengthAdjust="spacing" textLength="14" x="566.5" y="649.5967">15</text><text fill="#000000" font-family="sans-serif" font-size="13" lengthAdjust="spacing" textLength="578" x="584.5" y="649.5967">buildQuestionnaire(questionnaireId, questionnaireTitle, welcomeMessage, sectionList, finalMessage)</text><rect fill="#E2E2F0" height="31.6094" rx="2.5" ry="2.5" style="stroke:#181818;stroke-width:0.5;" width="124" x="1713.5" y="632.1016"/><text fill="#000000" font-family="sans-serif" font-size="14" lengthAdjust="spacing" textLength="110" x="1720.5" y="653.6348">QUESTIONNAIRE</text><polygon fill="#181818" points="714.5,693.0625,724.5,697.0625,714.5,701.0625,718.5,697.0625" style="stroke:#181818;stroke-width:1.0;"/><line style="stroke:#181818;stroke-width:1.0;" x1="559.5" x2="720.5" y1="697.0625" y2="697.0625"/><text fill="#000000" font-family="sans-serif" font-size="13" font-weight="bold" lengthAdjust="spacing" textLength="14" x="566.5" y="692.2061">16</text><text fill="#000000" font-family="sans-serif" font-size="13" lengthAdjust="spacing" textLength="125" x="584.5" y="692.2061">create(questionnaire )</text><rect fill="#E2E2F0" height="31.6094" rx="2.5" ry="2.5" style="stroke:#181818;stroke-width:0.5;" width="64" x="726.5" y="674.7109"/><text fill="#000000" font-family="sans-serif" font-size="14" lengthAdjust="spacing" textLength="50" x="733.5" y="696.2441">Content</text><polygon fill="#181818" points="905.5,735.6719,915.5,739.6719,905.5,743.6719,909.5,739.6719" style="stroke:#181818;stroke-width:1.0;"/><line style="stroke:#181818;stroke-width:1.0;" x1="559.5" x2="911.5" y1="739.6719" y2="739.6719"/><text fill="#000000" font-family="sans-serif" font-size="13" font-weight="bold" lengthAdjust="spacing" textLength="14" x="566.5" y="734.8154">17</text><text fill="#000000" font-family="sans-serif" font-size="13" lengthAdjust="spacing" textLength="316" x="584.5" y="734.8154">create(alphanumericCode, description, period, content)</text><rect fill="#E2E2F0" height="31.6094" rx="2.5" ry="2.5" style="stroke:#181818;stroke-width:0.5;" width="58" x="917.5" y="717.3203"/><text fill="#000000" font-family="sans-serif" font-size="14" lengthAdjust="spacing" textLength="44" x="924.5" y="738.8535">Survey</text><polygon fill="#181818" points="973.5,778.2813,983.5,782.2813,973.5,786.2813,977.5,782.2813" style="stroke:#181818;stroke-width:1.0;"/><line style="stroke:#181818;stroke-width:1.0;" x1="559.5" x2="979.5" y1="782.2813" y2="782.2813"/><text fill="#000000" font-family="sans-serif" font-size="13" font-weight="bold" lengthAdjust="spacing" textLength="14" x="566.5" y="777.4248">18</text><text fill="#000000" font-family="sans-serif" font-size="13" lengthAdjust="spacing" textLength="75" x="584.5" y="777.4248">repositories()</text><rect fill="#E2E2F0" height="31.6094" rx="2.5" ry="2.5" style="stroke:#181818;stroke-width:0.5;" width="229" x="985.5" y="759.9297"/><text fill="#000000" font-family="sans-serif" font-size="14" lengthAdjust="spacing" textLength="215" x="992.5" y="781.4629">:PersistenceContext&lt;persistence&gt;</text><polygon fill="#181818" points="1212.5,820.8906,1222.5,824.8906,1212.5,828.8906,1216.5,824.8906" style="stroke:#181818;stroke-width:1.0;"/><line style="stroke:#181818;stroke-width:1.0;" x1="1105" x2="1218.5" y1="824.8906" y2="824.8906"/><text fill="#000000" font-family="sans-serif" font-size="13" font-weight="bold" lengthAdjust="spacing" textLength="14" x="1112" y="820.0342">19</text><text fill="#000000" font-family="sans-serif" font-size="13" lengthAdjust="spacing" textLength="36" x="1130" y="820.0342">create</text><rect fill="#E2E2F0" height="31.6094" rx="2.5" ry="2.5" style="stroke:#181818;stroke-width:0.5;" width="193" x="1224.5" y="802.5391"/><text fill="#000000" font-family="sans-serif" font-size="14" lengthAdjust="spacing" textLength="179" x="1231.5" y="824.0723">:RepositoryFactory&lt;factory&gt;</text><polygon fill="#181818" points="570.5,863.5,560.5,867.5,570.5,871.5,566.5,867.5" style="stroke:#181818;stroke-width:1.0;"/><line style="stroke:#181818;stroke-width:1.0;" x1="564.5" x2="1099" y1="867.5" y2="867.5"/><text fill="#000000" font-family="sans-serif" font-size="13" font-weight="bold" lengthAdjust="spacing" textLength="14" x="576.5" y="862.6436">20</text><text fill="#000000" font-family="sans-serif" font-size="13" lengthAdjust="spacing" textLength="39" x="594.5" y="862.6436">factory</text><polygon fill="#181818" points="1304,893.8516,1314,897.8516,1304,901.8516,1308,897.8516" style="stroke:#181818;stroke-width:1.0;"/><line style="stroke:#181818;stroke-width:1.0;" x1="559.5" x2="1310" y1="897.8516" y2="897.8516"/><text fill="#000000" font-family="sans-serif" font-size="13" font-weight="bold" lengthAdjust="spacing" textLength="14" x="566.5" y="892.9951">21</text><text fill="#000000" font-family="sans-serif" font-size="13" lengthAdjust="spacing" textLength="52" x="584.5" y="892.9951">surveys()</text><polygon fill="#181818" points="1415.5,924.2031,1425.5,928.2031,1415.5,932.2031,1419.5,928.2031" style="stroke:#181818;stroke-width:1.0;"/><line style="stroke:#181818;stroke-width:1.0;" x1="1326" x2="1421.5" y1="928.2031" y2="928.2031"/><text fill="#000000" font-family="sans-serif" font-size="13" font-weight="bold" lengthAdjust="spacing" textLength="14" x="1333" y="923.3467">22</text><text fill="#000000" font-family="sans-serif" font-size="13" lengthAdjust="spacing" textLength="36" x="1351" y="923.3467">create</text><rect fill="#E2E2F0" height="31.6094" rx="2.5" ry="2.5" style="stroke:#181818;stroke-width:0.5;" width="130" x="1427.5" y="905.8516"/><text fill="#000000" font-family="sans-serif" font-size="14" lengthAdjust="spacing" textLength="116" x="1434.5" y="927.3848">:SurveyRepository</text><polygon fill="#181818" points="570.5,966.8125,560.5,970.8125,570.5,974.8125,566.5,970.8125" style="stroke:#181818;stroke-width:1.0;"/><line style="stroke:#181818;stroke-width:1.0;" x1="564.5" x2="1320" y1="970.8125" y2="970.8125"/><text fill="#000000" font-family="sans-serif" font-size="13" font-weight="bold" lengthAdjust="spacing" textLength="14" x="576.5" y="965.9561">23</text><text fill="#000000" font-family="sans-serif" font-size="13" lengthAdjust="spacing" textLength="99" x="594.5" y="965.9561">surveyRepository</text><polygon fill="#181818" points="1475.5,997.1641,1485.5,1001.1641,1475.5,1005.1641,1479.5,1001.1641" style="stroke:#181818;stroke-width:1.0;"/><line style="stroke:#181818;stroke-width:1.0;" x1="559.5" x2="1481.5" y1="1001.1641" y2="1001.1641"/><text fill="#000000" font-family="sans-serif" font-size="13" font-weight="bold" lengthAdjust="spacing" textLength="14" x="566.5" y="996.3076">24</text><text fill="#000000" font-family="sans-serif" font-size="13" lengthAdjust="spacing" textLength="71" x="584.5" y="996.3076">save(survey)</text><polygon fill="#181818" points="466.5,1027.5156,456.5,1031.5156,466.5,1035.5156,462.5,1031.5156" style="stroke:#181818;stroke-width:1.0;"/><line style="stroke:#181818;stroke-width:1.0;" x1="460.5" x2="553.5" y1="1031.5156" y2="1031.5156"/><text fill="#000000" font-family="sans-serif" font-size="13" font-weight="bold" lengthAdjust="spacing" textLength="14" x="472.5" y="1026.6592">25</text><text fill="#000000" font-family="sans-serif" font-size="13" lengthAdjust="spacing" textLength="4" x="490.5" y="1026.6592"> </text><polygon fill="#181818" points="106.5,1057.8672,96.5,1061.8672,106.5,1065.8672,102.5,1061.8672" style="stroke:#181818;stroke-width:1.0;"/><line style="stroke:#181818;stroke-width:1.0;" x1="100.5" x2="449.5" y1="1061.8672" y2="1061.8672"/><text fill="#000000" font-family="sans-serif" font-size="13" font-weight="bold" lengthAdjust="spacing" textLength="14" x="112.5" y="1057.0107">26</text><text fill="#000000" font-family="sans-serif" font-size="13" lengthAdjust="spacing" textLength="160" x="130.5" y="1057.0107">presents the survey created</text><path d="M30,1083.8672 L91,1083.8672 L91,1092.2188 L81,1102.2188 L30,1102.2188 L30,1083.8672 " fill="#EEEEEE" style="stroke:#000000;stroke-width:1.5;"/><rect fill="none" height="522.6563" style="stroke:#000000;stroke-width:1.5;" width="1537.5" x="30" y="1083.8672"/><text fill="#000000" font-family="sans-serif" font-size="13" font-weight="bold" lengthAdjust="spacing" textLength="16" x="45" y="1098.3623">alt</text><polygon fill="#181818" points="438.5,1120.5703,448.5,1124.5703,438.5,1128.5703,442.5,1124.5703" style="stroke:#181818;stroke-width:1.0;"/><line style="stroke:#181818;stroke-width:1.0;" x1="95.5" x2="444.5" y1="1124.5703" y2="1124.5703"/><text fill="#000000" font-family="sans-serif" font-size="13" font-weight="bold" lengthAdjust="spacing" textLength="14" x="102.5" y="1119.7139">27</text><text fill="#000000" font-family="sans-serif" font-size="13" lengthAdjust="spacing" textLength="128" x="120.5" y="1119.7139">selects to import a file</text><polygon fill="#181818" points="106.5,1150.9219,96.5,1154.9219,106.5,1158.9219,102.5,1154.9219" style="stroke:#181818;stroke-width:1.0;"/><line style="stroke:#181818;stroke-width:1.0;" x1="100.5" x2="449.5" y1="1154.9219" y2="1154.9219"/><text fill="#000000" font-family="sans-serif" font-size="13" font-weight="bold" lengthAdjust="spacing" textLength="14" x="112.5" y="1150.0654">28</text><text fill="#000000" font-family="sans-serif" font-size="13" lengthAdjust="spacing" textLength="179" x="130.5" y="1150.0654">asks survey related information</text><polygon fill="#181818" points="438.5,1181.2734,448.5,1185.2734,438.5,1189.2734,442.5,1185.2734" style="stroke:#181818;stroke-width:1.0;"/><line style="stroke:#181818;stroke-width:1.0;" x1="95.5" x2="444.5" y1="1185.2734" y2="1185.2734"/><text fill="#000000" font-family="sans-serif" font-size="13" font-weight="bold" lengthAdjust="spacing" textLength="14" x="102.5" y="1180.417">29</text><text fill="#000000" font-family="sans-serif" font-size="13" lengthAdjust="spacing" textLength="313" x="120.5" y="1180.417">inserts Alphanumeric code, Description, Period, Rules</text><polygon fill="#181818" points="106.5,1211.625,96.5,1215.625,106.5,1219.625,102.5,1215.625" style="stroke:#181818;stroke-width:1.0;"/><line style="stroke:#181818;stroke-width:1.0;" x1="100.5" x2="449.5" y1="1215.625" y2="1215.625"/><text fill="#000000" font-family="sans-serif" font-size="13" font-weight="bold" lengthAdjust="spacing" textLength="14" x="112.5" y="1210.7686">30</text><text fill="#000000" font-family="sans-serif" font-size="13" lengthAdjust="spacing" textLength="135" x="130.5" y="1210.7686">asks the path of the file</text><polygon fill="#181818" points="438.5,1241.9766,448.5,1245.9766,438.5,1249.9766,442.5,1245.9766" style="stroke:#181818;stroke-width:1.0;"/><line style="stroke:#181818;stroke-width:1.0;" x1="95.5" x2="444.5" y1="1245.9766" y2="1245.9766"/><text fill="#000000" font-family="sans-serif" font-size="13" font-weight="bold" lengthAdjust="spacing" textLength="14" x="102.5" y="1241.1201">31</text><text fill="#000000" font-family="sans-serif" font-size="13" lengthAdjust="spacing" textLength="146" x="120.5" y="1241.1201">inserts the path of the file</text><polygon fill="#181818" points="537.5,1272.3281,547.5,1276.3281,537.5,1280.3281,541.5,1276.3281" style="stroke:#181818;stroke-width:1.0;"/><line style="stroke:#181818;stroke-width:1.0;" x1="450.5" x2="543.5" y1="1276.3281" y2="1276.3281"/><text fill="#000000" font-family="sans-serif" font-size="13" font-weight="bold" lengthAdjust="spacing" textLength="14" x="457.5" y="1271.4717">32</text><text fill="#000000" font-family="sans-serif" font-size="13" lengthAdjust="spacing" textLength="35" x="475.5" y="1271.4717">build()</text><polygon fill="#181818" points="905.5,1302.6797,915.5,1306.6797,905.5,1310.6797,909.5,1306.6797" style="stroke:#181818;stroke-width:1.0;"/><line style="stroke:#181818;stroke-width:1.0;" x1="559.5" x2="911.5" y1="1306.6797" y2="1306.6797"/><text fill="#000000" font-family="sans-serif" font-size="13" font-weight="bold" lengthAdjust="spacing" textLength="14" x="566.5" y="1301.8232">33</text><text fill="#000000" font-family="sans-serif" font-size="13" lengthAdjust="spacing" textLength="316" x="584.5" y="1301.8232">create(alphanumericCode, description, period, content)</text><rect fill="#E2E2F0" height="31.6094" rx="2.5" ry="2.5" style="stroke:#181818;stroke-width:0.5;" width="58" x="917.5" y="1284.3281"/><text fill="#000000" font-family="sans-serif" font-size="14" lengthAdjust="spacing" textLength="44" x="924.5" y="1305.8613">Survey</text><polygon fill="#181818" points="973.5,1345.2891,983.5,1349.2891,973.5,1353.2891,977.5,1349.2891" style="stroke:#181818;stroke-width:1.0;"/><line style="stroke:#181818;stroke-width:1.0;" x1="559.5" x2="979.5" y1="1349.2891" y2="1349.2891"/><text fill="#000000" font-family="sans-serif" font-size="13" font-weight="bold" lengthAdjust="spacing" textLength="14" x="566.5" y="1344.4326">34</text><text fill="#000000" font-family="sans-serif" font-size="13" lengthAdjust="spacing" textLength="75" x="584.5" y="1344.4326">repositories()</text><rect fill="#E2E2F0" height="31.6094" rx="2.5" ry="2.5" style="stroke:#181818;stroke-width:0.5;" width="229" x="985.5" y="1326.9375"/><text fill="#000000" font-family="sans-serif" font-size="14" lengthAdjust="spacing" textLength="215" x="992.5" y="1348.4707">:PersistenceContext&lt;persistence&gt;</text><polygon fill="#181818" points="1212.5,1387.8984,1222.5,1391.8984,1212.5,1395.8984,1216.5,1391.8984" style="stroke:#181818;stroke-width:1.0;"/><line style="stroke:#181818;stroke-width:1.0;" x1="1105" x2="1218.5" y1="1391.8984" y2="1391.8984"/><text fill="#000000" font-family="sans-serif" font-size="13" font-weight="bold" lengthAdjust="spacing" textLength="14" x="1112" y="1387.042">35</text><text fill="#000000" font-family="sans-serif" font-size="13" lengthAdjust="spacing" textLength="36" x="1130" y="1387.042">create</text><rect fill="#E2E2F0" height="31.6094" rx="2.5" ry="2.5" style="stroke:#181818;stroke-width:0.5;" width="193" x="1224.5" y="1369.5469"/><text fill="#000000" font-family="sans-serif" font-size="14" lengthAdjust="spacing" textLength="179" x="1231.5" y="1391.0801">:RepositoryFactory&lt;factory&gt;</text><polygon fill="#181818" points="570.5,1430.5078,560.5,1434.5078,570.5,1438.5078,566.5,1434.5078" style="stroke:#181818;stroke-width:1.0;"/><line style="stroke:#181818;stroke-width:1.0;" x1="564.5" x2="1099" y1="1434.5078" y2="1434.5078"/><text fill="#000000" font-family="sans-serif" font-size="13" font-weight="bold" lengthAdjust="spacing" textLength="14" x="576.5" y="1429.6514">36</text><text fill="#000000" font-family="sans-serif" font-size="13" lengthAdjust="spacing" textLength="39" x="594.5" y="1429.6514">factory</text><polygon fill="#181818" points="1304,1460.8594,1314,1464.8594,1304,1468.8594,1308,1464.8594" style="stroke:#181818;stroke-width:1.0;"/><line style="stroke:#181818;stroke-width:1.0;" x1="559.5" x2="1310" y1="1464.8594" y2="1464.8594"/><text fill="#000000" font-family="sans-serif" font-size="13" font-weight="bold" lengthAdjust="spacing" textLength="14" x="566.5" y="1460.0029">37</text><text fill="#000000" font-family="sans-serif" font-size="13" lengthAdjust="spacing" textLength="52" x="584.5" y="1460.0029">surveys()</text><polygon fill="#181818" points="1415.5,1491.2109,1425.5,1495.2109,1415.5,1499.2109,1419.5,1495.2109" style="stroke:#181818;stroke-width:1.0;"/><line style="stroke:#181818;stroke-width:1.0;" x1="1326" x2="1421.5" y1="1495.2109" y2="1495.2109"/><text fill="#000000" font-family="sans-serif" font-size="13" font-weight="bold" lengthAdjust="spacing" textLength="14" x="1333" y="1490.3545">38</text><text fill="#000000" font-family="sans-serif" font-size="13" lengthAdjust="spacing" textLength="36" x="1351" y="1490.3545">create</text><rect fill="#E2E2F0" height="31.6094" rx="2.5" ry="2.5" style="stroke:#181818;stroke-width:0.5;" width="130" x="1427.5" y="1472.8594"/><text fill="#000000" font-family="sans-serif" font-size="14" lengthAdjust="spacing" textLength="116" x="1434.5" y="1494.3926">:SurveyRepository</text><polygon fill="#181818" points="570.5,1533.8203,560.5,1537.8203,570.5,1541.8203,566.5,1537.8203" style="stroke:#181818;stroke-width:1.0;"/><line style="stroke:#181818;stroke-width:1.0;" x1="564.5" x2="1320" y1="1537.8203" y2="1537.8203"/><text fill="#000000" font-family="sans-serif" font-size="13" font-weight="bold" lengthAdjust="spacing" textLength="14" x="576.5" y="1532.9639">39</text><text fill="#000000" font-family="sans-serif" font-size="13" lengthAdjust="spacing" textLength="99" x="594.5" y="1532.9639">surveyRepository</text><polygon fill="#181818" points="1475.5,1564.1719,1485.5,1568.1719,1475.5,1572.1719,1479.5,1568.1719" style="stroke:#181818;stroke-width:1.0;"/><line style="stroke:#181818;stroke-width:1.0;" x1="559.5" x2="1481.5" y1="1568.1719" y2="1568.1719"/><text fill="#000000" font-family="sans-serif" font-size="13" font-weight="bold" lengthAdjust="spacing" textLength="14" x="566.5" y="1563.3154">40</text><text fill="#000000" font-family="sans-serif" font-size="13" lengthAdjust="spacing" textLength="71" x="584.5" y="1563.3154">save(survey)</text><polygon fill="#181818" points="461.5,1594.5234,451.5,1598.5234,461.5,1602.5234,457.5,1598.5234" style="stroke:#181818;stroke-width:1.0;"/><line style="stroke:#181818;stroke-width:1.0;" x1="455.5" x2="553.5" y1="1598.5234" y2="1598.5234"/><text fill="#000000" font-family="sans-serif" font-size="13" font-weight="bold" lengthAdjust="spacing" textLength="14" x="467.5" y="1593.667">41</text><text fill="#000000" font-family="sans-serif" font-size="13" lengthAdjust="spacing" textLength="4" x="485.5" y="1593.667"> </text><polygon fill="#181818" points="106.5,1631.875,96.5,1635.875,106.5,1639.875,102.5,1635.875" style="stroke:#181818;stroke-width:1.0;"/><line style="stroke:#181818;stroke-width:1.0;" x1="100.5" x2="449.5" y1="1635.875" y2="1635.875"/><text fill="#000000" font-family="sans-serif" font-size="13" font-weight="bold" lengthAdjust="spacing" textLength="14" x="112.5" y="1631.0186">42</text><text fill="#000000" font-family="sans-serif" font-size="13" lengthAdjust="spacing" textLength="160" x="130.5" y="1631.0186">presents the survey created</text><!--MD5=[57efbf7404e767b399dc1671b3137919]
@startuml
autonumber
actor "Sales Manager" as MEDLT
participant ":System" as SYS
participant "Survey Controller" as CTRL
participant "Content" as CONTENT
participant "Survey" as SUR
participant ":PersistenceContext<persistence>" as PC
participant ":RepositoryFactory<factory>" as RF
participant ":SurveyRepository" as CR


activate MEDLT
MEDLT-> SYS : Define new Survey

activate SYS
SYS - -> MEDLT : Asks to select between inputting or importing txt

deactivate SYS

alt
MEDLT-> SYS : selects inputting all the information
activate SYS

SYS -> MEDLT : asks survey related information

MEDLT-> SYS : inserts survey related information


SYS -> MEDLT : asks questionnaire related information

MEDLT-> SYS : inserts questionnaire related information

loop while doesn't want to define more sections

SYS -> MEDLT : asks section related information

MEDLT-> SYS : inserts section related information

loop while doesn't want to define more questions
SYS -> MEDLT : asks question related information

MEDLT-> SYS : inserts question related information

end loop
end loop

SYS -> CTRL : build()
activate CTRL

CTRL -> QUESTION**: questions = buildQuestion(questionId, questionMessage, questionType, obligatoriness, extraInfo)
CTRL -> SEC**: sectionList = buildSection(sectionId, title, description, obligatoriness, repeatability, Collection<Question> questions)
CTRL -> QUESTIONNAIRE**: buildQuestionnaire(questionnaireId, questionnaireTitle, welcomeMessage, sectionList, finalMessage)


CTRL -> CONTENT**: create(questionnaire )

CTRL -> SUR**: create(alphanumericCode, description, period, content)

CTRL-> PC**: repositories()
activate PC
PC-> RF**: create
PC-> CTRL: factory
deactivate PC

CTRL-> RF: surveys()
activate RF
RF->CR**: create

RF->CTRL: surveyRepository
deactivate RF

CTRL->CR: save(survey)
activate CR

CTRL->SYS:
deactivate CR
deactivate CTRL

deactivate PC



SYS -> MEDLT : presents the survey created
deactivate SYS

end alt

alt
MEDLT-> SYS : selects to import a file

SYS -> MEDLT : asks survey related information

MEDLT-> SYS : inserts Alphanumeric code, Description, Period, Rules

SYS -> MEDLT : asks the path of the file

MEDLT-> SYS : inserts the path of the file

SYS -> CTRL : build()
activate CTRL

CTRL -> SUR**: create(alphanumericCode, description, period, content)

CTRL-> PC**: repositories()
activate PC
PC-> RF**: create
PC-> CTRL: factory
deactivate PC

CTRL-> RF: surveys()
activate RF
RF->CR**: create

RF->CTRL: surveyRepository
deactivate RF

CTRL->CR: save(survey)
activate CR

CTRL->SYS:
deactivate CR
deactivate CTRL

deactivate PC

end alt



SYS -> MEDLT : presents the survey created
deactivate SYS
@enduml

PlantUML version 1.2022.4(Sat Apr 09 14:29:17 BST 2022)
(GPL source distribution)
Java Runtime: OpenJDK Runtime Environment
JVM: OpenJDK 64-Bit Server VM
Default Encoding: Cp1252
Language: pt
Country: PT
--></g></svg>