<?xml version="1.0" encoding="UTF-8" standalone="no"?><svg xmlns="http://www.w3.org/2000/svg" xmlns:xlink="http://www.w3.org/1999/xlink" contentStyleType="text/css" height="793px" preserveAspectRatio="none" style="width:1618px;height:793px;background:#FFFFFF;" version="1.1" viewBox="0 0 1618 793" width="1618px" zoomAndPan="magnify"><defs/><g><rect fill="#FFFFFF" height="609.3594" style="stroke:#181818;stroke-width:1.0;" width="10" x="37" y="92.6094"/><rect fill="#FFFFFF" height="600.3594" style="stroke:#181818;stroke-width:1.0;" width="10" x="271" y="92.6094"/><rect fill="#FFFFFF" height="456.6016" style="stroke:#181818;stroke-width:1.0;" width="10" x="507" y="206.0156"/><rect fill="#FFFFFF" height="136.6641" style="stroke:#181818;stroke-width:1.0;" width="10" x="734.5" y="246.3672"/><rect fill="#FFFFFF" height="30.3516" style="stroke:#181818;stroke-width:1.0;" width="10" x="919" y="322.3281"/><rect fill="#FFFFFF" height="75.2188" style="stroke:#181818;stroke-width:1.0;" width="10" x="1121" y="423.3828"/><rect fill="#FFFFFF" height="72.9609" style="stroke:#181818;stroke-width:1.0;" width="10" x="1342" y="528.9531"/><rect fill="#FFFFFF" height="30.3516" style="stroke:#181818;stroke-width:1.0;" width="10" x="1528" y="632.2656"/><line style="stroke:#181818;stroke-width:0.5;stroke-dasharray:5.0,5.0;" x1="42" x2="42" y1="82.6094" y2="710.9688"/><line style="stroke:#181818;stroke-width:0.5;stroke-dasharray:5.0,5.0;" x1="276" x2="276" y1="82.6094" y2="710.9688"/><line style="stroke:#181818;stroke-width:0.5;stroke-dasharray:5.0,5.0;" x1="511.5" x2="511.5" y1="82.6094" y2="710.9688"/><line style="stroke:#181818;stroke-width:0.5;stroke-dasharray:5.0,5.0;" x1="739.5" x2="739.5" y1="245.3203" y2="710.9688"/><line style="stroke:#181818;stroke-width:0.5;stroke-dasharray:5.0,5.0;" x1="923.5" x2="923.5" y1="82.6094" y2="710.9688"/><line style="stroke:#181818;stroke-width:0.5;stroke-dasharray:5.0,5.0;" x1="1125.5" x2="1125.5" y1="422.3359" y2="710.9688"/><line style="stroke:#181818;stroke-width:0.5;stroke-dasharray:5.0,5.0;" x1="1346.5" x2="1346.5" y1="464.9453" y2="710.9688"/><line style="stroke:#181818;stroke-width:0.5;stroke-dasharray:5.0,5.0;" x1="1532.5" x2="1532.5" y1="568.2578" y2="710.9688"/><text fill="#000000" font-family="sans-serif" font-size="14" lengthAdjust="spacing" textLength="68" x="5" y="79.5332">SalesClerk</text><ellipse cx="42" cy="13.5" fill="#E2E2F0" rx="8" ry="8" style="stroke:#181818;stroke-width:0.5;"/><path d="M42,21.5 L42,48.5 M29,29.5 L55,29.5 M42,48.5 L29,63.5 M42,48.5 L55,63.5 " fill="none" style="stroke:#181818;stroke-width:0.5;"/><text fill="#000000" font-family="sans-serif" font-size="14" lengthAdjust="spacing" textLength="68" x="5" y="724.502">SalesClerk</text><ellipse cx="42" cy="736.0781" fill="#E2E2F0" rx="8" ry="8" style="stroke:#181818;stroke-width:0.5;"/><path d="M42,744.0781 L42,771.0781 M29,752.0781 L55,752.0781 M42,771.0781 L29,786.0781 M42,771.0781 L55,786.0781 " fill="none" style="stroke:#181818;stroke-width:0.5;"/><rect fill="#E2E2F0" height="31.6094" rx="2.5" ry="2.5" style="stroke:#181818;stroke-width:0.5;" width="198" x="177" y="50"/><text fill="#000000" font-family="sans-serif" font-size="14" lengthAdjust="spacing" textLength="184" x="184" y="71.5332">WarehouseUI &lt;presentation&gt;</text><rect fill="#E2E2F0" height="31.6094" rx="2.5" ry="2.5" style="stroke:#181818;stroke-width:0.5;" width="198" x="177" y="709.9688"/><text fill="#000000" font-family="sans-serif" font-size="14" lengthAdjust="spacing" textLength="184" x="184" y="731.502">WarehouseUI &lt;presentation&gt;</text><rect fill="#E2E2F0" height="31.6094" rx="2.5" ry="2.5" style="stroke:#181818;stroke-width:0.5;" width="241" x="391.5" y="50"/><text fill="#000000" font-family="sans-serif" font-size="14" lengthAdjust="spacing" textLength="227" x="398.5" y="71.5332">:WarehouseController &lt;application&gt;</text><rect fill="#E2E2F0" height="31.6094" rx="2.5" ry="2.5" style="stroke:#181818;stroke-width:0.5;" width="241" x="391.5" y="709.9688"/><text fill="#000000" font-family="sans-serif" font-size="14" lengthAdjust="spacing" textLength="227" x="398.5" y="731.502">:WarehouseController &lt;application&gt;</text><rect fill="#E2E2F0" height="31.6094" rx="2.5" ry="2.5" style="stroke:#181818;stroke-width:0.5;" width="194" x="642.5" y="709.9688"/><text fill="#000000" font-family="sans-serif" font-size="14" lengthAdjust="spacing" textLength="180" x="649.5" y="731.502">:WarehouseBuilder&lt;builder&gt;</text><rect fill="#E2E2F0" height="31.6094" rx="2.5" ry="2.5" style="stroke:#181818;stroke-width:0.5;" width="155" x="846.5" y="50"/><text fill="#000000" font-family="sans-serif" font-size="14" lengthAdjust="spacing" textLength="141" x="853.5" y="71.5332">:Warehouse&lt;Domain&gt;</text><rect fill="#E2E2F0" height="31.6094" rx="2.5" ry="2.5" style="stroke:#181818;stroke-width:0.5;" width="155" x="846.5" y="709.9688"/><text fill="#000000" font-family="sans-serif" font-size="14" lengthAdjust="spacing" textLength="141" x="853.5" y="731.502">:Warehouse&lt;Domain&gt;</text><rect fill="#E2E2F0" height="31.6094" rx="2.5" ry="2.5" style="stroke:#181818;stroke-width:0.5;" width="229" x="1011.5" y="709.9688"/><text fill="#000000" font-family="sans-serif" font-size="14" lengthAdjust="spacing" textLength="215" x="1018.5" y="731.502">:PersistenceContext&lt;persistence&gt;</text><rect fill="#E2E2F0" height="31.6094" rx="2.5" ry="2.5" style="stroke:#181818;stroke-width:0.5;" width="193" x="1250.5" y="709.9688"/><text fill="#000000" font-family="sans-serif" font-size="14" lengthAdjust="spacing" textLength="179" x="1257.5" y="731.502">:RepositoryFactory&lt;factory&gt;</text><rect fill="#E2E2F0" height="31.6094" rx="2.5" ry="2.5" style="stroke:#181818;stroke-width:0.5;" width="159" x="1453.5" y="709.9688"/><text fill="#000000" font-family="sans-serif" font-size="14" lengthAdjust="spacing" textLength="145" x="1460.5" y="731.502">:WarehouseRepository</text><rect fill="#FFFFFF" height="609.3594" style="stroke:#181818;stroke-width:1.0;" width="10" x="37" y="92.6094"/><rect fill="#FFFFFF" height="600.3594" style="stroke:#181818;stroke-width:1.0;" width="10" x="271" y="92.6094"/><rect fill="#FFFFFF" height="456.6016" style="stroke:#181818;stroke-width:1.0;" width="10" x="507" y="206.0156"/><rect fill="#FFFFFF" height="136.6641" style="stroke:#181818;stroke-width:1.0;" width="10" x="734.5" y="246.3672"/><rect fill="#FFFFFF" height="30.3516" style="stroke:#181818;stroke-width:1.0;" width="10" x="919" y="322.3281"/><rect fill="#FFFFFF" height="75.2188" style="stroke:#181818;stroke-width:1.0;" width="10" x="1121" y="423.3828"/><rect fill="#FFFFFF" height="72.9609" style="stroke:#181818;stroke-width:1.0;" width="10" x="1342" y="528.9531"/><rect fill="#FFFFFF" height="30.3516" style="stroke:#181818;stroke-width:1.0;" width="10" x="1528" y="632.2656"/><polygon fill="#181818" points="259,110.9609,269,114.9609,259,118.9609,263,114.9609" style="stroke:#181818;stroke-width:1.0;"/><line style="stroke:#181818;stroke-width:1.0;" x1="47" x2="265" y1="114.9609" y2="114.9609"/><text fill="#000000" font-family="sans-serif" font-size="13" font-weight="bold" lengthAdjust="spacing" textLength="7" x="54" y="110.1045">1</text><text fill="#000000" font-family="sans-serif" font-size="13" lengthAdjust="spacing" textLength="184" x="65" y="110.1045">Set up Warehouse Plant Option</text><polygon fill="#181818" points="58,141.3125,48,145.3125,58,149.3125,54,145.3125" style="stroke:#181818;stroke-width:1.0;"/><line style="stroke:#181818;stroke-width:1.0;" x1="52" x2="270" y1="145.3125" y2="145.3125"/><text fill="#000000" font-family="sans-serif" font-size="13" font-weight="bold" lengthAdjust="spacing" textLength="7" x="64" y="140.4561">2</text><text fill="#000000" font-family="sans-serif" font-size="13" lengthAdjust="spacing" textLength="142" x="75" y="140.4561">asks the name of the file</text><polygon fill="#181818" points="259,171.6641,269,175.6641,259,179.6641,263,175.6641" style="stroke:#181818;stroke-width:1.0;"/><line style="stroke:#181818;stroke-width:1.0;" x1="47" x2="265" y1="175.6641" y2="175.6641"/><text fill="#000000" font-family="sans-serif" font-size="13" font-weight="bold" lengthAdjust="spacing" textLength="7" x="54" y="170.8076">3</text><text fill="#000000" font-family="sans-serif" font-size="13" lengthAdjust="spacing" textLength="116" x="65" y="170.8076">introduces file name</text><polygon fill="#181818" points="495,202.0156,505,206.0156,495,210.0156,499,206.0156" style="stroke:#181818;stroke-width:1.0;"/><line style="stroke:#181818;stroke-width:1.0;" x1="281" x2="501" y1="206.0156" y2="206.0156"/><text fill="#000000" font-family="sans-serif" font-size="13" font-weight="bold" lengthAdjust="spacing" textLength="7" x="288" y="201.1592">4</text><text fill="#000000" font-family="sans-serif" font-size="13" lengthAdjust="spacing" textLength="149" x="299" y="201.1592">buildWarehouse(filename)</text><polygon fill="#181818" points="630.5,232.3672,640.5,236.3672,630.5,240.3672,634.5,236.3672" style="stroke:#181818;stroke-width:1.0;"/><line style="stroke:#181818;stroke-width:1.0;" x1="517" x2="636.5" y1="236.3672" y2="236.3672"/><text fill="#000000" font-family="sans-serif" font-size="13" font-weight="bold" lengthAdjust="spacing" textLength="7" x="524" y="231.5107">5</text><text fill="#000000" font-family="sans-serif" font-size="13" lengthAdjust="spacing" textLength="36" x="535" y="231.5107">create</text><rect fill="#E2E2F0" height="31.6094" rx="2.5" ry="2.5" style="stroke:#181818;stroke-width:0.5;" width="194" x="642.5" y="214.0156"/><text fill="#000000" font-family="sans-serif" font-size="14" lengthAdjust="spacing" textLength="180" x="649.5" y="235.5488">:WarehouseBuilder&lt;builder&gt;</text><line style="stroke:#181818;stroke-width:1.0;" x1="744.5" x2="786.5" y1="278.9766" y2="278.9766"/><line style="stroke:#181818;stroke-width:1.0;" x1="786.5" x2="786.5" y1="278.9766" y2="291.9766"/><line style="stroke:#181818;stroke-width:1.0;" x1="745.5" x2="786.5" y1="291.9766" y2="291.9766"/><polygon fill="#181818" points="755.5,287.9766,745.5,291.9766,755.5,295.9766,751.5,291.9766" style="stroke:#181818;stroke-width:1.0;"/><text fill="#000000" font-family="sans-serif" font-size="13" font-weight="bold" lengthAdjust="spacing" textLength="7" x="751.5" y="274.1201">6</text><text fill="#000000" font-family="sans-serif" font-size="13" lengthAdjust="spacing" textLength="110" x="762.5" y="274.1201">readJson(fileName)</text><polygon fill="#181818" points="907,318.3281,917,322.3281,907,326.3281,911,322.3281" style="stroke:#181818;stroke-width:1.0;"/><line style="stroke:#181818;stroke-width:1.0;" x1="744.5" x2="913" y1="322.3281" y2="322.3281"/><text fill="#000000" font-family="sans-serif" font-size="13" font-weight="bold" lengthAdjust="spacing" textLength="7" x="751.5" y="317.4717">7</text><text fill="#000000" font-family="sans-serif" font-size="13" lengthAdjust="spacing" textLength="110" x="762.5" y="317.4717">fromJson(fileName)</text><polygon fill="#181818" points="755.5,348.6797,745.5,352.6797,755.5,356.6797,751.5,352.6797" style="stroke:#181818;stroke-width:1.0;"/><line style="stroke:#181818;stroke-width:1.0;" x1="749.5" x2="923" y1="352.6797" y2="352.6797"/><text fill="#000000" font-family="sans-serif" font-size="13" font-weight="bold" lengthAdjust="spacing" textLength="7" x="761.5" y="347.8232">8</text><text fill="#000000" font-family="sans-serif" font-size="13" lengthAdjust="spacing" textLength="62" x="772.5" y="347.8232">warehouse</text><polygon fill="#181818" points="528,379.0313,518,383.0313,528,387.0313,524,383.0313" style="stroke:#181818;stroke-width:1.0;"/><line style="stroke:#181818;stroke-width:1.0;" x1="522" x2="738.5" y1="383.0313" y2="383.0313"/><text fill="#000000" font-family="sans-serif" font-size="13" font-weight="bold" lengthAdjust="spacing" textLength="7" x="534" y="378.1748">9</text><text fill="#000000" font-family="sans-serif" font-size="13" lengthAdjust="spacing" textLength="62" x="545" y="378.1748">warehouse</text><polygon fill="#181818" points="999.5,409.3828,1009.5,413.3828,999.5,417.3828,1003.5,413.3828" style="stroke:#181818;stroke-width:1.0;"/><line style="stroke:#181818;stroke-width:1.0;" x1="517" x2="1005.5" y1="413.3828" y2="413.3828"/><text fill="#000000" font-family="sans-serif" font-size="13" font-weight="bold" lengthAdjust="spacing" textLength="14" x="524" y="408.5264">10</text><text fill="#000000" font-family="sans-serif" font-size="13" lengthAdjust="spacing" textLength="75" x="542" y="408.5264">repositories()</text><rect fill="#E2E2F0" height="31.6094" rx="2.5" ry="2.5" style="stroke:#181818;stroke-width:0.5;" width="229" x="1011.5" y="391.0313"/><text fill="#000000" font-family="sans-serif" font-size="14" lengthAdjust="spacing" textLength="215" x="1018.5" y="412.5645">:PersistenceContext&lt;persistence&gt;</text><polygon fill="#181818" points="1238.5,451.9922,1248.5,455.9922,1238.5,459.9922,1242.5,455.9922" style="stroke:#181818;stroke-width:1.0;"/><line style="stroke:#181818;stroke-width:1.0;" x1="1131" x2="1244.5" y1="455.9922" y2="455.9922"/><text fill="#000000" font-family="sans-serif" font-size="13" font-weight="bold" lengthAdjust="spacing" textLength="14" x="1138" y="451.1357">11</text><text fill="#000000" font-family="sans-serif" font-size="13" lengthAdjust="spacing" textLength="36" x="1156" y="451.1357">create</text><rect fill="#E2E2F0" height="31.6094" rx="2.5" ry="2.5" style="stroke:#181818;stroke-width:0.5;" width="193" x="1250.5" y="433.6406"/><text fill="#000000" font-family="sans-serif" font-size="14" lengthAdjust="spacing" textLength="179" x="1257.5" y="455.1738">:RepositoryFactory&lt;factory&gt;</text><polygon fill="#181818" points="528,494.6016,518,498.6016,528,502.6016,524,498.6016" style="stroke:#181818;stroke-width:1.0;"/><line style="stroke:#181818;stroke-width:1.0;" x1="522" x2="1125" y1="498.6016" y2="498.6016"/><text fill="#000000" font-family="sans-serif" font-size="13" font-weight="bold" lengthAdjust="spacing" textLength="14" x="534" y="493.7451">12</text><text fill="#000000" font-family="sans-serif" font-size="13" lengthAdjust="spacing" textLength="39" x="552" y="493.7451">factory</text><polygon fill="#181818" points="1330,524.9531,1340,528.9531,1330,532.9531,1334,528.9531" style="stroke:#181818;stroke-width:1.0;"/><line style="stroke:#181818;stroke-width:1.0;" x1="517" x2="1336" y1="528.9531" y2="528.9531"/><text fill="#000000" font-family="sans-serif" font-size="13" font-weight="bold" lengthAdjust="spacing" textLength="14" x="524" y="524.0967">13</text><text fill="#000000" font-family="sans-serif" font-size="13" lengthAdjust="spacing" textLength="77" x="542" y="524.0967">warehouses()</text><polygon fill="#181818" points="1441.5,555.3047,1451.5,559.3047,1441.5,563.3047,1445.5,559.3047" style="stroke:#181818;stroke-width:1.0;"/><line style="stroke:#181818;stroke-width:1.0;" x1="1352" x2="1447.5" y1="559.3047" y2="559.3047"/><text fill="#000000" font-family="sans-serif" font-size="13" font-weight="bold" lengthAdjust="spacing" textLength="14" x="1359" y="554.4482">14</text><text fill="#000000" font-family="sans-serif" font-size="13" lengthAdjust="spacing" textLength="36" x="1377" y="554.4482">create</text><rect fill="#E2E2F0" height="31.6094" rx="2.5" ry="2.5" style="stroke:#181818;stroke-width:0.5;" width="159" x="1453.5" y="536.9531"/><text fill="#000000" font-family="sans-serif" font-size="14" lengthAdjust="spacing" textLength="145" x="1460.5" y="558.4863">:WarehouseRepository</text><polygon fill="#181818" points="528,597.9141,518,601.9141,528,605.9141,524,601.9141" style="stroke:#181818;stroke-width:1.0;"/><line style="stroke:#181818;stroke-width:1.0;" x1="522" x2="1346" y1="601.9141" y2="601.9141"/><text fill="#000000" font-family="sans-serif" font-size="13" font-weight="bold" lengthAdjust="spacing" textLength="14" x="534" y="597.0576">15</text><text fill="#000000" font-family="sans-serif" font-size="13" lengthAdjust="spacing" textLength="124" x="552" y="597.0576">warehouseRepository</text><polygon fill="#181818" points="1516,628.2656,1526,632.2656,1516,636.2656,1520,632.2656" style="stroke:#181818;stroke-width:1.0;"/><line style="stroke:#181818;stroke-width:1.0;" x1="517" x2="1522" y1="632.2656" y2="632.2656"/><text fill="#000000" font-family="sans-serif" font-size="13" font-weight="bold" lengthAdjust="spacing" textLength="14" x="524" y="627.4092">16</text><text fill="#000000" font-family="sans-serif" font-size="13" lengthAdjust="spacing" textLength="96" x="542" y="627.4092">save(warehouse)</text><polygon fill="#181818" points="292,658.6172,282,662.6172,292,666.6172,288,662.6172" style="stroke:#181818;stroke-width:1.0;"/><line style="stroke:#181818;stroke-width:1.0;" x1="286" x2="511" y1="662.6172" y2="662.6172"/><text fill="#000000" font-family="sans-serif" font-size="13" font-weight="bold" lengthAdjust="spacing" textLength="14" x="298" y="657.7607">17</text><text fill="#000000" font-family="sans-serif" font-size="13" lengthAdjust="spacing" textLength="184" x="316" y="657.7607">confirmation is show to the user</text><polygon fill="#181818" points="58,688.9688,48,692.9688,58,696.9688,54,692.9688" style="stroke:#181818;stroke-width:1.0;"/><line style="stroke:#181818;stroke-width:1.0;" x1="52" x2="275" y1="692.9688" y2="692.9688"/><text fill="#000000" font-family="sans-serif" font-size="13" font-weight="bold" lengthAdjust="spacing" textLength="14" x="64" y="688.1123">18</text><text fill="#000000" font-family="sans-serif" font-size="13" lengthAdjust="spacing" textLength="182" x="82" y="688.1123">presents the user with the plant</text><!--MD5=[91d5e437543f3fa96e187e711d69032b]
@startuml
autonumber
actor "SalesClerk" as SC

participant  "WarehouseUI <presentation>" as SYS
participant ":WarehouseController <application>" as CTRL
participant ":WarehouseBuilder<builder>" as CSB
participant ":Warehouse<Domain>" as CUS
participant ":PersistenceContext<persistence>" as PC
participant ":RepositoryFactory<factory>" as RF
participant ":WarehouseRepository" as CR




activate SC
activate SYS

SC-> SYS: Set up Warehouse Plant Option

SYS-> SC: asks the name of the file

SC-> SYS: introduces file name

SYS-> CTRL : buildWarehouse(filename)

activate CTRL
CTRL-> CSB **: create

activate CSB
CSB-> CSB: readJson(fileName)

CSB -> CUS : fromJson(fileName)
activate CUS

CUS -> CSB: warehouse
deactivate CUS

CSB -> CTRL: warehouse

deactivate CSB

CTRL-> PC**: repositories()
activate PC
PC-> RF**: create
PC-> CTRL: factory
deactivate PC

CTRL-> RF: warehouses()
activate RF
RF->CR**: create

RF->CTRL: warehouseRepository
deactivate RF
CTRL->CR: save(warehouse)

deactivate PC
activate CR

CTRL -> SYS: confirmation is show to the user
deactivate CR
deactivate CTRL

SYS-> SC: presents the user with the plant
deactivate SYS
@enduml

PlantUML version 1.2022.4(Sat Apr 09 15:29:17 CEST 2022)
(GPL source distribution)
Java Runtime: OpenJDK Runtime Environment
JVM: OpenJDK 64-Bit Server VM
Default Encoding: Cp1252
Language: pt
Country: PT
--></g></svg>