<?xml version="1.0" encoding="UTF-8" standalone="no"?><svg xmlns="http://www.w3.org/2000/svg" xmlns:xlink="http://www.w3.org/1999/xlink" contentStyleType="text/css" height="823px" preserveAspectRatio="none" style="width:1910px;height:823px;background:#FFFFFF;" version="1.1" viewBox="0 0 1910 823" width="1910px" zoomAndPan="magnify"><defs/><g><!--MD5=[60980612b141bad7eafb87f24579ed74]
class SpecifyNewProductUI--><g id="elem_SpecifyNewProductUI"><rect codeLine="2" fill="#F1F1F1" height="64.2969" id="SpecifyNewProductUI" rx="2.5" ry="2.5" style="stroke:#181818;stroke-width:0.5;" width="185" x="318" y="7"/><ellipse cx="333" cy="23" fill="#ADD1B2" rx="11" ry="11" style="stroke:#181818;stroke-width:1.0;"/><path d="M335.3438,18.6719 C334.4063,18.2344 333.8125,18.0938 332.9375,18.0938 C330.3125,18.0938 328.3125,20.1719 328.3125,22.8906 L328.3125,24.0156 C328.3125,26.5938 330.4219,28.4844 333.3125,28.4844 C334.5313,28.4844 335.6875,28.1875 336.4375,27.6406 C337.0156,27.2344 337.3438,26.7813 337.3438,26.3906 C337.3438,25.9375 336.9531,25.5469 336.4844,25.5469 C336.2656,25.5469 336.0625,25.625 335.875,25.8125 C335.4219,26.2969 335.4219,26.2969 335.2344,26.3906 C334.8125,26.6563 334.125,26.7813 333.3594,26.7813 C331.3125,26.7813 330.0156,25.6875 330.0156,23.9844 L330.0156,22.8906 C330.0156,21.1094 331.2656,19.7969 333,19.7969 C333.5781,19.7969 334.1875,19.9531 334.6563,20.2031 C335.1406,20.4844 335.3125,20.7031 335.4063,21.1094 C335.4688,21.5156 335.5,21.6406 335.6406,21.7656 C335.7813,21.9063 336.0156,22.0156 336.2344,22.0156 C336.5,22.0156 336.7656,21.875 336.9375,21.6563 C337.0469,21.5 337.0781,21.3125 337.0781,20.8906 L337.0781,19.4688 C337.0781,19.0313 337.0625,18.9063 336.9688,18.75 C336.8125,18.4844 336.5313,18.3438 336.2344,18.3438 C335.9375,18.3438 335.7344,18.4375 335.5156,18.75 L335.3438,18.6719 Z " fill="#000000"/><text fill="#000000" font-family="sans-serif" font-size="14" lengthAdjust="spacing" textLength="153" x="347" y="27.8467">SpecifyNewProductUI</text><line style="stroke:#181818;stroke-width:0.5;" x1="319" x2="502" y1="39" y2="39"/><line style="stroke:#181818;stroke-width:0.5;" x1="319" x2="502" y1="47" y2="47"/><text fill="#000000" font-family="sans-serif" font-size="14" lengthAdjust="spacing" textLength="77" x="324" y="63.9951">+doShow()</text></g><!--MD5=[72136138052d025cffdce3c22fbd185f]
class Product--><g id="elem_Product"><rect codeLine="7" fill="#F1F1F1" height="227.2656" id="Product" rx="2.5" ry="2.5" style="stroke:#181818;stroke-width:0.5;" width="370" x="811.5" y="290"/><ellipse cx="964.25" cy="306" fill="#ADD1B2" rx="11" ry="11" style="stroke:#181818;stroke-width:1.0;"/><path d="M966.5938,301.6719 C965.6563,301.2344 965.0625,301.0938 964.1875,301.0938 C961.5625,301.0938 959.5625,303.1719 959.5625,305.8906 L959.5625,307.0156 C959.5625,309.5938 961.6719,311.4844 964.5625,311.4844 C965.7813,311.4844 966.9375,311.1875 967.6875,310.6406 C968.2656,310.2344 968.5938,309.7813 968.5938,309.3906 C968.5938,308.9375 968.2031,308.5469 967.7344,308.5469 C967.5156,308.5469 967.3125,308.625 967.125,308.8125 C966.6719,309.2969 966.6719,309.2969 966.4844,309.3906 C966.0625,309.6563 965.375,309.7813 964.6094,309.7813 C962.5625,309.7813 961.2656,308.6875 961.2656,306.9844 L961.2656,305.8906 C961.2656,304.1094 962.5156,302.7969 964.25,302.7969 C964.8281,302.7969 965.4375,302.9531 965.9063,303.2031 C966.3906,303.4844 966.5625,303.7031 966.6563,304.1094 C966.7188,304.5156 966.75,304.6406 966.8906,304.7656 C967.0313,304.9063 967.2656,305.0156 967.4844,305.0156 C967.75,305.0156 968.0156,304.875 968.1875,304.6563 C968.2969,304.5 968.3281,304.3125 968.3281,303.8906 L968.3281,302.4688 C968.3281,302.0313 968.3125,301.9063 968.2188,301.75 C968.0625,301.4844 967.7813,301.3438 967.4844,301.3438 C967.1875,301.3438 966.9844,301.4375 966.7656,301.75 L966.5938,301.6719 Z " fill="#000000"/><text fill="#000000" font-family="sans-serif" font-size="14" lengthAdjust="spacing" textLength="56" x="984.75" y="310.8467">Product</text><line style="stroke:#181818;stroke-width:0.5;" x1="812.5" x2="1180.5" y1="322" y2="322"/><text fill="#000000" font-family="sans-serif" font-size="14" lengthAdjust="spacing" textLength="135" x="817.5" y="338.9951">Designation name;</text><text fill="#000000" font-family="sans-serif" font-size="14" lengthAdjust="spacing" textLength="139" x="817.5" y="355.292">Category category;</text><text fill="#000000" font-family="sans-serif" font-size="14" lengthAdjust="spacing" textLength="175" x="817.5" y="371.5889">Description description;</text><text fill="#000000" font-family="sans-serif" font-size="14" lengthAdjust="spacing" textLength="93" x="817.5" y="387.8857">Brand brand;</text><text fill="#000000" font-family="sans-serif" font-size="14" lengthAdjust="spacing" textLength="82" x="817.5" y="404.1826">Price price;</text><text fill="#000000" font-family="sans-serif" font-size="14" lengthAdjust="spacing" textLength="155" x="817.5" y="420.4795">Reference reference;</text><text fill="#000000" font-family="sans-serif" font-size="14" lengthAdjust="spacing" textLength="195" x="817.5" y="436.7764">InternalCode internalCode;</text><text fill="#000000" font-family="sans-serif" font-size="14" lengthAdjust="spacing" textLength="240" x="817.5" y="453.0732">ProductionCode productionCode;</text><text fill="#000000" font-family="sans-serif" font-size="14" lengthAdjust="spacing" textLength="127" x="817.5" y="469.3701">Barcode barcode;</text><line style="stroke:#181818;stroke-width:0.5;" x1="812.5" x2="1180.5" y1="476.6719" y2="476.6719"/><text fill="#000000" font-family="sans-serif" font-size="14" lengthAdjust="spacing" textLength="358" x="817.5" y="493.667">+product(category,name,description,brand,price,</text><text fill="#000000" font-family="sans-serif" font-size="14" lengthAdjust="spacing" textLength="355" x="817.5" y="509.9639">reference,internalCode,ProductionCode,barcode)</text></g><!--MD5=[8a78b94ac034f628eee9959bc26304be]
class Brand--><g id="elem_Brand"><rect codeLine="20" fill="#F1F1F1" height="80.5938" id="Brand" rx="2.5" ry="2.5" style="stroke:#181818;stroke-width:0.5;" width="158" x="562.5" y="363"/><ellipse cx="616.25" cy="379" fill="#ADD1B2" rx="11" ry="11" style="stroke:#181818;stroke-width:1.0;"/><path d="M618.5938,374.6719 C617.6563,374.2344 617.0625,374.0938 616.1875,374.0938 C613.5625,374.0938 611.5625,376.1719 611.5625,378.8906 L611.5625,380.0156 C611.5625,382.5938 613.6719,384.4844 616.5625,384.4844 C617.7813,384.4844 618.9375,384.1875 619.6875,383.6406 C620.2656,383.2344 620.5938,382.7813 620.5938,382.3906 C620.5938,381.9375 620.2031,381.5469 619.7344,381.5469 C619.5156,381.5469 619.3125,381.625 619.125,381.8125 C618.6719,382.2969 618.6719,382.2969 618.4844,382.3906 C618.0625,382.6563 617.375,382.7813 616.6094,382.7813 C614.5625,382.7813 613.2656,381.6875 613.2656,379.9844 L613.2656,378.8906 C613.2656,377.1094 614.5156,375.7969 616.25,375.7969 C616.8281,375.7969 617.4375,375.9531 617.9063,376.2031 C618.3906,376.4844 618.5625,376.7031 618.6563,377.1094 C618.7188,377.5156 618.75,377.6406 618.8906,377.7656 C619.0313,377.9063 619.2656,378.0156 619.4844,378.0156 C619.75,378.0156 620.0156,377.875 620.1875,377.6563 C620.2969,377.5 620.3281,377.3125 620.3281,376.8906 L620.3281,375.4688 C620.3281,375.0313 620.3125,374.9063 620.2188,374.75 C620.0625,374.4844 619.7813,374.3438 619.4844,374.3438 C619.1875,374.3438 618.9844,374.4375 618.7656,374.75 L618.5938,374.6719 Z " fill="#000000"/><text fill="#000000" font-family="sans-serif" font-size="14" lengthAdjust="spacing" textLength="42" x="636.75" y="383.8467">Brand</text><line style="stroke:#181818;stroke-width:0.5;" x1="563.5" x2="719.5" y1="395" y2="395"/><text fill="#000000" font-family="sans-serif" font-size="14" lengthAdjust="spacing" textLength="131" x="568.5" y="411.9951">String brandName</text><line style="stroke:#181818;stroke-width:0.5;" x1="563.5" x2="719.5" y1="419.2969" y2="419.2969"/><text fill="#000000" font-family="sans-serif" font-size="14" lengthAdjust="spacing" textLength="146" x="568.5" y="436.292">+brand(brandName)</text></g><!--MD5=[32a295458a1e740e755467c2873fc9bb]
class ProductDescription--><g id="elem_ProductDescription"><rect codeLine="25" fill="#F1F1F1" height="129.4844" id="ProductDescription" rx="2.5" ry="2.5" style="stroke:#181818;stroke-width:0.5;" width="328" x="1272.5" y="339"/><ellipse cx="1362.25" cy="355" fill="#ADD1B2" rx="11" ry="11" style="stroke:#181818;stroke-width:1.0;"/><path d="M1364.5938,350.6719 C1363.6563,350.2344 1363.0625,350.0938 1362.1875,350.0938 C1359.5625,350.0938 1357.5625,352.1719 1357.5625,354.8906 L1357.5625,356.0156 C1357.5625,358.5938 1359.6719,360.4844 1362.5625,360.4844 C1363.7813,360.4844 1364.9375,360.1875 1365.6875,359.6406 C1366.2656,359.2344 1366.5938,358.7813 1366.5938,358.3906 C1366.5938,357.9375 1366.2031,357.5469 1365.7344,357.5469 C1365.5156,357.5469 1365.3125,357.625 1365.125,357.8125 C1364.6719,358.2969 1364.6719,358.2969 1364.4844,358.3906 C1364.0625,358.6563 1363.375,358.7813 1362.6094,358.7813 C1360.5625,358.7813 1359.2656,357.6875 1359.2656,355.9844 L1359.2656,354.8906 C1359.2656,353.1094 1360.5156,351.7969 1362.25,351.7969 C1362.8281,351.7969 1363.4375,351.9531 1363.9063,352.2031 C1364.3906,352.4844 1364.5625,352.7031 1364.6563,353.1094 C1364.7188,353.5156 1364.75,353.6406 1364.8906,353.7656 C1365.0313,353.9063 1365.2656,354.0156 1365.4844,354.0156 C1365.75,354.0156 1366.0156,353.875 1366.1875,353.6563 C1366.2969,353.5 1366.3281,353.3125 1366.3281,352.8906 L1366.3281,351.4688 C1366.3281,351.0313 1366.3125,350.9063 1366.2188,350.75 C1366.0625,350.4844 1365.7813,350.3438 1365.4844,350.3438 C1365.1875,350.3438 1364.9844,350.4375 1364.7656,350.75 L1364.5938,350.6719 Z " fill="#000000"/><text fill="#000000" font-family="sans-serif" font-size="14" lengthAdjust="spacing" textLength="140" x="1382.75" y="359.8467">ProductDescription</text><line style="stroke:#181818;stroke-width:0.5;" x1="1273.5" x2="1599.5" y1="371" y2="371"/><text fill="#000000" font-family="sans-serif" font-size="14" lengthAdjust="spacing" textLength="175" x="1278.5" y="387.9951">String shortDescription;</text><text fill="#000000" font-family="sans-serif" font-size="14" lengthAdjust="spacing" textLength="206" x="1278.5" y="404.292">String extendedDescription;</text><text fill="#000000" font-family="sans-serif" font-size="14" lengthAdjust="spacing" textLength="203" x="1278.5" y="420.5889">String technicalDescription;</text><line style="stroke:#181818;stroke-width:0.5;" x1="1273.5" x2="1599.5" y1="427.8906" y2="427.8906"/><text fill="#000000" font-family="sans-serif" font-size="14" lengthAdjust="spacing" textLength="283" x="1278.5" y="444.8857">+productDescription(shortDescription,</text><text fill="#000000" font-family="sans-serif" font-size="14" lengthAdjust="spacing" textLength="312" x="1282.5" y="461.1826">extendedDescription,technicalDescription)</text></g><!--MD5=[f08eadd80edf125a26d903aaabdc00ef]
class ProductionCode--><g id="elem_ProductionCode"><rect codeLine="31" fill="#F1F1F1" height="80.5938" id="ProductionCode" rx="2.5" ry="2.5" style="stroke:#181818;stroke-width:0.5;" width="184" x="1035.5" y="132"/><ellipse cx="1067.15" cy="148" fill="#ADD1B2" rx="11" ry="11" style="stroke:#181818;stroke-width:1.0;"/><path d="M1069.4938,143.6719 C1068.5563,143.2344 1067.9625,143.0938 1067.0875,143.0938 C1064.4625,143.0938 1062.4625,145.1719 1062.4625,147.8906 L1062.4625,149.0156 C1062.4625,151.5938 1064.5719,153.4844 1067.4625,153.4844 C1068.6813,153.4844 1069.8375,153.1875 1070.5875,152.6406 C1071.1656,152.2344 1071.4938,151.7813 1071.4938,151.3906 C1071.4938,150.9375 1071.1031,150.5469 1070.6344,150.5469 C1070.4156,150.5469 1070.2125,150.625 1070.025,150.8125 C1069.5719,151.2969 1069.5719,151.2969 1069.3844,151.3906 C1068.9625,151.6563 1068.275,151.7813 1067.5094,151.7813 C1065.4625,151.7813 1064.1656,150.6875 1064.1656,148.9844 L1064.1656,147.8906 C1064.1656,146.1094 1065.4156,144.7969 1067.15,144.7969 C1067.7281,144.7969 1068.3375,144.9531 1068.8063,145.2031 C1069.2906,145.4844 1069.4625,145.7031 1069.5563,146.1094 C1069.6188,146.5156 1069.65,146.6406 1069.7906,146.7656 C1069.9313,146.9063 1070.1656,147.0156 1070.3844,147.0156 C1070.65,147.0156 1070.9156,146.875 1071.0875,146.6563 C1071.1969,146.5 1071.2281,146.3125 1071.2281,145.8906 L1071.2281,144.4688 C1071.2281,144.0313 1071.2125,143.9063 1071.1188,143.75 C1070.9625,143.4844 1070.6813,143.3438 1070.3844,143.3438 C1070.0875,143.3438 1069.8844,143.4375 1069.6656,143.75 L1069.4938,143.6719 Z " fill="#000000"/><text fill="#000000" font-family="sans-serif" font-size="14" lengthAdjust="spacing" textLength="115" x="1084.85" y="152.8467">ProductionCode</text><line style="stroke:#181818;stroke-width:0.5;" x1="1036.5" x2="1218.5" y1="164" y2="164"/><text fill="#000000" font-family="sans-serif" font-size="14" lengthAdjust="spacing" textLength="88" x="1041.5" y="180.9951">String code;</text><line style="stroke:#181818;stroke-width:0.5;" x1="1036.5" x2="1218.5" y1="188.2969" y2="188.2969"/><text fill="#000000" font-family="sans-serif" font-size="14" lengthAdjust="spacing" textLength="172" x="1041.5" y="205.292">+productionCode(code)</text></g><!--MD5=[b17673c2a8c0190a39afe62d0e87136e]
class InternalCode--><g id="elem_InternalCode"><rect codeLine="35" fill="#F1F1F1" height="80.5938" id="InternalCode" rx="2.5" ry="2.5" style="stroke:#181818;stroke-width:0.5;" width="166" x="711.5" y="594"/><ellipse cx="744.95" cy="610" fill="#ADD1B2" rx="11" ry="11" style="stroke:#181818;stroke-width:1.0;"/><path d="M747.2938,605.6719 C746.3563,605.2344 745.7625,605.0938 744.8875,605.0938 C742.2625,605.0938 740.2625,607.1719 740.2625,609.8906 L740.2625,611.0156 C740.2625,613.5938 742.3719,615.4844 745.2625,615.4844 C746.4813,615.4844 747.6375,615.1875 748.3875,614.6406 C748.9656,614.2344 749.2938,613.7813 749.2938,613.3906 C749.2938,612.9375 748.9031,612.5469 748.4344,612.5469 C748.2156,612.5469 748.0125,612.625 747.825,612.8125 C747.3719,613.2969 747.3719,613.2969 747.1844,613.3906 C746.7625,613.6563 746.075,613.7813 745.3094,613.7813 C743.2625,613.7813 741.9656,612.6875 741.9656,610.9844 L741.9656,609.8906 C741.9656,608.1094 743.2156,606.7969 744.95,606.7969 C745.5281,606.7969 746.1375,606.9531 746.6063,607.2031 C747.0906,607.4844 747.2625,607.7031 747.3563,608.1094 C747.4188,608.5156 747.45,608.6406 747.5906,608.7656 C747.7313,608.9063 747.9656,609.0156 748.1844,609.0156 C748.45,609.0156 748.7156,608.875 748.8875,608.6563 C748.9969,608.5 749.0281,608.3125 749.0281,607.8906 L749.0281,606.4688 C749.0281,606.0313 749.0125,605.9063 748.9188,605.75 C748.7625,605.4844 748.4813,605.3438 748.1844,605.3438 C747.8875,605.3438 747.6844,605.4375 747.4656,605.75 L747.2938,605.6719 Z " fill="#000000"/><text fill="#000000" font-family="sans-serif" font-size="14" lengthAdjust="spacing" textLength="93" x="763.05" y="614.8467">InternalCode</text><line style="stroke:#181818;stroke-width:0.5;" x1="712.5" x2="876.5" y1="626" y2="626"/><text fill="#000000" font-family="sans-serif" font-size="14" lengthAdjust="spacing" textLength="88" x="717.5" y="642.9951">String code;</text><line style="stroke:#181818;stroke-width:0.5;" x1="712.5" x2="876.5" y1="650.2969" y2="650.2969"/><text fill="#000000" font-family="sans-serif" font-size="14" lengthAdjust="spacing" textLength="154" x="717.5" y="667.292">+internalCode(code);</text></g><!--MD5=[e59bda2572a266093cda22ac34510ea0]
class Barcode--><g id="elem_Barcode"><rect codeLine="39" fill="#F1F1F1" height="80.5938" id="Barcode" rx="2.5" ry="2.5" style="stroke:#181818;stroke-width:0.5;" width="151" x="849" y="132"/><ellipse cx="891" cy="148" fill="#ADD1B2" rx="11" ry="11" style="stroke:#181818;stroke-width:1.0;"/><path d="M893.3438,143.6719 C892.4063,143.2344 891.8125,143.0938 890.9375,143.0938 C888.3125,143.0938 886.3125,145.1719 886.3125,147.8906 L886.3125,149.0156 C886.3125,151.5938 888.4219,153.4844 891.3125,153.4844 C892.5313,153.4844 893.6875,153.1875 894.4375,152.6406 C895.0156,152.2344 895.3438,151.7813 895.3438,151.3906 C895.3438,150.9375 894.9531,150.5469 894.4844,150.5469 C894.2656,150.5469 894.0625,150.625 893.875,150.8125 C893.4219,151.2969 893.4219,151.2969 893.2344,151.3906 C892.8125,151.6563 892.125,151.7813 891.3594,151.7813 C889.3125,151.7813 888.0156,150.6875 888.0156,148.9844 L888.0156,147.8906 C888.0156,146.1094 889.2656,144.7969 891,144.7969 C891.5781,144.7969 892.1875,144.9531 892.6563,145.2031 C893.1406,145.4844 893.3125,145.7031 893.4063,146.1094 C893.4688,146.5156 893.5,146.6406 893.6406,146.7656 C893.7813,146.9063 894.0156,147.0156 894.2344,147.0156 C894.5,147.0156 894.7656,146.875 894.9375,146.6563 C895.0469,146.5 895.0781,146.3125 895.0781,145.8906 L895.0781,144.4688 C895.0781,144.0313 895.0625,143.9063 894.9688,143.75 C894.8125,143.4844 894.5313,143.3438 894.2344,143.3438 C893.9375,143.3438 893.7344,143.4375 893.5156,143.75 L893.3438,143.6719 Z " fill="#000000"/><text fill="#000000" font-family="sans-serif" font-size="14" lengthAdjust="spacing" textLength="59" x="911" y="152.8467">Barcode</text><line style="stroke:#181818;stroke-width:0.5;" x1="850" x2="999" y1="164" y2="164"/><text fill="#000000" font-family="sans-serif" font-size="14" lengthAdjust="spacing" textLength="112" x="855" y="180.9951">String barcode;</text><line style="stroke:#181818;stroke-width:0.5;" x1="850" x2="999" y1="188.2969" y2="188.2969"/><text fill="#000000" font-family="sans-serif" font-size="14" lengthAdjust="spacing" textLength="139" x="855" y="205.292">+barcode(barcode)</text></g><!--MD5=[3a7cf800944e5f3d9e9c59d889c61f3b]
class Reference--><g id="elem_Reference"><rect codeLine="43" fill="#F1F1F1" height="80.5938" id="Reference" rx="2.5" ry="2.5" style="stroke:#181818;stroke-width:0.5;" width="175" x="1255" y="132"/><ellipse cx="1300.75" cy="148" fill="#ADD1B2" rx="11" ry="11" style="stroke:#181818;stroke-width:1.0;"/><path d="M1303.0938,143.6719 C1302.1563,143.2344 1301.5625,143.0938 1300.6875,143.0938 C1298.0625,143.0938 1296.0625,145.1719 1296.0625,147.8906 L1296.0625,149.0156 C1296.0625,151.5938 1298.1719,153.4844 1301.0625,153.4844 C1302.2813,153.4844 1303.4375,153.1875 1304.1875,152.6406 C1304.7656,152.2344 1305.0938,151.7813 1305.0938,151.3906 C1305.0938,150.9375 1304.7031,150.5469 1304.2344,150.5469 C1304.0156,150.5469 1303.8125,150.625 1303.625,150.8125 C1303.1719,151.2969 1303.1719,151.2969 1302.9844,151.3906 C1302.5625,151.6563 1301.875,151.7813 1301.1094,151.7813 C1299.0625,151.7813 1297.7656,150.6875 1297.7656,148.9844 L1297.7656,147.8906 C1297.7656,146.1094 1299.0156,144.7969 1300.75,144.7969 C1301.3281,144.7969 1301.9375,144.9531 1302.4063,145.2031 C1302.8906,145.4844 1303.0625,145.7031 1303.1563,146.1094 C1303.2188,146.5156 1303.25,146.6406 1303.3906,146.7656 C1303.5313,146.9063 1303.7656,147.0156 1303.9844,147.0156 C1304.25,147.0156 1304.5156,146.875 1304.6875,146.6563 C1304.7969,146.5 1304.8281,146.3125 1304.8281,145.8906 L1304.8281,144.4688 C1304.8281,144.0313 1304.8125,143.9063 1304.7188,143.75 C1304.5625,143.4844 1304.2813,143.3438 1303.9844,143.3438 C1303.6875,143.3438 1303.4844,143.4375 1303.2656,143.75 L1303.0938,143.6719 Z " fill="#000000"/><text fill="#000000" font-family="sans-serif" font-size="14" lengthAdjust="spacing" textLength="75" x="1321.25" y="152.8467">Reference</text><line style="stroke:#181818;stroke-width:0.5;" x1="1256" x2="1429" y1="164" y2="164"/><text fill="#000000" font-family="sans-serif" font-size="14" lengthAdjust="spacing" textLength="124" x="1261" y="180.9951">String reference;</text><line style="stroke:#181818;stroke-width:0.5;" x1="1256" x2="1429" y1="188.2969" y2="188.2969"/><text fill="#000000" font-family="sans-serif" font-size="14" lengthAdjust="spacing" textLength="163" x="1261" y="205.292">+reference(reference)</text></g><!--MD5=[a96594a83e2ecdc78cbf17c2ddf01934]
class Category--><g id="elem_Category"><rect codeLine="47" fill="#F1F1F1" height="113.1875" id="Category" rx="2.5" ry="2.5" style="stroke:#181818;stroke-width:0.5;" width="267" x="1636" y="347"/><ellipse cx="1732.25" cy="363" fill="#ADD1B2" rx="11" ry="11" style="stroke:#181818;stroke-width:1.0;"/><path d="M1734.5938,358.6719 C1733.6563,358.2344 1733.0625,358.0938 1732.1875,358.0938 C1729.5625,358.0938 1727.5625,360.1719 1727.5625,362.8906 L1727.5625,364.0156 C1727.5625,366.5938 1729.6719,368.4844 1732.5625,368.4844 C1733.7813,368.4844 1734.9375,368.1875 1735.6875,367.6406 C1736.2656,367.2344 1736.5938,366.7813 1736.5938,366.3906 C1736.5938,365.9375 1736.2031,365.5469 1735.7344,365.5469 C1735.5156,365.5469 1735.3125,365.625 1735.125,365.8125 C1734.6719,366.2969 1734.6719,366.2969 1734.4844,366.3906 C1734.0625,366.6563 1733.375,366.7813 1732.6094,366.7813 C1730.5625,366.7813 1729.2656,365.6875 1729.2656,363.9844 L1729.2656,362.8906 C1729.2656,361.1094 1730.5156,359.7969 1732.25,359.7969 C1732.8281,359.7969 1733.4375,359.9531 1733.9063,360.2031 C1734.3906,360.4844 1734.5625,360.7031 1734.6563,361.1094 C1734.7188,361.5156 1734.75,361.6406 1734.8906,361.7656 C1735.0313,361.9063 1735.2656,362.0156 1735.4844,362.0156 C1735.75,362.0156 1736.0156,361.875 1736.1875,361.6563 C1736.2969,361.5 1736.3281,361.3125 1736.3281,360.8906 L1736.3281,359.4688 C1736.3281,359.0313 1736.3125,358.9063 1736.2188,358.75 C1736.0625,358.4844 1735.7813,358.3438 1735.4844,358.3438 C1735.1875,358.3438 1734.9844,358.4375 1734.7656,358.75 L1734.5938,358.6719 Z " fill="#000000"/><text fill="#000000" font-family="sans-serif" font-size="14" lengthAdjust="spacing" textLength="66" x="1752.75" y="367.8467">Category</text><line style="stroke:#181818;stroke-width:0.5;" x1="1637" x2="1902" y1="379" y2="379"/><text fill="#000000" font-family="sans-serif" font-size="14" lengthAdjust="spacing" textLength="180" x="1642" y="395.9951">AlphanumericCode code;</text><text fill="#000000" font-family="sans-serif" font-size="14" lengthAdjust="spacing" textLength="135" x="1642" y="412.292">Designation name;</text><text fill="#000000" font-family="sans-serif" font-size="14" lengthAdjust="spacing" textLength="175" x="1642" y="428.5889">Description description;</text><line style="stroke:#181818;stroke-width:0.5;" x1="1637" x2="1902" y1="435.8906" y2="435.8906"/><text fill="#000000" font-family="sans-serif" font-size="14" lengthAdjust="spacing" textLength="255" x="1642" y="452.8857">+category(code,name,description);</text></g><!--MD5=[ab63ddbbe11f7d2a0302e90075dc46cf]
class SpecifyNewProductController--><g id="elem_SpecifyNewProductController"><rect codeLine="54" fill="#F1F1F1" height="80.5938" id="SpecifyNewProductController" rx="2.5" ry="2.5" style="stroke:#181818;stroke-width:0.5;" width="807" x="7" y="132"/><ellipse cx="299.75" cy="148" fill="#ADD1B2" rx="11" ry="11" style="stroke:#181818;stroke-width:1.0;"/><path d="M302.0938,143.6719 C301.1563,143.2344 300.5625,143.0938 299.6875,143.0938 C297.0625,143.0938 295.0625,145.1719 295.0625,147.8906 L295.0625,149.0156 C295.0625,151.5938 297.1719,153.4844 300.0625,153.4844 C301.2813,153.4844 302.4375,153.1875 303.1875,152.6406 C303.7656,152.2344 304.0938,151.7813 304.0938,151.3906 C304.0938,150.9375 303.7031,150.5469 303.2344,150.5469 C303.0156,150.5469 302.8125,150.625 302.625,150.8125 C302.1719,151.2969 302.1719,151.2969 301.9844,151.3906 C301.5625,151.6563 300.875,151.7813 300.1094,151.7813 C298.0625,151.7813 296.7656,150.6875 296.7656,148.9844 L296.7656,147.8906 C296.7656,146.1094 298.0156,144.7969 299.75,144.7969 C300.3281,144.7969 300.9375,144.9531 301.4063,145.2031 C301.8906,145.4844 302.0625,145.7031 302.1563,146.1094 C302.2188,146.5156 302.25,146.6406 302.3906,146.7656 C302.5313,146.9063 302.7656,147.0156 302.9844,147.0156 C303.25,147.0156 303.5156,146.875 303.6875,146.6563 C303.7969,146.5 303.8281,146.3125 303.8281,145.8906 L303.8281,144.4688 C303.8281,144.0313 303.8125,143.9063 303.7188,143.75 C303.5625,143.4844 303.2813,143.3438 302.9844,143.3438 C302.6875,143.3438 302.4844,143.4375 302.2656,143.75 L302.0938,143.6719 Z " fill="#000000"/><text fill="#000000" font-family="sans-serif" font-size="14" lengthAdjust="spacing" textLength="213" x="320.25" y="152.8467">SpecifyNewProductController</text><line style="stroke:#181818;stroke-width:0.5;" x1="8" x2="813" y1="164" y2="164"/><line style="stroke:#181818;stroke-width:0.5;" x1="8" x2="813" y1="172" y2="172"/><text fill="#000000" font-family="sans-serif" font-size="14" lengthAdjust="spacing" textLength="97" x="13" y="188.9951">+categories()</text><text fill="#000000" font-family="sans-serif" font-size="14" lengthAdjust="spacing" textLength="795" x="13" y="205.292">+specifyNewProduct(category,name,description,brand,price,reference,internalCode,productionCode,barcode)</text></g><!--MD5=[e8c189551b7885b999ad7cefb30fc2a3]
class PersistenceContext--><g id="elem_PersistenceContext"><rect codeLine="59" fill="#F1F1F1" height="96.8906" id="PersistenceContext" rx="2.5" ry="2.5" style="stroke:#181818;stroke-width:0.5;" width="234" x="293.5" y="355"/><ellipse cx="335.05" cy="371" fill="#ADD1B2" rx="11" ry="11" style="stroke:#181818;stroke-width:1.0;"/><path d="M337.3938,366.6719 C336.4563,366.2344 335.8625,366.0938 334.9875,366.0938 C332.3625,366.0938 330.3625,368.1719 330.3625,370.8906 L330.3625,372.0156 C330.3625,374.5938 332.4719,376.4844 335.3625,376.4844 C336.5813,376.4844 337.7375,376.1875 338.4875,375.6406 C339.0656,375.2344 339.3938,374.7813 339.3938,374.3906 C339.3938,373.9375 339.0031,373.5469 338.5344,373.5469 C338.3156,373.5469 338.1125,373.625 337.925,373.8125 C337.4719,374.2969 337.4719,374.2969 337.2844,374.3906 C336.8625,374.6563 336.175,374.7813 335.4094,374.7813 C333.3625,374.7813 332.0656,373.6875 332.0656,371.9844 L332.0656,370.8906 C332.0656,369.1094 333.3156,367.7969 335.05,367.7969 C335.6281,367.7969 336.2375,367.9531 336.7063,368.2031 C337.1906,368.4844 337.3625,368.7031 337.4563,369.1094 C337.5188,369.5156 337.55,369.6406 337.6906,369.7656 C337.8313,369.9063 338.0656,370.0156 338.2844,370.0156 C338.55,370.0156 338.8156,369.875 338.9875,369.6563 C339.0969,369.5 339.1281,369.3125 339.1281,368.8906 L339.1281,367.4688 C339.1281,367.0313 339.1125,366.9063 339.0188,366.75 C338.8625,366.4844 338.5813,366.3438 338.2844,366.3438 C337.9875,366.3438 337.7844,366.4375 337.5656,366.75 L337.3938,366.6719 Z " fill="#000000"/><text fill="#000000" font-family="sans-serif" font-size="14" lengthAdjust="spacing" textLength="143" x="354.95" y="375.8467">PersistenceContext</text><line style="stroke:#181818;stroke-width:0.5;" x1="294.5" x2="526.5" y1="387" y2="387"/><text fill="#000000" font-family="sans-serif" font-size="14" lengthAdjust="spacing" textLength="120" x="299.5" y="403.9951">-Logger LOGGER</text><text fill="#000000" font-family="sans-serif" font-size="14" lengthAdjust="spacing" textLength="222" x="299.5" y="420.292">-RepositoryFactory theFactory</text><line style="stroke:#181818;stroke-width:0.5;" x1="294.5" x2="526.5" y1="427.5938" y2="427.5938"/><text fill="#000000" font-family="sans-serif" font-size="14" lengthAdjust="spacing" textLength="108" x="299.5" y="444.5889">+repositories()</text></g><!--MD5=[48590afff58a68e2fcba47824d6f8a11]
class RepositoryFactory--><g id="elem_RepositoryFactory"><rect codeLine="65" fill="#F1F1F1" height="80.5938" id="RepositoryFactory" rx="2.5" ry="2.5" style="stroke:#181818;stroke-width:0.5;" width="165" x="511" y="594"/><ellipse cx="526" cy="610" fill="#ADD1B2" rx="11" ry="11" style="stroke:#181818;stroke-width:1.0;"/><path d="M528.3438,605.6719 C527.4063,605.2344 526.8125,605.0938 525.9375,605.0938 C523.3125,605.0938 521.3125,607.1719 521.3125,609.8906 L521.3125,611.0156 C521.3125,613.5938 523.4219,615.4844 526.3125,615.4844 C527.5313,615.4844 528.6875,615.1875 529.4375,614.6406 C530.0156,614.2344 530.3438,613.7813 530.3438,613.3906 C530.3438,612.9375 529.9531,612.5469 529.4844,612.5469 C529.2656,612.5469 529.0625,612.625 528.875,612.8125 C528.4219,613.2969 528.4219,613.2969 528.2344,613.3906 C527.8125,613.6563 527.125,613.7813 526.3594,613.7813 C524.3125,613.7813 523.0156,612.6875 523.0156,610.9844 L523.0156,609.8906 C523.0156,608.1094 524.2656,606.7969 526,606.7969 C526.5781,606.7969 527.1875,606.9531 527.6563,607.2031 C528.1406,607.4844 528.3125,607.7031 528.4063,608.1094 C528.4688,608.5156 528.5,608.6406 528.6406,608.7656 C528.7813,608.9063 529.0156,609.0156 529.2344,609.0156 C529.5,609.0156 529.7656,608.875 529.9375,608.6563 C530.0469,608.5 530.0781,608.3125 530.0781,607.8906 L530.0781,606.4688 C530.0781,606.0313 530.0625,605.9063 529.9688,605.75 C529.8125,605.4844 529.5313,605.3438 529.2344,605.3438 C528.9375,605.3438 528.7344,605.4375 528.5156,605.75 L528.3438,605.6719 Z " fill="#000000"/><text fill="#000000" font-family="sans-serif" font-size="14" lengthAdjust="spacing" textLength="133" x="540" y="614.8467">RepositoryFactory</text><line style="stroke:#181818;stroke-width:0.5;" x1="512" x2="675" y1="626" y2="626"/><line style="stroke:#181818;stroke-width:0.5;" x1="512" x2="675" y1="634" y2="634"/><text fill="#000000" font-family="sans-serif" font-size="14" lengthAdjust="spacing" textLength="97" x="517" y="650.9951">+categories()</text><text fill="#000000" font-family="sans-serif" font-size="14" lengthAdjust="spacing" textLength="85" x="517" y="667.292">+products()</text></g><!--MD5=[f9761e4ec0e5a044b983a0fb01ce84a9]
class ProductRepository--><g id="elem_ProductRepository"><rect codeLine="70" fill="#F1F1F1" height="48" id="ProductRepository" rx="2.5" ry="2.5" style="stroke:#181818;stroke-width:0.5;" width="167" x="913" y="610.5"/><ellipse cx="928" cy="626.5" fill="#ADD1B2" rx="11" ry="11" style="stroke:#181818;stroke-width:1.0;"/><path d="M930.3438,622.1719 C929.4063,621.7344 928.8125,621.5938 927.9375,621.5938 C925.3125,621.5938 923.3125,623.6719 923.3125,626.3906 L923.3125,627.5156 C923.3125,630.0938 925.4219,631.9844 928.3125,631.9844 C929.5313,631.9844 930.6875,631.6875 931.4375,631.1406 C932.0156,630.7344 932.3438,630.2813 932.3438,629.8906 C932.3438,629.4375 931.9531,629.0469 931.4844,629.0469 C931.2656,629.0469 931.0625,629.125 930.875,629.3125 C930.4219,629.7969 930.4219,629.7969 930.2344,629.8906 C929.8125,630.1563 929.125,630.2813 928.3594,630.2813 C926.3125,630.2813 925.0156,629.1875 925.0156,627.4844 L925.0156,626.3906 C925.0156,624.6094 926.2656,623.2969 928,623.2969 C928.5781,623.2969 929.1875,623.4531 929.6563,623.7031 C930.1406,623.9844 930.3125,624.2031 930.4063,624.6094 C930.4688,625.0156 930.5,625.1406 930.6406,625.2656 C930.7813,625.4063 931.0156,625.5156 931.2344,625.5156 C931.5,625.5156 931.7656,625.375 931.9375,625.1563 C932.0469,625 932.0781,624.8125 932.0781,624.3906 L932.0781,622.9688 C932.0781,622.5313 932.0625,622.4063 931.9688,622.25 C931.8125,621.9844 931.5313,621.8438 931.2344,621.8438 C930.9375,621.8438 930.7344,621.9375 930.5156,622.25 L930.3438,622.1719 Z " fill="#000000"/><text fill="#000000" font-family="sans-serif" font-size="14" lengthAdjust="spacing" textLength="135" x="942" y="631.3467">ProductRepository</text><line style="stroke:#181818;stroke-width:0.5;" x1="914" x2="1079" y1="642.5" y2="642.5"/><line style="stroke:#181818;stroke-width:0.5;" x1="914" x2="1079" y1="650.5" y2="650.5"/></g><!--MD5=[b3c2230271250b561f28a9e8cd979a92]
class CategoryRepository--><g id="elem_CategoryRepository"><rect codeLine="73" fill="#F1F1F1" height="64.2969" id="CategoryRepository" rx="2.5" ry="2.5" style="stroke:#181818;stroke-width:0.5;" width="177" x="505" y="752"/><ellipse cx="520" cy="768" fill="#ADD1B2" rx="11" ry="11" style="stroke:#181818;stroke-width:1.0;"/><path d="M522.3438,763.6719 C521.4063,763.2344 520.8125,763.0938 519.9375,763.0938 C517.3125,763.0938 515.3125,765.1719 515.3125,767.8906 L515.3125,769.0156 C515.3125,771.5938 517.4219,773.4844 520.3125,773.4844 C521.5313,773.4844 522.6875,773.1875 523.4375,772.6406 C524.0156,772.2344 524.3438,771.7813 524.3438,771.3906 C524.3438,770.9375 523.9531,770.5469 523.4844,770.5469 C523.2656,770.5469 523.0625,770.625 522.875,770.8125 C522.4219,771.2969 522.4219,771.2969 522.2344,771.3906 C521.8125,771.6563 521.125,771.7813 520.3594,771.7813 C518.3125,771.7813 517.0156,770.6875 517.0156,768.9844 L517.0156,767.8906 C517.0156,766.1094 518.2656,764.7969 520,764.7969 C520.5781,764.7969 521.1875,764.9531 521.6563,765.2031 C522.1406,765.4844 522.3125,765.7031 522.4063,766.1094 C522.4688,766.5156 522.5,766.6406 522.6406,766.7656 C522.7813,766.9063 523.0156,767.0156 523.2344,767.0156 C523.5,767.0156 523.7656,766.875 523.9375,766.6563 C524.0469,766.5 524.0781,766.3125 524.0781,765.8906 L524.0781,764.4688 C524.0781,764.0313 524.0625,763.9063 523.9688,763.75 C523.8125,763.4844 523.5313,763.3438 523.2344,763.3438 C522.9375,763.3438 522.7344,763.4375 522.5156,763.75 L522.3438,763.6719 Z " fill="#000000"/><text fill="#000000" font-family="sans-serif" font-size="14" lengthAdjust="spacing" textLength="145" x="534" y="772.8467">CategoryRepository</text><line style="stroke:#181818;stroke-width:0.5;" x1="506" x2="681" y1="784" y2="784"/><line style="stroke:#181818;stroke-width:0.5;" x1="506" x2="681" y1="792" y2="792"/><text fill="#000000" font-family="sans-serif" font-size="14" lengthAdjust="spacing" textLength="72" x="511" y="808.9951">+findAll();</text></g><!--MD5=[20ba0d3f866826d0cd8ac1f3585cc6dd]
link SpecifyNewProductUI to SpecifyNewProductController--><g id="link_SpecifyNewProductUI_SpecifyNewProductController"><path codeLine="76" d="M410.5,71.164 C410.5,87.686 410.5,108.283 410.5,126.508 " fill="none" id="SpecifyNewProductUI-to-SpecifyNewProductController" style="stroke:#181818;stroke-width:1.0;stroke-dasharray:7.0,7.0;"/><polygon fill="#181818" points="410.5,131.58,414.5,122.58,410.5,126.58,406.5,122.58,410.5,131.58" style="stroke:#181818;stroke-width:1.0;"/></g><!--MD5=[a2733a88dca69d52558a267b01fb238e]
link SpecifyNewProductController to PersistenceContext--><g id="link_SpecifyNewProductController_PersistenceContext"><path codeLine="77" d="M410.5,213.127 C410.5,250.815 410.5,307.776 410.5,349.383 " fill="none" id="SpecifyNewProductController-to-PersistenceContext" style="stroke:#181818;stroke-width:1.0;"/><polygon fill="#181818" points="410.5,354.635,414.5,345.635,410.5,349.635,406.5,345.635,410.5,354.635" style="stroke:#181818;stroke-width:1.0;"/><text fill="#000000" font-family="sans-serif" font-size="13" lengthAdjust="spacing" textLength="48" x="411.5" y="256.0669">creates</text></g><!--MD5=[754b775031405e096442b27febffa290]
link PersistenceContext to RepositoryFactory--><g id="link_PersistenceContext_RepositoryFactory"><path codeLine="78" d="M448.64,452.227 C480.982,492.698 526.995,550.277 558.43,589.614 " fill="none" id="PersistenceContext-to-RepositoryFactory" style="stroke:#181818;stroke-width:1.0;"/><polygon fill="#181818" points="561.807,593.84,559.3129,584.3122,558.6854,589.9341,553.0635,589.3067,561.807,593.84" style="stroke:#181818;stroke-width:1.0;"/><text fill="#000000" font-family="sans-serif" font-size="13" lengthAdjust="spacing" textLength="48" x="535.5" y="560.0669">creates</text></g><!--MD5=[982d16d4d7400e6c46bfc612526ecb29]
link RepositoryFactory to CategoryRepository--><g id="link_RepositoryFactory_CategoryRepository"><path codeLine="79" d="M593.5,675.027 C593.5,697.306 593.5,724.9374 593.5,746.6707 " fill="none" id="RepositoryFactory-to-CategoryRepository" style="stroke:#181818;stroke-width:1.0;"/><polygon fill="#181818" points="593.5,751.7782,597.5,742.7782,593.5,746.7782,589.5,742.7782,593.5,751.7782" style="stroke:#181818;stroke-width:1.0;"/><text fill="#000000" font-family="sans-serif" font-size="13" lengthAdjust="spacing" textLength="48" x="594.5" y="718.0669">creates</text></g><!--MD5=[a107a52b6e2b3fb29ad79d2f6a7df605]
link RepositoryFactory to ProductRepository--><g id="link_RepositoryFactory_ProductRepository"><path codeLine="80" d="M633.823,593.626 C649.767,580.216 669.142,566.973 689.5,560 C780.524,528.824 890.962,575.361 951.462,607.742 " fill="none" id="RepositoryFactory-to-ProductRepository" style="stroke:#181818;stroke-width:1.0;"/><polygon fill="#181818" points="956.087,610.243,950.0711,602.445,951.6883,607.8658,946.2675,609.483,956.087,610.243" style="stroke:#181818;stroke-width:1.0;"/><text fill="#000000" font-family="sans-serif" font-size="13" lengthAdjust="spacing" textLength="48" x="690.5" y="560.0669">creates</text></g><!--MD5=[4dd9c7566709ee17763f23c0c4fc2fc4]
link SpecifyNewProductController to Product--><g id="link_SpecifyNewProductController_Product"><path codeLine="81" d="M527.745,213.12 C590.37,234.822 668.551,262.779 737.5,290 C760.05,298.903 783.553,308.564 806.799,318.359 " fill="none" id="SpecifyNewProductController-to-Product" style="stroke:#181818;stroke-width:1.0;"/><polygon fill="#181818" points="811.445,320.319,804.7092,313.1337,806.8386,318.3744,801.5979,320.5039,811.445,320.319" style="stroke:#181818;stroke-width:1.0;"/><text fill="#000000" font-family="sans-serif" font-size="13" lengthAdjust="spacing" textLength="38" x="658.5" y="256.0669">saves</text></g><!--MD5=[7acf966bec3ed0aa4456ae5635bffb5e]
reverse link Brand to Product--><g id="link_Brand_Product"><path codeLine="82" d="M725.855,403.5 C751.746,403.5 781.326,403.5 811.201,403.5 " fill="none" id="Brand-backto-Product" style="stroke:#181818;stroke-width:1.0;"/><polygon fill="#181818" points="720.727,403.5,729.727,407.5,725.727,403.5,729.727,399.5,720.727,403.5" style="stroke:#181818;stroke-width:1.0;"/><text fill="#000000" font-family="sans-serif" font-size="13" lengthAdjust="spacing" textLength="54" x="739" y="396.5669">contains</text></g><!--MD5=[a47705683c2509eac22e9e402f6ffb66]
link Product to ProductRepository--><g id="link_Product_ProductRepository"><path codeLine="83" d="M996.5,517.323 C996.5,549.933 996.5,582.724 996.5,605.113 " fill="none" id="Product-to-ProductRepository" style="stroke:#181818;stroke-width:1.0;"/><polygon fill="#181818" points="996.5,610.292,1000.5,601.292,996.5,605.292,992.5,601.292,996.5,610.292" style="stroke:#181818;stroke-width:1.0;"/><text fill="#000000" font-family="sans-serif" font-size="13" lengthAdjust="spacing" textLength="11" x="997.5" y="560.0669">in</text></g><!--MD5=[9dd5c5a7ca6b285502899db5087ef911]
reverse link ProductionCode to Product--><g id="link_ProductionCode_Product"><path codeLine="84" d="M1102.2,217.727 C1090.38,238.383 1075.72,264.016 1061.12,289.546 " fill="none" id="ProductionCode-backto-Product" style="stroke:#181818;stroke-width:1.0;"/><polygon fill="#181818" points="1104.83,213.127,1096.8905,218.9549,1102.3484,217.4677,1103.8356,222.9255,1104.83,213.127" style="stroke:#181818;stroke-width:1.0;"/><text fill="#000000" font-family="sans-serif" font-size="13" lengthAdjust="spacing" textLength="54" x="1086.5" y="256.0669">contains</text></g><!--MD5=[ff15b0f381cf9038de160e1ef28f954c]
reverse link Barcode to Product--><g id="link_Barcode_Product"><path codeLine="85" d="M938.487,217.987 C944.968,238.599 952.993,264.123 960.986,289.546 " fill="none" id="Barcode-backto-Product" style="stroke:#181818;stroke-width:1.0;"/><polygon fill="#181818" points="936.959,213.127,935.8439,222.9125,938.4593,217.8966,943.4753,220.512,936.959,213.127" style="stroke:#181818;stroke-width:1.0;"/><text fill="#000000" font-family="sans-serif" font-size="13" lengthAdjust="spacing" textLength="54" x="951.5" y="256.0669">contains</text></g><!--MD5=[993dd7c08c8e74f30a44ac59b63679f5]
reverse link Reference to Product--><g id="link_Reference_Product"><path codeLine="86" d="M1278.4,215.925 C1246.64,236.948 1206.62,263.433 1166.79,289.792 " fill="none" id="Reference-backto-Product" style="stroke:#181818;stroke-width:1.0;"/><polygon fill="#181818" points="1282.63,213.127,1272.9167,214.7557,1278.4597,215.8853,1277.33,221.4282,1282.63,213.127" style="stroke:#181818;stroke-width:1.0;"/><text fill="#000000" font-family="sans-serif" font-size="13" lengthAdjust="spacing" textLength="54" x="1232.5" y="256.0669">contains</text></g><!--MD5=[41043388d0f8d1cf0966079386e80353]
link Product to Category--><g id="link_Product_Category"><path codeLine="87" d="M1181.71,313.493 C1205.78,304.339 1230.44,296.16 1254.5,290 C1374.35,259.31 1409.24,252.633 1532,268 C1571.36,272.927 1582.73,272.86 1618.5,290 C1647.84,304.056 1677.11,324.26 1701.96,343.737 " fill="none" id="Product-to-Category" style="stroke:#181818;stroke-width:1.0;"/><polygon fill="#181818" points="1705.91,346.856,1701.3076,338.1486,1701.9796,343.7654,1696.3627,344.4373,1705.91,346.856" style="stroke:#181818;stroke-width:1.0;"/><text fill="#000000" font-family="sans-serif" font-size="13" lengthAdjust="spacing" textLength="23" x="1508" y="256.0669">has</text></g><!--MD5=[89ad5ffdac7ae85fdaeeb304886b7c4c]
link Product to ProductDescription--><g id="link_Product_ProductDescription"><path codeLine="88" d="M1181.51,403.5 C1209.94,403.5 1239.17,403.5 1267.23,403.5 " fill="none" id="Product-to-ProductDescription" style="stroke:#181818;stroke-width:1.0;"/><polygon fill="#181818" points="1272.46,403.5,1263.46,399.5,1267.46,403.5,1263.46,407.5,1272.46,403.5" style="stroke:#181818;stroke-width:1.0;"/><text fill="#000000" font-family="sans-serif" font-size="13" lengthAdjust="spacing" textLength="54" x="1200" y="396.5669">contains</text></g><!--MD5=[0821e12892cf20577cca50dd9d3655ef]
link Product to InternalCode--><g id="link_Product_InternalCode"><path codeLine="89" d="M896.979,517.323 C874.104,543.256 851.128,569.303 832.745,590.143 " fill="none" id="Product-to-InternalCode" style="stroke:#181818;stroke-width:1.0;"/><polygon fill="#181818" points="829.367,593.973,838.3208,589.8706,832.675,590.2237,832.3219,584.5779,829.367,593.973" style="stroke:#181818;stroke-width:1.0;"/><text fill="#000000" font-family="sans-serif" font-size="13" lengthAdjust="spacing" textLength="54" x="867.5" y="560.0669">contains</text></g><!--MD5=[65f8e780f79cb2bac7513195250e3cfc]
@startuml
skinparam classAttributeIconSize 0
Class "SpecifyNewProductUI"{
+doShow()
}


class Product {
Designation name;
Category category;
Description description;
Brand brand;
Price price;
Reference reference;
InternalCode internalCode;
ProductionCode productionCode;
Barcode barcode;
+product(category,name,description,brand,price,\nreference,internalCode,ProductionCode,barcode)
}

class Brand {
String brandName
+brand(brandName)
}

class ProductDescription {
String shortDescription;
String extendedDescription;
String technicalDescription;
+productDescription(shortDescription,\n extendedDescription,technicalDescription)
}
class ProductionCode{
String code;
+productionCode(code)
}
class InternalCode{
String code;
+internalCode(code);
}
class Barcode {
String barcode;
+barcode(barcode)
}
class Reference{
String reference;
+reference(reference)
}
class Category {
AlphanumericCode code;
Designation name;
Description description;
+category(code,name,description);
}

Class "SpecifyNewProductController"{
+categories()
+specifyNewProduct(category,name,description,brand,price,reference,internalCode,productionCode,barcode)
}

class PersistenceContext {
-Logger LOGGER
-RepositoryFactory theFactory
+repositories()
}

class RepositoryFactory{
+categories()
+products()
}

class ProductRepository{
}

class CategoryRepository{
+findAll();
}
SpecifyNewProductUI ..> SpecifyNewProductController
SpecifyNewProductController -d-> PersistenceContext : creates
PersistenceContext -d-> RepositoryFactory : creates
RepositoryFactory -d-> CategoryRepository : creates
RepositoryFactory -> ProductRepository : creates
SpecifyNewProductController -d-> Product : saves
Product -l-> Brand : contains
Product -d-> ProductRepository : in
Product -u-> ProductionCode : contains
Product -u-> Barcode : contains
Product -u-> Reference : contains
Product -> Category : has
Product -> ProductDescription : contains
Product -d-> InternalCode : contains
@enduml

PlantUML version 1.2022.4beta2(Unknown compile time)
(GPL source distribution)
Java Runtime: Java(TM) SE Runtime Environment
JVM: Java HotSpot(TM) 64-Bit Server VM
Default Encoding: UTF-8
Language: en
Country: US
--></g></svg>