<?xml version="1.0" encoding="UTF-8" standalone="no"?><svg xmlns="http://www.w3.org/2000/svg" xmlns:xlink="http://www.w3.org/1999/xlink" contentStyleType="text/css" height="1146px" preserveAspectRatio="none" style="width:1853px;height:1146px;background:#FFFFFF;" version="1.1" viewBox="0 0 1853 1146" width="1853px" zoomAndPan="magnify"><defs/><g><rect height="26.2969" style="stroke:#00000000;stroke-width:1.0;fill:none;" width="242" x="804.5" y="10"/><text fill="#000000" font-family="sans-serif" font-size="14" font-weight="bold" lengthAdjust="spacing" textLength="232" x="809.5" y="27.9951">Specify new product for sale</text><rect fill="#FFFFFF" height="977.0547" style="stroke:#181818;stroke-width:1.0;" width="10" x="41.5" y="99.8906"/><rect fill="#FFFFFF" height="204.7969" style="stroke:#181818;stroke-width:1.0;" width="10" x="434.5" y="121.0234"/><rect fill="#FFFFFF" height="649.5938" style="stroke:#181818;stroke-width:1.0;" width="10" x="434.5" y="427.3516"/><rect fill="#FFFFFF" height="88.2656" style="stroke:#181818;stroke-width:1.0;" width="10" x="560" y="179.2891"/><rect fill="#FFFFFF" height="88.2656" style="stroke:#181818;stroke-width:1.0;" width="10" x="560" y="929.5469"/><rect fill="#FFFFFF" height="59.1328" style="stroke:#181818;stroke-width:1.0;" width="10" x="670" y="208.4219"/><rect fill="#FFFFFF" height="59.1328" style="stroke:#181818;stroke-width:1.0;" width="10" x="670" y="958.6797"/><rect fill="#FFFFFF" height="59.1328" style="stroke:#181818;stroke-width:1.0;" width="10" x="799.5" y="237.5547"/><rect fill="#FFFFFF" height="30" style="stroke:#181818;stroke-width:1.0;" width="10" x="1082.5" y="456.4844"/><rect fill="#FFFFFF" height="30" style="stroke:#181818;stroke-width:1.0;" width="10" x="1174.5" y="515.6172"/><rect fill="#FFFFFF" height="30" style="stroke:#181818;stroke-width:1.0;" width="10" x="1242.5" y="574.75"/><rect fill="#FFFFFF" height="30" style="stroke:#181818;stroke-width:1.0;" width="10" x="1327" y="633.8828"/><rect fill="#FFFFFF" height="30" style="stroke:#181818;stroke-width:1.0;" width="10" x="1432.5" y="693.0156"/><rect fill="#FFFFFF" height="30" style="stroke:#181818;stroke-width:1.0;" width="10" x="1528.5" y="752.1484"/><rect fill="#FFFFFF" height="30" style="stroke:#181818;stroke-width:1.0;" width="10" x="1615" y="811.2813"/><rect fill="#FFFFFF" height="30" style="stroke:#181818;stroke-width:1.0;" width="10" x="1701.5" y="870.4141"/><rect fill="#FFFFFF" height="30" style="stroke:#181818;stroke-width:1.0;" width="10" x="1795.5" y="987.8125"/><rect fill="#FFFFFF" height="30" style="stroke:#181818;stroke-width:1.0;" width="10" x="1795.5" y="1046.9453"/><line style="stroke:#181818;stroke-width:0.5;stroke-dasharray:5.0,5.0;" x1="46" x2="46" y1="89.8906" y2="1094.9453"/><line style="stroke:#181818;stroke-width:0.5;stroke-dasharray:5.0,5.0;" x1="439" x2="439" y1="89.8906" y2="1094.9453"/><line style="stroke:#181818;stroke-width:0.5;stroke-dasharray:5.0,5.0;" x1="565" x2="565" y1="89.8906" y2="1094.9453"/><line style="stroke:#181818;stroke-width:0.5;stroke-dasharray:5.0,5.0;" x1="675" x2="675" y1="89.8906" y2="1094.9453"/><line style="stroke:#181818;stroke-width:0.5;stroke-dasharray:5.0,5.0;" x1="804" x2="804" y1="89.8906" y2="1094.9453"/><line style="stroke:#181818;stroke-width:0.5;stroke-dasharray:5.0,5.0;" x1="955" x2="955" y1="89.8906" y2="1094.9453"/><line style="stroke:#181818;stroke-width:0.5;stroke-dasharray:5.0,5.0;" x1="1087" x2="1087" y1="89.8906" y2="1094.9453"/><line style="stroke:#181818;stroke-width:0.5;stroke-dasharray:5.0,5.0;" x1="1179" x2="1179" y1="89.8906" y2="1094.9453"/><line style="stroke:#181818;stroke-width:0.5;stroke-dasharray:5.0,5.0;" x1="1247" x2="1247" y1="89.8906" y2="1094.9453"/><line style="stroke:#181818;stroke-width:0.5;stroke-dasharray:5.0,5.0;" x1="1332" x2="1332" y1="89.8906" y2="1094.9453"/><line style="stroke:#181818;stroke-width:0.5;stroke-dasharray:5.0,5.0;" x1="1437" x2="1437" y1="89.8906" y2="1094.9453"/><line style="stroke:#181818;stroke-width:0.5;stroke-dasharray:5.0,5.0;" x1="1533" x2="1533" y1="89.8906" y2="1094.9453"/><line style="stroke:#181818;stroke-width:0.5;stroke-dasharray:5.0,5.0;" x1="1620" x2="1620" y1="89.8906" y2="1094.9453"/><line style="stroke:#181818;stroke-width:0.5;stroke-dasharray:5.0,5.0;" x1="1706" x2="1706" y1="89.8906" y2="1094.9453"/><line style="stroke:#181818;stroke-width:0.5;stroke-dasharray:5.0,5.0;" x1="1800" x2="1800" y1="89.8906" y2="1094.9453"/><rect fill="#E2E2F0" height="46.5938" rx="2.5" ry="2.5" style="stroke:#181818;stroke-width:0.5;" width="83" x="5" y="42.2969"/><text fill="#000000" font-family="sans-serif" font-size="14" lengthAdjust="spacing" textLength="59" x="17" y="62.292">:Specify</text><text fill="#000000" font-family="sans-serif" font-size="14" lengthAdjust="spacing" textLength="69" x="12" y="78.5889">ProductUI</text><rect fill="#E2E2F0" height="46.5938" rx="2.5" ry="2.5" style="stroke:#181818;stroke-width:0.5;" width="83" x="5" y="1093.9453"/><text fill="#000000" font-family="sans-serif" font-size="14" lengthAdjust="spacing" textLength="59" x="17" y="1113.9404">:Specify</text><text fill="#000000" font-family="sans-serif" font-size="14" lengthAdjust="spacing" textLength="69" x="12" y="1130.2373">ProductUI</text><rect fill="#E2E2F0" height="46.5938" rx="2.5" ry="2.5" style="stroke:#181818;stroke-width:0.5;" width="129" x="375" y="42.2969"/><text fill="#000000" font-family="sans-serif" font-size="14" lengthAdjust="spacing" textLength="115" x="382" y="62.292">:SpecifyProduct</text><text fill="#000000" font-family="sans-serif" font-size="14" lengthAdjust="spacing" textLength="73" x="403" y="78.5889">Controller</text><rect fill="#E2E2F0" height="46.5938" rx="2.5" ry="2.5" style="stroke:#181818;stroke-width:0.5;" width="129" x="375" y="1093.9453"/><text fill="#000000" font-family="sans-serif" font-size="14" lengthAdjust="spacing" textLength="115" x="382" y="1113.9404">:SpecifyProduct</text><text fill="#000000" font-family="sans-serif" font-size="14" lengthAdjust="spacing" textLength="73" x="403" y="1130.2373">Controller</text><rect fill="#E2E2F0" height="46.5938" rx="2.5" ry="2.5" style="stroke:#181818;stroke-width:0.5;" width="102" x="514" y="42.2969"/><text fill="#000000" font-family="sans-serif" font-size="14" lengthAdjust="spacing" textLength="88" x="521" y="62.292">:Persistance</text><text fill="#000000" font-family="sans-serif" font-size="14" lengthAdjust="spacing" textLength="59" x="535.5" y="78.5889">Context</text><rect fill="#E2E2F0" height="46.5938" rx="2.5" ry="2.5" style="stroke:#181818;stroke-width:0.5;" width="102" x="514" y="1093.9453"/><text fill="#000000" font-family="sans-serif" font-size="14" lengthAdjust="spacing" textLength="88" x="521" y="1113.9404">:Persistance</text><text fill="#000000" font-family="sans-serif" font-size="14" lengthAdjust="spacing" textLength="59" x="535.5" y="1130.2373">Context</text><rect fill="#E2E2F0" height="46.5938" rx="2.5" ry="2.5" style="stroke:#181818;stroke-width:0.5;" width="98" x="626" y="42.2969"/><text fill="#000000" font-family="sans-serif" font-size="14" lengthAdjust="spacing" textLength="84" x="633" y="62.292">:Repository</text><text fill="#000000" font-family="sans-serif" font-size="14" lengthAdjust="spacing" textLength="54" x="648" y="78.5889">Factory</text><rect fill="#E2E2F0" height="46.5938" rx="2.5" ry="2.5" style="stroke:#181818;stroke-width:0.5;" width="98" x="626" y="1093.9453"/><text fill="#000000" font-family="sans-serif" font-size="14" lengthAdjust="spacing" textLength="84" x="633" y="1113.9404">:Repository</text><text fill="#000000" font-family="sans-serif" font-size="14" lengthAdjust="spacing" textLength="54" x="648" y="1130.2373">Factory</text><rect fill="#E2E2F0" height="46.5938" rx="2.5" ry="2.5" style="stroke:#181818;stroke-width:0.5;" width="141" x="734" y="42.2969"/><text fill="#000000" font-family="sans-serif" font-size="14" lengthAdjust="spacing" textLength="127" x="741" y="62.292">:ProductCategory</text><text fill="#000000" font-family="sans-serif" font-size="14" lengthAdjust="spacing" textLength="54" x="777.5" y="78.5889">Factory</text><rect fill="#E2E2F0" height="46.5938" rx="2.5" ry="2.5" style="stroke:#181818;stroke-width:0.5;" width="141" x="734" y="1093.9453"/><text fill="#000000" font-family="sans-serif" font-size="14" lengthAdjust="spacing" textLength="127" x="741" y="1113.9404">:ProductCategory</text><text fill="#000000" font-family="sans-serif" font-size="14" lengthAdjust="spacing" textLength="54" x="777.5" y="1130.2373">Factory</text><rect fill="#E2E2F0" height="46.5938" rx="2.5" ry="2.5" style="stroke:#181818;stroke-width:0.5;" width="141" x="885" y="42.2969"/><text fill="#000000" font-family="sans-serif" font-size="14" lengthAdjust="spacing" textLength="127" x="892" y="62.292">:ProductCategory</text><text fill="#000000" font-family="sans-serif" font-size="14" lengthAdjust="spacing" textLength="79" x="916" y="78.5889">Repository</text><rect fill="#E2E2F0" height="46.5938" rx="2.5" ry="2.5" style="stroke:#181818;stroke-width:0.5;" width="141" x="885" y="1093.9453"/><text fill="#000000" font-family="sans-serif" font-size="14" lengthAdjust="spacing" textLength="127" x="892" y="1113.9404">:ProductCategory</text><text fill="#000000" font-family="sans-serif" font-size="14" lengthAdjust="spacing" textLength="79" x="916" y="1130.2373">Repository</text><rect fill="#E2E2F0" height="30.2969" rx="2.5" ry="2.5" style="stroke:#181818;stroke-width:0.5;" width="103" x="1036" y="58.5938"/><text fill="#000000" font-family="sans-serif" font-size="14" lengthAdjust="spacing" textLength="89" x="1043" y="78.5889">:Description</text><rect fill="#E2E2F0" height="30.2969" rx="2.5" ry="2.5" style="stroke:#181818;stroke-width:0.5;" width="103" x="1036" y="1093.9453"/><text fill="#000000" font-family="sans-serif" font-size="14" lengthAdjust="spacing" textLength="89" x="1043" y="1113.9404">:Description</text><rect fill="#E2E2F0" height="30.2969" rx="2.5" ry="2.5" style="stroke:#181818;stroke-width:0.5;" width="61" x="1149" y="58.5938"/><text fill="#000000" font-family="sans-serif" font-size="14" lengthAdjust="spacing" textLength="47" x="1156" y="78.5889">:Brand</text><rect fill="#E2E2F0" height="30.2969" rx="2.5" ry="2.5" style="stroke:#181818;stroke-width:0.5;" width="61" x="1149" y="1093.9453"/><text fill="#000000" font-family="sans-serif" font-size="14" lengthAdjust="spacing" textLength="47" x="1156" y="1113.9404">:Brand</text><rect fill="#E2E2F0" height="30.2969" rx="2.5" ry="2.5" style="stroke:#181818;stroke-width:0.5;" width="55" x="1220" y="58.5938"/><text fill="#000000" font-family="sans-serif" font-size="14" lengthAdjust="spacing" textLength="41" x="1227" y="78.5889">:Price</text><rect fill="#E2E2F0" height="30.2969" rx="2.5" ry="2.5" style="stroke:#181818;stroke-width:0.5;" width="55" x="1220" y="1093.9453"/><text fill="#000000" font-family="sans-serif" font-size="14" lengthAdjust="spacing" textLength="41" x="1227" y="1113.9404">:Price</text><rect fill="#E2E2F0" height="30.2969" rx="2.5" ry="2.5" style="stroke:#181818;stroke-width:0.5;" width="94" x="1285" y="58.5938"/><text fill="#000000" font-family="sans-serif" font-size="14" lengthAdjust="spacing" textLength="80" x="1292" y="78.5889">:Reference</text><rect fill="#E2E2F0" height="30.2969" rx="2.5" ry="2.5" style="stroke:#181818;stroke-width:0.5;" width="94" x="1285" y="1093.9453"/><text fill="#000000" font-family="sans-serif" font-size="14" lengthAdjust="spacing" textLength="80" x="1292" y="1113.9404">:Reference</text><rect fill="#E2E2F0" height="46.5938" rx="2.5" ry="2.5" style="stroke:#181818;stroke-width:0.5;" width="97" x="1389" y="42.2969"/><text fill="#000000" font-family="sans-serif" font-size="14" lengthAdjust="spacing" textLength="83" x="1396" y="62.292">:Production</text><text fill="#000000" font-family="sans-serif" font-size="14" lengthAdjust="spacing" textLength="37" x="1419" y="78.5889">Code</text><rect fill="#E2E2F0" height="46.5938" rx="2.5" ry="2.5" style="stroke:#181818;stroke-width:0.5;" width="97" x="1389" y="1093.9453"/><text fill="#000000" font-family="sans-serif" font-size="14" lengthAdjust="spacing" textLength="83" x="1396" y="1113.9404">:Production</text><text fill="#000000" font-family="sans-serif" font-size="14" lengthAdjust="spacing" textLength="37" x="1419" y="1130.2373">Code</text><rect fill="#E2E2F0" height="46.5938" rx="2.5" ry="2.5" style="stroke:#181818;stroke-width:0.5;" width="75" x="1496" y="42.2969"/><text fill="#000000" font-family="sans-serif" font-size="14" lengthAdjust="spacing" textLength="61" x="1503" y="62.292">:Internal</text><text fill="#000000" font-family="sans-serif" font-size="14" lengthAdjust="spacing" textLength="37" x="1515" y="78.5889">Code</text><rect fill="#E2E2F0" height="46.5938" rx="2.5" ry="2.5" style="stroke:#181818;stroke-width:0.5;" width="75" x="1496" y="1093.9453"/><text fill="#000000" font-family="sans-serif" font-size="14" lengthAdjust="spacing" textLength="61" x="1503" y="1113.9404">:Internal</text><text fill="#000000" font-family="sans-serif" font-size="14" lengthAdjust="spacing" textLength="37" x="1515" y="1130.2373">Code</text><rect fill="#E2E2F0" height="30.2969" rx="2.5" ry="2.5" style="stroke:#181818;stroke-width:0.5;" width="78" x="1581" y="58.5938"/><text fill="#000000" font-family="sans-serif" font-size="14" lengthAdjust="spacing" textLength="64" x="1588" y="78.5889">:Barcode</text><rect fill="#E2E2F0" height="30.2969" rx="2.5" ry="2.5" style="stroke:#181818;stroke-width:0.5;" width="78" x="1581" y="1093.9453"/><text fill="#000000" font-family="sans-serif" font-size="14" lengthAdjust="spacing" textLength="64" x="1588" y="1113.9404">:Barcode</text><rect fill="#E2E2F0" height="30.2969" rx="2.5" ry="2.5" style="stroke:#181818;stroke-width:0.5;" width="75" x="1669" y="58.5938"/><text fill="#000000" font-family="sans-serif" font-size="14" lengthAdjust="spacing" textLength="61" x="1676" y="78.5889">:Product</text><rect fill="#E2E2F0" height="30.2969" rx="2.5" ry="2.5" style="stroke:#181818;stroke-width:0.5;" width="75" x="1669" y="1093.9453"/><text fill="#000000" font-family="sans-serif" font-size="14" lengthAdjust="spacing" textLength="61" x="1676" y="1113.9404">:Product</text><rect fill="#E2E2F0" height="46.5938" rx="2.5" ry="2.5" style="stroke:#181818;stroke-width:0.5;" width="93" x="1754" y="42.2969"/><text fill="#000000" font-family="sans-serif" font-size="14" lengthAdjust="spacing" textLength="61" x="1770" y="62.292">:Product</text><text fill="#000000" font-family="sans-serif" font-size="14" lengthAdjust="spacing" textLength="79" x="1761" y="78.5889">Repository</text><rect fill="#E2E2F0" height="46.5938" rx="2.5" ry="2.5" style="stroke:#181818;stroke-width:0.5;" width="93" x="1754" y="1093.9453"/><text fill="#000000" font-family="sans-serif" font-size="14" lengthAdjust="spacing" textLength="61" x="1770" y="1113.9404">:Product</text><text fill="#000000" font-family="sans-serif" font-size="14" lengthAdjust="spacing" textLength="79" x="1761" y="1130.2373">Repository</text><rect fill="#FFFFFF" height="977.0547" style="stroke:#181818;stroke-width:1.0;" width="10" x="41.5" y="99.8906"/><rect fill="#FFFFFF" height="204.7969" style="stroke:#181818;stroke-width:1.0;" width="10" x="434.5" y="121.0234"/><rect fill="#FFFFFF" height="649.5938" style="stroke:#181818;stroke-width:1.0;" width="10" x="434.5" y="427.3516"/><rect fill="#FFFFFF" height="88.2656" style="stroke:#181818;stroke-width:1.0;" width="10" x="560" y="179.2891"/><rect fill="#FFFFFF" height="88.2656" style="stroke:#181818;stroke-width:1.0;" width="10" x="560" y="929.5469"/><rect fill="#FFFFFF" height="59.1328" style="stroke:#181818;stroke-width:1.0;" width="10" x="670" y="208.4219"/><rect fill="#FFFFFF" height="59.1328" style="stroke:#181818;stroke-width:1.0;" width="10" x="670" y="958.6797"/><rect fill="#FFFFFF" height="59.1328" style="stroke:#181818;stroke-width:1.0;" width="10" x="799.5" y="237.5547"/><rect fill="#FFFFFF" height="30" style="stroke:#181818;stroke-width:1.0;" width="10" x="1082.5" y="456.4844"/><rect fill="#FFFFFF" height="30" style="stroke:#181818;stroke-width:1.0;" width="10" x="1174.5" y="515.6172"/><rect fill="#FFFFFF" height="30" style="stroke:#181818;stroke-width:1.0;" width="10" x="1242.5" y="574.75"/><rect fill="#FFFFFF" height="30" style="stroke:#181818;stroke-width:1.0;" width="10" x="1327" y="633.8828"/><rect fill="#FFFFFF" height="30" style="stroke:#181818;stroke-width:1.0;" width="10" x="1432.5" y="693.0156"/><rect fill="#FFFFFF" height="30" style="stroke:#181818;stroke-width:1.0;" width="10" x="1528.5" y="752.1484"/><rect fill="#FFFFFF" height="30" style="stroke:#181818;stroke-width:1.0;" width="10" x="1615" y="811.2813"/><rect fill="#FFFFFF" height="30" style="stroke:#181818;stroke-width:1.0;" width="10" x="1701.5" y="870.4141"/><rect fill="#FFFFFF" height="30" style="stroke:#181818;stroke-width:1.0;" width="10" x="1795.5" y="987.8125"/><rect fill="#FFFFFF" height="30" style="stroke:#181818;stroke-width:1.0;" width="10" x="1795.5" y="1046.9453"/><polygon fill="#181818" points="422.5,117.0234,432.5,121.0234,422.5,125.0234,426.5,121.0234" style="stroke:#181818;stroke-width:1.0;"/><line style="stroke:#181818;stroke-width:1.0;" x1="51.5" x2="428.5" y1="121.0234" y2="121.0234"/><text fill="#000000" font-family="sans-serif" font-size="13" lengthAdjust="spacing" textLength="41" x="58.5" y="115.9575">create</text><polygon fill="#181818" points="422.5,146.1563,432.5,150.1563,422.5,154.1563,426.5,150.1563" style="stroke:#181818;stroke-width:1.0;"/><line style="stroke:#181818;stroke-width:1.0;" x1="51.5" x2="428.5" y1="150.1563" y2="150.1563"/><text fill="#000000" font-family="sans-serif" font-size="13" lengthAdjust="spacing" textLength="139" x="58.5" y="145.0903">getProductCategories</text><polygon fill="#181818" points="548,175.2891,558,179.2891,548,183.2891,552,179.2891" style="stroke:#181818;stroke-width:1.0;"/><line style="stroke:#181818;stroke-width:1.0;" x1="444.5" x2="554" y1="179.2891" y2="179.2891"/><text fill="#000000" font-family="sans-serif" font-size="13" lengthAdjust="spacing" textLength="85" x="451.5" y="174.2231">repositories()</text><polygon fill="#181818" points="658,204.4219,668,208.4219,658,212.4219,662,208.4219" style="stroke:#181818;stroke-width:1.0;"/><line style="stroke:#181818;stroke-width:1.0;" x1="570" x2="664" y1="208.4219" y2="208.4219"/><text fill="#000000" font-family="sans-serif" font-size="13" lengthAdjust="spacing" textLength="41" x="577" y="203.356">create</text><polygon fill="#181818" points="787.5,233.5547,797.5,237.5547,787.5,241.5547,791.5,237.5547" style="stroke:#181818;stroke-width:1.0;"/><line style="stroke:#181818;stroke-width:1.0;" x1="680" x2="793.5" y1="237.5547" y2="237.5547"/><text fill="#000000" font-family="sans-serif" font-size="13" lengthAdjust="spacing" textLength="41" x="687" y="232.4888">create</text><polygon fill="#181818" points="792.5,292.6875,802.5,296.6875,792.5,300.6875,796.5,296.6875" style="stroke:#181818;stroke-width:1.0;"/><line style="stroke:#181818;stroke-width:1.0;" x1="444.5" x2="798.5" y1="296.6875" y2="296.6875"/><text fill="#000000" font-family="sans-serif" font-size="13" lengthAdjust="spacing" textLength="39" x="451.5" y="291.6216">findAll</text><polygon fill="#181818" points="62.5,321.8203,52.5,325.8203,62.5,329.8203,58.5,325.8203" style="stroke:#181818;stroke-width:1.0;"/><line style="stroke:#181818;stroke-width:1.0;stroke-dasharray:2.0,2.0;" x1="56.5" x2="438.5" y1="325.8203" y2="325.8203"/><text fill="#000000" font-family="sans-serif" font-size="13" lengthAdjust="spacing" textLength="118" x="68.5" y="320.7544">ProductCategories</text><line style="stroke:#181818;stroke-width:1.0;" x1="51.5" x2="93.5" y1="354.9531" y2="354.9531"/><line style="stroke:#181818;stroke-width:1.0;" x1="93.5" x2="93.5" y1="354.9531" y2="367.9531"/><line style="stroke:#181818;stroke-width:1.0;" x1="52.5" x2="93.5" y1="367.9531" y2="367.9531"/><polygon fill="#181818" points="62.5,363.9531,52.5,367.9531,62.5,371.9531,58.5,367.9531" style="stroke:#181818;stroke-width:1.0;"/><text fill="#000000" font-family="sans-serif" font-size="13" lengthAdjust="spacing" textLength="61" x="58.5" y="349.8872">doShow()</text><polygon fill="#181818" points="422.5,423.3516,432.5,427.3516,422.5,431.3516,426.5,427.3516" style="stroke:#181818;stroke-width:1.0;"/><line style="stroke:#181818;stroke-width:1.0;" x1="51.5" x2="428.5" y1="427.3516" y2="427.3516"/><text fill="#000000" font-family="sans-serif" font-size="13" lengthAdjust="spacing" textLength="327" x="58.5" y="392.02">specifyProduct(category,shortDesc,extendedDesc,</text><text fill="#000000" font-family="sans-serif" font-size="13" lengthAdjust="spacing" textLength="360" x="62.5" y="407.1528">techDesc,brand,priceWiTaxes, priceWoTaxes,reference,</text><text fill="#000000" font-family="sans-serif" font-size="13" lengthAdjust="spacing" textLength="191" x="62.5" y="422.2856">internalCode,productionCode)</text><polygon fill="#181818" points="1070.5,452.4844,1080.5,456.4844,1070.5,460.4844,1074.5,456.4844" style="stroke:#181818;stroke-width:1.0;"/><line style="stroke:#181818;stroke-width:1.0;" x1="444.5" x2="1076.5" y1="456.4844" y2="456.4844"/><text fill="#000000" font-family="sans-serif" font-size="13" lengthAdjust="spacing" textLength="277" x="451.5" y="451.4185">create(shortDesc,extendedDesc,techDesc)</text><polygon fill="#181818" points="1162.5,511.6172,1172.5,515.6172,1162.5,519.6172,1166.5,515.6172" style="stroke:#181818;stroke-width:1.0;"/><line style="stroke:#181818;stroke-width:1.0;" x1="444.5" x2="1168.5" y1="515.6172" y2="515.6172"/><text fill="#000000" font-family="sans-serif" font-size="13" lengthAdjust="spacing" textLength="92" x="451.5" y="510.5513">create (brand)</text><polygon fill="#181818" points="1230.5,570.75,1240.5,574.75,1230.5,578.75,1234.5,574.75" style="stroke:#181818;stroke-width:1.0;"/><line style="stroke:#181818;stroke-width:1.0;" x1="444.5" x2="1236.5" y1="574.75" y2="574.75"/><text fill="#000000" font-family="sans-serif" font-size="13" lengthAdjust="spacing" textLength="236" x="451.5" y="569.6841">create(priceWiTaxes, priceWoTaxes)</text><polygon fill="#181818" points="1315,629.8828,1325,633.8828,1315,637.8828,1319,633.8828" style="stroke:#181818;stroke-width:1.0;"/><line style="stroke:#181818;stroke-width:1.0;" x1="444.5" x2="1321" y1="633.8828" y2="633.8828"/><text fill="#000000" font-family="sans-serif" font-size="13" lengthAdjust="spacing" textLength="113" x="451.5" y="628.8169">create(reference)</text><polygon fill="#181818" points="1420.5,689.0156,1430.5,693.0156,1420.5,697.0156,1424.5,693.0156" style="stroke:#181818;stroke-width:1.0;"/><line style="stroke:#181818;stroke-width:1.0;" x1="444.5" x2="1426.5" y1="693.0156" y2="693.0156"/><text fill="#000000" font-family="sans-serif" font-size="13" lengthAdjust="spacing" textLength="152" x="451.5" y="687.9497">create(productionCode)</text><polygon fill="#181818" points="1516.5,748.1484,1526.5,752.1484,1516.5,756.1484,1520.5,752.1484" style="stroke:#181818;stroke-width:1.0;"/><line style="stroke:#181818;stroke-width:1.0;" x1="444.5" x2="1522.5" y1="752.1484" y2="752.1484"/><text fill="#000000" font-family="sans-serif" font-size="13" lengthAdjust="spacing" textLength="132" x="451.5" y="747.0825">create(internalCode)</text><polygon fill="#181818" points="1603,807.2813,1613,811.2813,1603,815.2813,1607,811.2813" style="stroke:#181818;stroke-width:1.0;"/><line style="stroke:#181818;stroke-width:1.0;" x1="444.5" x2="1609" y1="811.2813" y2="811.2813"/><text fill="#000000" font-family="sans-serif" font-size="13" lengthAdjust="spacing" textLength="51" x="451.5" y="806.2153">create()</text><polygon fill="#181818" points="1689.5,866.4141,1699.5,870.4141,1689.5,874.4141,1693.5,870.4141" style="stroke:#181818;stroke-width:1.0;"/><line style="stroke:#181818;stroke-width:1.0;" x1="444.5" x2="1695.5" y1="870.4141" y2="870.4141"/><text fill="#000000" font-family="sans-serif" font-size="13" lengthAdjust="spacing" textLength="701" x="451.5" y="865.3481">newProduct =create(category,name,description,brand,price,reference,internalCode,productionCode,barcode)</text><polygon fill="#181818" points="548,925.5469,558,929.5469,548,933.5469,552,929.5469" style="stroke:#181818;stroke-width:1.0;"/><line style="stroke:#181818;stroke-width:1.0;" x1="444.5" x2="554" y1="929.5469" y2="929.5469"/><text fill="#000000" font-family="sans-serif" font-size="13" lengthAdjust="spacing" textLength="85" x="451.5" y="924.481">repositories()</text><polygon fill="#181818" points="658,954.6797,668,958.6797,658,962.6797,662,958.6797" style="stroke:#181818;stroke-width:1.0;"/><line style="stroke:#181818;stroke-width:1.0;" x1="570" x2="664" y1="958.6797" y2="958.6797"/><text fill="#000000" font-family="sans-serif" font-size="13" lengthAdjust="spacing" textLength="41" x="577" y="953.6138">create</text><polygon fill="#181818" points="1783.5,983.8125,1793.5,987.8125,1783.5,991.8125,1787.5,987.8125" style="stroke:#181818;stroke-width:1.0;"/><line style="stroke:#181818;stroke-width:1.0;" x1="680" x2="1789.5" y1="987.8125" y2="987.8125"/><text fill="#000000" font-family="sans-serif" font-size="13" lengthAdjust="spacing" textLength="41" x="687" y="982.7466">create</text><polygon fill="#181818" points="1783.5,1042.9453,1793.5,1046.9453,1783.5,1050.9453,1787.5,1046.9453" style="stroke:#181818;stroke-width:1.0;"/><line style="stroke:#181818;stroke-width:1.0;" x1="444.5" x2="1789.5" y1="1046.9453" y2="1046.9453"/><text fill="#000000" font-family="sans-serif" font-size="13" lengthAdjust="spacing" textLength="117" x="451.5" y="1041.8794">save(newProduct)</text><!--MD5=[d6d3ec420f6e55d5f7f9d72f5d4dc565]
@startuml
title Specify new product for sale

participant ":Specify\nProductUI" as UI
participant ":SpecifyProduct\nController" as CTRL
participant ":Persistance\nContext" as PER
participant ":Repository\nFactory" as REPFAC
participant ":ProductCategory\nFactory" as PCFAC
participant ":ProductCategory\nRepository" as PCREP
participant ":Description" as DESC
participant ":Brand" as BRA
particIpant ":Price" as PR
participant ":Reference" as REF
participant ":Production\nCode" as PROC
participant ":Internal\nCode" as IC
participant  ":Barcode" as BAR
participant ":Product" as PRO
participant ":Product\nRepository" as PROREP

activate UI
UI -> CTRL : create
activate CTRL
UI -> CTRL : getProductCategories

CTRL -> PER : repositories()
activate PER
PER -> REPFAC : create
activate REPFAC
REPFAC -> PCFAC : create
activate PCFAC
deactivate REPFAC
deactivate PER
CTRL -> PCFAC : findAll
deactivate PCFAC
CTRL - -> UI : ProductCategories
deactivate CTRL
UI -> UI : doShow()
UI -> CTRL :specifyProduct(category,shortDesc,extendedDesc,\n techDesc,brand,priceWiTaxes, priceWoTaxes,reference,\n internalCode,productionCode)
activate CTRL
CTRL -> DESC : create(shortDesc,extendedDesc,techDesc)
activate DESC
deactivate DESC
CTRL -> BRA :  create (brand)
activate BRA
deactivate BRA
CTRL -> PR : create(priceWiTaxes, priceWoTaxes)
activate PR
deactivate PR
CTRL -> REF : create(reference)
activate REF
deactivate REF
CTRL -> PROC : create(productionCode)
activate PROC
deactivate PROC
CTRL -> IC : create(internalCode)
activate IC
deactivate IC
CTRL -> BAR : create()
activate BAR
deactivate BAR
CTRL -> PRO : newProduct =create(category,name,description,brand,price,reference,internalCode,productionCode,barcode)
activate PRO
deactivate PRO
CTRL -> PER : repositories()
activate PER
PER -> REPFAC :create
activate REPFAC
REPFAC -> PROREP : create
activate PROREP
deactivate PROREP
deactivate REPFAC
deactivate PER
CTRL -> PROREP :save(newProduct)
activate PROREP
deactivate PROREP
deactivate CTRL
deactivate UI
@enduml

PlantUML version 1.2022.4beta2(Unknown compile time)
(GPL source distribution)
Java Runtime: Java(TM) SE Runtime Environment
JVM: Java HotSpot(TM) 64-Bit Server VM
Default Encoding: UTF-8
Language: en
Country: US
--></g></svg>