<?xml version="1.0" encoding="UTF-8" standalone="no"?><svg xmlns="http://www.w3.org/2000/svg" xmlns:xlink="http://www.w3.org/1999/xlink" contentStyleType="text/css" height="397px" preserveAspectRatio="none" style="width:282px;height:397px;background:#FFFFFF;" version="1.1" viewBox="0 0 282 397" width="282px" zoomAndPan="magnify"><defs/><g><!--MD5=[6a1f20ac98ff691683c5d53d56fd80ad]
class TcpServerAGVDigitalTwin--><g id="elem_TcpServerAGVDigitalTwin"><rect codeLine="4" fill="#F1F1F1" height="83.2188" id="TcpServerAGVDigitalTwin" rx="2.5" ry="2.5" style="stroke:#181818;stroke-width:0.5;" width="245" x="18.5" y="7"/><ellipse cx="56" cy="23" fill="#ADD1B2" rx="11" ry="11" style="stroke:#181818;stroke-width:1.0;"/><path d="M58,19.5 Q58.2031,19 58.4375,18.75 Q58.6719,18.5 58.9375,18.5 Q59.4063,18.5 59.7031,18.7813 Q60,19.0625 60,19.7188 L60,21.2813 Q60,21.9375 59.7188,22.2188 Q59.4375,22.5 59,22.5 Q58.6094,22.5 58.3594,22.3281 Q58.1094,22.1563 58,21.7031 Q57.9531,21.3906 57.7813,21.2188 Q57.4688,20.8906 56.9063,20.7031 Q56.3438,20.5 55.7813,20.5 Q55.0781,20.5 54.4844,20.7813 Q53.9063,21.0625 53.4531,21.6875 Q53,22.3125 53,23.1719 L53,24.0938 Q53,25.125 53.8438,25.8125 Q54.6875,26.5 56.1875,26.5 Q57.0781,26.5 57.7031,26.2969 Q58.0625,26.1875 58.4688,25.8281 Q58.7344,25.625 58.875,25.5625 Q59.0156,25.5 59.1875,25.5 Q59.5156,25.5 59.75,25.7656 Q60,26.0156 60,26.375 Q60,26.7188 59.6563,27.125 Q59.1563,27.7188 58.3594,28.0469 Q57.3125,28.5 56.0313,28.5 Q54.5313,28.5 53.3281,27.9063 Q52.3594,27.4375 51.6719,26.4219 Q51,25.4063 51,24.2031 L51,23.1094 Q51,21.8594 51.5938,20.7656 Q52.2031,19.6719 53.25,19.0938 Q54.3125,18.5 55.5,18.5 Q56.2188,18.5 56.8438,18.75 Q57.4688,19 58,19.5 Z " fill="#000000"/><text fill="#000000" font-family="sans-serif" font-size="14" lengthAdjust="spacing" textLength="163" x="75" y="28.7285">TcpServerAGVDigitalTwin</text><line style="stroke:#181818;stroke-width:0.5;" x1="19.5" x2="262.5" y1="39" y2="39"/><text fill="#000000" font-family="sans-serif" font-size="14" lengthAdjust="spacing" textLength="127" x="24.5" y="57.5332">-ServerSocket sock;</text><line style="stroke:#181818;stroke-width:0.5;" x1="19.5" x2="262.5" y1="64.6094" y2="64.6094"/><text fill="#000000" font-family="sans-serif" font-size="14" lengthAdjust="spacing" textLength="233" x="24.5" y="83.1426">+public static void main(String[] args)</text></g><!--MD5=[4db4841249a64a15a2ac2498b728f40a]
class TcpServerAGVDigitalTwinThread--><g id="elem_TcpServerAGVDigitalTwinThread"><rect codeLine="11" fill="#F1F1F1" height="118.4375" id="TcpServerAGVDigitalTwinThread" rx="2.5" ry="2.5" style="stroke:#181818;stroke-width:0.5;" width="268" x="7" y="272"/><ellipse cx="34.15" cy="288" fill="#ADD1B2" rx="11" ry="11" style="stroke:#181818;stroke-width:1.0;"/><path d="M36.15,284.5 Q36.3531,284 36.5875,283.75 Q36.8219,283.5 37.0875,283.5 Q37.5563,283.5 37.8531,283.7813 Q38.15,284.0625 38.15,284.7188 L38.15,286.2813 Q38.15,286.9375 37.8688,287.2188 Q37.5875,287.5 37.15,287.5 Q36.7594,287.5 36.5094,287.3281 Q36.2594,287.1563 36.15,286.7031 Q36.1031,286.3906 35.9313,286.2188 Q35.6188,285.8906 35.0563,285.7031 Q34.4938,285.5 33.9313,285.5 Q33.2281,285.5 32.6344,285.7813 Q32.0563,286.0625 31.6031,286.6875 Q31.15,287.3125 31.15,288.1719 L31.15,289.0938 Q31.15,290.125 31.9938,290.8125 Q32.8375,291.5 34.3375,291.5 Q35.2281,291.5 35.8531,291.2969 Q36.2125,291.1875 36.6188,290.8281 Q36.8844,290.625 37.025,290.5625 Q37.1656,290.5 37.3375,290.5 Q37.6656,290.5 37.9,290.7656 Q38.15,291.0156 38.15,291.375 Q38.15,291.7188 37.8063,292.125 Q37.3063,292.7188 36.5094,293.0469 Q35.4625,293.5 34.1813,293.5 Q32.6813,293.5 31.4781,292.9063 Q30.5094,292.4375 29.8219,291.4219 Q29.15,290.4063 29.15,289.2031 L29.15,288.1094 Q29.15,286.8594 29.7438,285.7656 Q30.3531,284.6719 31.4,284.0938 Q32.4625,283.5 33.65,283.5 Q34.3688,283.5 34.9938,283.75 Q35.6188,284 36.15,284.5 Z " fill="#000000"/><text fill="#000000" font-family="sans-serif" font-size="14" lengthAdjust="spacing" textLength="209" x="50.85" y="293.7285">TcpServerAGVDigitalTwinThread</text><line style="stroke:#181818;stroke-width:0.5;" x1="8" x2="274" y1="304" y2="304"/><text fill="#000000" font-family="sans-serif" font-size="14" lengthAdjust="spacing" textLength="59" x="13" y="322.5332">-Socket s</text><text fill="#000000" font-family="sans-serif" font-size="14" lengthAdjust="spacing" textLength="157" x="13" y="340.1426">-DataOutputStream sOut</text><text fill="#000000" font-family="sans-serif" font-size="14" lengthAdjust="spacing" textLength="133" x="13" y="357.752">-DataInputStream sIn</text><line style="stroke:#181818;stroke-width:0.5;" x1="8" x2="274" y1="364.8281" y2="364.8281"/><text fill="#000000" font-family="sans-serif" font-size="14" lengthAdjust="spacing" textLength="256" x="13" y="383.3613">+TcpServerAGVDigitalTwin(Socket cli_s)</text></g><!--MD5=[dd1e3c0d4345cb12a109dae7b6e8de08]
link TcpServerAGVDigitalTwin to TcpServerAGVDigitalTwinThread--><g id="link_TcpServerAGVDigitalTwin_TcpServerAGVDigitalTwinThread"><path codeLine="19" d="M141,90.29 C141,134.34 141,205.37 141,258.69 " fill="none" id="TcpServerAGVDigitalTwin-to-TcpServerAGVDigitalTwinThread" style="stroke:#181818;stroke-width:1.0;"/><polygon fill="#181818" points="141,271.84,145,265.84,141,259.84,137,265.84,141,271.84" style="stroke:#181818;stroke-width:1.0;"/></g><!--MD5=[a468efcfbf5ce945696f99aec7f2b770]
@startuml
skinparam classAttributeIconSize 0


Class "TcpServerAGVDigitalTwin"{
- ServerSocket sock;

+public static void main(String[] args)

}

Class "TcpServerAGVDigitalTwinThread"{
    - Socket s
    - DataOutputStream sOut
    - DataInputStream sIn

    + TcpServerAGVDigitalTwin(Socket cli_s)
}

"TcpServerAGVDigitalTwin" - - - -* "TcpServerAGVDigitalTwinThread"

@enduml

PlantUML version 1.2022.4(Sat Apr 09 14:29:17 BST 2022)
(GPL source distribution)
Java Runtime: OpenJDK Runtime Environment
JVM: OpenJDK 64-Bit Server VM
Default Encoding: Cp1252
Language: pt
Country: PT
--></g></svg>