<?xml version="1.0" encoding="UTF-8" standalone="no"?><svg xmlns="http://www.w3.org/2000/svg" xmlns:xlink="http://www.w3.org/1999/xlink" contentStyleType="text/css" height="693px" preserveAspectRatio="none" style="width:1349px;height:693px;background:#FFFFFF;" version="1.1" viewBox="0 0 1349 693" width="1349px" zoomAndPan="magnify"><defs/><g><rect height="26.2969" style="stroke:#00000000;stroke-width:1.0;fill:none;" width="109" x="619" y="10"/><text fill="#000000" font-family="sans-serif" font-size="14" font-weight="bold" lengthAdjust="spacing" textLength="99" x="624" y="27.9951">DASHBOARD</text><rect fill="#FFFFFF" height="523.8594" style="stroke:#181818;stroke-width:1.0;" width="10" x="69" y="99.8906"/><rect fill="#FFFFFF" height="502.7266" style="stroke:#181818;stroke-width:1.0;" width="10" x="215" y="121.0234"/><rect fill="#FFFFFF" height="88.2656" style="stroke:#181818;stroke-width:1.0;" width="10" x="353" y="192.2891"/><rect fill="#FFFFFF" height="59.1328" style="stroke:#181818;stroke-width:1.0;" width="10" x="463" y="221.4219"/><rect fill="#FFFFFF" height="59.1328" style="stroke:#181818;stroke-width:1.0;" width="10" x="568.5" y="250.5547"/><rect fill="#FFFFFF" height="30" style="stroke:#181818;stroke-width:1.0;" width="10" x="721.5" y="338.8203"/><rect fill="#FFFFFF" height="77.2656" style="stroke:#181818;stroke-width:1.0;" width="10" x="918.5" y="440.0859"/><rect fill="#FFFFFF" height="107.2656" style="stroke:#181818;stroke-width:1.0;" width="10" x="1115" y="487.3516"/><rect fill="#FFFFFF" height="30" style="stroke:#181818;stroke-width:1.0;" width="10" x="1279.5" y="564.6172"/><line style="stroke:#181818;stroke-width:0.5;stroke-dasharray:5.0,5.0;" x1="74" x2="74" y1="89.8906" y2="641.75"/><line style="stroke:#181818;stroke-width:0.5;stroke-dasharray:5.0,5.0;" x1="220" x2="220" y1="89.8906" y2="641.75"/><line style="stroke:#181818;stroke-width:0.5;stroke-dasharray:5.0,5.0;" x1="358" x2="358" y1="89.8906" y2="641.75"/><line style="stroke:#181818;stroke-width:0.5;stroke-dasharray:5.0,5.0;" x1="468" x2="468" y1="89.8906" y2="641.75"/><line style="stroke:#181818;stroke-width:0.5;stroke-dasharray:5.0,5.0;" x1="573" x2="573" y1="89.8906" y2="641.75"/><line style="stroke:#181818;stroke-width:0.5;stroke-dasharray:5.0,5.0;" x1="726" x2="726" y1="89.8906" y2="641.75"/><line style="stroke:#181818;stroke-width:0.5;stroke-dasharray:5.0,5.0;" x1="923" x2="923" y1="89.8906" y2="641.75"/><line style="stroke:#181818;stroke-width:0.5;stroke-dasharray:5.0,5.0;" x1="1120" x2="1120" y1="89.8906" y2="641.75"/><line style="stroke:#181818;stroke-width:0.5;stroke-dasharray:5.0,5.0;" x1="1284" x2="1284" y1="89.8906" y2="641.75"/><rect fill="#E2E2F0" height="30.2969" rx="2.5" ry="2.5" style="stroke:#181818;stroke-width:0.5;" width="138" x="5" y="58.5938"/><text fill="#000000" font-family="sans-serif" font-size="14" lengthAdjust="spacing" textLength="124" x="12" y="78.5889">:AGVsDasboardUI</text><rect fill="#E2E2F0" height="30.2969" rx="2.5" ry="2.5" style="stroke:#181818;stroke-width:0.5;" width="138" x="5" y="640.75"/><text fill="#000000" font-family="sans-serif" font-size="14" lengthAdjust="spacing" textLength="124" x="12" y="660.7451">:AGVsDasboardUI</text><rect fill="#E2E2F0" height="46.5938" rx="2.5" ry="2.5" style="stroke:#181818;stroke-width:0.5;" width="134" x="153" y="42.2969"/><text fill="#000000" font-family="sans-serif" font-size="14" lengthAdjust="spacing" textLength="120" x="160" y="62.292">:AGVsDashboard</text><text fill="#000000" font-family="sans-serif" font-size="14" lengthAdjust="spacing" textLength="73" x="183.5" y="78.5889">Controller</text><rect fill="#E2E2F0" height="46.5938" rx="2.5" ry="2.5" style="stroke:#181818;stroke-width:0.5;" width="134" x="153" y="640.75"/><text fill="#000000" font-family="sans-serif" font-size="14" lengthAdjust="spacing" textLength="120" x="160" y="660.7451">:AGVsDashboard</text><text fill="#000000" font-family="sans-serif" font-size="14" lengthAdjust="spacing" textLength="73" x="183.5" y="677.042">Controller</text><rect fill="#E2E2F0" height="46.5938" rx="2.5" ry="2.5" style="stroke:#181818;stroke-width:0.5;" width="102" x="307" y="42.2969"/><text fill="#000000" font-family="sans-serif" font-size="14" lengthAdjust="spacing" textLength="88" x="314" y="62.292">:Persistance</text><text fill="#000000" font-family="sans-serif" font-size="14" lengthAdjust="spacing" textLength="59" x="328.5" y="78.5889">Context</text><rect fill="#E2E2F0" height="46.5938" rx="2.5" ry="2.5" style="stroke:#181818;stroke-width:0.5;" width="102" x="307" y="640.75"/><text fill="#000000" font-family="sans-serif" font-size="14" lengthAdjust="spacing" textLength="88" x="314" y="660.7451">:Persistance</text><text fill="#000000" font-family="sans-serif" font-size="14" lengthAdjust="spacing" textLength="59" x="328.5" y="677.042">Context</text><rect fill="#E2E2F0" height="46.5938" rx="2.5" ry="2.5" style="stroke:#181818;stroke-width:0.5;" width="98" x="419" y="42.2969"/><text fill="#000000" font-family="sans-serif" font-size="14" lengthAdjust="spacing" textLength="84" x="426" y="62.292">:Repository</text><text fill="#000000" font-family="sans-serif" font-size="14" lengthAdjust="spacing" textLength="54" x="441" y="78.5889">Factory</text><rect fill="#E2E2F0" height="46.5938" rx="2.5" ry="2.5" style="stroke:#181818;stroke-width:0.5;" width="98" x="419" y="640.75"/><text fill="#000000" font-family="sans-serif" font-size="14" lengthAdjust="spacing" textLength="84" x="426" y="660.7451">:Repository</text><text fill="#000000" font-family="sans-serif" font-size="14" lengthAdjust="spacing" textLength="54" x="441" y="677.042">Factory</text><rect fill="#E2E2F0" height="46.5938" rx="2.5" ry="2.5" style="stroke:#181818;stroke-width:0.5;" width="93" x="527" y="42.2969"/><text fill="#000000" font-family="sans-serif" font-size="14" lengthAdjust="spacing" textLength="43" x="552" y="62.292">:AVGs</text><text fill="#000000" font-family="sans-serif" font-size="14" lengthAdjust="spacing" textLength="79" x="534" y="78.5889">Repository</text><rect fill="#E2E2F0" height="46.5938" rx="2.5" ry="2.5" style="stroke:#181818;stroke-width:0.5;" width="93" x="527" y="640.75"/><text fill="#000000" font-family="sans-serif" font-size="14" lengthAdjust="spacing" textLength="43" x="552" y="660.7451">:AVGs</text><text fill="#000000" font-family="sans-serif" font-size="14" lengthAdjust="spacing" textLength="79" x="534" y="677.042">Repository</text><rect fill="#E2E2F0" height="30.2969" rx="2.5" ry="2.5" style="stroke:#181818;stroke-width:0.5;" width="193" x="630" y="58.5938"/><text fill="#000000" font-family="sans-serif" font-size="14" lengthAdjust="spacing" textLength="179" x="637" y="78.5889">:AGVsDashboardInfoDTO</text><rect fill="#E2E2F0" height="30.2969" rx="2.5" ry="2.5" style="stroke:#181818;stroke-width:0.5;" width="193" x="630" y="640.75"/><text fill="#000000" font-family="sans-serif" font-size="14" lengthAdjust="spacing" textLength="179" x="637" y="660.7451">:AGVsDashboardInfoDTO</text><rect fill="#E2E2F0" height="30.2969" rx="2.5" ry="2.5" style="stroke:#181818;stroke-width:0.5;" width="181" x="833" y="58.5938"/><text fill="#000000" font-family="sans-serif" font-size="14" lengthAdjust="spacing" textLength="167" x="840" y="78.5889">:HTTPServerAjaxVoting</text><rect fill="#E2E2F0" height="30.2969" rx="2.5" ry="2.5" style="stroke:#181818;stroke-width:0.5;" width="181" x="833" y="640.75"/><text fill="#000000" font-family="sans-serif" font-size="14" lengthAdjust="spacing" textLength="167" x="840" y="660.7451">:HTTPServerAjaxVoting</text><rect fill="#E2E2F0" height="30.2969" rx="2.5" ry="2.5" style="stroke:#181818;stroke-width:0.5;" width="192" x="1024" y="58.5938"/><text fill="#000000" font-family="sans-serif" font-size="14" lengthAdjust="spacing" textLength="178" x="1031" y="78.5889">:HTTPAjaxServerRequest</text><rect fill="#E2E2F0" height="30.2969" rx="2.5" ry="2.5" style="stroke:#181818;stroke-width:0.5;" width="192" x="1024" y="640.75"/><text fill="#000000" font-family="sans-serif" font-size="14" lengthAdjust="spacing" textLength="178" x="1031" y="660.7451">:HTTPAjaxServerRequest</text><rect fill="#E2E2F0" height="30.2969" rx="2.5" ry="2.5" style="stroke:#181818;stroke-width:0.5;" width="117" x="1226" y="58.5938"/><text fill="#000000" font-family="sans-serif" font-size="14" lengthAdjust="spacing" textLength="103" x="1233" y="78.5889">:HTTPMessage</text><rect fill="#E2E2F0" height="30.2969" rx="2.5" ry="2.5" style="stroke:#181818;stroke-width:0.5;" width="117" x="1226" y="640.75"/><text fill="#000000" font-family="sans-serif" font-size="14" lengthAdjust="spacing" textLength="103" x="1233" y="660.7451">:HTTPMessage</text><rect fill="#FFFFFF" height="523.8594" style="stroke:#181818;stroke-width:1.0;" width="10" x="69" y="99.8906"/><rect fill="#FFFFFF" height="502.7266" style="stroke:#181818;stroke-width:1.0;" width="10" x="215" y="121.0234"/><rect fill="#FFFFFF" height="88.2656" style="stroke:#181818;stroke-width:1.0;" width="10" x="353" y="192.2891"/><rect fill="#FFFFFF" height="59.1328" style="stroke:#181818;stroke-width:1.0;" width="10" x="463" y="221.4219"/><rect fill="#FFFFFF" height="59.1328" style="stroke:#181818;stroke-width:1.0;" width="10" x="568.5" y="250.5547"/><rect fill="#FFFFFF" height="30" style="stroke:#181818;stroke-width:1.0;" width="10" x="721.5" y="338.8203"/><rect fill="#FFFFFF" height="77.2656" style="stroke:#181818;stroke-width:1.0;" width="10" x="918.5" y="440.0859"/><rect fill="#FFFFFF" height="107.2656" style="stroke:#181818;stroke-width:1.0;" width="10" x="1115" y="487.3516"/><rect fill="#FFFFFF" height="30" style="stroke:#181818;stroke-width:1.0;" width="10" x="1279.5" y="564.6172"/><polygon fill="#181818" points="203,117.0234,213,121.0234,203,125.0234,207,121.0234" style="stroke:#181818;stroke-width:1.0;"/><line style="stroke:#181818;stroke-width:1.0;" x1="79" x2="209" y1="121.0234" y2="121.0234"/><text fill="#000000" font-family="sans-serif" font-size="13" lengthAdjust="spacing" textLength="61" x="86" y="115.9575">doShow()</text><line style="stroke:#181818;stroke-width:1.0;" x1="225" x2="267" y1="150.1563" y2="150.1563"/><line style="stroke:#181818;stroke-width:1.0;" x1="267" x2="267" y1="150.1563" y2="163.1563"/><line style="stroke:#181818;stroke-width:1.0;" x1="226" x2="267" y1="163.1563" y2="163.1563"/><polygon fill="#181818" points="236,159.1563,226,163.1563,236,167.1563,232,163.1563" style="stroke:#181818;stroke-width:1.0;"/><text fill="#000000" font-family="sans-serif" font-size="13" lengthAdjust="spacing" textLength="66" x="232" y="145.0903">infoAgvs()</text><polygon fill="#181818" points="341,188.2891,351,192.2891,341,196.2891,345,192.2891" style="stroke:#181818;stroke-width:1.0;"/><line style="stroke:#181818;stroke-width:1.0;" x1="225" x2="347" y1="192.2891" y2="192.2891"/><text fill="#000000" font-family="sans-serif" font-size="13" lengthAdjust="spacing" textLength="85" x="232" y="187.2231">repositories()</text><polygon fill="#181818" points="451,217.4219,461,221.4219,451,225.4219,455,221.4219" style="stroke:#181818;stroke-width:1.0;"/><line style="stroke:#181818;stroke-width:1.0;" x1="363" x2="457" y1="221.4219" y2="221.4219"/><text fill="#000000" font-family="sans-serif" font-size="13" lengthAdjust="spacing" textLength="41" x="370" y="216.356">create</text><polygon fill="#181818" points="556.5,246.5547,566.5,250.5547,556.5,254.5547,560.5,250.5547" style="stroke:#181818;stroke-width:1.0;"/><line style="stroke:#181818;stroke-width:1.0;" x1="473" x2="562.5" y1="250.5547" y2="250.5547"/><text fill="#000000" font-family="sans-serif" font-size="13" lengthAdjust="spacing" textLength="41" x="480" y="245.4888">create</text><polygon fill="#181818" points="561.5,305.6875,571.5,309.6875,561.5,313.6875,565.5,309.6875" style="stroke:#181818;stroke-width:1.0;"/><line style="stroke:#181818;stroke-width:1.0;" x1="225" x2="567.5" y1="309.6875" y2="309.6875"/><text fill="#000000" font-family="sans-serif" font-size="13" lengthAdjust="spacing" textLength="49" x="232" y="304.6216">findAll()</text><polygon fill="#181818" points="709.5,334.8203,719.5,338.8203,709.5,342.8203,713.5,338.8203" style="stroke:#181818;stroke-width:1.0;"/><line style="stroke:#181818;stroke-width:1.0;" x1="225" x2="715.5" y1="338.8203" y2="338.8203"/><text fill="#000000" font-family="sans-serif" font-size="13" lengthAdjust="spacing" textLength="354" x="232" y="333.7544">new AGVDashboardInfoDto(description,status,position)</text><line style="stroke:#181818;stroke-width:1.0;" x1="225" x2="267" y1="397.9531" y2="397.9531"/><line style="stroke:#181818;stroke-width:1.0;" x1="267" x2="267" y1="397.9531" y2="410.9531"/><line style="stroke:#181818;stroke-width:1.0;" x1="226" x2="267" y1="410.9531" y2="410.9531"/><polygon fill="#181818" points="236,406.9531,226,410.9531,236,414.9531,232,410.9531" style="stroke:#181818;stroke-width:1.0;"/><text fill="#000000" font-family="sans-serif" font-size="13" lengthAdjust="spacing" textLength="114" x="232" y="392.8872">showDashboard()</text><polygon fill="#181818" points="906.5,436.0859,916.5,440.0859,906.5,444.0859,910.5,440.0859" style="stroke:#181818;stroke-width:1.0;"/><line style="stroke:#181818;stroke-width:1.0;" x1="225" x2="912.5" y1="440.0859" y2="440.0859"/><text fill="#000000" font-family="sans-serif" font-size="13" lengthAdjust="spacing" textLength="40" x="232" y="435.02">start()</text><polygon fill="#181818" points="1103,483.3516,1113,487.3516,1103,491.3516,1107,487.3516" style="stroke:#181818;stroke-width:1.0;"/><line style="stroke:#181818;stroke-width:1.0;" x1="928.5" x2="1109" y1="487.3516" y2="487.3516"/><text fill="#000000" font-family="sans-serif" font-size="13" lengthAdjust="spacing" textLength="31" x="935.5" y="482.2856">run()</text><path d="M590,453.0859 L590,508.0859 L913,508.0859 L913,463.0859 L903,453.0859 L590,453.0859 " fill="#FEFFDD" style="stroke:#181818;stroke-width:0.5;"/><path d="M903,453.0859 L903,463.0859 L913,463.0859 L903,453.0859 " fill="#FEFFDD" style="stroke:#181818;stroke-width:0.5;"/><text fill="#000000" font-family="sans-serif" font-size="13" lengthAdjust="spacing" textLength="269" x="596" y="470.1528">this processes are executed and the agvs</text><text fill="#000000" font-family="sans-serif" font-size="13" lengthAdjust="spacing" textLength="302" x="596" y="485.2856">info is displayed on the dashboard (index.html)</text><text fill="#000000" font-family="sans-serif" font-size="13" lengthAdjust="spacing" textLength="250" x="596" y="500.4185">which is refreshed with and .js function</text><polygon fill="#181818" points="1267.5,560.6172,1277.5,564.6172,1267.5,568.6172,1271.5,564.6172" style="stroke:#181818;stroke-width:1.0;"/><line style="stroke:#181818;stroke-width:1.0;" x1="1125" x2="1273.5" y1="564.6172" y2="564.6172"/><text fill="#000000" font-family="sans-serif" font-size="13" lengthAdjust="spacing" textLength="99" x="1132" y="559.5513">HTTPMessage()</text><polygon fill="#181818" points="85,619.75,75,623.75,85,627.75,81,623.75" style="stroke:#181818;stroke-width:1.0;"/><line style="stroke:#181818;stroke-width:1.0;" x1="79" x2="219" y1="623.75" y2="623.75"/><text fill="#000000" font-family="sans-serif" font-size="13" lengthAdjust="spacing" textLength="106" x="91" y="618.6841">open Dashboard</text><!--MD5=[699fe437b62bfa972204f7a9e2c7bee9]
@startuml
title DASHBOARD

participant ":AGVsDasboardUI" as UI
participant ":AGVsDashboard\nController" as CTRL
participant ":Persistance\nContext" as PER
participant ":Repository\nFactory" as REPFAC
participant ":AVGs\nRepository" as AGVREP
participant ":AGVsDashboardInfoDTO" as DTO
participant ":HTTPServerAjaxVoting" as VOT
participant ":HTTPAjaxServerRequest" as REQ
participant ":HTTPMessage" as MES

activate UI
UI -> CTRL : doShow()
activate CTRL
CTRL -> CTRL : infoAgvs()
CTRL -> PER : repositories()
activate PER
PER -> REPFAC : create
activate REPFAC
REPFAC -> AGVREP : create
activate AGVREP
deactivate PER
deactivate REPFAC
CTRL -> AGVREP : findAll()
deactivate AGVREP
CTRL -> DTO : new AGVDashboardInfoDto(description,status,position)
activate DTO
deactivate DTO
CTRL -> CTRL : showDashboard()
CTRL -> VOT : start()
activate VOT
VOT -> REQ : run()
note bottom: this processes are executed and the agvs\ninfo is displayed on the dashboard (index.html)\nwhich is refreshed with and .js function
activate REQ
deactivate VOT
REQ -> MES : HTTPMessage()
activate MES
deactivate REQ
deactivate MES
CTRL -> UI : open Dashboard
deactivate REQ

deactivate DTO
deactivate CTRL
deactivate UI
@enduml

PlantUML version 1.2022.6beta2(Unknown compile time)
(GPL source distribution)
Java Runtime: Java(TM) SE Runtime Environment
JVM: Java HotSpot(TM) 64-Bit Server VM
Default Encoding: UTF-8
Language: en
Country: US
--></g></svg>