<?xml version="1.0" encoding="UTF-8" standalone="no"?><svg xmlns="http://www.w3.org/2000/svg" xmlns:xlink="http://www.w3.org/1999/xlink" contentStyleType="text/css" height="624px" preserveAspectRatio="none" style="width:1008px;height:624px;background:#FFFFFF;" version="1.1" viewBox="0 0 1008 624" width="1008px" zoomAndPan="magnify"><defs/><g><!--MD5=[363b972afd27ec17c81a982e62e232c4]
class AGVsDashboardUI--><g id="elem_AGVsDashboardUI"><rect codeLine="3" fill="#F1F1F1" height="64.2969" id="AGVsDashboardUI" rx="2.5" ry="2.5" style="stroke:#181818;stroke-width:0.5;" width="160" x="170" y="7"/><ellipse cx="185" cy="23" fill="#ADD1B2" rx="11" ry="11" style="stroke:#181818;stroke-width:1.0;"/><path d="M187.3438,18.6719 C186.4063,18.2344 185.8125,18.0938 184.9375,18.0938 C182.3125,18.0938 180.3125,20.1719 180.3125,22.8906 L180.3125,24.0156 C180.3125,26.5938 182.4219,28.4844 185.3125,28.4844 C186.5313,28.4844 187.6875,28.1875 188.4375,27.6406 C189.0156,27.2344 189.3438,26.7813 189.3438,26.3906 C189.3438,25.9375 188.9531,25.5469 188.4844,25.5469 C188.2656,25.5469 188.0625,25.625 187.875,25.8125 C187.4219,26.2969 187.4219,26.2969 187.2344,26.3906 C186.8125,26.6563 186.125,26.7813 185.3594,26.7813 C183.3125,26.7813 182.0156,25.6875 182.0156,23.9844 L182.0156,22.8906 C182.0156,21.1094 183.2656,19.7969 185,19.7969 C185.5781,19.7969 186.1875,19.9531 186.6563,20.2031 C187.1406,20.4844 187.3125,20.7031 187.4063,21.1094 C187.4688,21.5156 187.5,21.6406 187.6406,21.7656 C187.7813,21.9063 188.0156,22.0156 188.2344,22.0156 C188.5,22.0156 188.7656,21.875 188.9375,21.6563 C189.0469,21.5 189.0781,21.3125 189.0781,20.8906 L189.0781,19.4688 C189.0781,19.0313 189.0625,18.9063 188.9688,18.75 C188.8125,18.4844 188.5313,18.3438 188.2344,18.3438 C187.9375,18.3438 187.7344,18.4375 187.5156,18.75 L187.3438,18.6719 Z " fill="#000000"/><text fill="#000000" font-family="sans-serif" font-size="14" lengthAdjust="spacing" textLength="128" x="199" y="27.8467">AGVsDashboardUI</text><line style="stroke:#181818;stroke-width:0.5;" x1="171" x2="329" y1="39" y2="39"/><line style="stroke:#181818;stroke-width:0.5;" x1="171" x2="329" y1="47" y2="47"/><text fill="#000000" font-family="sans-serif" font-size="14" lengthAdjust="spacing" textLength="77" x="176" y="63.9951">+doShow()</text></g><!--MD5=[fb6956701906676b745c061cdaf66dad]
class AGVsDashboardController--><g id="elem_AGVsDashboardController"><rect codeLine="7" fill="#F1F1F1" height="80.5938" id="AGVsDashboardController" rx="2.5" ry="2.5" style="stroke:#181818;stroke-width:0.5;" width="220" x="140" y="131"/><ellipse cx="155" cy="147" fill="#ADD1B2" rx="11" ry="11" style="stroke:#181818;stroke-width:1.0;"/><path d="M157.3438,142.6719 C156.4063,142.2344 155.8125,142.0938 154.9375,142.0938 C152.3125,142.0938 150.3125,144.1719 150.3125,146.8906 L150.3125,148.0156 C150.3125,150.5938 152.4219,152.4844 155.3125,152.4844 C156.5313,152.4844 157.6875,152.1875 158.4375,151.6406 C159.0156,151.2344 159.3438,150.7813 159.3438,150.3906 C159.3438,149.9375 158.9531,149.5469 158.4844,149.5469 C158.2656,149.5469 158.0625,149.625 157.875,149.8125 C157.4219,150.2969 157.4219,150.2969 157.2344,150.3906 C156.8125,150.6563 156.125,150.7813 155.3594,150.7813 C153.3125,150.7813 152.0156,149.6875 152.0156,147.9844 L152.0156,146.8906 C152.0156,145.1094 153.2656,143.7969 155,143.7969 C155.5781,143.7969 156.1875,143.9531 156.6563,144.2031 C157.1406,144.4844 157.3125,144.7031 157.4063,145.1094 C157.4688,145.5156 157.5,145.6406 157.6406,145.7656 C157.7813,145.9063 158.0156,146.0156 158.2344,146.0156 C158.5,146.0156 158.7656,145.875 158.9375,145.6563 C159.0469,145.5 159.0781,145.3125 159.0781,144.8906 L159.0781,143.4688 C159.0781,143.0313 159.0625,142.9063 158.9688,142.75 C158.8125,142.4844 158.5313,142.3438 158.2344,142.3438 C157.9375,142.3438 157.7344,142.4375 157.5156,142.75 L157.3438,142.6719 Z " fill="#000000"/><text fill="#000000" font-family="sans-serif" font-size="14" lengthAdjust="spacing" textLength="188" x="169" y="151.8467">AGVsDashboardController</text><line style="stroke:#181818;stroke-width:0.5;" x1="141" x2="359" y1="163" y2="163"/><line style="stroke:#181818;stroke-width:0.5;" x1="141" x2="359" y1="171" y2="171"/><text fill="#000000" font-family="sans-serif" font-size="14" lengthAdjust="spacing" textLength="139" x="146" y="187.9951">+showDashboard();</text><text fill="#000000" font-family="sans-serif" font-size="14" lengthAdjust="spacing" textLength="86" x="146" y="204.292">+agvsInfo();</text></g><!--MD5=[e8c189551b7885b999ad7cefb30fc2a3]
class PersistenceContext--><g id="elem_PersistenceContext"><rect codeLine="12" fill="#F1F1F1" height="96.8906" id="PersistenceContext" rx="2.5" ry="2.5" style="stroke:#181818;stroke-width:0.5;" width="234" x="7" y="272"/><ellipse cx="48.55" cy="288" fill="#ADD1B2" rx="11" ry="11" style="stroke:#181818;stroke-width:1.0;"/><path d="M50.8938,283.6719 C49.9563,283.2344 49.3625,283.0938 48.4875,283.0938 C45.8625,283.0938 43.8625,285.1719 43.8625,287.8906 L43.8625,289.0156 C43.8625,291.5938 45.9719,293.4844 48.8625,293.4844 C50.0813,293.4844 51.2375,293.1875 51.9875,292.6406 C52.5656,292.2344 52.8938,291.7813 52.8938,291.3906 C52.8938,290.9375 52.5031,290.5469 52.0344,290.5469 C51.8156,290.5469 51.6125,290.625 51.425,290.8125 C50.9719,291.2969 50.9719,291.2969 50.7844,291.3906 C50.3625,291.6563 49.675,291.7813 48.9094,291.7813 C46.8625,291.7813 45.5656,290.6875 45.5656,288.9844 L45.5656,287.8906 C45.5656,286.1094 46.8156,284.7969 48.55,284.7969 C49.1281,284.7969 49.7375,284.9531 50.2063,285.2031 C50.6906,285.4844 50.8625,285.7031 50.9563,286.1094 C51.0188,286.5156 51.05,286.6406 51.1906,286.7656 C51.3313,286.9063 51.5656,287.0156 51.7844,287.0156 C52.05,287.0156 52.3156,286.875 52.4875,286.6563 C52.5969,286.5 52.6281,286.3125 52.6281,285.8906 L52.6281,284.4688 C52.6281,284.0313 52.6125,283.9063 52.5188,283.75 C52.3625,283.4844 52.0813,283.3438 51.7844,283.3438 C51.4875,283.3438 51.2844,283.4375 51.0656,283.75 L50.8938,283.6719 Z " fill="#000000"/><text fill="#000000" font-family="sans-serif" font-size="14" lengthAdjust="spacing" textLength="143" x="68.45" y="292.8467">PersistenceContext</text><line style="stroke:#181818;stroke-width:0.5;" x1="8" x2="240" y1="304" y2="304"/><text fill="#000000" font-family="sans-serif" font-size="14" lengthAdjust="spacing" textLength="120" x="13" y="320.9951">-Logger LOGGER</text><text fill="#000000" font-family="sans-serif" font-size="14" lengthAdjust="spacing" textLength="222" x="13" y="337.292">-RepositoryFactory theFactory</text><line style="stroke:#181818;stroke-width:0.5;" x1="8" x2="240" y1="344.5938" y2="344.5938"/><text fill="#000000" font-family="sans-serif" font-size="14" lengthAdjust="spacing" textLength="108" x="13" y="361.5889">+repositories()</text></g><!--MD5=[48590afff58a68e2fcba47824d6f8a11]
class RepositoryFactory--><g id="elem_RepositoryFactory"><rect codeLine="18" fill="#F1F1F1" height="64.2969" id="RepositoryFactory" rx="2.5" ry="2.5" style="stroke:#181818;stroke-width:0.5;" width="165" x="41.5" y="429"/><ellipse cx="56.5" cy="445" fill="#ADD1B2" rx="11" ry="11" style="stroke:#181818;stroke-width:1.0;"/><path d="M58.8438,440.6719 C57.9063,440.2344 57.3125,440.0938 56.4375,440.0938 C53.8125,440.0938 51.8125,442.1719 51.8125,444.8906 L51.8125,446.0156 C51.8125,448.5938 53.9219,450.4844 56.8125,450.4844 C58.0313,450.4844 59.1875,450.1875 59.9375,449.6406 C60.5156,449.2344 60.8438,448.7813 60.8438,448.3906 C60.8438,447.9375 60.4531,447.5469 59.9844,447.5469 C59.7656,447.5469 59.5625,447.625 59.375,447.8125 C58.9219,448.2969 58.9219,448.2969 58.7344,448.3906 C58.3125,448.6563 57.625,448.7813 56.8594,448.7813 C54.8125,448.7813 53.5156,447.6875 53.5156,445.9844 L53.5156,444.8906 C53.5156,443.1094 54.7656,441.7969 56.5,441.7969 C57.0781,441.7969 57.6875,441.9531 58.1563,442.2031 C58.6406,442.4844 58.8125,442.7031 58.9063,443.1094 C58.9688,443.5156 59,443.6406 59.1406,443.7656 C59.2813,443.9063 59.5156,444.0156 59.7344,444.0156 C60,444.0156 60.2656,443.875 60.4375,443.6563 C60.5469,443.5 60.5781,443.3125 60.5781,442.8906 L60.5781,441.4688 C60.5781,441.0313 60.5625,440.9063 60.4688,440.75 C60.3125,440.4844 60.0313,440.3438 59.7344,440.3438 C59.4375,440.3438 59.2344,440.4375 59.0156,440.75 L58.8438,440.6719 Z " fill="#000000"/><text fill="#000000" font-family="sans-serif" font-size="14" lengthAdjust="spacing" textLength="133" x="70.5" y="449.8467">RepositoryFactory</text><line style="stroke:#181818;stroke-width:0.5;" x1="42.5" x2="205.5" y1="461" y2="461"/><line style="stroke:#181818;stroke-width:0.5;" x1="42.5" x2="205.5" y1="469" y2="469"/><text fill="#000000" font-family="sans-serif" font-size="14" lengthAdjust="spacing" textLength="53" x="47.5" y="485.9951">+agvs()</text></g><!--MD5=[7799cb959f8bb7cb7fd993d5fbd75b00]
class AGVsRepository--><g id="elem_AGVsRepository"><rect codeLine="22" fill="#F1F1F1" height="64.2969" id="AGVsRepository" rx="2.5" ry="2.5" style="stroke:#181818;stroke-width:0.5;" width="149" x="49.5" y="553"/><ellipse cx="64.5" cy="569" fill="#ADD1B2" rx="11" ry="11" style="stroke:#181818;stroke-width:1.0;"/><path d="M66.8438,564.6719 C65.9063,564.2344 65.3125,564.0938 64.4375,564.0938 C61.8125,564.0938 59.8125,566.1719 59.8125,568.8906 L59.8125,570.0156 C59.8125,572.5938 61.9219,574.4844 64.8125,574.4844 C66.0313,574.4844 67.1875,574.1875 67.9375,573.6406 C68.5156,573.2344 68.8438,572.7813 68.8438,572.3906 C68.8438,571.9375 68.4531,571.5469 67.9844,571.5469 C67.7656,571.5469 67.5625,571.625 67.375,571.8125 C66.9219,572.2969 66.9219,572.2969 66.7344,572.3906 C66.3125,572.6563 65.625,572.7813 64.8594,572.7813 C62.8125,572.7813 61.5156,571.6875 61.5156,569.9844 L61.5156,568.8906 C61.5156,567.1094 62.7656,565.7969 64.5,565.7969 C65.0781,565.7969 65.6875,565.9531 66.1563,566.2031 C66.6406,566.4844 66.8125,566.7031 66.9063,567.1094 C66.9688,567.5156 67,567.6406 67.1406,567.7656 C67.2813,567.9063 67.5156,568.0156 67.7344,568.0156 C68,568.0156 68.2656,567.875 68.4375,567.6563 C68.5469,567.5 68.5781,567.3125 68.5781,566.8906 L68.5781,565.4688 C68.5781,565.0313 68.5625,564.9063 68.4688,564.75 C68.3125,564.4844 68.0313,564.3438 67.7344,564.3438 C67.4375,564.3438 67.2344,564.4375 67.0156,564.75 L66.8438,564.6719 Z " fill="#000000"/><text fill="#000000" font-family="sans-serif" font-size="14" lengthAdjust="spacing" textLength="117" x="78.5" y="573.8467">AGVsRepository</text><line style="stroke:#181818;stroke-width:0.5;" x1="50.5" x2="197.5" y1="585" y2="585"/><line style="stroke:#181818;stroke-width:0.5;" x1="50.5" x2="197.5" y1="593" y2="593"/><text fill="#000000" font-family="sans-serif" font-size="14" lengthAdjust="spacing" textLength="72" x="55.5" y="609.9951">+findAll();</text></g><!--MD5=[ccd2a45e2e3a0dcc9adf48c1853256d3]
class HTTPServerAjaxVoting--><g id="elem_HTTPServerAjaxVoting"><rect codeLine="26" fill="#F1F1F1" height="64.2969" id="HTTPServerAjaxVoting" rx="2.5" ry="2.5" style="stroke:#181818;stroke-width:0.5;" width="194" x="395" y="139.5"/><ellipse cx="410" cy="155.5" fill="#ADD1B2" rx="11" ry="11" style="stroke:#181818;stroke-width:1.0;"/><path d="M412.3438,151.1719 C411.4063,150.7344 410.8125,150.5938 409.9375,150.5938 C407.3125,150.5938 405.3125,152.6719 405.3125,155.3906 L405.3125,156.5156 C405.3125,159.0938 407.4219,160.9844 410.3125,160.9844 C411.5313,160.9844 412.6875,160.6875 413.4375,160.1406 C414.0156,159.7344 414.3438,159.2813 414.3438,158.8906 C414.3438,158.4375 413.9531,158.0469 413.4844,158.0469 C413.2656,158.0469 413.0625,158.125 412.875,158.3125 C412.4219,158.7969 412.4219,158.7969 412.2344,158.8906 C411.8125,159.1563 411.125,159.2813 410.3594,159.2813 C408.3125,159.2813 407.0156,158.1875 407.0156,156.4844 L407.0156,155.3906 C407.0156,153.6094 408.2656,152.2969 410,152.2969 C410.5781,152.2969 411.1875,152.4531 411.6563,152.7031 C412.1406,152.9844 412.3125,153.2031 412.4063,153.6094 C412.4688,154.0156 412.5,154.1406 412.6406,154.2656 C412.7813,154.4063 413.0156,154.5156 413.2344,154.5156 C413.5,154.5156 413.7656,154.375 413.9375,154.1563 C414.0469,154 414.0781,153.8125 414.0781,153.3906 L414.0781,151.9688 C414.0781,151.5313 414.0625,151.4063 413.9688,151.25 C413.8125,150.9844 413.5313,150.8438 413.2344,150.8438 C412.9375,150.8438 412.7344,150.9375 412.5156,151.25 L412.3438,151.1719 Z " fill="#000000"/><text fill="#000000" font-family="sans-serif" font-size="14" lengthAdjust="spacing" textLength="162" x="424" y="160.3467">HTTPServerAjaxVoting</text><line style="stroke:#181818;stroke-width:0.5;" x1="396" x2="588" y1="171.5" y2="171.5"/><line style="stroke:#181818;stroke-width:0.5;" x1="396" x2="588" y1="179.5" y2="179.5"/><text fill="#000000" font-family="sans-serif" font-size="14" lengthAdjust="spacing" textLength="61" x="401" y="196.4951">+start();</text></g><!--MD5=[87e77d02fb3e3d718169517b5a8fd9d4]
class HTTPMessage--><g id="elem_HTTPMessage"><rect codeLine="29" fill="#F1F1F1" height="64.2969" id="HTTPMessage" rx="2.5" ry="2.5" style="stroke:#181818;stroke-width:0.5;" width="136" x="865" y="139.5"/><ellipse cx="882.7" cy="155.5" fill="#ADD1B2" rx="11" ry="11" style="stroke:#181818;stroke-width:1.0;"/><path d="M885.0438,151.1719 C884.1063,150.7344 883.5125,150.5938 882.6375,150.5938 C880.0125,150.5938 878.0125,152.6719 878.0125,155.3906 L878.0125,156.5156 C878.0125,159.0938 880.1219,160.9844 883.0125,160.9844 C884.2313,160.9844 885.3875,160.6875 886.1375,160.1406 C886.7156,159.7344 887.0438,159.2813 887.0438,158.8906 C887.0438,158.4375 886.6531,158.0469 886.1844,158.0469 C885.9656,158.0469 885.7625,158.125 885.575,158.3125 C885.1219,158.7969 885.1219,158.7969 884.9344,158.8906 C884.5125,159.1563 883.825,159.2813 883.0594,159.2813 C881.0125,159.2813 879.7156,158.1875 879.7156,156.4844 L879.7156,155.3906 C879.7156,153.6094 880.9656,152.2969 882.7,152.2969 C883.2781,152.2969 883.8875,152.4531 884.3563,152.7031 C884.8406,152.9844 885.0125,153.2031 885.1063,153.6094 C885.1688,154.0156 885.2,154.1406 885.3406,154.2656 C885.4813,154.4063 885.7156,154.5156 885.9344,154.5156 C886.2,154.5156 886.4656,154.375 886.6375,154.1563 C886.7469,154 886.7781,153.8125 886.7781,153.3906 L886.7781,151.9688 C886.7781,151.5313 886.7625,151.4063 886.6688,151.25 C886.5125,150.9844 886.2313,150.8438 885.9344,150.8438 C885.6375,150.8438 885.4344,150.9375 885.2156,151.25 L885.0438,151.1719 Z " fill="#000000"/><text fill="#000000" font-family="sans-serif" font-size="14" lengthAdjust="spacing" textLength="98" x="897.3" y="160.3467">HTTPMessage</text><line style="stroke:#181818;stroke-width:0.5;" x1="866" x2="1000" y1="171.5" y2="171.5"/><line style="stroke:#181818;stroke-width:0.5;" x1="866" x2="1000" y1="179.5" y2="179.5"/><text fill="#000000" font-family="sans-serif" font-size="14" lengthAdjust="spacing" textLength="124" x="871" y="196.4951">+HTTPMessage();</text></g><!--MD5=[90a796b93d26134dafdf52d4b32a8b11]
class HTTPAjaxVotingRequest--><g id="elem_HTTPAjaxVotingRequest"><rect codeLine="32" fill="#F1F1F1" height="64.2969" id="HTTPAjaxVotingRequest" rx="2.5" ry="2.5" style="stroke:#181818;stroke-width:0.5;" width="206" x="624" y="139.5"/><ellipse cx="639" cy="155.5" fill="#ADD1B2" rx="11" ry="11" style="stroke:#181818;stroke-width:1.0;"/><path d="M641.3438,151.1719 C640.4063,150.7344 639.8125,150.5938 638.9375,150.5938 C636.3125,150.5938 634.3125,152.6719 634.3125,155.3906 L634.3125,156.5156 C634.3125,159.0938 636.4219,160.9844 639.3125,160.9844 C640.5313,160.9844 641.6875,160.6875 642.4375,160.1406 C643.0156,159.7344 643.3438,159.2813 643.3438,158.8906 C643.3438,158.4375 642.9531,158.0469 642.4844,158.0469 C642.2656,158.0469 642.0625,158.125 641.875,158.3125 C641.4219,158.7969 641.4219,158.7969 641.2344,158.8906 C640.8125,159.1563 640.125,159.2813 639.3594,159.2813 C637.3125,159.2813 636.0156,158.1875 636.0156,156.4844 L636.0156,155.3906 C636.0156,153.6094 637.2656,152.2969 639,152.2969 C639.5781,152.2969 640.1875,152.4531 640.6563,152.7031 C641.1406,152.9844 641.3125,153.2031 641.4063,153.6094 C641.4688,154.0156 641.5,154.1406 641.6406,154.2656 C641.7813,154.4063 642.0156,154.5156 642.2344,154.5156 C642.5,154.5156 642.7656,154.375 642.9375,154.1563 C643.0469,154 643.0781,153.8125 643.0781,153.3906 L643.0781,151.9688 C643.0781,151.5313 643.0625,151.4063 642.9688,151.25 C642.8125,150.9844 642.5313,150.8438 642.2344,150.8438 C641.9375,150.8438 641.7344,150.9375 641.5156,151.25 L641.3438,151.1719 Z " fill="#000000"/><text fill="#000000" font-family="sans-serif" font-size="14" lengthAdjust="spacing" textLength="174" x="653" y="160.3467">HTTPAjaxVotingRequest</text><line style="stroke:#181818;stroke-width:0.5;" x1="625" x2="829" y1="171.5" y2="171.5"/><line style="stroke:#181818;stroke-width:0.5;" x1="625" x2="829" y1="179.5" y2="179.5"/><text fill="#000000" font-family="sans-serif" font-size="14" lengthAdjust="spacing" textLength="49" x="630" y="196.4951">+run();</text></g><!--MD5=[ae93a5ed91bab41978f599b885d6d201]
class AGVDashboardInfoDTO--><g id="elem_AGVDashboardInfoDTO"><rect codeLine="36" fill="#F1F1F1" height="96.8906" id="AGVDashboardInfoDTO" rx="2.5" ry="2.5" style="stroke:#181818;stroke-width:0.5;" width="199" x="276.5" y="272"/><ellipse cx="291.5" cy="288" fill="#ADD1B2" rx="11" ry="11" style="stroke:#181818;stroke-width:1.0;"/><path d="M293.8438,283.6719 C292.9063,283.2344 292.3125,283.0938 291.4375,283.0938 C288.8125,283.0938 286.8125,285.1719 286.8125,287.8906 L286.8125,289.0156 C286.8125,291.5938 288.9219,293.4844 291.8125,293.4844 C293.0313,293.4844 294.1875,293.1875 294.9375,292.6406 C295.5156,292.2344 295.8438,291.7813 295.8438,291.3906 C295.8438,290.9375 295.4531,290.5469 294.9844,290.5469 C294.7656,290.5469 294.5625,290.625 294.375,290.8125 C293.9219,291.2969 293.9219,291.2969 293.7344,291.3906 C293.3125,291.6563 292.625,291.7813 291.8594,291.7813 C289.8125,291.7813 288.5156,290.6875 288.5156,288.9844 L288.5156,287.8906 C288.5156,286.1094 289.7656,284.7969 291.5,284.7969 C292.0781,284.7969 292.6875,284.9531 293.1563,285.2031 C293.6406,285.4844 293.8125,285.7031 293.9063,286.1094 C293.9688,286.5156 294,286.6406 294.1406,286.7656 C294.2813,286.9063 294.5156,287.0156 294.7344,287.0156 C295,287.0156 295.2656,286.875 295.4375,286.6563 C295.5469,286.5 295.5781,286.3125 295.5781,285.8906 L295.5781,284.4688 C295.5781,284.0313 295.5625,283.9063 295.4688,283.75 C295.3125,283.4844 295.0313,283.3438 294.7344,283.3438 C294.4375,283.3438 294.2344,283.4375 294.0156,283.75 L293.8438,283.6719 Z " fill="#000000"/><text fill="#000000" font-family="sans-serif" font-size="14" lengthAdjust="spacing" textLength="167" x="305.5" y="292.8467">AGVDashboardInfoDTO</text><line style="stroke:#181818;stroke-width:0.5;" x1="277.5" x2="474.5" y1="304" y2="304"/><text fill="#000000" font-family="sans-serif" font-size="14" lengthAdjust="spacing" textLength="138" x="282.5" y="320.9951">-String Description</text><text fill="#000000" font-family="sans-serif" font-size="14" lengthAdjust="spacing" textLength="100" x="282.5" y="337.292">-String Status</text><text fill="#000000" font-family="sans-serif" font-size="14" lengthAdjust="spacing" textLength="112" x="282.5" y="353.5889">-String Position</text><line style="stroke:#181818;stroke-width:0.5;" x1="277.5" x2="474.5" y1="360.8906" y2="360.8906"/></g><!--MD5=[5055edc65bfe75263670dadaf95c9b2c]
link AGVsDashboardUI to AGVsDashboardController--><g id="link_AGVsDashboardUI_AGVsDashboardController"><path codeLine="42" d="M250,71.258 C250,87.385 250,107.356 250,125.145 " fill="none" id="AGVsDashboardUI-to-AGVsDashboardController" style="stroke:#181818;stroke-width:1.0;stroke-dasharray:7.0,7.0;"/><polygon fill="#181818" points="250,130.589,254,121.589,250,125.589,246,121.589,250,130.589" style="stroke:#181818;stroke-width:1.0;"/></g><!--MD5=[2817fe2668c7de5f86a00020005d257b]
link AGVsDashboardController to AGVDashboardInfoDTO--><g id="link_AGVsDashboardController_AGVDashboardInfoDTO"><path codeLine="43" d="M284.097,212.28 C298.733,229.355 316.025,249.53 331.639,267.746 " fill="none" id="AGVsDashboardController-to-AGVDashboardInfoDTO" style="stroke:#181818;stroke-width:1.0;"/><polygon fill="#181818" points="335.151,271.843,332.3297,262.4069,331.8966,268.0471,326.2563,267.614,335.151,271.843" style="stroke:#181818;stroke-width:1.0;"/></g><!--MD5=[31ae85f3fa2b8dff73499a55f270d4bb]
link AGVsDashboardController to PersistenceContext--><g id="link_AGVsDashboardController_PersistenceContext"><path codeLine="44" d="M215.903,212.28 C201.267,229.355 183.975,249.53 168.361,267.746 " fill="none" id="AGVsDashboardController-to-PersistenceContext" style="stroke:#181818;stroke-width:1.0;"/><polygon fill="#181818" points="164.849,271.843,173.7437,267.614,168.1034,268.0471,167.6703,262.4069,164.849,271.843" style="stroke:#181818;stroke-width:1.0;"/></g><!--MD5=[754b775031405e096442b27febffa290]
link PersistenceContext to RepositoryFactory--><g id="link_PersistenceContext_RepositoryFactory"><path codeLine="45" d="M124,369.164 C124,387.034 124,407.035 124,423.71 " fill="none" id="PersistenceContext-to-RepositoryFactory" style="stroke:#181818;stroke-width:1.0;"/><polygon fill="#181818" points="124,428.772,128,419.772,124,423.772,120,419.772,124,428.772" style="stroke:#181818;stroke-width:1.0;"/></g><!--MD5=[2e1a90eaefeac96a2bad013bfa8d5909]
link RepositoryFactory to AGVsRepository--><g id="link_RepositoryFactory_AGVsRepository"><path codeLine="46" d="M124,493.101 C124,509.736 124,530.311 124,547.6769 " fill="none" id="RepositoryFactory-to-AGVsRepository" style="stroke:#181818;stroke-width:1.0;"/><polygon fill="#181818" points="124,552.9554,128,543.9554,124,547.9554,120,543.9554,124,552.9554" style="stroke:#181818;stroke-width:1.0;"/></g><!--MD5=[50e9049f4cd4e5982ff9793a19a4f781]
link AGVsDashboardController to HTTPServerAjaxVoting--><g id="link_AGVsDashboardController_HTTPServerAjaxVoting"><path codeLine="47" d="M360.129,171.5 C369.999,171.5 379.869,171.5 389.738,171.5 " fill="none" id="AGVsDashboardController-to-HTTPServerAjaxVoting" style="stroke:#181818;stroke-width:1.0;"/><polygon fill="#181818" points="394.9,171.5,385.9,167.5,389.9,171.5,385.9,175.5,394.9,171.5" style="stroke:#181818;stroke-width:1.0;"/></g><!--MD5=[48c0ebd3bae70babeca7132fd24f0e6e]
link HTTPServerAjaxVoting to HTTPAjaxVotingRequest--><g id="link_HTTPServerAjaxVoting_HTTPAjaxVotingRequest"><path codeLine="48" d="M589.305,171.5 C599.152,171.5 609,171.5 618.848,171.5 " fill="none" id="HTTPServerAjaxVoting-to-HTTPAjaxVotingRequest" style="stroke:#181818;stroke-width:1.0;"/><polygon fill="#181818" points="623.997,171.5,614.997,167.5,618.997,171.5,614.997,175.5,623.997,171.5" style="stroke:#181818;stroke-width:1.0;"/></g><!--MD5=[76db5136d15262031131a659faa3a5ec]
link HTTPAjaxVotingRequest to HTTPMessage--><g id="link_HTTPAjaxVotingRequest_HTTPMessage"><path codeLine="49" d="M830.402,171.5 C840.186,171.5 849.969,171.5 859.753,171.5 " fill="none" id="HTTPAjaxVotingRequest-to-HTTPMessage" style="stroke:#181818;stroke-width:1.0;"/><polygon fill="#181818" points="864.869,171.5,855.869,167.5,859.869,171.5,855.869,175.5,864.869,171.5" style="stroke:#181818;stroke-width:1.0;"/></g><!--MD5=[ebb95398f6db9d6de182140bf850d228]
@startuml
skinparam classAttributeIconSize 0

Class "AGVsDashboardUI"{
+doShow()
}

Class "AGVsDashboardController"{
+showDashboard();
+agvsInfo();
}

class PersistenceContext {
-Logger LOGGER
-RepositoryFactory theFactory
+repositories()
}

class RepositoryFactory{
+agvs()
}

class AGVsRepository{
+findAll();
}

class HTTPServerAjaxVoting{
+start();
}
class HTTPMessage{
+HTTPMessage();
}
class HTTPAjaxVotingRequest{
+run();
}

class AGVDashboardInfoDTO {
-String Description
-String Status
-String Position
}

AGVsDashboardUI ..> AGVsDashboardController
AGVsDashboardController -d-> AGVDashboardInfoDTO
AGVsDashboardController -d-> PersistenceContext
PersistenceContext -d-> RepositoryFactory
RepositoryFactory -d-> AGVsRepository
AGVsDashboardController -> HTTPServerAjaxVoting
HTTPServerAjaxVoting -> HTTPAjaxVotingRequest
HTTPAjaxVotingRequest -> HTTPMessage
@enduml

PlantUML version 1.2022.6beta2(Unknown compile time)
(GPL source distribution)
Java Runtime: Java(TM) SE Runtime Environment
JVM: Java HotSpot(TM) 64-Bit Server VM
Default Encoding: UTF-8
Language: en
Country: US
--></g></svg>