<?xml version="1.0" encoding="UTF-8" standalone="no"?><svg xmlns="http://www.w3.org/2000/svg" xmlns:xlink="http://www.w3.org/1999/xlink" contentStyleType="text/css" height="627px" preserveAspectRatio="none" style="width:1189px;height:627px;background:#FFFFFF;" version="1.1" viewBox="0 0 1189 627" width="1189.8px" zoomAndPan="magnify"><defs/><g><!--MD5=[f652abdb07939089d2a2a39499dfccec]
class AnswerToSurveyUI--><g id="elem_AnswerToSurveyUI"><rect codeLine="3" fill="#F1F1F1" height="28.8" id="AnswerToSurveyUI" rx="1.5" ry="1.5" style="stroke:#181818;stroke-width:0.3;" width="90.6" x="821.1" y="4.2"/><ellipse cx="830.1" cy="13.8" fill="#ADD1B2" rx="6.6" ry="6.6" style="stroke:#181818;stroke-width:0.6;"/><path d="M831.3,11.7 Q831.4219,11.4 831.5625,11.25 Q831.7031,11.1 831.8625,11.1 Q832.1438,11.1 832.3219,11.2687 Q832.5,11.4375 832.5,11.8312 L832.5,12.7687 Q832.5,13.1625 832.3313,13.3312 Q832.1625,13.5 831.9,13.5 Q831.6656,13.5 831.5156,13.3969 Q831.3656,13.2938 831.3,13.0219 Q831.2719,12.8344 831.1687,12.7313 Q830.9812,12.5344 830.6438,12.4219 Q830.3063,12.3 829.9688,12.3 Q829.5469,12.3 829.1906,12.4688 Q828.8438,12.6375 828.5719,13.0125 Q828.3,13.3875 828.3,13.9031 L828.3,14.4562 Q828.3,15.075 828.8063,15.4875 Q829.3125,15.9 830.2125,15.9 Q830.7469,15.9 831.1219,15.7781 Q831.3375,15.7125 831.5813,15.4969 Q831.7406,15.375 831.825,15.3375 Q831.9094,15.3 832.0125,15.3 Q832.2094,15.3 832.35,15.4594 Q832.5,15.6094 832.5,15.825 Q832.5,16.0313 832.2937,16.275 Q831.9938,16.6312 831.5156,16.8281 Q830.8875,17.1 830.1188,17.1 Q829.2188,17.1 828.4969,16.7438 Q827.9156,16.4625 827.5031,15.8531 Q827.1,15.2437 827.1,14.5219 L827.1,13.8656 Q827.1,13.1156 827.4563,12.4594 Q827.8219,11.8031 828.45,11.4562 Q829.0875,11.1 829.8,11.1 Q830.2312,11.1 830.6062,11.25 Q830.9812,11.4 831.3,11.7 Z " fill="#000000"/><text fill="#000000" font-family="sans-serif" font-size="8.4" lengthAdjust="spacing" textLength="71.4" x="838.5" y="17.2371">AnswerToSurveyUI</text><line style="stroke:#181818;stroke-width:0.3;" x1="821.7" x2="911.1" y1="23.4" y2="23.4"/><line style="stroke:#181818;stroke-width:0.3;" x1="821.7" x2="911.1" y1="28.2" y2="28.2"/></g><!--MD5=[1392191afe825be7452c7477a8df8301]
class SurveyController--><g id="elem_SurveyController"><rect codeLine="6" fill="#F1F1F1" height="102.7594" id="SurveyController" rx="1.5" ry="1.5" style="stroke:#181818;stroke-width:0.3;" width="191.4" x="770.7" y="69.6"/><ellipse cx="832.05" cy="79.2" fill="#ADD1B2" rx="6.6" ry="6.6" style="stroke:#181818;stroke-width:0.6;"/><path d="M833.25,77.1 Q833.3719,76.8 833.5125,76.65 Q833.6531,76.5 833.8125,76.5 Q834.0938,76.5 834.2719,76.6688 Q834.45,76.8375 834.45,77.2313 L834.45,78.1688 Q834.45,78.5625 834.2813,78.7313 Q834.1125,78.9 833.85,78.9 Q833.6156,78.9 833.4656,78.7969 Q833.3156,78.6938 833.25,78.4219 Q833.2219,78.2344 833.1188,78.1313 Q832.9313,77.9344 832.5938,77.8219 Q832.2563,77.7 831.9187,77.7 Q831.4969,77.7 831.1406,77.8687 Q830.7937,78.0375 830.5219,78.4125 Q830.25,78.7875 830.25,79.3031 L830.25,79.8563 Q830.25,80.475 830.7563,80.8875 Q831.2625,81.3 832.1625,81.3 Q832.6969,81.3 833.0719,81.1781 Q833.2875,81.1125 833.5313,80.8969 Q833.6906,80.775 833.775,80.7375 Q833.8594,80.7 833.9625,80.7 Q834.1594,80.7 834.3,80.8594 Q834.45,81.0094 834.45,81.225 Q834.45,81.4312 834.2438,81.675 Q833.9438,82.0313 833.4656,82.2281 Q832.8375,82.5 832.0688,82.5 Q831.1687,82.5 830.4469,82.1438 Q829.8656,81.8625 829.4531,81.2531 Q829.05,80.6438 829.05,79.9219 L829.05,79.2656 Q829.05,78.5156 829.4063,77.8594 Q829.7719,77.2031 830.4,76.8563 Q831.0375,76.5 831.75,76.5 Q832.1813,76.5 832.5563,76.65 Q832.9313,76.8 833.25,77.1 Z " fill="#000000"/><text fill="#000000" font-family="sans-serif" font-size="8.4" lengthAdjust="spacing" textLength="63.6" x="844.35" y="82.6371">SurveyController</text><line style="stroke:#181818;stroke-width:0.3;" x1="771.3" x2="961.5" y1="88.8" y2="88.8"/><line style="stroke:#181818;stroke-width:0.3;" x1="771.3" x2="961.5" y1="93.6" y2="93.6"/><text fill="#000000" font-family="sans-serif" font-size="8.4" lengthAdjust="spacing" textLength="113.4" x="774.3" y="104.7199">+buildQuestion(questionDTO)</text><text fill="#000000" font-family="sans-serif" font-size="8.4" lengthAdjust="spacing" textLength="102" x="774.3" y="115.2855">+buildSection(sectionDTO)</text><text fill="#000000" font-family="sans-serif" font-size="8.4" lengthAdjust="spacing" textLength="184.2" x="774.3" y="125.8512">+buildQuestionnaire(questionnaireDTO, fileFlag)</text><text fill="#000000" font-family="sans-serif" font-size="8.4" lengthAdjust="spacing" textLength="78.6" x="774.3" y="136.4168">+cleanQuestionList()</text><text fill="#000000" font-family="sans-serif" font-size="8.4" lengthAdjust="spacing" textLength="87" x="774.3" y="146.9824">+receiveSurveyString()</text><text fill="#000000" font-family="sans-serif" font-size="8.4" lengthAdjust="spacing" textLength="127.8" x="774.3" y="157.548">+receiveFullQuestionnaireString()</text><text fill="#000000" font-family="sans-serif" font-size="8.4" lengthAdjust="spacing" textLength="55.2" x="774.3" y="168.1137">+saveSurvey()</text></g><!--MD5=[494e0bdb5c8bb794bcdf99253cad2029]
class AlphanumericCode--><g id="elem_AlphanumericCode"><rect codeLine="16" fill="#F1F1F1" height="113.325" id="AlphanumericCode" rx="1.5" ry="1.5" style="stroke:#181818;stroke-width:0.3;" width="133.2" x="4.2" y="347.4"/><ellipse cx="32.25" cy="357" fill="#ADD1B2" rx="6.6" ry="6.6" style="stroke:#181818;stroke-width:0.6;"/><path d="M33.45,354.9 Q33.5719,354.6 33.7125,354.45 Q33.8531,354.3 34.0125,354.3 Q34.2937,354.3 34.4719,354.4688 Q34.65,354.6375 34.65,355.0313 L34.65,355.9688 Q34.65,356.3625 34.4812,356.5313 Q34.3125,356.7 34.05,356.7 Q33.8156,356.7 33.6656,356.5969 Q33.5156,356.4938 33.45,356.2219 Q33.4219,356.0344 33.3188,355.9313 Q33.1313,355.7344 32.7937,355.6219 Q32.4563,355.5 32.1188,355.5 Q31.6969,355.5 31.3406,355.6688 Q30.9938,355.8375 30.7219,356.2125 Q30.45,356.5875 30.45,357.1031 L30.45,357.6563 Q30.45,358.275 30.9562,358.6875 Q31.4625,359.1 32.3625,359.1 Q32.8969,359.1 33.2719,358.9781 Q33.4875,358.9125 33.7312,358.6969 Q33.8906,358.575 33.975,358.5375 Q34.0594,358.5 34.1625,358.5 Q34.3594,358.5 34.5,358.6594 Q34.65,358.8094 34.65,359.025 Q34.65,359.2313 34.4438,359.475 Q34.1438,359.8313 33.6656,360.0281 Q33.0375,360.3 32.2688,360.3 Q31.3688,360.3 30.6469,359.9437 Q30.0656,359.6625 29.6531,359.0531 Q29.25,358.4437 29.25,357.7219 L29.25,357.0656 Q29.25,356.3156 29.6063,355.6594 Q29.9719,355.0031 30.6,354.6563 Q31.2375,354.3 31.95,354.3 Q32.3813,354.3 32.7563,354.45 Q33.1313,354.6 33.45,354.9 Z " fill="#000000"/><text fill="#000000" font-family="sans-serif" font-size="8.4" lengthAdjust="spacing" textLength="72" x="44.55" y="360.4371">AlphanumericCode</text><line style="stroke:#181818;stroke-width:0.3;" x1="4.8" x2="136.8" y1="366.6" y2="366.6"/><text fill="#000000" font-family="sans-serif" font-size="8.4" lengthAdjust="spacing" textLength="46.2" x="7.8" y="377.7199">-String code</text><line style="stroke:#181818;stroke-width:0.3;" x1="4.8" x2="136.8" y1="381.9656" y2="381.9656"/><text fill="#000000" font-family="sans-serif" font-size="8.4" lengthAdjust="spacing" textLength="126" x="7.8" y="393.0855">+AlphanumericCode(String code)</text><text fill="#000000" font-family="sans-serif" font-size="8.4" lengthAdjust="spacing" textLength="40.2" x="7.8" y="403.6512">+valueOf()</text><text fill="#000000" font-family="sans-serif" font-size="8.4" lengthAdjust="spacing" textLength="46.2" x="7.8" y="414.2168">+firstName()</text><text fill="#000000" font-family="sans-serif" font-size="8.4" lengthAdjust="spacing" textLength="45.6" x="7.8" y="424.7824">+lastName()</text><text fill="#000000" font-family="sans-serif" font-size="8.4" lengthAdjust="spacing" textLength="67.8" x="7.8" y="435.348">+equals(Object o)</text><text fill="#000000" font-family="sans-serif" font-size="8.4" lengthAdjust="spacing" textLength="49.8" x="7.8" y="445.9137">+hashCode()</text><text fill="#000000" font-family="sans-serif" font-size="8.4" lengthAdjust="spacing" textLength="40.2" x="7.8" y="456.4793">+toString()</text></g><!--MD5=[009695af4e54f3bba8a9c60dca3e1c94]
class Description--><g id="elem_Description"><rect codeLine="28" fill="#F1F1F1" height="102.7594" id="Description" rx="1.5" ry="1.5" style="stroke:#181818;stroke-width:0.3;" width="106.2" x="158.7" y="352.8"/><ellipse cx="187.95" cy="362.4" fill="#ADD1B2" rx="6.6" ry="6.6" style="stroke:#181818;stroke-width:0.6;"/><path d="M189.15,360.3 Q189.2719,360 189.4125,359.85 Q189.5531,359.7 189.7125,359.7 Q189.9938,359.7 190.1719,359.8688 Q190.35,360.0375 190.35,360.4313 L190.35,361.3688 Q190.35,361.7625 190.1813,361.9313 Q190.0125,362.1 189.75,362.1 Q189.5156,362.1 189.3656,361.9969 Q189.2156,361.8938 189.15,361.6219 Q189.1219,361.4344 189.0187,361.3313 Q188.8312,361.1344 188.4938,361.0219 Q188.1563,360.9 187.8188,360.9 Q187.3969,360.9 187.0406,361.0687 Q186.6938,361.2375 186.4219,361.6125 Q186.15,361.9875 186.15,362.5031 L186.15,363.0563 Q186.15,363.675 186.6563,364.0875 Q187.1625,364.5 188.0625,364.5 Q188.5969,364.5 188.9719,364.3781 Q189.1875,364.3125 189.4313,364.0969 Q189.5906,363.975 189.675,363.9375 Q189.7594,363.9 189.8625,363.9 Q190.0594,363.9 190.2,364.0594 Q190.35,364.2094 190.35,364.425 Q190.35,364.6312 190.1437,364.875 Q189.8438,365.2313 189.3656,365.4281 Q188.7375,365.7 187.9688,365.7 Q187.0688,365.7 186.3469,365.3438 Q185.7656,365.0625 185.3531,364.4531 Q184.95,363.8438 184.95,363.1219 L184.95,362.4656 Q184.95,361.7156 185.3063,361.0594 Q185.6719,360.4031 186.3,360.0563 Q186.9375,359.7 187.65,359.7 Q188.0812,359.7 188.4562,359.85 Q188.8312,360 189.15,360.3 Z " fill="#000000"/><text fill="#000000" font-family="sans-serif" font-size="8.4" lengthAdjust="spacing" textLength="42.6" x="200.25" y="365.8371">Description</text><line style="stroke:#181818;stroke-width:0.3;" x1="159.3" x2="264.3" y1="372" y2="372"/><text fill="#000000" font-family="sans-serif" font-size="8.4" lengthAdjust="spacing" textLength="48" x="162.3" y="383.1199">-String value</text><line style="stroke:#181818;stroke-width:0.3;" x1="159.3" x2="264.3" y1="387.3656" y2="387.3656"/><text fill="#000000" font-family="sans-serif" font-size="8.4" lengthAdjust="spacing" textLength="99" x="162.3" y="398.4855">+Description(String name)</text><text fill="#000000" font-family="sans-serif" font-size="8.4" lengthAdjust="spacing" textLength="40.2" x="162.3" y="409.0512">+valueOf()</text><text fill="#000000" font-family="sans-serif" font-size="8.4" lengthAdjust="spacing" textLength="34.2" x="162.3" y="419.6168">+length()</text><text fill="#000000" font-family="sans-serif" font-size="8.4" lengthAdjust="spacing" textLength="67.8" x="162.3" y="430.1824">+equals(Object o)</text><text fill="#000000" font-family="sans-serif" font-size="8.4" lengthAdjust="spacing" textLength="49.8" x="162.3" y="440.748">+hashCode()</text><text fill="#000000" font-family="sans-serif" font-size="8.4" lengthAdjust="spacing" textLength="40.2" x="162.3" y="451.3137">+toString()</text></g><!--MD5=[2555a5a46195b40631e16698a2ba5d47]
class Period--><g id="elem_Period"><rect codeLine="43" fill="#F1F1F1" height="60.4969" id="Period" rx="1.5" ry="1.5" style="stroke:#181818;stroke-width:0.3;" width="175.2" x="286.2" y="373.8"/><ellipse cx="358.95" cy="383.4" fill="#ADD1B2" rx="6.6" ry="6.6" style="stroke:#181818;stroke-width:0.6;"/><path d="M360.15,381.3 Q360.2719,381 360.4125,380.85 Q360.5531,380.7 360.7125,380.7 Q360.9938,380.7 361.1719,380.8688 Q361.35,381.0375 361.35,381.4313 L361.35,382.3688 Q361.35,382.7625 361.1813,382.9313 Q361.0125,383.1 360.75,383.1 Q360.5156,383.1 360.3656,382.9969 Q360.2156,382.8938 360.15,382.6219 Q360.1219,382.4344 360.0188,382.3313 Q359.8313,382.1344 359.4938,382.0219 Q359.1563,381.9 358.8187,381.9 Q358.3969,381.9 358.0406,382.0687 Q357.6937,382.2375 357.4219,382.6125 Q357.15,382.9875 357.15,383.5031 L357.15,384.0563 Q357.15,384.675 357.6563,385.0875 Q358.1625,385.5 359.0625,385.5 Q359.5969,385.5 359.9719,385.3781 Q360.1875,385.3125 360.4313,385.0969 Q360.5906,384.975 360.675,384.9375 Q360.7594,384.9 360.8625,384.9 Q361.0594,384.9 361.2,385.0594 Q361.35,385.2094 361.35,385.425 Q361.35,385.6312 361.1438,385.875 Q360.8438,386.2313 360.3656,386.4281 Q359.7375,386.7 358.9688,386.7 Q358.0687,386.7 357.3469,386.3438 Q356.7656,386.0625 356.3531,385.4531 Q355.95,384.8438 355.95,384.1219 L355.95,383.4656 Q355.95,382.7156 356.3063,382.0594 Q356.6719,381.4031 357.3,381.0563 Q357.9375,380.7 358.65,380.7 Q359.0813,380.7 359.4563,380.85 Q359.8313,381 360.15,381.3 Z " fill="#000000"/><text fill="#000000" font-family="sans-serif" font-size="8.4" lengthAdjust="spacing" textLength="24.6" x="371.25" y="386.8371">Period</text><line style="stroke:#181818;stroke-width:0.3;" x1="286.8" x2="460.8" y1="393" y2="393"/><text fill="#000000" font-family="sans-serif" font-size="8.4" lengthAdjust="spacing" textLength="45.6" x="289.8" y="404.1199">-String days</text><line style="stroke:#181818;stroke-width:0.3;" x1="286.8" x2="460.8" y1="408.3656" y2="408.3656"/><text fill="#000000" font-family="sans-serif" font-size="8.4" lengthAdjust="spacing" textLength="78" x="289.8" y="419.4855">+Period(String days)</text><text fill="#000000" font-family="sans-serif" font-size="8.4" lengthAdjust="spacing" textLength="168" x="289.8" y="430.0512">+valueOf(String prefix, String phoneNumber)</text></g><!--MD5=[5a3b85c54cc1c79904e0b827443986bf]
class Questionnaire--><g id="elem_Questionnaire"><rect codeLine="48" fill="#F1F1F1" height="92.1938" id="Questionnaire" rx="1.5" ry="1.5" style="stroke:#181818;stroke-width:0.3;" width="258" x="482.4" y="357.9"/><ellipse cx="582.15" cy="367.5" fill="#ADD1B2" rx="6.6" ry="6.6" style="stroke:#181818;stroke-width:0.6;"/><path d="M583.35,365.4 Q583.4719,365.1 583.6125,364.95 Q583.7531,364.8 583.9125,364.8 Q584.1938,364.8 584.3719,364.9688 Q584.55,365.1375 584.55,365.5313 L584.55,366.4688 Q584.55,366.8625 584.3813,367.0313 Q584.2125,367.2 583.95,367.2 Q583.7156,367.2 583.5656,367.0969 Q583.4156,366.9938 583.35,366.7219 Q583.3219,366.5344 583.2188,366.4313 Q583.0313,366.2344 582.6938,366.1219 Q582.3562,366 582.0188,366 Q581.5969,366 581.2406,366.1688 Q580.8938,366.3375 580.6219,366.7125 Q580.35,367.0875 580.35,367.6031 L580.35,368.1563 Q580.35,368.775 580.8562,369.1875 Q581.3625,369.6 582.2625,369.6 Q582.7969,369.6 583.1719,369.4781 Q583.3875,369.4125 583.6313,369.1969 Q583.7906,369.075 583.875,369.0375 Q583.9594,369 584.0625,369 Q584.2594,369 584.4,369.1594 Q584.55,369.3094 584.55,369.525 Q584.55,369.7313 584.3438,369.975 Q584.0437,370.3313 583.5656,370.5281 Q582.9375,370.8 582.1687,370.8 Q581.2688,370.8 580.5469,370.4437 Q579.9656,370.1625 579.5531,369.5531 Q579.15,368.9437 579.15,368.2219 L579.15,367.5656 Q579.15,366.8156 579.5063,366.1594 Q579.8719,365.5031 580.5,365.1563 Q581.1375,364.8 581.85,364.8 Q582.2813,364.8 582.6563,364.95 Q583.0313,365.1 583.35,365.4 Z " fill="#000000"/><text fill="#000000" font-family="sans-serif" font-size="8.4" lengthAdjust="spacing" textLength="53.4" x="594.45" y="370.9371">Questionnaire</text><line style="stroke:#181818;stroke-width:0.3;" x1="483" x2="739.8" y1="377.1" y2="377.1"/><text fill="#000000" font-family="sans-serif" font-size="8.4" lengthAdjust="spacing" textLength="36.6" x="486" y="388.2199">-String id;</text><text fill="#000000" font-family="sans-serif" font-size="8.4" lengthAdjust="spacing" textLength="43.2" x="486" y="398.7855">-String title;</text><text fill="#000000" font-family="sans-serif" font-size="8.4" lengthAdjust="spacing" textLength="96.6" x="486" y="409.3512">-String welcomeMessage;</text><text fill="#000000" font-family="sans-serif" font-size="8.4" lengthAdjust="spacing" textLength="90" x="486" y="419.9168">-List&lt;Section&gt; sections;</text><text fill="#000000" font-family="sans-serif" font-size="8.4" lengthAdjust="spacing" textLength="79.8" x="486" y="430.4824">-String finalMessage;</text><line style="stroke:#181818;stroke-width:0.3;" x1="483" x2="739.8" y1="434.7281" y2="434.7281"/><text fill="#000000" font-family="sans-serif" font-size="8.4" lengthAdjust="spacing" textLength="250.8" x="486" y="445.848">+Questionnaire(id, title, welcomeMessage, sections, finalMessage)</text></g><!--MD5=[fd7366e9f96236d9aa60dcc04f2b83e5]
class Content--><g id="elem_Content"><rect codeLine="58" fill="#F1F1F1" height="113.325" id="Content" rx="1.5" ry="1.5" style="stroke:#181818;stroke-width:0.3;" width="166.2" x="761.7" y="347.4"/><ellipse cx="827.25" cy="357" fill="#ADD1B2" rx="6.6" ry="6.6" style="stroke:#181818;stroke-width:0.6;"/><path d="M828.45,354.9 Q828.5719,354.6 828.7125,354.45 Q828.8531,354.3 829.0125,354.3 Q829.2937,354.3 829.4719,354.4688 Q829.65,354.6375 829.65,355.0313 L829.65,355.9688 Q829.65,356.3625 829.4812,356.5313 Q829.3125,356.7 829.05,356.7 Q828.8156,356.7 828.6656,356.5969 Q828.5156,356.4938 828.45,356.2219 Q828.4219,356.0344 828.3188,355.9313 Q828.1313,355.7344 827.7937,355.6219 Q827.4563,355.5 827.1188,355.5 Q826.6969,355.5 826.3406,355.6688 Q825.9938,355.8375 825.7219,356.2125 Q825.45,356.5875 825.45,357.1031 L825.45,357.6563 Q825.45,358.275 825.9563,358.6875 Q826.4625,359.1 827.3625,359.1 Q827.8969,359.1 828.2719,358.9781 Q828.4875,358.9125 828.7312,358.6969 Q828.8906,358.575 828.975,358.5375 Q829.0594,358.5 829.1625,358.5 Q829.3594,358.5 829.5,358.6594 Q829.65,358.8094 829.65,359.025 Q829.65,359.2313 829.4438,359.475 Q829.1438,359.8313 828.6656,360.0281 Q828.0375,360.3 827.2688,360.3 Q826.3688,360.3 825.6469,359.9437 Q825.0656,359.6625 824.6531,359.0531 Q824.25,358.4437 824.25,357.7219 L824.25,357.0656 Q824.25,356.3156 824.6062,355.6594 Q824.9719,355.0031 825.6,354.6563 Q826.2375,354.3 826.95,354.3 Q827.3813,354.3 827.7563,354.45 Q828.1313,354.6 828.45,354.9 Z " fill="#000000"/><text fill="#000000" font-family="sans-serif" font-size="8.4" lengthAdjust="spacing" textLength="30" x="839.55" y="360.4371">Content</text><line style="stroke:#181818;stroke-width:0.3;" x1="762.3" x2="927.3" y1="366.6" y2="366.6"/><text fill="#000000" font-family="sans-serif" font-size="8.4" lengthAdjust="spacing" textLength="94.2" x="765.3" y="377.7199">-String fullQuestionnaire;</text><text fill="#000000" font-family="sans-serif" font-size="8.4" lengthAdjust="spacing" textLength="100.8" x="765.3" y="388.2855">-StringBuilder stringbuilder</text><line style="stroke:#181818;stroke-width:0.3;" x1="762.3" x2="927.3" y1="392.5313" y2="392.5313"/><text fill="#000000" font-family="sans-serif" font-size="8.4" lengthAdjust="spacing" textLength="92.4" x="765.3" y="403.6512">+Content(questionnaire)</text><text fill="#000000" font-family="sans-serif" font-size="8.4" lengthAdjust="spacing" textLength="105" x="765.3" y="414.2168">+Content(fullQuestionnaire)</text><text fill="#000000" font-family="sans-serif" font-size="8.4" lengthAdjust="spacing" textLength="159" x="765.3" y="424.7824">+buildQuestionnaireSyntax(questionnaire)</text><text fill="#000000" font-family="sans-serif" font-size="8.4" lengthAdjust="spacing" textLength="113.4" x="765.3" y="435.348">+buildSectionSyntax(sections)</text><text fill="#000000" font-family="sans-serif" font-size="8.4" lengthAdjust="spacing" textLength="120.6" x="765.3" y="445.9137">+buildQuestionSyntax(question)</text><text fill="#000000" font-family="sans-serif" font-size="8.4" lengthAdjust="spacing" textLength="40.2" x="765.3" y="456.4793">+toString()</text></g><!--MD5=[3145b4be7c5005b24cda6f18a1d594b0]
class Survey--><g id="elem_Survey"><rect codeLine="73" fill="#F1F1F1" height="81.6281" id="Survey" rx="1.5" ry="1.5" style="stroke:#181818;stroke-width:0.3;" width="156" x="708" y="219"/><ellipse cx="770.25" cy="228.6" fill="#ADD1B2" rx="6.6" ry="6.6" style="stroke:#181818;stroke-width:0.6;"/><path d="M771.45,226.5 Q771.5719,226.2 771.7125,226.05 Q771.8531,225.9 772.0125,225.9 Q772.2937,225.9 772.4719,226.0688 Q772.65,226.2375 772.65,226.6313 L772.65,227.5688 Q772.65,227.9625 772.4812,228.1313 Q772.3125,228.3 772.05,228.3 Q771.8156,228.3 771.6656,228.1969 Q771.5156,228.0938 771.45,227.8219 Q771.4219,227.6344 771.3188,227.5313 Q771.1313,227.3344 770.7937,227.2219 Q770.4563,227.1 770.1188,227.1 Q769.6969,227.1 769.3406,227.2687 Q768.9938,227.4375 768.7219,227.8125 Q768.45,228.1875 768.45,228.7031 L768.45,229.2563 Q768.45,229.875 768.9563,230.2875 Q769.4625,230.7 770.3625,230.7 Q770.8969,230.7 771.2719,230.5781 Q771.4875,230.5125 771.7312,230.2969 Q771.8906,230.175 771.975,230.1375 Q772.0594,230.1 772.1625,230.1 Q772.3594,230.1 772.5,230.2594 Q772.65,230.4094 772.65,230.625 Q772.65,230.8312 772.4438,231.075 Q772.1438,231.4312 771.6656,231.6281 Q771.0375,231.9 770.2688,231.9 Q769.3688,231.9 768.6469,231.5438 Q768.0656,231.2625 767.6531,230.6531 Q767.25,230.0438 767.25,229.3219 L767.25,228.6656 Q767.25,227.9156 767.6062,227.2594 Q767.9719,226.6031 768.6,226.2563 Q769.2375,225.9 769.95,225.9 Q770.3813,225.9 770.7563,226.05 Q771.1313,226.2 771.45,226.5 Z " fill="#000000"/><text fill="#000000" font-family="sans-serif" font-size="8.4" lengthAdjust="spacing" textLength="26.4" x="782.55" y="232.0371">Survey</text><line style="stroke:#181818;stroke-width:0.3;" x1="708.6" x2="863.4" y1="238.2" y2="238.2"/><text fill="#000000" font-family="sans-serif" font-size="8.4" lengthAdjust="spacing" textLength="148.8" x="711.6" y="249.3199">-AlphanumericCode alphanumericCode</text><text fill="#000000" font-family="sans-serif" font-size="8.4" lengthAdjust="spacing" textLength="89.4" x="711.6" y="259.8855">-Description description</text><text fill="#000000" font-family="sans-serif" font-size="8.4" lengthAdjust="spacing" textLength="54" x="711.6" y="270.4512">-Period period</text><text fill="#000000" font-family="sans-serif" font-size="8.4" lengthAdjust="spacing" textLength="110.4" x="711.6" y="281.0168">-Questionnaire questionnaire</text><text fill="#000000" font-family="sans-serif" font-size="8.4" lengthAdjust="spacing" textLength="63.6" x="711.6" y="291.5824">-Content content</text><line style="stroke:#181818;stroke-width:0.3;" x1="708.6" x2="863.4" y1="295.8281" y2="295.8281"/></g><!--MD5=[f9fadfa5a66b7e5a67b370cd443ffe52]
class Answer--><g id="elem_Answer"><rect codeLine="81" fill="#F1F1F1" height="71.0625" id="Answer" rx="1.5" ry="1.5" style="stroke:#181818;stroke-width:0.3;" width="77.4" x="948.9" y="368.7"/><ellipse cx="971.67" cy="378.3" fill="#ADD1B2" rx="6.6" ry="6.6" style="stroke:#181818;stroke-width:0.6;"/><path d="M972.87,376.2 Q972.9919,375.9 973.1325,375.75 Q973.2731,375.6 973.4325,375.6 Q973.7138,375.6 973.8919,375.7688 Q974.07,375.9375 974.07,376.3313 L974.07,377.2688 Q974.07,377.6625 973.9013,377.8313 Q973.7325,378 973.47,378 Q973.2356,378 973.0856,377.8969 Q972.9356,377.7938 972.87,377.5219 Q972.8419,377.3344 972.7388,377.2313 Q972.5513,377.0344 972.2138,376.9219 Q971.8763,376.8 971.5387,376.8 Q971.1169,376.8 970.7606,376.9688 Q970.4137,377.1375 970.1419,377.5125 Q969.87,377.8875 969.87,378.4031 L969.87,378.9563 Q969.87,379.575 970.3763,379.9875 Q970.8825,380.4 971.7825,380.4 Q972.3169,380.4 972.6919,380.2781 Q972.9075,380.2125 973.1513,379.9969 Q973.3106,379.875 973.395,379.8375 Q973.4794,379.8 973.5825,379.8 Q973.7794,379.8 973.92,379.9594 Q974.07,380.1094 974.07,380.325 Q974.07,380.5313 973.8638,380.775 Q973.5638,381.1312 973.0856,381.3281 Q972.4575,381.6 971.6888,381.6 Q970.7887,381.6 970.0669,381.2438 Q969.4856,380.9625 969.0731,380.3531 Q968.67,379.7438 968.67,379.0219 L968.67,378.3656 Q968.67,377.6156 969.0263,376.9594 Q969.3919,376.3031 970.02,375.9563 Q970.6575,375.6 971.37,375.6 Q971.8013,375.6 972.1763,375.75 Q972.5513,375.9 972.87,376.2 Z " fill="#000000"/><text fill="#000000" font-family="sans-serif" font-size="8.4" lengthAdjust="spacing" textLength="27.6" x="983.13" y="381.7371">Answer</text><line style="stroke:#181818;stroke-width:0.3;" x1="949.5" x2="1025.7" y1="387.9" y2="387.9"/><text fill="#000000" font-family="sans-serif" font-size="8.4" lengthAdjust="spacing" textLength="33.6" x="952.5" y="399.0199">-Long id;</text><text fill="#000000" font-family="sans-serif" font-size="8.4" lengthAdjust="spacing" textLength="57" x="952.5" y="409.5855">-String answer;</text><text fill="#000000" font-family="sans-serif" font-size="8.4" lengthAdjust="spacing" textLength="64.8" x="952.5" y="420.1512">-String sectionID;</text><text fill="#000000" font-family="sans-serif" font-size="8.4" lengthAdjust="spacing" textLength="70.2" x="952.5" y="430.7168">-String questionID;</text><line style="stroke:#181818;stroke-width:0.3;" x1="949.5" x2="1025.7" y1="434.9625" y2="434.9625"/></g><!--MD5=[e8c189551b7885b999ad7cefb30fc2a3]
class PersistenceContext--><g id="elem_PersistenceContext"><rect codeLine="88" fill="#F1F1F1" height="60.4969" id="PersistenceContext" rx="1.5" ry="1.5" style="stroke:#181818;stroke-width:0.3;" width="123" x="1001.7" y="229.5"/><ellipse cx="1024.47" cy="239.1" fill="#ADD1B2" rx="6.6" ry="6.6" style="stroke:#181818;stroke-width:0.6;"/><path d="M1025.67,237 Q1025.7919,236.7 1025.9325,236.55 Q1026.0731,236.4 1026.2325,236.4 Q1026.5138,236.4 1026.6919,236.5688 Q1026.87,236.7375 1026.87,237.1313 L1026.87,238.0688 Q1026.87,238.4625 1026.7013,238.6313 Q1026.5325,238.8 1026.27,238.8 Q1026.0356,238.8 1025.8856,238.6969 Q1025.7356,238.5938 1025.67,238.3219 Q1025.6419,238.1344 1025.5388,238.0313 Q1025.3513,237.8344 1025.0138,237.7219 Q1024.6763,237.6 1024.3388,237.6 Q1023.9169,237.6 1023.5606,237.7687 Q1023.2138,237.9375 1022.9419,238.3125 Q1022.67,238.6875 1022.67,239.2031 L1022.67,239.7563 Q1022.67,240.375 1023.1763,240.7875 Q1023.6825,241.2 1024.5825,241.2 Q1025.1169,241.2 1025.4919,241.0781 Q1025.7075,241.0125 1025.9513,240.7969 Q1026.1106,240.675 1026.195,240.6375 Q1026.2794,240.6 1026.3825,240.6 Q1026.5794,240.6 1026.72,240.7594 Q1026.87,240.9094 1026.87,241.125 Q1026.87,241.3312 1026.6638,241.575 Q1026.3638,241.9312 1025.8856,242.1281 Q1025.2575,242.4 1024.4888,242.4 Q1023.5888,242.4 1022.8669,242.0438 Q1022.2856,241.7625 1021.8731,241.1531 Q1021.47,240.5438 1021.47,239.8219 L1021.47,239.1656 Q1021.47,238.4156 1021.8263,237.7594 Q1022.1919,237.1031 1022.82,236.7563 Q1023.4575,236.4 1024.17,236.4 Q1024.6013,236.4 1024.9763,236.55 Q1025.3513,236.7 1025.67,237 Z " fill="#000000"/><text fill="#000000" font-family="sans-serif" font-size="8.4" lengthAdjust="spacing" textLength="73.2" x="1035.93" y="242.5371">PersistenceContext</text><line style="stroke:#181818;stroke-width:0.3;" x1="1002.3" x2="1124.1" y1="248.7" y2="248.7"/><text fill="#000000" font-family="sans-serif" font-size="8.4" lengthAdjust="spacing" textLength="68.4" x="1005.3" y="259.8199">-Logger LOGGER</text><text fill="#000000" font-family="sans-serif" font-size="8.4" lengthAdjust="spacing" textLength="115.8" x="1005.3" y="270.3855">-RepositoryFactory theFactory</text><line style="stroke:#181818;stroke-width:0.3;" x1="1002.3" x2="1124.1" y1="274.6312" y2="274.6312"/><text fill="#000000" font-family="sans-serif" font-size="8.4" lengthAdjust="spacing" textLength="55.2" x="1005.3" y="285.7512">+repositories()</text></g><!--MD5=[48590afff58a68e2fcba47824d6f8a11]
class RepositoryFactory--><g id="elem_RepositoryFactory"><rect codeLine="94" fill="#F1F1F1" height="39.3656" id="RepositoryFactory" rx="1.5" ry="1.5" style="stroke:#181818;stroke-width:0.3;" width="88.8" x="1096.8" y="384.3"/><ellipse cx="1105.8" cy="393.9" fill="#ADD1B2" rx="6.6" ry="6.6" style="stroke:#181818;stroke-width:0.6;"/><path d="M1107,391.8 Q1107.1219,391.5 1107.2625,391.35 Q1107.4031,391.2 1107.5625,391.2 Q1107.8438,391.2 1108.0219,391.3688 Q1108.2,391.5375 1108.2,391.9313 L1108.2,392.8688 Q1108.2,393.2625 1108.0313,393.4313 Q1107.8625,393.6 1107.6,393.6 Q1107.3656,393.6 1107.2156,393.4969 Q1107.0656,393.3938 1107,393.1219 Q1106.9719,392.9344 1106.8687,392.8313 Q1106.6812,392.6344 1106.3438,392.5219 Q1106.0063,392.4 1105.6688,392.4 Q1105.2469,392.4 1104.8906,392.5687 Q1104.5438,392.7375 1104.2719,393.1125 Q1104,393.4875 1104,394.0031 L1104,394.5563 Q1104,395.175 1104.5063,395.5875 Q1105.0125,396 1105.9125,396 Q1106.4469,396 1106.8219,395.8781 Q1107.0375,395.8125 1107.2813,395.5969 Q1107.4406,395.475 1107.525,395.4375 Q1107.6094,395.4 1107.7125,395.4 Q1107.9094,395.4 1108.05,395.5594 Q1108.2,395.7094 1108.2,395.925 Q1108.2,396.1312 1107.9937,396.375 Q1107.6938,396.7313 1107.2156,396.9281 Q1106.5875,397.2 1105.8188,397.2 Q1104.9188,397.2 1104.1969,396.8438 Q1103.6156,396.5625 1103.2031,395.9531 Q1102.8,395.3438 1102.8,394.6219 L1102.8,393.9656 Q1102.8,393.2156 1103.1563,392.5594 Q1103.5219,391.9031 1104.15,391.5563 Q1104.7875,391.2 1105.5,391.2 Q1105.9312,391.2 1106.3062,391.35 Q1106.6812,391.5 1107,391.8 Z " fill="#000000"/><text fill="#000000" font-family="sans-serif" font-size="8.4" lengthAdjust="spacing" textLength="69.6" x="1114.2" y="397.3371">RepositoryFactory</text><line style="stroke:#181818;stroke-width:0.3;" x1="1097.4" x2="1185" y1="403.5" y2="403.5"/><line style="stroke:#181818;stroke-width:0.3;" x1="1097.4" x2="1185" y1="408.3" y2="408.3"/><text fill="#000000" font-family="sans-serif" font-size="8.4" lengthAdjust="spacing" textLength="49.8" x="1100.4" y="419.4199">+customers()</text></g><!--MD5=[ca0abe252586467d5b989c6b12cf24dd]
class SurveyRepository--><g id="elem_SurveyRepository"><rect codeLine="98" fill="#F1F1F1" height="39.3656" id="SurveyRepository" rx="1.5" ry="1.5" style="stroke:#181818;stroke-width:0.3;" width="98.4" x="1046.4" y="507.6"/><ellipse cx="1060.8" cy="517.2" fill="#ADD1B2" rx="6.6" ry="6.6" style="stroke:#181818;stroke-width:0.6;"/><path d="M1062,515.1 Q1062.1219,514.8 1062.2625,514.65 Q1062.4031,514.5 1062.5625,514.5 Q1062.8438,514.5 1063.0219,514.6687 Q1063.2,514.8375 1063.2,515.2312 L1063.2,516.1687 Q1063.2,516.5625 1063.0313,516.7312 Q1062.8625,516.9 1062.6,516.9 Q1062.3656,516.9 1062.2156,516.7969 Q1062.0656,516.6938 1062,516.4219 Q1061.9719,516.2344 1061.8687,516.1313 Q1061.6812,515.9344 1061.3438,515.8219 Q1061.0063,515.7 1060.6688,515.7 Q1060.2469,515.7 1059.8906,515.8688 Q1059.5438,516.0375 1059.2719,516.4125 Q1059,516.7875 1059,517.3031 L1059,517.8562 Q1059,518.475 1059.5063,518.8875 Q1060.0125,519.3 1060.9125,519.3 Q1061.4469,519.3 1061.8219,519.1781 Q1062.0375,519.1125 1062.2813,518.8969 Q1062.4406,518.775 1062.525,518.7375 Q1062.6094,518.7 1062.7125,518.7 Q1062.9094,518.7 1063.05,518.8594 Q1063.2,519.0094 1063.2,519.225 Q1063.2,519.4313 1062.9937,519.675 Q1062.6938,520.0313 1062.2156,520.2281 Q1061.5875,520.5 1060.8188,520.5 Q1059.9188,520.5 1059.1969,520.1438 Q1058.6156,519.8625 1058.2031,519.2531 Q1057.8,518.6438 1057.8,517.9219 L1057.8,517.2656 Q1057.8,516.5156 1058.1563,515.8594 Q1058.5219,515.2031 1059.15,514.8562 Q1059.7875,514.5 1060.5,514.5 Q1060.9312,514.5 1061.3062,514.65 Q1061.6812,514.8 1062,515.1 Z " fill="#000000"/><text fill="#000000" font-family="sans-serif" font-size="8.4" lengthAdjust="spacing" textLength="67.2" x="1070.4" y="520.6371">SurveyRepository</text><line style="stroke:#181818;stroke-width:0.3;" x1="1047" x2="1144.2" y1="526.8" y2="526.8"/><line style="stroke:#181818;stroke-width:0.3;" x1="1047" x2="1144.2" y1="531.6" y2="531.6"/><text fill="#000000" font-family="sans-serif" font-size="8.4" lengthAdjust="spacing" textLength="91.2" x="1050" y="542.7199">+findById(Long number)</text></g><!--MD5=[09a53695e98d4f26e7a054522080af08]
class Section--><g id="elem_Section"><rect fill="#F1F1F1" height="28.8" id="Section" rx="1.5" ry="1.5" style="stroke:#181818;stroke-width:0.3;" width="47.4" x="587.7" y="513"/><ellipse cx="596.7" cy="522.6" fill="#ADD1B2" rx="6.6" ry="6.6" style="stroke:#181818;stroke-width:0.6;"/><path d="M597.9,520.5 Q598.0219,520.2 598.1625,520.05 Q598.3031,519.9 598.4625,519.9 Q598.7438,519.9 598.9219,520.0688 Q599.1,520.2375 599.1,520.6313 L599.1,521.5688 Q599.1,521.9625 598.9313,522.1313 Q598.7625,522.3 598.5,522.3 Q598.2656,522.3 598.1156,522.1969 Q597.9656,522.0938 597.9,521.8219 Q597.8719,521.6344 597.7688,521.5313 Q597.5813,521.3344 597.2438,521.2219 Q596.9063,521.1 596.5688,521.1 Q596.1469,521.1 595.7906,521.2688 Q595.4438,521.4375 595.1719,521.8125 Q594.9,522.1875 594.9,522.7031 L594.9,523.2563 Q594.9,523.875 595.4063,524.2875 Q595.9125,524.7 596.8125,524.7 Q597.3469,524.7 597.7219,524.5781 Q597.9375,524.5125 598.1813,524.2969 Q598.3406,524.175 598.425,524.1375 Q598.5094,524.1 598.6125,524.1 Q598.8094,524.1 598.95,524.2594 Q599.1,524.4094 599.1,524.625 Q599.1,524.8313 598.8938,525.075 Q598.5938,525.4313 598.1156,525.6281 Q597.4875,525.9 596.7188,525.9 Q595.8188,525.9 595.0969,525.5437 Q594.5156,525.2625 594.1031,524.6531 Q593.7,524.0437 593.7,523.3219 L593.7,522.6656 Q593.7,521.9156 594.0563,521.2594 Q594.4219,520.6031 595.05,520.2563 Q595.6875,519.9 596.4,519.9 Q596.8313,519.9 597.2063,520.05 Q597.5813,520.2 597.9,520.5 Z " fill="#000000"/><text fill="#000000" font-family="sans-serif" font-size="8.4" lengthAdjust="spacing" textLength="28.2" x="605.1" y="526.0371">Section</text><line style="stroke:#181818;stroke-width:0.3;" x1="588.3" x2="634.5" y1="532.2" y2="532.2"/><line style="stroke:#181818;stroke-width:0.3;" x1="588.3" x2="634.5" y1="537" y2="537"/></g><!--MD5=[fc7123defb831ecdd44b2d9bcef6cceb]
class Question--><g id="elem_Question"><rect fill="#F1F1F1" height="28.8" id="Question" rx="1.5" ry="1.5" style="stroke:#181818;stroke-width:0.3;" width="53.4" x="584.7" y="594"/><ellipse cx="593.7" cy="603.6" fill="#ADD1B2" rx="6.6" ry="6.6" style="stroke:#181818;stroke-width:0.6;"/><path d="M594.9,601.5 Q595.0219,601.2 595.1625,601.05 Q595.3031,600.9 595.4625,600.9 Q595.7438,600.9 595.9219,601.0688 Q596.1,601.2375 596.1,601.6313 L596.1,602.5688 Q596.1,602.9625 595.9313,603.1313 Q595.7625,603.3 595.5,603.3 Q595.2656,603.3 595.1156,603.1969 Q594.9656,603.0938 594.9,602.8219 Q594.8719,602.6344 594.7688,602.5313 Q594.5813,602.3344 594.2438,602.2219 Q593.9063,602.1 593.5688,602.1 Q593.1469,602.1 592.7906,602.2688 Q592.4438,602.4375 592.1719,602.8125 Q591.9,603.1875 591.9,603.7031 L591.9,604.2563 Q591.9,604.875 592.4063,605.2875 Q592.9125,605.7 593.8125,605.7 Q594.3469,605.7 594.7219,605.5781 Q594.9375,605.5125 595.1813,605.2969 Q595.3406,605.175 595.425,605.1375 Q595.5094,605.1 595.6125,605.1 Q595.8094,605.1 595.95,605.2594 Q596.1,605.4094 596.1,605.625 Q596.1,605.8313 595.8938,606.075 Q595.5938,606.4313 595.1156,606.6281 Q594.4875,606.9 593.7188,606.9 Q592.8188,606.9 592.0969,606.5437 Q591.5156,606.2625 591.1031,605.6531 Q590.7,605.0437 590.7,604.3219 L590.7,603.6656 Q590.7,602.9156 591.0563,602.2594 Q591.4219,601.6031 592.05,601.2563 Q592.6875,600.9 593.4,600.9 Q593.8313,600.9 594.2063,601.05 Q594.5813,601.2 594.9,601.5 Z " fill="#000000"/><text fill="#000000" font-family="sans-serif" font-size="8.4" lengthAdjust="spacing" textLength="34.2" x="602.1" y="607.0371">Question</text><line style="stroke:#181818;stroke-width:0.3;" x1="585.3" x2="637.5" y1="613.2" y2="613.2"/><line style="stroke:#181818;stroke-width:0.3;" x1="585.3" x2="637.5" y1="618" y2="618"/></g><!--MD5=[d1181d489fba6e3bc4069a9f52dd4e0f]
link AnswerToSurveyUI to SurveyController--><g id="link_AnswerToSurveyUI_SurveyController"><path codeLine="102" d="M866.4,33.048 C866.4,41.868 866.4,53.934 866.4,66.27 " fill="none" id="AnswerToSurveyUI-to-SurveyController" style="stroke:#181818;stroke-width:0.6;stroke-dasharray:7.0,7.0;"/><polygon fill="#181818" points="866.4,69.414,868.8,64.014,866.4,66.414,864,64.014,866.4,69.414" style="stroke:#181818;stroke-width:0.6;"/></g><!--MD5=[36fd4d61e47feda196a228a83f141d93]
link SurveyController to Survey--><g id="link_SurveyController_Survey"><path codeLine="105" d="M836.688,172.386 C828.306,186.75 819.258,202.236 811.17,216.096 " fill="none" id="SurveyController-to-Survey" style="stroke:#181818;stroke-width:0.6;"/><polygon fill="#181818" points="809.562,218.844,814.3631,215.3987,811.0789,216.2558,810.2219,212.9716,809.562,218.844" style="stroke:#181818;stroke-width:0.6;"/></g><!--MD5=[5499c435bc16acea28ddc64681c74fbb]
link Survey to AlphanumericCode--><g id="link_Survey_AlphanumericCode"><path codeLine="111" d="M707.94,265.692 C560.544,276.558 247.182,304.062 148.2,347.4 C145.578,348.546 142.956,349.8 140.346,351.126 " fill="none" id="Survey-to-AlphanumericCode" style="stroke:#181818;stroke-width:0.6;"/><polygon fill="#181818" points="137.52,352.602,143.418,352.2358,140.1807,351.2161,141.2004,347.9788,137.52,352.602" style="stroke:#181818;stroke-width:0.6;"/><text fill="#000000" font-family="sans-serif" font-size="7.8" lengthAdjust="spacing" textLength="29.4" x="251.4" y="327.2971">contains</text><text fill="#000000" font-family="sans-serif" font-size="7.8" lengthAdjust="spacing" textLength="4.2" x="699.1058" y="274.4125">1</text><text fill="#000000" font-family="sans-serif" font-size="7.8" lengthAdjust="spacing" textLength="4.2" x="142.1438" y="347.3262">1</text></g><!--MD5=[0b4debe2092e88b167a50a5f1b002e59]
link Survey to Description--><g id="link_Survey_Description"><path codeLine="112" d="M707.862,260.634 C604.122,263.784 417.486,279.498 275.4,347.4 C272.814,348.636 270.252,350.01 267.732,351.486 " fill="none" id="Survey-to-Description" style="stroke:#181818;stroke-width:0.6;"/><polygon fill="#181818" points="265.008,353.136,270.8697,352.387,267.5729,351.58,268.38,348.2832,265.008,353.136" style="stroke:#181818;stroke-width:0.6;"/><text fill="#000000" font-family="sans-serif" font-size="7.8" lengthAdjust="spacing" textLength="29.4" x="340.8" y="327.2971">contains</text><text fill="#000000" font-family="sans-serif" font-size="7.8" lengthAdjust="spacing" textLength="4.2" x="699.0232" y="258.9071">1</text><text fill="#000000" font-family="sans-serif" font-size="7.8" lengthAdjust="spacing" textLength="4.2" x="269.761" y="346.8431">1</text></g><!--MD5=[a8c0f4d6075942a4ab340055e1ada23e]
link Survey to Period--><g id="link_Survey_Period"><path codeLine="113" d="M707.952,276.258 C643.206,290.76 549.474,314.898 471.6,347.4 C455.124,354.276 437.97,363.378 422.712,372.24 " fill="none" id="Survey-to-Period" style="stroke:#181818;stroke-width:0.6;"/><polygon fill="#181818" points="420.084,373.776,425.958,373.1306,422.676,372.2655,423.5411,368.9835,420.084,373.776" style="stroke:#181818;stroke-width:0.6;"/><text fill="#000000" font-family="sans-serif" font-size="7.8" lengthAdjust="spacing" textLength="29.4" x="547.8" y="327.2971">contains</text><text fill="#000000" font-family="sans-serif" font-size="7.8" lengthAdjust="spacing" textLength="4.2" x="699.1184" y="285.5893">1</text><text fill="#000000" font-family="sans-serif" font-size="7.8" lengthAdjust="spacing" textLength="4.2" x="422.0974" y="367.3558">1</text></g><!--MD5=[c4fc62c77a23cb95f5f7a53b7ddeb930]
link Survey to Questionnaire--><g id="link_Survey_Questionnaire"><path codeLine="114" d="M736.902,300.642 C715.926,317.832 691.29,338.022 669.426,355.944 " fill="none" id="Survey-to-Questionnaire" style="stroke:#181818;stroke-width:0.6;"/><polygon fill="#181818" points="667.05,357.894,672.7482,356.3286,669.3707,355.9929,669.7064,352.6154,667.05,357.894" style="stroke:#181818;stroke-width:0.6;"/><text fill="#000000" font-family="sans-serif" font-size="7.8" lengthAdjust="spacing" textLength="29.4" x="715.2" y="327.2971">contains</text><text fill="#000000" font-family="sans-serif" font-size="7.8" lengthAdjust="spacing" textLength="4.2" x="727.4222" y="313.4553">1</text><text fill="#000000" font-family="sans-serif" font-size="7.8" lengthAdjust="spacing" textLength="4.2" x="668.1213" y="351.3907">1</text></g><!--MD5=[02c3396b3ad14158b0d1521f86ee2245]
link Survey to Content--><g id="link_Survey_Content"><path codeLine="115" d="M802.536,300.642 C808.11,314.202 814.452,329.634 820.494,344.346 " fill="none" id="Survey-to-Content" style="stroke:#181818;stroke-width:0.6;"/><polygon fill="#181818" points="821.7,347.28,821.8696,341.3731,820.5608,344.5047,817.4292,343.1959,821.7,347.28" style="stroke:#181818;stroke-width:0.6;"/><text fill="#000000" font-family="sans-serif" font-size="7.8" lengthAdjust="spacing" textLength="29.4" x="814.8" y="327.2971">contains</text><text fill="#000000" font-family="sans-serif" font-size="7.8" lengthAdjust="spacing" textLength="4.2" x="799.8247" y="313.4553">1</text><text fill="#000000" font-family="sans-serif" font-size="7.8" lengthAdjust="spacing" textLength="4.2" x="815.4919" y="340.8781">1</text></g><!--MD5=[ec0fd64d5afb5aa3e1ebec742a549e50]
link Survey to Answer--><g id="link_Survey_Answer"><path codeLine="116" d="M864.024,298.41 C888.936,312.216 915.864,328.998 938.4,347.4 C945.252,352.992 951.948,359.598 958.086,366.27 " fill="none" id="Survey-to-Answer" style="stroke:#181818;stroke-width:0.6;"/><polygon fill="#181818" points="960.144,368.532,958.2928,362.9201,958.1281,366.3102,954.738,366.1455,960.144,368.532" style="stroke:#181818;stroke-width:0.6;"/><text fill="#000000" font-family="sans-serif" font-size="7.8" lengthAdjust="spacing" textLength="29.4" x="912" y="327.2971">contains</text><text fill="#000000" font-family="sans-serif" font-size="7.8" lengthAdjust="spacing" textLength="4.2" x="868.9066" y="298.9729">1</text><text fill="#000000" font-family="sans-serif" font-size="7.8" lengthAdjust="spacing" textLength="12" x="944.0666" y="362.1061">0..*</text></g><!--MD5=[3da50156e7717b39021783dfd0973443]
link Questionnaire to Section--><g id="link_Questionnaire_Section"><path codeLine="119" d="M611.4,450.342 C611.4,471.084 611.4,494.364 611.4,509.724 " fill="none" id="Questionnaire-to-Section" style="stroke:#181818;stroke-width:0.6;"/><polygon fill="#181818" points="611.4,512.88,613.8,507.48,611.4,509.88,609,507.48,611.4,512.88" style="stroke:#181818;stroke-width:0.6;"/><text fill="#000000" font-family="sans-serif" font-size="7.8" lengthAdjust="spacing" textLength="29.4" x="612" y="487.4971">contains</text><text fill="#000000" font-family="sans-serif" font-size="7.8" lengthAdjust="spacing" textLength="4.2" x="607.013" y="463.0036">1</text><text fill="#000000" font-family="sans-serif" font-size="7.8" lengthAdjust="spacing" textLength="12" x="597.8625" y="506.4533">1..*</text></g><!--MD5=[87fa8ff7d398728728a611d860795352]
link Section to Question--><g id="link_Section_Question"><path codeLine="121" d="M611.4,541.902 C611.4,555.492 611.4,576.21 611.4,590.778 " fill="none" id="Section-to-Question" style="stroke:#181818;stroke-width:0.6;"/><polygon fill="#181818" points="611.4,593.79,613.8,588.39,611.4,590.79,609,588.39,611.4,593.79" style="stroke:#181818;stroke-width:0.6;"/><text fill="#000000" font-family="sans-serif" font-size="7.8" lengthAdjust="spacing" textLength="29.4" x="612" y="573.8971">contains</text><text fill="#000000" font-family="sans-serif" font-size="7.8" lengthAdjust="spacing" textLength="4.2" x="606.6881" y="554.7296">1</text><text fill="#000000" font-family="sans-serif" font-size="7.8" lengthAdjust="spacing" textLength="12" x="597.9375" y="587.5816">1..*</text></g><!--MD5=[a698c596cdd6655449d58b0bccd42675]
link SurveyController to PersistenceContext--><g id="link_SurveyController_PersistenceContext"><path codeLine="125" d="M939.12,172.386 C965.532,190.86 994.596,211.2 1017.954,227.544 " fill="none" id="SurveyController-to-PersistenceContext" style="stroke:#181818;stroke-width:0.6;"/><polygon fill="#181818" points="1020.486,229.314,1017.4361,224.2526,1018.0275,227.5948,1014.6853,228.1862,1020.486,229.314" style="stroke:#181818;stroke-width:0.6;"/><text fill="#000000" font-family="sans-serif" font-size="7.8" lengthAdjust="spacing" textLength="25.8" x="976.8" y="198.8971">creates</text><text fill="#000000" font-family="sans-serif" font-size="7.8" lengthAdjust="spacing" textLength="4.2" x="940.9889" y="185.3224">1</text><text fill="#000000" font-family="sans-serif" font-size="7.8" lengthAdjust="spacing" textLength="4.2" x="1010.2641" y="223.0906">1</text></g><!--MD5=[754b775031405e096442b27febffa290]
link PersistenceContext to RepositoryFactory--><g id="link_PersistenceContext_RepositoryFactory"><path codeLine="128" d="M1079.454,290.226 C1094.256,317.382 1115.778,356.862 1129.11,381.318 " fill="none" id="PersistenceContext-to-RepositoryFactory" style="stroke:#181818;stroke-width:0.6;"/><polygon fill="#181818" points="1130.694,384.228,1130.2151,378.3381,1129.2574,381.5943,1126.0012,380.6366,1130.694,384.228" style="stroke:#181818;stroke-width:0.6;"/><text fill="#000000" font-family="sans-serif" font-size="7.8" lengthAdjust="spacing" textLength="25.8" x="1100.4" y="327.2971">creates</text><text fill="#000000" font-family="sans-serif" font-size="7.8" lengthAdjust="spacing" textLength="4.2" x="1077.0675" y="302.8565">1</text><text fill="#000000" font-family="sans-serif" font-size="7.8" lengthAdjust="spacing" textLength="4.2" x="1123.894" y="377.6824">1</text></g><!--MD5=[b2261c22df95718c10e32de77a70473c]
link RepositoryFactory to SurveyRepository--><g id="link_RepositoryFactory_SurveyRepository"><path codeLine="131" d="M1133.976,424.05 C1125.804,445.926 1112.52,481.5 1103.922,504.522 " fill="none" id="RepositoryFactory-to-SurveyRepository" style="stroke:#181818;stroke-width:0.6;"/><polygon fill="#181818" points="1102.794,507.546,1106.9302,503.3256,1103.8427,504.7353,1102.433,501.6477,1102.794,507.546" style="stroke:#181818;stroke-width:0.6;"/><text fill="#000000" font-family="sans-serif" font-size="7.8" lengthAdjust="spacing" textLength="25.8" x="1113" y="487.4971">creates</text><text fill="#000000" font-family="sans-serif" font-size="7.8" lengthAdjust="spacing" textLength="4.2" x="1128.1152" y="436.5953">1</text><text fill="#000000" font-family="sans-serif" font-size="7.8" lengthAdjust="spacing" textLength="4.2" x="1099.6446" y="501.0041">1</text></g><!--MD5=[27c386b89d1f950e5e021258cab32746]
link Survey to SurveyRepository--><g id="link_Survey_SurveyRepository"><path codeLine="134" d="M864.198,269.136 C919.284,279.216 991.086,300.894 1036.8,347.4 C1048.128,358.92 1076.886,459.114 1089.504,504.558 " fill="none" id="Survey-to-SurveyRepository" style="stroke:#181818;stroke-width:0.6;"/><polygon fill="#181818" points="1090.314,507.468,1091.191,501.6241,1089.5159,504.5761,1086.564,502.901,1090.314,507.468" style="stroke:#181818;stroke-width:0.6;"/><text fill="#000000" font-family="sans-serif" font-size="7.8" lengthAdjust="spacing" textLength="6" x="1077" y="407.3971">in</text><text fill="#000000" font-family="sans-serif" font-size="7.8" lengthAdjust="spacing" textLength="4.2" x="868.8402" y="267.9006">1</text><text fill="#000000" font-family="sans-serif" font-size="7.8" lengthAdjust="spacing" textLength="4.2" x="1084.6599" y="501.1398">1</text></g><!--MD5=[d769b586e604c84f6d6623f00448aeca]
@startuml
skinparam classAttributeIconSize 0

Class "AnswerToSurveyUI"{
}

Class "SurveyController"{
+buildQuestion(questionDTO)
+buildSection(sectionDTO)
+buildQuestionnaire(questionnaireDTO, fileFlag)
+cleanQuestionList()
+receiveSurveyString()
+receiveFullQuestionnaireString()
+saveSurvey()
}

Class "AlphanumericCode"{
-String code

+AlphanumericCode(String code)
+valueOf()
+firstName()
+lastName()
+equals(Object o)
+hashCode()
+toString()
}

Class "Description"{
-String value

+Description(String name)
+valueOf()
+length()
+equals(Object o)
+hashCode()
+toString()
}





Class "Period"{
     -String days
     +Period(String days)
     +valueOf(String prefix, String phoneNumber)
}
Class "Questionnaire"{
     -String id;
     -String title;
     -String welcomeMessage;
     -List<Section> sections;
     -String finalMessage;

+Questionnaire(id, title, welcomeMessage, sections, finalMessage)
}

class Content {
-String fullQuestionnaire;
-StringBuilder stringbuilder

+Content(questionnaire)
+Content(fullQuestionnaire)
+buildQuestionnaireSyntax(questionnaire)
+buildSectionSyntax(sections)
+buildQuestionSyntax(question)
+toString()

}



class Survey{
-AlphanumericCode alphanumericCode
-Description description
-Period period
-Questionnaire questionnaire
-Content content
}

class Answer{
 - Long id;
 - String answer;
 - String sectionID;
 - String questionID;
}

class PersistenceContext {
-Logger LOGGER
-RepositoryFactory theFactory
+repositories()
}

class RepositoryFactory{
+customers()
}

class SurveyRepository{
+findById(Long number)
}

AnswerToSurveyUI..> "SurveyController"


SurveyController - -> Survey





"AlphanumericCode" "1" <-u- "1" Survey : contains
"Description" "1" <-u- "1" Survey : contains
"Period" "1" <-u- "1" Survey : contains
"Questionnaire" "1" <-u- "1" Survey : contains
"Content" "1" <-u- "1" Survey : contains
"Answer" "0..*" <-u- "1" Survey : contains


"Questionnaire" "1" - -> "1..*" "Section" :contains

"Section" "1" - -> "1..*" "Question" :contains



"SurveyController" "1" - -> "1" "PersistenceContext" :creates


"PersistenceContext" "1" - -> "1" "RepositoryFactory" :creates


"RepositoryFactory" "1" - -> "1" "SurveyRepository"  :creates


"Survey" "1" - -> "1" "SurveyRepository" :in
@enduml

PlantUML version 1.2022.5(Sat Apr 30 11:55:52 BST 2022)
(GPL source distribution)
Java Runtime: OpenJDK Runtime Environment
JVM: OpenJDK 64-Bit Server VM
Default Encoding: Cp1252
Language: pt
Country: PT
--></g></svg>