<?xml version="1.0" encoding="UTF-8" standalone="no"?><svg xmlns="http://www.w3.org/2000/svg" xmlns:xlink="http://www.w3.org/1999/xlink" contentStyleType="text/css" height="424.2px" preserveAspectRatio="none" style="width:1530px;height:424px;background:#FFFFFF;" version="1.1" viewBox="0 0 1530 424" width="1530.6px" zoomAndPan="magnify"><defs/><g><rect fill="#FFFFFF" height="314.0391" style="stroke:#181818;stroke-width:0.6;" width="6" x="20.1" y="55.5656"/><rect fill="#FFFFFF" height="18.2109" style="stroke:#181818;stroke-width:0.6;" width="6" x="158.1" y="68.9766"/><rect fill="#FFFFFF" height="258.8063" style="stroke:#181818;stroke-width:0.6;" width="6" x="158.1" y="105.3984"/><rect fill="#FFFFFF" height="167.7516" style="stroke:#181818;stroke-width:0.6;" width="6" x="242.4" y="178.2422"/><rect fill="#FFFFFF" height="45.1313" style="stroke:#181818;stroke-width:0.6;" width="6" x="1249.5" y="202.4531"/><rect fill="#FFFFFF" height="43.7766" style="stroke:#181818;stroke-width:0.6;" width="6" x="1382.1" y="265.7953"/><rect fill="#FFFFFF" height="18.2109" style="stroke:#181818;stroke-width:0.6;" width="6" x="1485" y="327.7828"/><line style="stroke:#181818;stroke-width:0.3;stroke-dasharray:5.0,5.0;" x1="22.8" x2="22.8" y1="49.5656" y2="375.0047"/><line style="stroke:#181818;stroke-width:0.3;stroke-dasharray:5.0,5.0;" x1="160.8" x2="160.8" y1="49.5656" y2="375.0047"/><line style="stroke:#181818;stroke-width:0.3;stroke-dasharray:5.0,5.0;" x1="245.4" x2="245.4" y1="49.5656" y2="375.0047"/><line style="stroke:#181818;stroke-width:0.3;stroke-dasharray:5.0,5.0;" x1="313.8" x2="313.8" y1="49.5656" y2="375.0047"/><line style="stroke:#181818;stroke-width:0.3;stroke-dasharray:5.0,5.0;" x1="388.8" x2="388.8" y1="49.5656" y2="375.0047"/><line style="stroke:#181818;stroke-width:0.3;stroke-dasharray:5.0,5.0;" x1="467.4" x2="467.4" y1="49.5656" y2="375.0047"/><line style="stroke:#181818;stroke-width:0.3;stroke-dasharray:5.0,5.0;" x1="543" x2="543" y1="49.5656" y2="375.0047"/><line style="stroke:#181818;stroke-width:0.3;stroke-dasharray:5.0,5.0;" x1="631.2" x2="631.2" y1="49.5656" y2="375.0047"/><line style="stroke:#181818;stroke-width:0.3;stroke-dasharray:5.0,5.0;" x1="732" x2="732" y1="49.5656" y2="375.0047"/><line style="stroke:#181818;stroke-width:0.3;stroke-dasharray:5.0,5.0;" x1="819.6" x2="819.6" y1="49.5656" y2="375.0047"/><line style="stroke:#181818;stroke-width:0.3;stroke-dasharray:5.0,5.0;" x1="893.4" x2="893.4" y1="49.5656" y2="375.0047"/><line style="stroke:#181818;stroke-width:0.3;stroke-dasharray:5.0,5.0;" x1="958.8" x2="958.8" y1="49.5656" y2="375.0047"/><line style="stroke:#181818;stroke-width:0.3;stroke-dasharray:5.0,5.0;" x1="1001.4" x2="1001.4" y1="49.5656" y2="375.0047"/><line style="stroke:#181818;stroke-width:0.3;stroke-dasharray:5.0,5.0;" x1="1045.8" x2="1045.8" y1="49.5656" y2="375.0047"/><line style="stroke:#181818;stroke-width:0.3;stroke-dasharray:5.0,5.0;" x1="1091.4" x2="1091.4" y1="49.5656" y2="375.0047"/><line style="stroke:#181818;stroke-width:0.3;stroke-dasharray:5.0,5.0;" x1="1146.6" x2="1146.6" y1="49.5656" y2="375.0047"/><line style="stroke:#181818;stroke-width:0.3;stroke-dasharray:5.0,5.0;" x1="1252.2" x2="1252.2" y1="201.825" y2="375.0047"/><line style="stroke:#181818;stroke-width:0.3;stroke-dasharray:5.0,5.0;" x1="1384.8" x2="1384.8" y1="227.3906" y2="375.0047"/><line style="stroke:#181818;stroke-width:0.3;stroke-dasharray:5.0,5.0;" x1="1488" x2="1488" y1="289.3781" y2="375.0047"/><text fill="#000000" font-family="sans-serif" font-size="8.4" lengthAdjust="spacing" textLength="36.6" x="3" y="47.7199">Customer</text><ellipse cx="23.1" cy="8.1" fill="#E2E2F0" rx="4.8" ry="4.8" style="stroke:#181818;stroke-width:0.3;"/><path d="M23.1,12.9 L23.1,29.1 M15.3,17.7 L30.9,17.7 M23.1,29.1 L15.3,38.1 M23.1,29.1 L30.9,38.1 " fill="none" style="stroke:#181818;stroke-width:0.3;"/><text fill="#000000" font-family="sans-serif" font-size="8.4" lengthAdjust="spacing" textLength="36.6" x="3" y="383.1246">Customer</text><ellipse cx="23.1" cy="390.0703" fill="#E2E2F0" rx="4.8" ry="4.8" style="stroke:#181818;stroke-width:0.3;"/><path d="M23.1,394.8703 L23.1,411.0703 M15.3,399.6703 L30.9,399.6703 M23.1,411.0703 L15.3,420.0703 M23.1,411.0703 L30.9,420.0703 " fill="none" style="stroke:#181818;stroke-width:0.3;"/><rect fill="#E2E2F0" height="18.9656" rx="1.5" ry="1.5" style="stroke:#181818;stroke-width:0.3;" width="82.2" x="120" y="30"/><text fill="#000000" font-family="sans-serif" font-size="8.4" lengthAdjust="spacing" textLength="73.8" x="124.2" y="42.9199">:AnswerToSurveyUI</text><rect fill="#E2E2F0" height="18.9656" rx="1.5" ry="1.5" style="stroke:#181818;stroke-width:0.3;" width="82.2" x="120" y="374.4047"/><text fill="#000000" font-family="sans-serif" font-size="8.4" lengthAdjust="spacing" textLength="73.8" x="124.2" y="387.3246">:AnswerToSurveyUI</text><rect fill="#E2E2F0" height="18.9656" rx="1.5" ry="1.5" style="stroke:#181818;stroke-width:0.3;" width="74.4" x="208.2" y="30"/><text fill="#000000" font-family="sans-serif" font-size="8.4" lengthAdjust="spacing" textLength="66" x="212.4" y="42.9199">Survey Controller</text><rect fill="#E2E2F0" height="18.9656" rx="1.5" ry="1.5" style="stroke:#181818;stroke-width:0.3;" width="74.4" x="208.2" y="374.4047"/><text fill="#000000" font-family="sans-serif" font-size="8.4" lengthAdjust="spacing" textLength="66" x="212.4" y="387.3246">Survey Controller</text><rect fill="#E2E2F0" height="18.9656" rx="1.5" ry="1.5" style="stroke:#181818;stroke-width:0.3;" width="50.4" x="288.6" y="30"/><text fill="#000000" font-family="sans-serif" font-size="8.4" lengthAdjust="spacing" textLength="42" x="292.8" y="42.9199">:EvalVisitor</text><rect fill="#E2E2F0" height="18.9656" rx="1.5" ry="1.5" style="stroke:#181818;stroke-width:0.3;" width="50.4" x="288.6" y="374.4047"/><text fill="#000000" font-family="sans-serif" font-size="8.4" lengthAdjust="spacing" textLength="42" x="292.8" y="387.3246">:EvalVisitor</text><rect fill="#E2E2F0" height="18.9656" rx="1.5" ry="1.5" style="stroke:#181818;stroke-width:0.3;" width="88.2" x="345" y="30"/><text fill="#000000" font-family="sans-serif" font-size="8.4" lengthAdjust="spacing" textLength="79.8" x="349.2" y="42.9199">:QuestionDTOParser</text><rect fill="#E2E2F0" height="18.9656" rx="1.5" ry="1.5" style="stroke:#181818;stroke-width:0.3;" width="88.2" x="345" y="374.4047"/><text fill="#000000" font-family="sans-serif" font-size="8.4" lengthAdjust="spacing" textLength="79.8" x="349.2" y="387.3246">:QuestionDTOParser</text><rect fill="#E2E2F0" height="18.9656" rx="1.5" ry="1.5" style="stroke:#181818;stroke-width:0.3;" width="57" x="439.2" y="30"/><text fill="#000000" font-family="sans-serif" font-size="8.4" lengthAdjust="spacing" textLength="48.6" x="443.4" y="42.9199">:SectionDTO</text><rect fill="#E2E2F0" height="18.9656" rx="1.5" ry="1.5" style="stroke:#181818;stroke-width:0.3;" width="57" x="439.2" y="374.4047"/><text fill="#000000" font-family="sans-serif" font-size="8.4" lengthAdjust="spacing" textLength="48.6" x="443.4" y="387.3246">:SectionDTO</text><rect fill="#E2E2F0" height="18.9656" rx="1.5" ry="1.5" style="stroke:#181818;stroke-width:0.3;" width="82.2" x="502.2" y="30"/><text fill="#000000" font-family="sans-serif" font-size="8.4" lengthAdjust="spacing" textLength="73.8" x="506.4" y="42.9199">:SectionDTOParser</text><rect fill="#E2E2F0" height="18.9656" rx="1.5" ry="1.5" style="stroke:#181818;stroke-width:0.3;" width="82.2" x="502.2" y="374.4047"/><text fill="#000000" font-family="sans-serif" font-size="8.4" lengthAdjust="spacing" textLength="73.8" x="506.4" y="387.3246">:SectionDTOParser</text><rect fill="#E2E2F0" height="18.9656" rx="1.5" ry="1.5" style="stroke:#181818;stroke-width:0.3;" width="82.2" x="590.4" y="30"/><text fill="#000000" font-family="sans-serif" font-size="8.4" lengthAdjust="spacing" textLength="73.8" x="594.6" y="42.9199">:QuestionnaireDTO</text><rect fill="#E2E2F0" height="18.9656" rx="1.5" ry="1.5" style="stroke:#181818;stroke-width:0.3;" width="82.2" x="590.4" y="374.4047"/><text fill="#000000" font-family="sans-serif" font-size="8.4" lengthAdjust="spacing" textLength="73.8" x="594.6" y="387.3246">:QuestionnaireDTO</text><rect fill="#E2E2F0" height="18.9656" rx="1.5" ry="1.5" style="stroke:#181818;stroke-width:0.3;" width="107.4" x="678.6" y="30"/><text fill="#000000" font-family="sans-serif" font-size="8.4" lengthAdjust="spacing" textLength="99" x="682.8" y="42.9199">:QuestionnaireDTOParser</text><rect fill="#E2E2F0" height="18.9656" rx="1.5" ry="1.5" style="stroke:#181818;stroke-width:0.3;" width="107.4" x="678.6" y="374.4047"/><text fill="#000000" font-family="sans-serif" font-size="8.4" lengthAdjust="spacing" textLength="99" x="682.8" y="387.3246">:QuestionnaireDTOParser</text><rect fill="#E2E2F0" height="18.9656" rx="1.5" ry="1.5" style="stroke:#181818;stroke-width:0.3;" width="55.2" x="792" y="30"/><text fill="#000000" font-family="sans-serif" font-size="8.4" lengthAdjust="spacing" textLength="46.8" x="796.2" y="42.9199">:SurveyDTO</text><rect fill="#E2E2F0" height="18.9656" rx="1.5" ry="1.5" style="stroke:#181818;stroke-width:0.3;" width="55.2" x="792" y="374.4047"/><text fill="#000000" font-family="sans-serif" font-size="8.4" lengthAdjust="spacing" textLength="46.8" x="796.2" y="387.3246">:SurveyDTO</text><rect fill="#E2E2F0" height="18.9656" rx="1.5" ry="1.5" style="stroke:#181818;stroke-width:0.3;" width="80.4" x="853.2" y="30"/><text fill="#000000" font-family="sans-serif" font-size="8.4" lengthAdjust="spacing" textLength="72" x="857.4" y="42.9199">:SurveyDTOParser</text><rect fill="#E2E2F0" height="18.9656" rx="1.5" ry="1.5" style="stroke:#181818;stroke-width:0.3;" width="80.4" x="853.2" y="374.4047"/><text fill="#000000" font-family="sans-serif" font-size="8.4" lengthAdjust="spacing" textLength="72" x="857.4" y="387.3246">:SurveyDTOParser</text><rect fill="#E2E2F0" height="18.9656" rx="1.5" ry="1.5" style="stroke:#181818;stroke-width:0.3;" width="38.4" x="939.6" y="30"/><text fill="#000000" font-family="sans-serif" font-size="8.4" lengthAdjust="spacing" textLength="30" x="943.8" y="42.9199">Content</text><rect fill="#E2E2F0" height="18.9656" rx="1.5" ry="1.5" style="stroke:#181818;stroke-width:0.3;" width="38.4" x="939.6" y="374.4047"/><text fill="#000000" font-family="sans-serif" font-size="8.4" lengthAdjust="spacing" textLength="30" x="943.8" y="387.3246">Content</text><rect fill="#E2E2F0" height="18.9656" rx="1.5" ry="1.5" style="stroke:#181818;stroke-width:0.3;" width="34.8" x="984" y="30"/><text fill="#000000" font-family="sans-serif" font-size="8.4" lengthAdjust="spacing" textLength="26.4" x="988.2" y="42.9199">Survey</text><rect fill="#E2E2F0" height="18.9656" rx="1.5" ry="1.5" style="stroke:#181818;stroke-width:0.3;" width="34.8" x="984" y="374.4047"/><text fill="#000000" font-family="sans-serif" font-size="8.4" lengthAdjust="spacing" textLength="26.4" x="988.2" y="387.3246">Survey</text><rect fill="#E2E2F0" height="18.9656" rx="1.5" ry="1.5" style="stroke:#181818;stroke-width:0.3;" width="42.6" x="1024.8" y="30"/><text fill="#000000" font-family="sans-serif" font-size="8.4" lengthAdjust="spacing" textLength="34.2" x="1029" y="42.9199">Question</text><rect fill="#E2E2F0" height="18.9656" rx="1.5" ry="1.5" style="stroke:#181818;stroke-width:0.3;" width="42.6" x="1024.8" y="374.4047"/><text fill="#000000" font-family="sans-serif" font-size="8.4" lengthAdjust="spacing" textLength="34.2" x="1029" y="387.3246">Question</text><rect fill="#E2E2F0" height="18.9656" rx="1.5" ry="1.5" style="stroke:#181818;stroke-width:0.3;" width="36.6" x="1073.4" y="30"/><text fill="#000000" font-family="sans-serif" font-size="8.4" lengthAdjust="spacing" textLength="28.2" x="1077.6" y="42.9199">Section</text><rect fill="#E2E2F0" height="18.9656" rx="1.5" ry="1.5" style="stroke:#181818;stroke-width:0.3;" width="36.6" x="1073.4" y="374.4047"/><text fill="#000000" font-family="sans-serif" font-size="8.4" lengthAdjust="spacing" textLength="28.2" x="1077.6" y="387.3246">Section</text><rect fill="#E2E2F0" height="18.9656" rx="1.5" ry="1.5" style="stroke:#181818;stroke-width:0.3;" width="61.8" x="1116" y="30"/><text fill="#000000" font-family="sans-serif" font-size="8.4" lengthAdjust="spacing" textLength="53.4" x="1120.2" y="42.9199">Questionnaire</text><rect fill="#E2E2F0" height="18.9656" rx="1.5" ry="1.5" style="stroke:#181818;stroke-width:0.3;" width="61.8" x="1116" y="374.4047"/><text fill="#000000" font-family="sans-serif" font-size="8.4" lengthAdjust="spacing" textLength="53.4" x="1120.2" y="387.3246">Questionnaire</text><rect fill="#E2E2F0" height="18.9656" rx="1.5" ry="1.5" style="stroke:#181818;stroke-width:0.3;" width="137.4" x="1183.8" y="374.4047"/><text fill="#000000" font-family="sans-serif" font-size="8.4" lengthAdjust="spacing" textLength="129" x="1188" y="387.3246">:PersistenceContext&lt;persistence&gt;</text><rect fill="#E2E2F0" height="18.9656" rx="1.5" ry="1.5" style="stroke:#181818;stroke-width:0.3;" width="115.8" x="1327.2" y="374.4047"/><text fill="#000000" font-family="sans-serif" font-size="8.4" lengthAdjust="spacing" textLength="107.4" x="1331.4" y="387.3246">:RepositoryFactory&lt;factory&gt;</text><rect fill="#E2E2F0" height="18.9656" rx="1.5" ry="1.5" style="stroke:#181818;stroke-width:0.3;" width="78" x="1449" y="374.4047"/><text fill="#000000" font-family="sans-serif" font-size="8.4" lengthAdjust="spacing" textLength="69.6" x="1453.2" y="387.3246">:SurveyRepository</text><rect fill="#FFFFFF" height="314.0391" style="stroke:#181818;stroke-width:0.6;" width="6" x="20.1" y="55.5656"/><rect fill="#FFFFFF" height="18.2109" style="stroke:#181818;stroke-width:0.6;" width="6" x="158.1" y="68.9766"/><rect fill="#FFFFFF" height="258.8063" style="stroke:#181818;stroke-width:0.6;" width="6" x="158.1" y="105.3984"/><rect fill="#FFFFFF" height="167.7516" style="stroke:#181818;stroke-width:0.6;" width="6" x="242.4" y="178.2422"/><rect fill="#FFFFFF" height="45.1313" style="stroke:#181818;stroke-width:0.6;" width="6" x="1249.5" y="202.4531"/><rect fill="#FFFFFF" height="43.7766" style="stroke:#181818;stroke-width:0.6;" width="6" x="1382.1" y="265.7953"/><rect fill="#FFFFFF" height="18.2109" style="stroke:#181818;stroke-width:0.6;" width="6" x="1485" y="327.7828"/><polygon fill="#181818" points="150.9,66.5766,156.9,68.9766,150.9,71.3766,153.3,68.9766" style="stroke:#181818;stroke-width:0.6;"/><line style="stroke:#181818;stroke-width:0.6;" x1="26.1" x2="154.5" y1="68.9766" y2="68.9766"/><text fill="#000000" font-family="sans-serif" font-size="7.8" font-weight="bold" lengthAdjust="spacing" textLength="4.2" x="30.3" y="66.0627">1</text><text fill="#000000" font-family="sans-serif" font-size="7.8" lengthAdjust="spacing" textLength="60.6" x="36.9" y="66.0627">Answer to Survey</text><polygon fill="#181818" points="32.7,84.7875,26.7,87.1875,32.7,89.5875,30.3,87.1875" style="stroke:#181818;stroke-width:0.6;"/><line style="stroke:#181818;stroke-width:0.6;stroke-dasharray:2.0,2.0;" x1="29.1" x2="160.5" y1="87.1875" y2="87.1875"/><text fill="#000000" font-family="sans-serif" font-size="7.8" font-weight="bold" lengthAdjust="spacing" textLength="4.2" x="36.3" y="84.2736">2</text><text fill="#000000" font-family="sans-serif" font-size="7.8" lengthAdjust="spacing" textLength="102" x="42.9" y="84.2736">Show list of Survey to answer</text><polygon fill="#181818" points="150.9,102.9984,156.9,105.3984,150.9,107.7984,153.3,105.3984" style="stroke:#181818;stroke-width:0.6;"/><line style="stroke:#181818;stroke-width:0.6;" x1="26.1" x2="154.5" y1="105.3984" y2="105.3984"/><text fill="#000000" font-family="sans-serif" font-size="7.8" font-weight="bold" lengthAdjust="spacing" textLength="4.2" x="30.3" y="102.4846">3</text><text fill="#000000" font-family="sans-serif" font-size="7.8" lengthAdjust="spacing" textLength="114" x="36.9" y="102.4846">begins answering to the question</text><polygon fill="#181818" points="306.6,121.2094,312.6,123.6094,306.6,126.0094,309,123.6094" style="stroke:#181818;stroke-width:0.6;"/><line style="stroke:#181818;stroke-width:0.6;" x1="164.1" x2="310.2" y1="123.6094" y2="123.6094"/><text fill="#000000" font-family="sans-serif" font-size="7.8" font-weight="bold" lengthAdjust="spacing" textLength="4.2" x="168.3" y="120.6955">4</text><text fill="#000000" font-family="sans-serif" font-size="7.8" lengthAdjust="spacing" textLength="44.4" x="174.9" y="120.6955">visitSection()</text><polygon fill="#181818" points="306.6,139.4203,312.6,141.8203,306.6,144.2203,309,141.8203" style="stroke:#181818;stroke-width:0.6;"/><line style="stroke:#181818;stroke-width:0.6;" x1="164.1" x2="310.2" y1="141.8203" y2="141.8203"/><text fill="#000000" font-family="sans-serif" font-size="7.8" font-weight="bold" lengthAdjust="spacing" textLength="4.2" x="168.3" y="138.9064">5</text><text fill="#000000" font-family="sans-serif" font-size="7.8" lengthAdjust="spacing" textLength="49.2" x="174.9" y="138.9064">visitQuestion()</text><polygon fill="#181818" points="306.6,157.6313,312.6,160.0313,306.6,162.4313,309,160.0313" style="stroke:#181818;stroke-width:0.6;"/><line style="stroke:#181818;stroke-width:0.6;" x1="164.1" x2="310.2" y1="160.0313" y2="160.0313"/><text fill="#000000" font-family="sans-serif" font-size="7.8" font-weight="bold" lengthAdjust="spacing" textLength="4.2" x="168.3" y="157.1174">6</text><text fill="#000000" font-family="sans-serif" font-size="7.8" lengthAdjust="spacing" textLength="70.2" x="174.9" y="157.1174">treatObligatoriness()</text><polygon fill="#181818" points="306.6,175.8422,312.6,178.2422,306.6,180.6422,309,178.2422" style="stroke:#181818;stroke-width:0.6;"/><line style="stroke:#181818;stroke-width:0.6;" x1="164.1" x2="310.2" y1="178.2422" y2="178.2422"/><text fill="#000000" font-family="sans-serif" font-size="7.8" font-weight="bold" lengthAdjust="spacing" textLength="4.2" x="168.3" y="175.3283">7</text><text fill="#000000" font-family="sans-serif" font-size="7.8" lengthAdjust="spacing" textLength="68.4" x="174.9" y="175.3283">treatQuestionTyoe()</text><polygon fill="#181818" points="1176.6,194.0531,1182.6,196.4531,1176.6,198.8531,1179,196.4531" style="stroke:#181818;stroke-width:0.6;"/><line style="stroke:#181818;stroke-width:0.6;" x1="248.4" x2="1180.2" y1="196.4531" y2="196.4531"/><text fill="#000000" font-family="sans-serif" font-size="7.8" font-weight="bold" lengthAdjust="spacing" textLength="4.2" x="252.6" y="193.5393">8</text><text fill="#000000" font-family="sans-serif" font-size="7.8" lengthAdjust="spacing" textLength="45" x="259.2" y="193.5393">repositories()</text><rect fill="#E2E2F0" height="18.9656" rx="1.5" ry="1.5" style="stroke:#181818;stroke-width:0.3;" width="137.4" x="1183.8" y="183.0422"/><text fill="#000000" font-family="sans-serif" font-size="8.4" lengthAdjust="spacing" textLength="129" x="1188" y="195.9621">:PersistenceContext&lt;persistence&gt;</text><polygon fill="#181818" points="1320,219.6188,1326,222.0187,1320,224.4188,1322.4,222.0187" style="stroke:#181818;stroke-width:0.6;"/><line style="stroke:#181818;stroke-width:0.6;" x1="1255.5" x2="1323.6" y1="222.0187" y2="222.0187"/><text fill="#000000" font-family="sans-serif" font-size="7.8" font-weight="bold" lengthAdjust="spacing" textLength="4.2" x="1259.7" y="219.1049">9</text><text fill="#000000" font-family="sans-serif" font-size="7.8" lengthAdjust="spacing" textLength="21.6" x="1266.3" y="219.1049">create</text><rect fill="#E2E2F0" height="18.9656" rx="1.5" ry="1.5" style="stroke:#181818;stroke-width:0.3;" width="115.8" x="1327.2" y="208.6078"/><text fill="#000000" font-family="sans-serif" font-size="8.4" lengthAdjust="spacing" textLength="107.4" x="1331.4" y="221.5277">:RepositoryFactory&lt;factory&gt;</text><polygon fill="#181818" points="255,245.1844,249,247.5844,255,249.9844,252.6,247.5844" style="stroke:#181818;stroke-width:0.6;"/><line style="stroke:#181818;stroke-width:0.6;" x1="251.4" x2="1251.9" y1="247.5844" y2="247.5844"/><text fill="#000000" font-family="sans-serif" font-size="7.8" font-weight="bold" lengthAdjust="spacing" textLength="8.4" x="258.6" y="244.6705">10</text><text fill="#000000" font-family="sans-serif" font-size="7.8" lengthAdjust="spacing" textLength="23.4" x="269.4" y="244.6705">factory</text><polygon fill="#181818" points="1374.9,263.3953,1380.9,265.7953,1374.9,268.1953,1377.3,265.7953" style="stroke:#181818;stroke-width:0.6;"/><line style="stroke:#181818;stroke-width:0.6;" x1="248.4" x2="1378.5" y1="265.7953" y2="265.7953"/><text fill="#000000" font-family="sans-serif" font-size="7.8" font-weight="bold" lengthAdjust="spacing" textLength="8.4" x="252.6" y="262.8814">11</text><text fill="#000000" font-family="sans-serif" font-size="7.8" lengthAdjust="spacing" textLength="31.2" x="263.4" y="262.8814">surveys()</text><polygon fill="#181818" points="1441.8,281.6063,1447.8,284.0062,1441.8,286.4063,1444.2,284.0062" style="stroke:#181818;stroke-width:0.6;"/><line style="stroke:#181818;stroke-width:0.6;" x1="1388.1" x2="1445.4" y1="284.0062" y2="284.0062"/><text fill="#000000" font-family="sans-serif" font-size="7.8" font-weight="bold" lengthAdjust="spacing" textLength="8.4" x="1392.3" y="281.0924">12</text><text fill="#000000" font-family="sans-serif" font-size="7.8" lengthAdjust="spacing" textLength="21.6" x="1403.1" y="281.0924">create</text><rect fill="#E2E2F0" height="18.9656" rx="1.5" ry="1.5" style="stroke:#181818;stroke-width:0.3;" width="78" x="1449" y="270.5953"/><text fill="#000000" font-family="sans-serif" font-size="8.4" lengthAdjust="spacing" textLength="69.6" x="1453.2" y="283.5152">:SurveyRepository</text><polygon fill="#181818" points="255,307.1719,249,309.5719,255,311.9719,252.6,309.5719" style="stroke:#181818;stroke-width:0.6;"/><line style="stroke:#181818;stroke-width:0.6;" x1="251.4" x2="1384.5" y1="309.5719" y2="309.5719"/><text fill="#000000" font-family="sans-serif" font-size="7.8" font-weight="bold" lengthAdjust="spacing" textLength="8.4" x="258.6" y="306.658">13</text><text fill="#000000" font-family="sans-serif" font-size="7.8" lengthAdjust="spacing" textLength="59.4" x="269.4" y="306.658">surveyRepository</text><polygon fill="#181818" points="1477.8,325.3828,1483.8,327.7828,1477.8,330.1828,1480.2,327.7828" style="stroke:#181818;stroke-width:0.6;"/><line style="stroke:#181818;stroke-width:0.6;" x1="248.4" x2="1481.4" y1="327.7828" y2="327.7828"/><text fill="#000000" font-family="sans-serif" font-size="7.8" font-weight="bold" lengthAdjust="spacing" textLength="8.4" x="252.6" y="324.8689">14</text><text fill="#000000" font-family="sans-serif" font-size="7.8" lengthAdjust="spacing" textLength="42.6" x="263.4" y="324.8689">save(survey)</text><polygon fill="#181818" points="170.7,343.5938,164.7,345.9938,170.7,348.3938,168.3,345.9938" style="stroke:#181818;stroke-width:0.6;"/><line style="stroke:#181818;stroke-width:0.6;" x1="167.1" x2="244.8" y1="345.9938" y2="345.9938"/><text fill="#000000" font-family="sans-serif" font-size="7.8" font-weight="bold" lengthAdjust="spacing" textLength="8.4" x="174.3" y="343.0799">15</text><text fill="#000000" font-family="sans-serif" font-size="7.8" lengthAdjust="spacing" textLength="42.6" x="185.1" y="343.0799">surveyString</text><polygon fill="#181818" points="32.7,361.8047,26.7,364.2047,32.7,366.6047,30.3,364.2047" style="stroke:#181818;stroke-width:0.6;"/><line style="stroke:#181818;stroke-width:0.6;" x1="29.1" x2="160.5" y1="364.2047" y2="364.2047"/><text fill="#000000" font-family="sans-serif" font-size="7.8" font-weight="bold" lengthAdjust="spacing" textLength="8.4" x="36.3" y="361.2908">16</text><text fill="#000000" font-family="sans-serif" font-size="7.8" lengthAdjust="spacing" textLength="96" x="47.1" y="361.2908">presents the survey created</text><!--MD5=[ce4349db798b28588a3f7f5202d5bf0a]
@startuml
autonumber
actor "Customer" as MEDLT
participant ":AnswerToSurveyUI" as SYS
participant "Survey Controller" as CTRL
participant ":EvalVisitor" as EVAL
participant ":QuestionDTOParser" as QDTOP
participant ":SectionDTO" as SDTO
participant ":SectionDTOParser" as SDTOP
participant ":QuestionnaireDTO" as QTDTO
participant ":QuestionnaireDTOParser" as QTDTOP
participant ":SurveyDTO" as SURDTO
participant ":SurveyDTOParser" as SURDTOP
participant "Content" as CONTENT
participant "Survey" as SUR
participant "Question" as QUESTION
participant "Section" as SECTION
participant "Questionnaire" as QUESTIONNAIRE
participant ":PersistenceContext<persistence>" as PC
participant ":RepositoryFactory<factory>" as RF
participant ":SurveyRepository" as CR



activate MEDLT
MEDLT-> SYS : Answer to Survey

activate SYS
SYS - -> MEDLT : Show list of Survey to answer

deactivate SYS


MEDLT-> SYS : begins answering to the question
activate SYS

SYS->EVAL : visitSection()

SYS->EVAL : visitQuestion()

SYS->EVAL : treatObligatoriness()

SYS->EVAL : treatQuestionTyoe()



activate CTRL


CTRL-> PC**: repositories()
activate PC
PC-> RF**: create
PC-> CTRL: factory
deactivate PC

CTRL-> RF: surveys()
activate RF
RF->CR**: create

RF->CTRL: surveyRepository
deactivate RF

CTRL->CR: save(survey)
activate CR

CTRL->SYS:surveyString
deactivate CR
deactivate CTRL

deactivate PC







deactivate CTRL
SYS -> MEDLT : presents the survey created
deactivate SYS
@enduml

PlantUML version 1.2022.5(Sat Apr 30 11:55:52 BST 2022)
(GPL source distribution)
Java Runtime: OpenJDK Runtime Environment
JVM: OpenJDK 64-Bit Server VM
Default Encoding: Cp1252
Language: pt
Country: PT
--></g></svg>